<svg xmlns="http://www.w3.org/2000/svg" xmlns:xlink="http://www.w3.org/1999/xlink" viewBox="0 0 2544.6399 1697.28">
  <defs>
    <clipPath id="temp-95.svg">
      <path id="temp-95.svg"
      	d="m 1150.72,1425.6 c -0.792,-0.1231 104.58,-0.2455 234.1599,-0.2719 156.8854,-0.032 235.6,0.059 235.6,0.2719 0,0.3685 -467.3898,0.3685 -469.7599,0 z m 471.0399,-0.3087 c 0,-0.1699 0.288,-0.4629 0.64,-0.6513 0.5012,-0.2682 0.64,-0.2434 0.64,0.1145 0,0.2514 -0.2277,0.5444 -0.5061,0.6513 -0.6798,0.2608 -0.7739,0.2469 -0.7739,-0.1145 z m -471.1199,-0.9097 c 2.1661,-0.1567 1.5793,-0.606 -1.12,-0.8574 -3.4199,-0.3185 -3.5123,-0.3916 -3.7409,-2.9617 -0.4228,-4.7521 -0.4246,-4.8931 -0.06,-4.8497 1.0363,0.1235 1.1006,-0.099 1.2374,-4.2728 0.1301,-3.9732 0.5619,-5.99 1.2839,-5.9975 0.3323,0 0.3018,0.5615 -0.042,0.7739 -0.3687,0.2278 -0.6641,1.7836 -0.3387,1.7836 0.138,0 0.4172,-0.504 0.6205,-1.12 0.2033,-0.616 0.5024,-1.12 0.6648,-1.12 0.1623,0 0.3065,-0.828 0.3204,-1.84 0.014,-1.012 0.098,-1.66 0.1867,-1.44 0.2499,0.6193 0.7481,0.4721 0.7481,-0.2211 0,-0.3416 0.144,-0.7101 0.32,-0.8189 0.4686,-0.2896 0.3903,-0.8 -0.1227,-0.8 -0.2435,0 -0.5468,0.324 -0.674,0.72 -0.2092,0.6516 -0.2462,0.6628 -0.3888,0.1183 -0.2052,-0.7837 0.4807,-1.2044 1.5855,-0.9723 l 0.88,0.1848 v -2.7454 -2.7454 h 1.28 1.28 v -2.3553 c 0,-2.998 0.3165,-5.3247 0.7243,-5.3247 0.1911,0 0.236,0.5094 0.1128,1.28 -0.1255,0.7848 -0.079,1.28 0.1191,1.28 0.1781,0 0.3238,-0.3482 0.3238,-0.7738 0,-1.1047 0.3183,-1.7862 0.8342,-1.7862 0.4349,0 0.6839,-2.6659 0.4928,-5.2755 -0.092,-1.2555 0.5548,-0.6624 0.9223,0.8459 l 0.2607,1.0696 0.016,-1.12 c 0.027,-1.8391 0.3969,-3.2 0.8699,-3.2 0.4294,0 0.6281,-2.4967 0.5224,-6.56 -0.029,-1.1204 -0.01,-1.1636 0.184,-0.3464 0.2237,0.9612 1.0173,1.549 1.0173,0.7534 0,-0.2455 0.288,-0.7554 0.64,-1.1333 0.5227,-0.561 0.64,-1.1293 0.64,-3.1003 v -2.4134 h 1.2344 1.2344 l 0.1691,-1.84 c 0.093,-1.012 0.1494,-2.74 0.1253,-3.84 -0.031,-1.4108 0.074,-2 0.3565,-2 0.3888,0 0.4724,0.6763 0.4548,3.68 -0.01,1.0506 0.05,0.9359 0.314,-0.64 0.1768,-1.056 0.5262,-2.1473 0.7765,-2.4252 0.2502,-0.2778 0.455,-1.0399 0.455,-1.6934 0,-0.7534 0.2387,-1.4444 0.6524,-1.8884 0.3588,-0.3852 0.7344,-1.0271 0.8347,-1.4266 0.1002,-0.3995 0.3605,-0.7264 0.5784,-0.7264 0.3891,0 0.7991,-4.8376 0.8247,-9.7302 0.01,-1.6645 0.071,-1.87 0.4245,-1.4045 0.2966,0.3903 0.3458,1.0269 0.1732,2.24 -0.3468,2.4369 -0.3354,3.7747 0.032,3.7747 0.1843,0 0.32,-0.9974 0.32,-2.3523 0,-1.2937 0.1591,-2.8087 0.3536,-3.3666 0.268,-0.7687 0.2585,-1.1292 -0.039,-1.4878 -0.3203,-0.3858 -0.2934,-0.4733 0.1452,-0.4733 0.2959,0 0.4491,0.144 0.3403,0.32 -0.1088,0.176 -0.065,0.32 0.097,0.32 0.1623,0 0.3746,-0.9 0.4717,-2 0.1716,-1.9429 0.7837,-3.7524 1.271,-3.7575 0.3323,0 0.3018,0.5615 -0.042,0.7739 -0.3686,0.2278 -0.664,1.7836 -0.3387,1.7836 0.138,0 0.4172,-0.504 0.6205,-1.12 0.2033,-0.616 0.5025,-1.12 0.6648,-1.12 0.1624,0 0.2952,-1.224 0.2952,-2.72 v -2.72 h 1.28 1.28 v -2.56 c 0,-1.8991 0.1084,-2.56 0.4198,-2.56 0.2309,0 0.753,-0.4506 1.1602,-1.0013 0.8626,-1.1668 1.4577,-5.2503 1.1249,-7.7187 -0.1469,-1.0891 -0.095,-1.52 0.1824,-1.52 0.2406,0 0.3294,0.3031 0.2344,0.8 -0.084,0.44 -0.01,0.8 0.1674,0.8 0.1971,0 0.2505,0.6776 0.1388,1.76 -0.1,0.968 -0.065,1.76 0.078,1.76 0.4299,0 0.7551,-3.5467 0.3614,-3.9404 -0.4734,-0.4734 -0.4395,-1.2196 0.052,-1.1557 1.0678,0.1387 1.2008,-0.062 1.2371,-1.8639 0.02,-1.012 0.103,-1.588 0.1835,-1.28 0.1709,0.6541 1.0594,0.7628 1.0594,0.1296 0,-0.2367 -0.288,-0.691 -0.64,-1.0096 -0.9427,-0.8531 -0.7901,-1.12 0.64,-1.12 h 1.28 v -1.28 c 0,-0.704 0.1272,-1.28 0.2827,-1.28 0.1554,0 0.3737,-0.252 0.4851,-0.56 0.1113,-0.308 0.414,-0.92 0.6726,-1.36 0.2586,-0.44 0.4723,-1.34 0.4749,-2 0,-0.66 0.1487,-1.2 0.3247,-1.2 0.1866,0 0.32,-1.0667 0.32,-2.56 0,-1.7026 0.1221,-2.56 0.3647,-2.56 0.3723,0 1.2067,-0.9262 1.2251,-1.36 0.01,-0.132 -0.1882,-0.24 -0.4306,-0.24 -0.2425,0 -0.6374,-0.2368 -0.8775,-0.5261 -0.3882,-0.4678 -0.357,-0.5009 0.2808,-0.2985 0.3946,0.1252 1.0055,0.1363 1.3575,0.025 0.5942,-0.1886 0.64,-0.4841 0.64,-4.1332 0,-4.7661 0.316,-8.8268 0.6869,-8.8268 0.3852,0 0.3417,3.1199 -0.047,3.36 -0.176,0.1088 -0.32,0.5493 -0.32,0.9789 0,0.4296 0.144,0.7811 0.32,0.7811 0.176,0 0.3246,-0.324 0.3302,-0.72 0.01,-0.396 0.2216,-0.9995 0.48,-1.3411 0.2584,-0.3417 0.4698,-1.1577 0.4698,-1.8134 0,-0.6556 0.1404,-1.2401 0.3121,-1.2988 0.1716,-0.059 0.3394,-0.8888 0.3728,-1.8447 0.036,-1.0324 0.263,-1.9743 0.559,-2.32 0.6055,-0.7071 0.9961,-0.7471 0.9961,-0.102 0,0.264 -0.144,0.48 -0.32,0.48 -0.176,0 -0.3109,0.324 -0.2997,0.72 l 0.02,0.72 0.2773,-0.6872 c 0.1525,-0.378 0.4251,-0.7786 0.6057,-0.8903 0.1807,-0.1116 0.2474,-0.4143 0.1482,-0.6727 -0.099,-0.2584 -0.021,-0.4698 0.174,-0.4698 0.2,0 0.3543,-0.5575 0.3543,-1.28 v -1.28 h 1.28 1.28 v -2.56 c 0,-1.408 0.077,-2.56 0.1712,-2.56 0.094,0 0.5216,0.2296 0.9498,0.5101 0.4281,0.2806 0.9631,0.4359 1.1887,0.3453 0.2573,-0.1034 0.2015,-0.1742 -0.1497,-0.1901 -0.664,-0.03 -0.7659,-0.6653 -0.1067,-0.6653 0.2493,0 0.526,-0.18 0.6147,-0.4 0.1291,-0.32 0.1665,-0.32 0.1867,0 0.045,0.7152 0.665,0.4215 0.6754,-0.32 0.012,-0.8253 0.6872,-1.84 1.2251,-1.84 0.2643,0 0.3648,-2.4675 0.3648,-8.96 v -8.96 h 1.28 1.28 V 1248 c 0,-0.704 0.108,-1.2809 0.24,-1.282 0.3219,0 1.36,-1.8529 1.36,-2.4239 0,-0.2497 -0.1395,-0.4541 -0.31,-0.4541 -0.1705,0 -0.2374,0.1891 -0.1487,0.4202 0.089,0.2311 -0.1233,0.6777 -0.471,0.9924 -0.6183,0.5596 -0.6269,0.5521 -0.3887,-0.3386 0.135,-0.5049 0.097,-1.2983 -0.085,-1.7802 -0.4004,-1.0608 0.013,-1.5955 0.6056,-0.7842 0.293,0.4006 0.6422,0.5212 1.0939,0.3779 0.9322,-0.2959 0.825,-0.7405 -0.2165,-0.8983 l -0.88,-0.1333 0.8545,-0.048 c 0.6713,-0.038 0.8995,-0.2522 1.0637,-1.0002 0.1151,-0.5237 0.1263,-1.0862 0.025,-1.2501 -0.1014,-0.1642 0.1034,-0.2228 0.4563,-0.1305 0.7509,0.1964 0.8524,0.9916 0.1604,1.2571 -0.264,0.1013 -0.48,0.3848 -0.48,0.63 0,0.6345 0.1463,0.5702 1.278,-0.5614 0.7683,-0.7684 0.9069,-1.0708 0.5846,-1.2751 -0.2923,-0.1854 -0.175,-0.2695 0.3805,-0.2729 0.4524,0 0.9775,-0.2843 1.2027,-0.6449 0.2198,-0.352 0.5964,-0.64 0.8369,-0.64 0.6964,0 0.789,-1.2985 0.6542,-9.1664 l -0.1269,-7.4064 1.275,0.065 1.275,0.065 v -1.3786 -1.3787 H 788.47975 360.95976 v -551.67997 -551.68 H 621.5731 c 539.7696,6.48659 777.9098,0.002 1115.5468,1.7e-4 h 277.6 v 551.68 551.68 h -138.24 c -138.0266,0 -138.24,0 -138.24,0.64 0,0.352 -0.1608,0.64 -0.3573,0.64 -0.205,0 -0.2827,-0.2853 -0.1823,-0.6694 0.1624,-0.6207 0.1341,-0.6323 -0.3878,-0.16 -0.3096,0.2802 -0.8036,0.5094 -1.0978,0.5094 -0.2941,0 -0.5348,0.144 -0.5348,0.32 0,0.176 0.2835,0.32 0.63,0.32 0.4285,0 0.571,0.1535 0.4457,0.48 -0.1013,0.264 -0.3727,0.48 -0.6033,0.48 -0.2304,0 -0.4917,0.18 -0.5804,0.4 -0.1292,0.32 -0.1665,0.32 -0.1867,0 -0.043,-0.6745 -0.9853,-0.4449 -0.9853,0.24 0,0.4267 -0.2133,0.64 -0.64,0.64 -0.7894,0 -0.8319,0.4964 -0.08,0.9344 0.5334,0.3106 0.5334,0.3266 0,0.3359 -0.3434,0.01 -0.56,0.2572 -0.56,0.6497 0,0.352 -0.1608,0.64 -0.3573,0.64 -0.205,0 -0.2827,-0.2853 -0.1823,-0.6694 0.1624,-0.6207 0.1341,-0.6323 -0.3878,-0.16 -0.3096,0.2802 -0.8036,0.5094 -1.0978,0.5094 -0.2941,0 -0.5348,0.144 -0.5348,0.32 0,0.176 0.2835,0.32 0.63,0.32 0.4285,0 0.571,0.1535 0.4457,0.48 -0.1322,0.3446 -0.6711,0.48 -1.9099,0.48 h -1.7258 v 1.28 1.28 h -1.28 -1.28 v 1.28 1.28 h -1.28 c -1.2769,0 -1.28,0 -1.28,1.2616 0,1.2555 -0.01,1.2621 -1.36,1.36 -1.1952,0.086 -1.3507,0.1856 -1.2837,0.8184 0.08,0.7552 -0.4078,1.0053 -0.6345,0.3254 -0.076,-0.2297 -0.7901,0.2889 -1.7066,1.2403 -0.8664,0.8992 -1.8632,1.7924 -2.2152,1.9849 -0.5802,0.3172 -0.5488,0.3508 0.336,0.3597 0.5368,0.01 1.1488,-0.1631 1.36,-0.3743 0.2987,-0.2987 0.384,-0.2631 0.384,0.16 0,0.4194 -0.287,0.544 -1.2533,0.544 -0.7032,0 -1.3242,0.1756 -1.4147,0.4 -0.1292,0.32 -0.1665,0.32 -0.1867,0 -0.041,-0.6476 -0.8956,-0.4573 -1.078,0.24 -0.092,0.352 -0.3968,0.64 -0.6773,0.64 -0.2805,0 -0.51,0.2316 -0.51,0.5147 0,0.3892 0.1951,0.4657 0.8,0.3139 0.4613,-0.1158 0.8,-0.063 0.8,0.1253 0,0.1793 -0.348,0.3261 -0.7733,0.3261 -0.4253,0 -0.846,0.18 -0.9347,0.4 -0.1292,0.32 -0.1665,0.32 -0.1867,0 -0.041,-0.6476 -0.8956,-0.4573 -1.078,0.24 -0.092,0.352 -0.3968,0.64 -0.6773,0.64 -0.2805,0 -0.51,0.2316 -0.51,0.5147 0,0.3892 0.1951,0.4657 0.8,0.3139 0.4613,-0.1158 0.8,-0.063 0.8,0.1253 0,0.188 -0.8807,0.3261 -2.08,0.3261 h -2.08 v 1.28 1.28 h -1.41 c -1.256,0 -1.3916,0.071 -1.2415,0.6448 0.1327,0.5073 0.052,0.5999 -0.379,0.4346 -0.3641,-0.1398 -0.8103,0.073 -1.3315,0.6352 -0.593,0.6395 -1.0924,0.8454 -2.0509,0.8454 -1.2649,0 -1.2671,0 -1.2671,1.28 v 1.28 h -1.2939 c -0.9369,0 -1.5321,0.2208 -2.1568,0.8 -0.604,0.5601 -0.715,0.8 -0.37,0.8 0.271,0 0.6655,-0.1728 0.8767,-0.384 0.2987,-0.2987 0.384,-0.2228 0.384,0.3416 0,0.5693 -0.132,0.6836 -0.613,0.5309 -0.3372,-0.107 -0.7057,-0.045 -0.8189,0.1385 -0.1132,0.1831 -0.9893,0.333 -1.9469,0.333 h -1.7412 v 1.28 1.28 h -1.4299 c -1.167,0 -1.3946,0.092 -1.2375,0.5016 0.273,0.7113 -0.5298,2.0584 -1.2266,2.0584 -0.5499,0 -0.5466,-0.039 0.054,-0.64 0.352,-0.352 0.64,-0.8123 0.64,-1.0228 0,-0.2105 -0.4748,0.078 -1.0552,0.64 -0.5804,0.5625 -1.1412,1.0228 -1.2462,1.0228 -0.3513,0 -2.1786,1.8522 -2.1786,2.2084 0,0.2009 -0.5894,0.3516 -1.3757,0.3516 h -1.3758 l 0.1308,1.12 c 0.1149,0.9845 0.044,1.12 -0.5834,1.12 -0.6036,0 -0.6515,-0.075 -0.3094,-0.4877 0.5713,-0.6885 0.2538,-0.8538 -0.7473,-0.3889 -0.7662,0.3557 -0.8544,0.5697 -0.8567,2.0766 v 1.68 h -1.28 -1.28 l -0.022,2.48 c -0.012,1.364 -0.1409,2.768 -0.2856,3.12 l -0.2632,0.64 -0.2603,-0.64 c -0.2329,-0.5728 -0.2825,-0.5391 -0.4721,0.32 -0.1165,0.528 -0.2669,1.158 -0.3341,1.4 -0.067,0.242 0.047,0.5022 0.2526,0.5783 0.2453,0.09 0.3168,-0.117 0.2071,-0.6 -0.1068,-0.47 0.077,-0.3026 0.5051,0.4605 0.7166,1.2765 0.8676,2.1612 0.3689,2.1612 -0.1672,0 -0.4341,-0.2324 -0.5931,-0.5164 -0.1973,-0.3526 -0.5071,-0.4473 -0.9759,-0.2985 -0.9531,0.3025 -0.8584,0.7464 0.1931,0.9057 l 0.88,0.1333 -0.88,0.048 c -0.7759,0.042 -0.88,0.1751 -0.88,1.1232 0,1.8499 -0.3931,4.0447 -0.7244,4.0447 -0.1911,0 -0.2359,-0.5094 -0.1127,-1.28 0.1255,-0.7848 0.079,-1.28 -0.1191,-1.28 -0.1781,0 -0.3238,0.3482 -0.3238,0.7738 0,1.1047 -0.3183,1.7862 -0.8342,1.7862 -0.3582,0 -0.4458,0.8182 -0.4458,4.1644 0,2.7739 -0.1335,4.3798 -0.4,4.8097 -0.3297,0.532 -0.3156,0.6991 0.08,0.9508 0.264,0.1679 0.3177,0.3075 0.1192,0.3102 -0.1984,0 -0.5423,-0.2138 -0.7642,-0.4811 -0.3301,-0.3978 -0.2988,-0.6015 0.1722,-1.122 0.9759,-1.0783 0.2931,-1.0431 -0.7908,0.041 -0.7785,0.7786 -0.921,1.0853 -0.5989,1.2895 0.3196,0.2027 0.3251,0.2691 0.022,0.2728 -0.2854,0 -0.4,0.72 -0.4,2.5009 0,1.3728 -0.13,2.6328 -0.289,2.8 -0.1589,0.1672 -0.3582,0.592 -0.4428,0.944 -0.1164,0.4837 -0.163,0.4251 -0.1911,-0.24 -0.042,-1.0052 -0.6771,-1.2207 -0.6771,-0.23 0,0.3576 -0.216,0.733 -0.48,0.8343 -0.3822,0.1466 -0.48,0.8335 -0.48,3.3715 0,2.8851 -0.053,3.1717 -0.56,3.0223 -0.4207,-0.1239 -0.7405,0.2091 -1.2855,1.3385 -0.5717,1.1846 -0.7297,2.0802 -0.7453,4.2234 -0.011,1.496 -0.092,2.54 -0.1812,2.32 -0.2506,-0.6211 -0.9747,-0.4714 -1.1607,0.24 -0.092,0.352 -0.3969,0.64 -0.6774,0.64 -0.2805,0 -0.5099,0.2316 -0.5099,0.5147 0,0.3892 0.195,0.4657 0.8,0.3139 0.4613,-0.1158 0.8,-0.063 0.8,0.1253 0,0.1793 -0.36,0.3261 -0.8,0.3261 -0.725,0 -0.8018,0.1276 -0.8185,1.36 -0.01,0.748 -0.1241,1.936 -0.2532,2.64 -0.1304,0.7107 -0.093,1.666 0.084,2.1478 0.3903,1.0624 -0.024,1.5903 -0.615,0.7827 -0.2929,-0.4006 -0.6422,-0.5213 -1.0938,-0.378 -0.9322,0.2959 -0.8251,0.7405 0.2165,0.8983 l 0.88,0.1333 -0.88,0.048 c -0.8679,0.047 -0.8801,0.078 -0.8849,2.2079 0,1.188 -0.1285,2.3551 -0.2796,2.5935 -0.1589,0.2507 -0.1291,0.819 0.07,1.3477 0.4139,1.0968 0.016,1.6568 -0.5887,0.8293 -0.2929,-0.4006 -0.6422,-0.5213 -1.0938,-0.378 -0.9322,0.2959 -0.8251,0.7405 0.2165,0.8983 l 0.88,0.1333 -0.8419,0.048 c -0.8328,0.047 -0.8435,0.08 -0.9987,3.0079 -0.1442,2.7177 -0.6848,4.7113 -1.2794,4.7175 -0.3324,0 -0.3019,-0.5615 0.042,-0.7739 0.3686,-0.2278 0.664,-1.7836 0.3386,-1.7836 -0.1379,0 -0.4171,0.504 -0.6204,1.12 -0.2033,0.616 -0.5025,1.12 -0.6649,1.12 -0.1623,0 -0.2951,1.224 -0.2951,2.72 0,1.496 -0.1315,2.72 -0.2922,2.72 -0.1616,0 -0.1322,0.4239 0.065,0.9478 0.4241,1.1234 0.038,1.702 -0.576,0.8627 -0.2929,-0.4006 -0.6422,-0.5213 -1.0938,-0.378 -0.9322,0.2959 -0.8251,0.7405 0.2165,0.8983 l 0.88,0.1333 -0.88,0.048 c -0.8795,0.048 -0.8801,0.05 -0.9439,2.6879 -0.035,1.452 -0.05,3.0353 -0.033,3.5185 0.017,0.4832 -0.098,0.7987 -0.2561,0.7011 -0.1579,-0.098 -0.287,0.047 -0.287,0.3215 0,0.2744 -0.1457,0.4989 -0.3238,0.4989 -0.1976,0 -0.2492,-0.5299 -0.1323,-1.36 l 0.1915,-1.36 -0.5078,0.9166 c -0.2792,0.5041 -0.5076,1.1161 -0.5076,1.36 0,0.2438 -0.144,0.4434 -0.32,0.4434 -0.1826,0 -0.32,0.9519 -0.32,2.2156 0,2.2894 -0.5721,5.4644 -0.9845,5.4644 -0.1291,0 -0.1574,-0.576 -0.063,-1.28 0.1128,-0.8404 0.047,-1.28 -0.1904,-1.28 -0.1992,0 -0.3621,0.3497 -0.3621,0.7772 0,0.4274 -0.216,0.9931 -0.48,1.2571 -0.3352,0.3352 -0.48,1.1554 -0.48,2.7184 0,2.3083 -0.5704,5.4873 -0.9845,5.4873 -0.1291,0 -0.1574,-0.576 -0.063,-1.28 0.1128,-0.8404 0.047,-1.28 -0.1904,-1.28 -0.1992,0 -0.3621,0.3497 -0.3621,0.7772 0,0.4274 -0.216,0.9931 -0.48,1.2571 -0.3352,0.3352 -0.48,1.1554 -0.48,2.7184 0,2.3083 -0.5704,5.4873 -0.9845,5.4873 -0.1291,0 -0.1574,-0.576 -0.063,-1.28 0.1128,-0.8404 0.047,-1.28 -0.1904,-1.28 -0.1992,0 -0.3621,0.3497 -0.3621,0.7772 0,0.4274 -0.1937,0.9708 -0.4304,1.2075 -0.2627,0.2627 -0.499,1.53 -0.6065,3.2533 -0.097,1.5527 -0.3352,2.9821 -0.5296,3.1765 -0.3755,0.3754 -0.4891,0.011 -0.3643,-1.1695 0.038,-0.3551 -0.077,-0.5087 -0.2832,-0.3811 -0.1903,0.1176 -0.346,0.6991 -0.346,1.2921 0,0.5931 -0.216,1.2943 -0.48,1.5583 -0.339,0.3389 -0.4964,1.2624 -0.5359,3.1429 -0.031,1.4645 -0.1111,2.0508 -0.1784,1.3028 -0.1326,-1.4724 -0.5475,-1.7952 -0.8226,-0.64 -0.094,0.396 -0.2747,1.0548 -0.4009,1.464 -0.1878,0.609 -0.1226,0.7252 0.3589,0.64 0.4003,-0.071 0.6888,0.175 0.9031,0.7698 0.3854,1.0693 -0.017,1.5838 -0.6069,0.7767 -0.2929,-0.4006 -0.6422,-0.5213 -1.0938,-0.378 -0.9322,0.2959 -0.8251,0.7405 0.2165,0.8983 l 0.88,0.1333 -0.8344,0.048 c -0.7757,0.044 -0.8522,0.1886 -1.087,2.0479 -0.139,1.1 -0.2232,2.828 -0.1872,3.84 0.04,1.1213 -0.067,1.84 -0.273,1.84 -0.3259,0 -0.4563,-1.2971 -0.4023,-4 l 0.026,-1.28 -0.3248,1.28 c -0.1787,0.704 -0.4005,1.892 -0.4931,2.64 -0.092,0.748 -0.2978,1.36 -0.4561,1.36 -0.1582,0 -0.3129,1.188 -0.3436,2.64 -0.031,1.4636 -0.1105,2.034 -0.1784,1.28 -0.1326,-1.4724 -0.5475,-1.7952 -0.8226,-0.64 -0.094,0.396 -0.2747,1.0548 -0.4009,1.464 -0.1878,0.609 -0.1226,0.7252 0.3589,0.64 0.4003,-0.071 0.6888,0.175 0.9031,0.7698 0.3854,1.0693 -0.017,1.5838 -0.6069,0.7767 -0.2929,-0.4006 -0.6422,-0.5213 -1.0938,-0.378 -0.9322,0.2959 -0.8251,0.7405 0.2165,0.8983 l 0.88,0.1333 -0.88,0.048 c -0.949,0.052 -0.9406,0.019 -1.0565,4.1906 -0.022,0.7824 -0.1863,1.4715 -0.3656,1.5313 -0.2059,0.069 -0.2691,-0.4854 -0.1713,-1.5026 0.1031,-1.0738 0.034,-1.6114 -0.2059,-1.6114 -0.1984,0 -0.3607,0.4249 -0.3607,0.9443 0,1.4165 -0.6519,4.1757 -0.9866,4.1757 -0.1614,0 -0.2956,0.972 -0.2983,2.16 0,1.188 -0.1285,2.3551 -0.2796,2.5935 -0.1589,0.2507 -0.1291,0.819 0.071,1.3477 0.4139,1.0968 0.016,1.6568 -0.5887,0.8293 -0.2929,-0.4006 -0.6422,-0.5213 -1.0938,-0.378 -0.9322,0.2959 -0.8251,0.7405 0.2165,0.8983 0.484,0.073 -0.092,0.1549 -1.28,0.1813 -1.188,0.026 -2.16,0.1874 -2.16,0.3579 0,0.1704 -0.2179,0.2263 -0.4841,0.1241 -0.2662,-0.1021 -0.6764,-0.026 -0.9115,0.169 -0.3119,0.2588 -64.255,0.3767 -236.3959,0.4358 -129.7827,0.045 -235.3565,0.037 -234.6085,-0.017 z m 476.5599,-3.8827 c 0,-0.3416 0.144,-0.7101 0.32,-0.8189 0.176,-0.1088 0.32,-0.4773 0.32,-0.8189 0,-0.3416 -0.144,-0.6211 -0.32,-0.6211 -0.176,0 -0.32,0.3515 -0.32,0.7811 0,0.4296 -0.144,0.8701 -0.32,0.9789 -0.176,0.1088 -0.32,0.4053 -0.32,0.6589 0,0.2536 0.144,0.4611 0.32,0.4611 0.176,0 0.32,-0.2795 0.32,-0.6211 z m 13.3386,-40.3989 c -0.1021,-0.2553 -0.178,-0.1795 -0.1933,0.1933 -0.014,0.3374 0.062,0.5264 0.1681,0.42 0.1063,-0.1063 0.1177,-0.3823 0.025,-0.6133 z m 17.3814,-51.7611 c 0,-0.3416 0.144,-0.7101 0.32,-0.8189 0.176,-0.1088 0.32,-0.4773 0.32,-0.8189 0,-0.3416 -0.144,-0.6211 -0.32,-0.6211 -0.176,0 -0.32,0.3515 -0.32,0.7811 0,0.4296 -0.144,0.8701 -0.32,0.9789 -0.176,0.1088 -0.32,0.4053 -0.32,0.6589 0,0.2536 0.144,0.4611 0.32,0.4611 0.176,0 0.32,-0.2795 0.32,-0.6211 z m 2.6573,-8.4128 c 0.1661,-1.2376 0.081,-1.8384 -0.2127,-1.4994 -0.2815,0.325 -0.5034,2.8533 -0.2505,2.8533 0.1549,0 0.3634,-0.6092 0.4632,-1.3539 z M 1185.28,1311.52 c 0,-0.2667 -0.2845,-0.48 -0.64,-0.48 -0.3556,0 -0.64,0.2133 -0.64,0.48 0,0.2667 0.2844,0.48 0.64,0.48 0.3555,0 0.64,-0.2133 0.64,-0.48 z m 5.12,-15.52 c 0,-0.176 -0.144,-0.32 -0.32,-0.32 -0.176,0 -0.32,0.144 -0.32,0.32 0,0.176 0.144,0.32 0.32,0.32 0.176,0 0.32,-0.144 0.32,-0.32 z m 8.96,-24.1867 c 0,-0.2786 -0.1711,-0.4496 -0.38,-0.38 -0.5934,0.1978 -0.6918,0.8867 -0.1267,0.8867 0.2787,0 0.5067,-0.228 0.5067,-0.5067 z m 15.36,-37.8933 c 0,-1.4933 -0.1334,-2.56 -0.32,-2.56 -0.1867,0 -0.32,1.0667 -0.32,2.56 0,1.4933 0.1333,2.56 0.32,2.56 0.1866,0 0.32,-1.0667 0.32,-2.56 z m -0.32,-10.56 c 0,-0.176 -0.144,-0.32 -0.32,-0.32 -0.176,0 -0.32,0.144 -0.32,0.32 0,0.176 0.144,0.32 0.32,0.32 0.176,0 0.32,-0.144 0.32,-0.32 z m 0.96,-1.4589 c 0,-0.2536 -0.144,-0.4611 -0.32,-0.4611 -0.176,0 -0.32,0.2965 -0.32,0.6589 0,0.3624 0.144,0.5699 0.32,0.4611 0.176,-0.1088 0.32,-0.4053 0.32,-0.6589 z m -70.8307,201.2187 c -0.2104,-0.3404 0.1635,-5.8936 0.382,-5.6751 0.099,0.099 0.2587,1.4707 0.3545,3.0478 0.1277,2.1025 0.072,2.8676 -0.207,2.8676 -0.2096,-1e-4 -0.4479,-0.1082 -0.5295,-0.2403 z m 484.9106,-8.0609 c 0,-0.4459 0.5883,-0.7286 0.9942,-0.4778 0.2469,0.1526 0.2227,0.3022 -0.08,0.494 -0.5712,0.362 -0.9142,0.3559 -0.9142,-0.016 z m -482.5347,-9.1656 c 0.015,-0.3728 0.091,-0.4486 0.1933,-0.1933 0.092,0.231 0.081,0.507 -0.025,0.6133 -0.1064,0.1064 -0.182,-0.083 -0.1681,-0.42 z m 487.4219,-6.8533 c 0,-0.792 0.062,-1.116 0.1387,-0.72 0.076,0.396 0.076,1.044 0,1.44 -0.076,0.396 -0.1387,0.072 -0.1387,-0.72 z m 5.5128,-14.4 c 0.1088,-0.176 0.3333,-0.32 0.4989,-0.32 0.1656,0 0.3011,0.144 0.3011,0.32 0,0.176 -0.2245,0.32 -0.4988,0.32 -0.2744,0 -0.4099,-0.144 -0.3012,-0.32 z m -482.3999,-4.48 c 0,-0.176 0.144,-0.32 0.32,-0.32 0.176,0 0.32,0.144 0.32,0.32 0,0.176 -0.144,0.32 -0.32,0.32 -0.176,0 -0.32,-0.144 -0.32,-0.32 z m 3.0479,-7.3471 c -0.2714,-0.4391 -0.031,-0.7688 0.4418,-0.6062 0.1937,0.067 0.2184,0.2924 0.06,0.5475 -0.2,0.3219 -0.3297,0.3371 -0.5018,0.059 z m 7.1921,-18.0929 c 0,-0.264 0.2336,-0.48 0.5191,-0.48 0.4252,0 0.4471,0.087 0.1209,0.48 -0.2191,0.264 -0.4528,0.48 -0.5192,0.48 -0.066,0 -0.1208,-0.216 -0.1208,-0.48 z m 488.3452,-16.3467 c 0.015,-0.3728 0.091,-0.4486 0.1933,-0.1933 0.092,0.231 0.081,0.507 -0.025,0.6133 -0.1063,0.1064 -0.1819,-0.083 -0.168,-0.42 z m -483.52,-1.6 c 0.015,-0.3728 0.091,-0.4486 0.1933,-0.1933 0.092,0.231 0.081,0.507 -0.025,0.6133 -0.1064,0.1064 -0.182,-0.083 -0.1681,-0.42 z m 5.28,-11.6124 c -0.2272,-0.3677 0.4504,-1.6409 0.8733,-1.6409 0.2907,0 -0.023,1.2807 -0.4184,1.7079 -0.1363,0.1473 -0.341,0.1172 -0.4549,-0.067 z m 487.6643,-17.3053 c -0.2761,-0.4469 0.076,-0.9756 0.6493,-0.9756 0.5876,0 0.5922,0.4529 0.01,0.9364 -0.3086,0.2561 -0.5171,0.2685 -0.6589,0.039 z M 1185.467,1305.44 c 0.2618,-2.6596 0.434,-3.0335 0.5036,-1.0933 0.07,1.9642 -0.017,2.6278 -0.3966,3.0065 -0.2233,0.2229 -0.2574,-0.3857 -0.107,-1.9132 z m 1.1801,-1.12 c 0,-0.792 0.062,-1.116 0.1387,-0.72 0.076,0.396 0.076,1.044 0,1.44 -0.076,0.396 -0.1387,0.072 -0.1387,-0.72 z m 481.9928,-4.16 c 0.1088,-0.176 0.2613,-0.32 0.3389,-0.32 0.078,0 0.1411,0.144 0.1411,0.32 0,0.176 -0.1525,0.32 -0.3388,0.32 -0.1864,0 -0.2499,-0.144 -0.1412,-0.32 z m -480.7999,-3.0211 c 0,-0.2744 0.144,-0.4989 0.32,-0.4989 0.176,0 0.32,0.1355 0.32,0.3011 0,0.1656 -0.144,0.3901 -0.32,0.4989 -0.176,0.1088 -0.32,-0.027 -0.32,-0.3011 z m 3.9271,-13.2989 c 0,-0.792 0.062,-1.116 0.1387,-0.72 0.076,0.396 0.076,1.044 0,1.44 -0.076,0.396 -0.1387,0.072 -0.1387,-0.72 z m 493.3528,-21.8858 c 0,-0.069 0.216,-0.2086 0.48,-0.3099 0.264,-0.1013 0.48,-0.045 0.48,0.1257 0,0.1705 -0.216,0.31 -0.48,0.31 -0.264,0 -0.48,-0.057 -0.48,-0.1258 z m 1.6506,-1.4742 c 0,-0.44 0.073,-0.62 0.1614,-0.4 0.089,0.22 0.089,0.58 0,0.8 -0.089,0.22 -0.1614,0.04 -0.1614,-0.4 z m 16.9758,-11.76 c 0.1826,-0.22 0.4429,-0.4 0.5786,-0.4 0.1356,0 0.3156,0.18 0.4001,0.4 0.095,0.2482 -0.1244,0.4 -0.5786,0.4 -0.5493,0 -0.6492,-0.1 -0.4001,-0.4 z M 1210.88,1237.6373 c 0,-0.2434 0.252,-0.5315 0.56,-0.6402 0.308,-0.1086 0.776,-0.2892 1.04,-0.4012 0.264,-0.112 0.1309,0.1761 -0.2958,0.6402 -0.8599,0.9354 -1.3042,1.0721 -1.3042,0.4012 z m 507.9999,-1.4773 c 0.1088,-0.176 0.3968,-0.32 0.64,-0.32 0.2433,0 0.5313,0.144 0.64,0.32 0.1126,0.1822 -0.1629,0.32 -0.64,0.32 -0.477,0 -0.7526,-0.1378 -0.64,-0.32 z m 13.6,-10.24 c 0,-0.176 0.144,-0.32 0.32,-0.32 0.176,0 0.32,0.144 0.32,0.32 0,0.176 -0.144,0.32 -0.32,0.32 -0.176,0 -0.32,-0.144 -0.32,-0.32 z m 2.56,-2.56 c 0,-0.176 0.144,-0.32 0.32,-0.32 0.176,0 0.32,0.144 0.32,0.32 0,0.176 -0.144,0.32 -0.32,0.32 -0.176,0 -0.32,-0.144 -0.32,-0.32 z m 2.56,-2.56 c 0,-0.176 0.144,-0.32 0.32,-0.32 0.176,0 0.32,0.144 0.32,0.32 0,0.176 -0.144,0.32 -0.32,0.32 -0.176,0 -0.32,-0.144 -0.32,-0.32 z"
       style="fill:#000000;stroke-width:0.40000001" />
    </clipPath>
  </defs>
  <image xlink:href="temp-95.jpg" clip-path="url(#temp-95)" x="0" y="0" width="2544.6399" height="1697.28"></image>
</svg>