<svg xmlns="http://www.w3.org/2000/svg" xmlns:xlink="http://www.w3.org/1999/xlink" viewBox="0 0 1500 1000">
  <defs>
    <clipPath id="gaiwan.svg">
      <path id="gaiwan.svg"
      	d="m 1227,863.95488 c -47.7391,-4.0668 -90.182,-14.64141 -135.5,-33.75966 -13.4332,-5.66705 -41.3044,-19.54575 -51.5,-25.64486 -4.125,-2.46762 -8.4,-4.90054 -9.5,-5.4065 -2.7516,-1.26562 -33.82402,-22.34013 -39.5,-26.79039 -33.42421,-26.20627 -60.58682,-53.69171 -79.62795,-80.57433 -3.0078,-4.24647 -5.92366,-8.00202 -6.47969,-8.34566 -0.55602,-0.34364 -3.57177,1.7981 -6.70165,4.75944 -6.78389,6.41855 -23.56529,18.62331 -34.69071,25.22982 -4.4,2.61281 -8.675,5.15807 -9.5,5.65613 -2.7374,1.65258 -12.98409,6.94581 -13.24421,6.84167 -0.14068,-0.0563 -3.50449,1.73852 -7.47512,3.98853 -3.97063,2.25001 -7.67225,4.09093 -8.22583,4.09093 -0.55357,0 -2.47988,0.89832 -4.28067,1.99626 -1.80079,1.09795 -4.23157,1.99795 -5.40173,2 -1.17015,0.002 -2.68775,0.67874 -3.37244,1.50374 -0.68469,0.825 -1.97729,1.50036 -2.87244,1.50079 -0.89516,4.3e-4 -4.47181,1.34634 -7.94812,2.9909 -3.4763,1.64457 -9.03296,3.69297 -12.34812,4.55202 -3.31516,0.85904 -6.77091,1.92782 -7.67944,2.37505 -2.13581,1.05137 -7.04273,2.734 -15.15188,5.19574 -3.575,1.08527 -9.425,2.862 -13,3.94828 -12.90187,3.92028 -42.05525,10.31475 -61.5,13.48933 -9.11707,1.48847 -13.50949,1.9989 -33.5,3.89294 -3.575,0.33872 -9.65,1.02115 -13.5,1.51652 -11.27355,1.45052 -59.39248,1.93913 -76.5,0.77679 -13.42848,-0.91238 -30.96201,-2.64313 -34.5,-3.40552 -1.65,-0.35556 -4.35,-0.76424 -6,-0.90818 -4.39338,-0.38326 -11.30321,-1.36644 -17,-2.41889 -2.75,-0.50804 -7.925,-1.4171 -11.5,-2.02012 -6.35239,-1.07152 -24.02777,-5.04364 -31,-6.96651 -1.925,-0.5309 -8.675,-2.37908 -15,-4.10708 -18.62455,-5.08823 -36.08809,-11.05105 -46.7391,-15.95878 C 403.92939,742.87897 401.6117,742 401.11047,742 c -0.87311,0 -9.82306,-4.01774 -24.45558,-10.97839 C 359.3044,722.76801 330.18805,705.11528 319,696.06646 c -1.375,-1.1121 -3.0225,-2.03199 -3.66111,-2.04422 -0.6386,-0.0122 -2.2136,-1.26594 -3.5,-2.78602 C 310.5525,689.71614 307.925,687.3777 306,686.0397 c -3.78065,-2.62781 -7.1296,-5.70537 -19.5,-17.91978 -25.07071,-24.75456 -44.52384,-56.76002 -52.39448,-86.20254 -5.02191,-18.78601 -6.51726,-32.47103 -5.80979,-53.16958 0.72046,-21.07867 4.37333,-37.40344 13.36151,-59.71291 4.13895,-10.27325 17.11147,-33.37573 22.05811,-39.28282 1.9584,-2.33864 6.05641,-7.62707 9.10668,-11.75207 5.38031,-7.27598 21.56205,-24 23.2218,-24 1.92139,0 1.92427,-4.1422 0.006,-7.90329 C 294.9222,383.88734 294,381.56358 294,380.93281 c 0,-2.27432 -6.39218,-14.58347 -11.23186,-21.62875 -4.89726,-7.12908 -11.64939,-13.11627 -19.30283,-17.11604 -9.64386,-5.03999 -21.78539,-17.48122 -26.79051,-27.4518 -6.75362,-13.45375 -8.08196,-22.54455 -5.14479,-35.2094 6.34365,-27.35329 33.02911,-51.26921 83.62399,-74.94512 4.2097,-1.96994 7.94096,-3.5817 8.2917,-3.5817 0.35074,0 3.65644,-1.41512 7.346,-3.14471 6.76898,-3.17315 10.87057,-4.65174 32.7083,-11.79111 10.7979,-3.53014 28.17257,-8.64852 37.5,-11.04708 1.925,-0.49501 6.65,-1.82831 10.5,-2.96288 6.86194,-2.02216 20.48114,-4.77527 57.5,-11.62357 22.09671,-4.08778 59.74597,-8.76908 88,-10.9419 25.27585,-1.94379 75.8519,-3.61855 90,-2.98023 5.775,0.26055 19.95,0.69838 31.5,0.97296 66.17267,1.57311 137.2109,13.07145 188.5,30.51085 34.99868,11.9003 64.45324,29.32008 77.70292,45.95444 12.63829,15.86679 16.42811,34.34968 10.50102,51.2133 -2.77057,7.88278 -10.99801,20.61673 -16.6084,25.70551 C 930.97565,307.77703 928.15976,310 927.02473,310 c -0.67808,0 -3.83628,2.66061 -7.01823,5.91248 -4.28793,4.38214 -7.07241,8.58814 -10.75795,16.25 -2.73492,5.68563 -5.26205,11.55031 -5.61584,13.03261 -0.68883,2.88606 -0.33627,3.25179 10.57738,10.97273 15.56029,11.00823 36.35873,31.01259 45.57211,43.83218 3.3599,4.675 7.19321,9.81961 8.51847,11.43246 l 2.40957,2.93246 5.89488,-1.77636 c 5.88614,-1.77372 10.34663,-3.17926 17.89488,-5.63884 6.0337,-1.96607 19.5946,-4.47294 32,-5.91553 17.3827,-2.02138 19.0208,-2.23847 19.6026,-2.59786 0.3315,-0.20471 9.1065,-0.58098 19.5,-0.83615 20.1578,-0.49488 36.7879,0.39056 62.9377,3.35104 7.0576,0.79902 8.4697,0.66989 12.4597,-1.13942 10.0201,-4.5437 16.4658,-6.77318 23.795,-8.23047 8.44,-1.67814 31.0297,-3.8077 32.2686,-3.042 0.4267,0.26371 5.6495,0.95825 11.6061,1.54344 18.5969,1.82696 41.1031,8.34216 59.2705,17.15788 25.9661,12.60008 52.0148,33.50385 65.9526,52.92615 5.4825,7.63975 17.1072,29.26028 17.1072,31.81719 0,0.52036 0.6283,2.87434 1.3962,5.23106 0.7679,2.35672 1.6885,5.97333 2.0457,8.03691 0.4566,2.63797 1.8678,4.86479 4.7527,7.5 2.2568,2.06142 4.5987,4.3722 5.2043,5.13506 1.0274,1.29417 6.942,7.64277 19.85,21.30634 2.9581,3.13134 5.8679,6.73134 6.4661,8 1.2811,2.71687 5.6626,8.20866 9.535,11.95124 1.5125,1.4618 2.75,3.10178 2.75,3.6444 0,1.19708 6.7402,11.30793 8.4791,12.7194 0.6833,0.55463 2.4835,3.45764 4.0004,6.45114 1.5169,2.99351 3.6046,6.70222 4.6393,8.2416 1.0346,1.53937 2.755,4.09521 3.823,5.67965 3.0909,4.5855 15.6821,30.22124 17.0036,34.61921 1.3748,4.57536 6.8501,19.14084 8.171,21.73643 0.486,0.95504 0.8885,2.75504 0.8944,4 0.01,1.24496 0.6712,4.4402 1.4784,7.10053 4.479,14.76306 5.8091,45.1359 2.985,68.16304 -1.5477,12.61865 -4.6141,22.1496 -6.7097,20.85447 -0.4646,-0.28713 -0.5612,0.60743 -0.2147,1.98791 1.4561,5.80149 -14.1807,34.22017 -26.1798,47.57989 -4.4399,4.94335 -6.8748,7.33208 -15.87,15.56852 -4.8669,4.4564 -27.4238,18.91349 -35,22.43204 -13.8966,6.45392 -17.1493,7.78978 -26.5,10.88329 -26.8137,8.87086 -53.2516,13.09796 -85.5,13.67044 -11.55,0.20504 -25.725,-0.0297 -31.5,-0.52168 z"
       style="fill:#000000;stroke-width:0.40000001" />
    </clipPath>
  </defs>
  <image xlink:href="gaiwan.svg.jpg" clip-path="url(#gaiwan.svg)" x="0" y="0" width="1500" height="1000"></image>
</svg>