<svg xmlns="http://www.w3.org/2000/svg" viewBox="0 0 1901.2 1901.2">
  <defs>
    <clipPath id="matcha-bowl-whisk">
      <path id="matcha-bowl-whisk"
      	d="m 819.525,1900.9268 c 0.28876,-0.1156 0.63376,-0.1014 0.76668,0.032 0.13292,0.1329 -0.10336,0.2274 -0.525,0.2101 -0.466,-0.019 -0.56076,-0.114 -0.24168,-0.2417 z m 182.175,-0.043 -3.3,-0.1162 v -1.5838 c 0,-1.5811 -0.004,-1.5838 -1.6,-1.5838 h -1.6 v 1.6 1.6 h -2.6 -2.6 v -1.6 -1.6 h -2.2 -2.2 v 1.6 1.6 h -3.2 -3.2 v -1.6 -1.6 h -6.4 -6.4 v 1.6 1.6 h -1.6 -1.6 v -1.6 -1.6 h -4.8 -4.8 v -1.6 -1.6 h -1.6 -1.6 v 1.6 1.6 h -6.4 -6.4 v -1.6 -1.6 h -3.2 -3.2 v 1.6 1.6 h -1.6 -1.6 v -1.6 -1.6 h -17.6 -17.6 v -1.6 -1.6 H 878.4 864 v -1.6 -1.6 h -9.6 -9.6 v -1.6 -1.6 h -1.6 -1.6 v 1.6 1.6 h -1.6 -1.6 v -1.6 -1.6 h -9.6 -9.6 v 1.6 1.6 H 816 c -2.57776,0 -3.2,-0.1167 -3.2,-0.6 0,-0.33 -0.16716,-0.6 -0.37144,-0.6 -0.20428,0 -0.6414,0.27 -0.9714,0.6 -0.67876,0.6788 -1.72356,0.7943 -1.92384,0.2128 -0.0849,-0.2466 -0.3512,-0.2488 -0.73332,-0.01 -0.51176,0.325 -0.49704,0.382 0.1,0.3872 0.54896,0 0.7,0.3513 0.7,1.6061 v 1.6 H 808 c -1.44,0 -1.6,-0.1 -1.6,-1 0,-0.9 -0.16,-1 -1.6,-1 -0.88,0 -1.6,0.18 -1.6,0.4 0,0.22 -0.72,0.4 -1.6,0.4 -1.43672,0 -1.6,-0.1013 -1.6,-0.9923 0,-1.1062 -0.84212,-1.4555 -3.2,-1.3272 -2.40868,0.131 -3.18276,-0.349 -3.19388,-1.9805 -0.005,-0.7823 -0.21536,-0.9 -1.60612,-0.9 h -1.6 v -1.6 -1.6 h -1.6 -1.6 v -1.6 -1.6 h -1.6 -1.6 v 1.6 1.6 h -1.6 -1.6 v -1.6 -1.6 h -4.8 -4.8 v -1.6 -1.6 h -3.2 -3.2 v 1.6 1.6 h -1.6 -1.6 v -1.6 -1.6 h -4.8 -4.8 v -1.6 -1.6 h -1.6 -1.6 v 1.6 1.6 h -1.6 -1.6 v -1.6 -1.6 h -6.4 -6.4 v -1.6 -1.6 h -8 -8 v -1.6 -1.6 h -6.4 -6.4 v -1.6 -1.6 h -1.6 -1.6 v 1.6 1.6 h -1.6 -1.6 v -1.6 -1.6 h -8 -8 v -1.6 -1.6 h -9.6 -9.6 v -1.6 -1.6 h -8 -8 v -1.6 -1.6 h -8 -8 v -1.6 -1.6 h -8 -8 v -1.6 -1.6 h -3.2 c -2.57776,0 -3.2,-0.1167 -3.2,-0.6 0,-0.4333 -0.44444,-0.6 -1.6,-0.6 -1.15556,0 -1.6,0.1667 -1.6,0.6 0,0.4833 -0.62224,0.6 -3.2,0.6 h -3.2 v -1.6 -1.6 h -8 -8 v -1.6 -1.6 h -3.2 c -2.57776,0 -3.2,-0.1167 -3.2,-0.6 0,-0.4333 -0.44444,-0.6 -1.6,-0.6 -1.15556,0 -1.6,0.1667 -1.6,0.6 0,0.4333 -0.44444,0.6 -1.6,0.6 h -1.6 v -1.6 -1.6 h -6.4 -6.4 v -1.6 -1.6 h -6.4 -6.4 v -1.6 -1.6 h -8 -8 v -1.6 -1.6 h -6.4 -6.4 v -2.2 -2.2 h -1.6 c -1.15556,0 -1.6,0.1667 -1.6,0.6 0,0.5 -0.8,0.6 -4.8,0.6 h -4.8 v -2.2 -2.2 h -1.6 c -1.15556,0 -1.6,0.1667 -1.6,0.6 0,0.4833 -0.62224,0.6 -3.2,0.6 h -3.2 v -1.6 -1.6 h -6.4 -6.4 v -1.6 -1.6 h -6.4 -6.4 v -1.5673 c 0,-2.712 -0.14676,-2.8327 -3.4428,-2.8327 -2.36196,0 -2.9572,0.1208 -2.9572,0.6 0,0.4333 -0.44444,0.6 -1.6,0.6 h -1.6 v -1.6 -1.6 h -4.8 -4.8 v -1 c 0,-0.9 -0.16,-1 -1.6,-1 -1.15556,0 -1.6,-0.1667 -1.6,-0.6 0,-0.5 -0.8,-0.6 -4.8,-0.6 h -4.8 v -1.6 -1.6 h -4.8 -4.8 v -1.6 -1.6 h -4.8 -4.8 v -1.6 -1.6 h -4.8 -4.8 v -1.6 -1.6 h -4.8 -4.8 v -1.6 -1.6 h -3.2 -3.2 v -1.6 -1.6 h -4.8 -4.8 v -1.6 -1.6 h -4.8 -4.8 v -1.6 -1.6 h -3.2 -3.2 v -1.6 -1.6 h -3.2 -3.2 v -1.6 -1.6 h -6.4 -6.4 v -1.6 -1.6 h -3.2 -3.2 v -1.6 -1.6 h -3.2 -3.2 v -1.6 -1.6 h -3.2 -3.2 v -1.6 -1.6 h -3.2 -3.2 v -1.6 -1.6 h -4.8 -4.8 v -1.6 -1.6 h -1.6 -1.6 v -1.6 -1.6 h -4.8 -4.8 v -1.6 -1.6 h -3.2 c -3.14667,0 -3.2,0.017 -3.2,1 0,0.9 -0.16,1 -1.6,1 H 288 v -2.6 -2.6 h -3.2 -3.2 v -1.6 -1.6 h -1.6 -1.6 v -1.6 -1.6 h -3.2 -3.2 v -1.6 -1.6 h -3.2 -3.2 v -1.6 -1.6 h -3.2 -3.2 v -1.6 -1.6 h -3.2 -3.2 v -1.6 -1.6 h -1.6 -1.6 v -1.6 -1.6 h -3.2 -3.2 v -1.6 -1.6 h -1.6 -1.6 v -1.6 -1.6 h -4.8 -4.8 v -1.6 -1.6 h -3.2 -3.2 v -1.6 -1.6 h -1.6 -1.6 v -1.6 -1.6 h -1.6 -1.6 v -1.6 -1.6 h -3.2 -3.2 v -1.6 -1.6 h -1.6 -1.6 v -1.6 -1.6 h -3.2 -3.2 v -1.6 -1.6 h -4.8 -4.8 v -4.8 -4.8 h -3.2 -3.2 v -1.6 -1.6 h -1.6 -1.6 v -1.6 -1.6 h -1.6 -1.6 v -1.6 -1.6 h -1.6 -1.6 v -1.6 -1.6 h -3.2 -3.2 v -3.2 -3.2 h -1.6 -1.6 v -1.6 -1.6 h -1.6 -1.6 v -1.6 -1.6 h -1.6 -1.6 v -1.6 -1.6 h -1.6 -1.6 v -3.2 -3.2 h -1.6 -1.6 v -1.6 -1.6 h -3.2 -3.2 v -3.2 -3.2 h -1.6 -1.6 v -3.2 -3.2 h -3.2 -3.2 v -1.6 -1.6 h -1.6 -1.6 v -4.8 -4.8 h -1.6 -1.6 v -3.2 -3.2 h -1.6 -1.6 v -3.2 -3.2 h -1.6 -1.6 v -3.2 -3.2 h -1.6 -1.6 v -1.6 -1.6 h -1.6 -1.6 v -3.2 -3.2 h -1.6 -1.6 v -1.6 -1.6 h 3.2 3.2 v -4.8 -4.8 h -1.6 -1.6 v -1.6 -1.6 h 1.6 1.6 v -8 -8 h 1.6 1.6 v -1.6 -1.6 h -1.6 -1.6 v -1.6 -1.6 h 1.6 1.6 v -1.6 -1.6 h -1.6 -1.6 v -1.6 -1.6 h 1.6 1.6 v 1.6 1.6 h 1.6 1.6 v -4.8 -4.8 h -3.2 -3.2 v -1.6 -1.6 h 3.2 3.2 v -3.2 -3.2 h 1.6 1.6 v -4.8 -4.8 h 1.6 1.6 v -3.2 -3.2 h 1.6 1.6 v -3.2 -3.2 h 1.6 1.6 v -1.6 -1.6 h 1.6 1.6 v -4.8 -4.8 h 3.2 3.2 v -3.2 -3.2 h 1.6 1.6 v -4.8 -4.8 h 1.6 1.6 v -1.6 -1.6 h 3.2 3.2 v -1.6 -1.6 h 1.6 1.6 v -1.6 -1.6 h 1.6 1.6 v -3.2 -3.2 h 1.6 1.6 v -1.6 -1.6 h 1.6 1.6 v -1.6 -1.6 h 1.6 1.6 v -3.2 -3.2 h -1.6 -1.6 v -1.6 -1.6 h 4.8 4.8 v -3.2 -3.2 h 1.6 1.6 v -4.8 -4.8 h -1.6 -1.6 v -1.6 c 0,-1.3761 0.12171,-1.6 0.86972,-1.6 h 0.86973 l -0.86973,-0.9258 c -0.47834,-0.5093 -0.86972,-1.2293 -0.86972,-1.6001 0,-0.4406 -0.325,-0.6742 -0.938,-0.6742 -1.14288,0 -2.262,-1.1535 -2.262,-2.3315 0,-0.4777 -0.21515,-0.8685 -0.47811,-0.8685 -0.65718,0 -2.72189,-2.029 -2.72189,-2.6748 0,-0.2889 -0.16615,-0.5252 -0.36923,-0.5252 -0.48038,0 -2.83077,-2.3504 -2.83077,-2.8308 0,-0.203 -0.27,-0.3692 -0.6,-0.3692 -0.43333,0 -0.6,-0.4444 -0.6,-1.6 0,-1.3032 -0.14046,-1.6 -0.7572,-1.6 -0.83017,0 -1.2428,-0.7413 -1.2428,-2.2327 0,-0.8668 -0.17148,-0.9673 -1.65112,-0.9673 h -1.65113 l 0.25585,-1.6 c 0.22727,-1.4212 0.16595,-1.6 -0.54887,-1.6 -0.66981,0 -0.80473,-0.2636 -0.80473,-1.5722 0,-1.3258 -0.141,-1.5922 -0.9,-1.7 -0.72293,-0.1026 -0.92442,-0.4229 -1.02415,-1.6278 -0.0683,-0.825 -0.27943,-1.5 -0.46923,-1.5 -0.62886,0 -2.8548,-2.4975 -2.66553,-2.9907 0.1243,-0.3239 -0.1333,-0.4234 -0.77761,-0.3002 -0.91627,0.1751 -0.96348,0.084 -0.96348,-1.8591 0,-1.61 -0.16961,-2.1492 -0.8,-2.5428 -0.44,-0.2748 -0.8,-0.8163 -0.8,-1.2034 0,-0.3871 -0.27,-0.7038 -0.6,-0.7038 -0.42241,0 -0.6,-0.4269 -0.6,-1.4424 0,-1.0622 -0.26363,-1.6498 -1,-2.2291 -0.55,-0.4326 -1,-1.1188 -1,-1.5248 0,-1.1059 -0.43676,-2.0282 -0.84191,-1.7778 -0.19695,0.1217 -0.35809,0.022 -0.35809,-0.2214 0,-0.2435 -0.47628,-0.8841 -1.05841,-1.4236 -0.80773,-0.7486 -0.90247,-0.9809 -0.4,-0.9809 0.82041,0 0.84462,-0.5566 0.0584,-1.3428 -0.33,-0.33 -0.6,-0.9591 -0.6,-1.3979 0,-0.4389 -0.48208,-1.3709 -1.07129,-2.0711 -0.58921,-0.7002 -1.09158,-1.7365 -1.11637,-2.3028 -0.0248,-0.5663 -0.26271,-1.1022 -0.5287,-1.1908 -0.266,-0.089 -0.48364,-0.4439 -0.48364,-0.7894 0,-0.3454 -0.74995,-1.3204 -1.66656,-2.1666 -1.12199,-1.0359 -1.44875,-1.5386 -1,-1.5386 0.82788,0 0.85534,-0.5541 0.0666,-1.3428 -0.33,-0.33 -0.6,-1.1447 -0.6,-1.8104 0,-0.7578 -0.37396,-1.5844 -1,-2.2104 -0.69802,-0.6981 -1,-1.4369 -1,-2.4468 0,-1.523 -0.95895,-3.02 -1.33628,-2.086 -0.11031,0.273 -0.21477,-0.2686 -0.23214,-1.2036 -0.0174,-0.935 -0.18277,-1.7 -0.36756,-1.7 -0.18478,0 -0.57359,-0.72 -0.86402,-1.6 -0.29043,-0.88 -0.67924,-1.6 -0.86402,-1.6 -0.18479,0 -0.33598,-0.72 -0.33598,-1.6 0,-0.88 -0.1936,-1.6 -0.43021,-1.6 -0.25793,0 -0.38703,-0.7023 -0.32237,-1.7536 0.097,-1.578 -0.0458,-1.8986 -1.42574,-3.2 -1.34316,-1.2668 -1.4273,-1.4464 -0.67763,-1.4464 1.07615,0 1.10378,-0.6384 0.0559,-1.2928 -0.57243,-0.3575 -0.8,-0.9328 -0.8,-2.0225 0,-1.1106 -0.27072,-1.7738 -1,-2.4497 -0.71332,-0.661 -1,-1.3436 -1,-2.3809 0,-1.0259 -0.1767,-1.4541 -0.6,-1.4541 -0.41729,0 -0.6,-0.4199 -0.6,-1.3788 0,-0.7584 -0.45,-2.2252 -1,-3.2596 -0.66486,-1.2504 -1,-2.5215 -1,-3.7926 0,-1.1661 -0.23404,-2.1459 -0.6,-2.5118 -0.38974,-0.3898 -0.6,-1.381 -0.6,-2.8286 0,-1.7054 -0.13961,-2.2286 -0.59463,-2.2286 -0.32705,0 -0.84868,-0.608 -1.15919,-1.3512 -0.3105,-0.7431 -0.76292,-1.4737 -1.00537,-1.6236 -0.24244,-0.1498 -0.44081,-0.9818 -0.44081,-1.8488 0,-1.08 -0.17528,-1.5764 -0.55664,-1.5764 -0.79534,0 -1.21544,-1.812 -1.08149,-4.6648 0.10596,-2.2565 -0.0197,-2.6958 -1.48752,-5.2 -0.8818,-1.5043 -1.72508,-3.5002 -1.87397,-4.4352 -0.14888,-0.935 -0.43488,-1.7 -0.63554,-1.7 -0.20066,0 -0.36484,-0.72 -0.36484,-1.6 0,-0.88 -0.14119,-1.6 -0.31376,-1.6 -0.74223,0 -1.68624,-2.4418 -1.68624,-4.3617 0,-1.4776 -0.1536,-2.0383 -0.55837,-2.0383 -0.40769,0 -0.63481,-0.8636 -0.84163,-3.2 -0.19009,-2.1474 -0.44819,-3.2 -0.78465,-3.2 -0.56922,0 -1.01535,-3.3552 -1.01535,-7.636 0,-2.1682 -0.14707,-2.8245 -0.72634,-3.2413 -0.39949,-0.2875 -0.84384,-0.8377 -0.98745,-1.2227 -0.14361,-0.385 -0.49175,-0.707 -0.77366,-0.7156 -0.71959,-0.022 -2.32765,-3.527 -2.31941,-5.0558 0.004,-0.6993 -0.27191,-1.5502 -0.61263,-1.891 -0.49197,-0.4919 -1.36636,-4.0053 -1.37819,-5.5376 -0.001,-0.165 -0.24478,-0.3 -0.54113,-0.3 -0.40665,0 -0.60012,-1.144 -0.78877,-4.6641 -0.2211,-4.1258 -0.17046,-4.7245 0.43881,-5.1873 0.42603,-0.3236 0.49804,-0.528 0.18877,-0.5359 -0.28606,-0.01 -0.5,-0.5261 -0.5,-1.2127 0,-0.8 -0.2,-1.2 -0.6,-1.2 -0.43333,0 -0.6,-0.4444 -0.6,-1.6 0,-0.88 -0.16033,-1.6 -0.35628,-1.6 -0.19596,0 -0.42605,-1.3817 -0.51133,-3.0704 -0.0981,-1.942 -0.33465,-3.1304 -0.64372,-3.2334 -0.27399,-0.091 -0.48867,-0.8511 -0.48867,-1.7295 0,-1.1259 -0.1688,-1.5667 -0.6,-1.5667 -0.4098,0 -0.60071,-0.4121 -0.60223,-1.3 -0.001,-0.715 -0.17723,-1.93 -0.39112,-2.7 -0.21389,-0.77 -0.46519,-2.6541 -0.55845,-4.1869 -0.0933,-1.5328 -0.36726,-2.8528 -0.60888,-2.9333 -0.25309,-0.084 -0.43932,-1.1497 -0.43932,-2.5131 0,-1.8371 -0.13427,-2.3667 -0.6,-2.3667 -0.48014,0 -0.6,-0.6009 -0.6,-3.008 0,-2.5621 -0.15656,-3.2559 -1.0563,-4.6812 -0.601736,-0.9532 -0.87466,-1.7338 -0.634212,-1.814 0.281792,-0.094 0.300504,-0.5646 0.0563,-1.4161 C 99.364604,1197.9792 99.2,1196.2155 99.2,1194.7613 99.2,1190.3892 98.754192,1187.2 98.143016,1187.2 97.790504,1187.2 97.6,1186.7154 97.6,1185.8188 97.6,1184.335 96.88448,1182.4 96.335792,1182.4 96.151108,1182.4 96,1181.32 96,1180 c 0,-1.7802 -0.143328,-2.4 -0.555032,-2.4 -0.451288,0 -0.604556,-1.8504 -0.819988,-9.9 -0.15888,-5.9364 -0.44644,-10.3004 -0.71826,-10.9 -0.249316,-0.55 -0.403776,-1.855 -0.343244,-2.9 0.07415,-1.28 -0.0478,-1.9 -0.3737,-1.9 -0.359728,0 -0.4127,-0.7584 -0.206604,-2.9578 0.194416,-2.0746 0.1391,-3.043 -0.185284,-3.2435 -0.320756,-0.1983 -0.391196,-1.2836 -0.229904,-3.5423 0.1279,-1.791 0.08023,-6.1364 -0.105936,-9.6564 l -0.33848,-6.4 -0.12682,5 c -0.121396,4.7861 -0.138812,4.6577 -0.407024,-3 -0.363584,-10.3807 -0.74836,-14.6001 -1.331356,-14.5995 -0.340072,3e-4 -0.366796,-1.6107 -0.103556,-6.2425 0.29118,-5.1234 0.257092,-6.3034 -0.190088,-6.5798 -0.427412,-0.2642 -0.578624,-2.368 -0.701312,-9.7575 C 89.1359,1083.3405 89.00474,1081.6 88.5535,1081.6 c -0.369812,0 -0.559328,-0.4978 -0.571056,-1.5 -0.0096,-0.825 -0.291488,-2.22 -0.626292,-3.1 -1.035364,-2.7214 -1.060876,-2.9524 -0.399056,-3.6142 0.8725,-0.8725 0.90724,-4.5858 0.0429,-4.5858 -0.483332,0 -0.6,-0.6222 -0.6,-3.2 0,-2.5778 -0.116668,-3.2 -0.6,-3.2 -0.4866,0 -0.6,-0.6471 -0.6,-3.4236 0,-2.1806 0.145232,-3.3338 0.4,-3.1764 0.260324,0.1609 0.4,-1.9958 0.4,-6.1764 0,-5.7085 -0.07364,-6.4236 -0.661472,-6.4236 -0.593356,0 -0.634544,-0.5007 -0.4,-4.8628 0.143812,-2.6746 0.261472,-7.7146 0.261472,-11.2 0,-5.3664 0.09192,-6.3372 0.6,-6.3372 0.522896,0 0.611912,2.2745 0.692684,17.7 0.0565,10.7904 0.137324,13.8278 0.207032,7.7807 0.07336,-6.3639 0.255192,-9.8322 0.507312,-9.6763 0.450868,0.2786 0.55258,-25.5104 0.1315,-33.3416 -0.256,-4.76108 -0.2811,-4.8628 -1.2,-4.8628 H 85.2 v -8.82336 c 0,-4.85288 -0.204344,-10.48616 -0.4541,-12.51848 C 84.187492,972.51432 84.583332,966.4 85.435908,966.4 85.874356,966.4 86,965.68724 86,963.2 c 0,-1.86668 -0.166668,-3.2 -0.4,-3.2 -0.25,0 -0.4,-2.4 -0.4,-6.4 0,-4.46832 0.135616,-6.4 0.44932,-6.4 0.314468,0 0.409464,-1.4106 0.316524,-4.7 -0.07304,-2.585 -0.0682,-6.23 0.01076,-8.1 0.130792,-3.09772 0.17062,-3.23996 0.447972,-1.6 0.328032,1.93964 0.18902,-3.61336 -0.261292,-10.43732 l -0.25322,-3.83732 1.239848,0.18196 c 0.68192,0.10008 1.656028,0.0775 2.164688,-0.0502 L 90.239436,918.425 90.069968,908.81248 89.9005,899.2 h 1.449752 c 1.424712,0 1.449752,-0.0276 1.449752,-1.6 0,-1.44 -0.1,-1.6 -1,-1.6 -0.983944,0 -1,-0.0518 -1,-3.2236 0,-2.04724 -0.145972,-3.1334 -0.4,-2.9764 -0.244324,0.151 -0.4,-0.46252 -0.4,-1.5764 0,-1.01824 -0.187308,-1.8236 -0.424136,-1.8236 -0.69494,0 0.0078,-7.69764 0.752576,-8.24344 0.332808,-0.24392 0.669872,-0.86788 0.749028,-1.38656 0.07916,-0.51868 0.38158,-1.30912 0.672048,-1.75652 0.290468,-0.44744 0.630144,-1.95568 0.754836,-3.35168 0.174892,-1.958 0.417456,-2.6718 1.06118,-3.12268 C 94.541184,867.85576 94.656,867.2 93.800004,867.2 c -0.433332,0 -0.6,-0.44444 -0.6,-1.6 0,-1.15556 0.166668,-1.6 0.6,-1.6 0.433332,0 0.6,-0.44444 0.6,-1.6 0,-1.08092 -0.176164,-1.6 -0.543016,-1.6 -0.702228,0 -1.1356,-3.93048 -0.793868,-7.2 0.170528,-1.63156 0.424716,-2.4 0.793868,-2.4 0.41684,0 0.543016,-0.83044 0.543016,-3.57396 0,-1.96568 0.208076,-4.08068 0.462396,-4.7 C 95.116716,842.30672 95.452664,840.99 95.608952,840 l 0.28416,-1.8 0.05345,1.7 c 0.0358,1.13892 0.232668,1.7 0.59646,1.7 0.595668,0 1.056984,-3.168 1.056984,-7.25868 0,-1.81452 0.135004,-2.34132 0.6,-2.34132 0.479992,0 0.612016,-0.66004 0.660076,-3.3 0.05153,-2.83052 0.09989,-3.04392 0.339924,-1.5 l 0.279844,1.8 0.06008,-1.7 c 0.04303,-1.21776 0.230284,-1.7 0.66007,-1.7 0.47967,0 0.6,-0.59792 0.6,-2.98116 0,-2.84984 0.54636,-5.01884 1.26421,-5.01884 0.18469,0 0.33579,-0.36 0.33579,-0.8 0,-0.44444 0.26667,-0.8 0.6,-0.8 0.43334,0 0.6,-0.44444 0.6,-1.6 0,-0.88 -0.18,-1.6 -0.4,-1.6 -0.22,0 -0.4,-0.72 -0.4,-1.6 0,-1.10252 0.17361,-1.6 0.55837,-1.6 0.40769,0 0.63481,-0.86356 0.84163,-3.2 0.1558,-1.76 0.44454,-3.2 0.64164,-3.2 0.1971,0 0.35836,-0.82064 0.35836,-1.8236 0,-1.11388 0.15568,-1.7274 0.4,-1.5764 0.24158,0.14932 0.4,-0.39584 0.4,-1.3764 0,-1.17652 0.16522,-1.6236 0.6,-1.6236 0.45799,0 0.6,-0.5026 0.6,-2.12356 0,-1.24792 0.24216,-2.44368 0.58728,-2.9 0.323,-0.42704 0.593,-1.63144 0.6,-2.67644 0.0118,-1.77084 0.24456,-2.11604 1.31272,-1.94736 0.165,0.026 0.3,-0.67264 0.3,-1.55264 0,-0.93092 0.19068,-1.6 0.45596,-1.6 0.31272,0 0.38568,-0.681 0.23225,-2.16764 -0.15727,-1.5238 -0.0589,-2.38516 0.33131,-2.9 0.30528,-0.4028 0.56076,-1.58736 0.56776,-2.63236 0.007,-1.045 0.15392,-1.9 0.32648,-1.9 0.56586,0 1.7616,-2.42668 1.51385,-3.07228 C 113.1114,770.50368 114.0226,768 114.63873,768 c 0.30724,0 0.57921,-1.1432 0.76127,-3.2 0.1558,-1.76 0.44454,-3.2 0.64164,-3.2 0.1971,0 0.35836,-0.7258 0.35836,-1.61284 0,-0.88708 0.25476,-2.2226 0.56614,-2.9678 0.56034,-1.34108 1.89348,-2.4264 2.38127,-1.9386 0.13893,0.13892 0.25476,-0.63244 0.25741,-1.71408 0.003,-1.33804 0.31279,-2.50528 0.96828,-3.65168 0.5299,-0.92672 1.01632,-2.27672 1.08094,-3 0.079,-0.88396 0.58738,-1.77388 1.55113,-2.715 1.04387,-1.01936 1.46288,-1.796 1.54115,-2.85652 0.0809,-1.09672 0.54548,-1.91364 1.88058,-3.307 1.49087,-1.55596 1.7731,-2.10408 1.7731,-3.44352 0,-0.87612 0.15119,-1.59296 0.33598,-1.59296 0.18479,0 0.5705,-0.7106 0.85714,-1.57912 0.28664,-0.86852 0.76544,-1.67288 1.06402,-1.78744 0.35594,-0.1366 0.54286,-0.88984 0.54286,-2.18756 0,-1.08856 0.19698,-2.04488 0.43773,-2.12512 0.52964,-0.17656 1.17945,-2.89144 1.44105,-6.02076 0.10576,-1.265 0.35629,-2.3 0.55675,-2.3 0.20046,0 0.36447,-0.72 0.36447,-1.6 0,-0.88 0.1412,-1.6 0.31376,-1.6 0.49461,0 1.68624,-2.23536 1.68624,-3.16316 0,-0.46184 0.36,-1.51144 0.8,-2.33236 0.44,-0.82096 0.8,-2.08028 0.8,-2.79856 0,-1.2258 0.0859,-1.30592 1.4,-1.30592 1.38077,0 1.4,-0.0236 1.4,-1.70288 v -1.70288 l 1.8,0.14316 1.8,0.14316 v -1.64028 c 0,-1.3736 -0.13006,-1.64028 -0.8,-1.64028 -0.66666,0 -0.8,-0.26668 -0.8,-1.6 0,-1.74804 -0.0322,-1.7316 3.13863,-1.60452 l 1.73862,0.0697 -0.28201,-3.3854 -0.282,-3.3854 1.06444,0.20348 c 1.04208,0.1992 1.06236,0.16348 0.96586,-1.70072 -0.0802,-1.54912 0.0651,-2.03672 0.77895,-2.6148 0.48263,-0.3908 0.87751,-0.99672 0.87751,-1.34644 0,-0.34972 0.3167,-0.63588 0.70378,-0.63588 0.38708,0 0.92861,-0.36 1.2034,-0.8 0.65692,-1.05192 1.19602,-1.01368 1.41053,0.1 0.0953,0.495 0.19786,0.15088 0.22782,-0.76472 0.0493,-1.50664 0.32133,-1.92532 2.8644,-4.40864 1.69533,-1.65552 2.88751,-3.17184 3.00553,-3.82264 0.20324,-1.12084 1.63499,-2.80752 2.7446,-3.23332 0.35197,-0.13508 0.63994,-0.47792 0.63994,-0.76192 0,-0.28396 0.36699,-0.74552 0.81552,-1.02564 0.44854,-0.28008 0.72605,-0.65408 0.61669,-0.831 C 164.2934,665.50392 165.6031,664 166.4193,664 c 0.42566,0 0.99875,-0.36 1.27353,-0.8 0.27479,-0.44 0.73196,-0.8 1.01595,-0.8 0.28398,0 0.63383,-0.315 0.77744,-0.7 0.1436,-0.385 0.59096,-0.93732 0.99414,-1.22736 0.40316,-0.29008 0.64294,-0.67316 0.53283,-0.85132 -0.11011,-0.17816 0.32329,-0.4286 0.96311,-0.55656 0.63982,-0.128 1.7231,-0.77988 2.4073,-1.44872 0.68419,-0.66884 1.41778,-1.21604 1.6302,-1.21604 0.21241,0 0.3412,-0.135 0.2862,-0.3 -0.15409,-0.46228 3.1136,-3.58692 4.06791,-3.8898 0.46579,-0.14784 1.41439,-0.78712 2.108,-1.42068 0.69362,-0.63352 1.63529,-1.20532 2.09261,-1.27068 0.50413,-0.072 0.88083,-0.46572 0.95683,-0.99992 0.0689,-0.4846 0.47393,-0.99172 0.9,-1.12696 0.42606,-0.13524 0.77465,-0.41376 0.77465,-0.61892 0,-0.20516 0.27934,-0.37304 0.62076,-0.37304 0.69922,0 3.9073,-1.63812 4.11258,-2.1 0.0733,-0.165 0.38833,-0.3 0.7,-0.3 0.31166,0 0.56666,-0.18 0.56666,-0.4 0,-0.22 0.34938,-0.4 0.7764,-0.4 0.42701,0 0.88727,-0.1794 1.02279,-0.39868 0.13552,-0.21928 1.13615,-0.78144 2.22361,-1.24928 1.08746,-0.4678 1.9772,-1.0084 1.9772,-1.20128 0,-0.19292 0.46686,-0.35076 1.03745,-0.35076 0.64679,0 1.11118,-0.2636 1.23325,-0.7 0.10769,-0.385 1.12584,-1.14968 2.26255,-1.69924 1.13671,-0.5496 2.30461,-1.2246 2.59533,-1.5 0.29071,-0.27544 0.73478,-0.50076 0.98683,-0.50076 0.60859,0 11.13658,-5.25692 11.81317,-5.89868 0.29071,-0.27572 0.78571,-0.50132 1.1,-0.50132 0.31428,0 0.57142,-0.14012 0.57142,-0.31136 0,-0.17124 1.08,-0.63196 2.4,-1.0238 1.32,-0.39184 2.4,-0.8544 2.4,-1.02792 0,-0.17348 0.72104,-0.64056 1.6023,-1.03796 0.88127,-0.3974 1.80331,-0.96472 2.04898,-1.26076 0.24568,-0.296 0.96464,-0.5382 1.5977,-0.5382 0.63306,0 1.15102,-0.13604 1.15102,-0.30236 0,-0.41004 1.89577,-1.22068 3.60304,-1.54072 1.35409,-0.25384 3.96134,-1.57548 4.42509,-2.24312 0.40269,-0.57976 2.90897,-1.1392 3.17501,-0.70872 0.1497,0.2422 0.5442,0.16584 1.02045,-0.19752 0.67612,-0.51584 0.69891,-0.64912 0.17641,-1.03184 -0.45847,-0.3358 -0.19702,-0.39348 1.10837,-0.24452 1.19971,0.13688 1.88832,0.0148 2.31273,-0.40944 0.33239,-0.3324 1.63363,-0.86948 2.89163,-1.19348 3.60489,-0.92852 4.05323,-1.3462 3.65523,-3.40508 -0.18322,-0.94776 -0.34096,-1.8582 -0.35054,-2.0232 -0.01,-0.165 -0.28742,-0.3 -0.61742,-0.3 -0.37984,0 -0.6,-0.38248 -0.6,-1.04244 0,-0.62876 -0.38744,-1.3472 -0.97635,-1.81044 -0.537,-0.4224 -1.10201,-1.16828 -1.25559,-1.65756 -0.15358,-0.48924 -0.71416,-1.29516 -1.24574,-1.79092 -0.53157,-0.49576 -1.49054,-1.8976 -2.13103,-3.1152 -0.6405,-1.2176 -1.44476,-2.49404 -1.78724,-2.83652 -0.34248,-0.34248 -0.87095,-1.10064 -1.17438,-1.6848 -0.30343,-0.58416 -1.10923,-1.47252 -1.79068,-1.97408 -0.68144,-0.5016 -1.23899,-1.2506 -1.23899,-1.66444 0,-0.41388 -0.58483,-1.2446 -1.29964,-1.84604 -0.7148,-0.60148 -1.60238,-1.5914 -1.9724,-2.19988 -0.37002,-0.60844 -1.01271,-1.21416 -1.42821,-1.34604 -0.41549,-0.13184 -1.06698,-0.82292 -1.44775,-1.53568 -1.68233,-3.1492 -1.9269,-3.49596 -2.46569,-3.49596 -0.31353,0 -0.94359,-0.7322 -1.40014,-1.62712 -0.45655,-0.89492 -1.99021,-2.77584 -3.40813,-4.17988 -1.41792,-1.40404 -2.57804,-2.83184 -2.57804,-3.17288 0,-0.34108 -0.17072,-0.62012 -0.37939,-0.62012 -0.46716,0 -2.42061,-1.7754 -2.42061,-2.2 0,-0.33368 -1.90802,-2.2 -2.24918,-2.2 -0.27699,0 -1.35082,-1.08368 -1.35082,-1.3632 0,-0.1212 -0.99,-1.17924 -2.2,-2.3512 -1.21,-1.172 -2.2,-2.30968 -2.2,-2.52824 0,-0.21856 -0.22313,-0.62048 -0.49585,-0.8932 -0.72017,-0.72016 -1.37157,-4.06716 -1.06345,-5.46416 0.70499,-3.19656 -0.006,-7.4 -1.25097,-7.4 -0.21435,0 -0.38973,-0.20808 -0.38973,-0.4624 0,-0.25432 -0.72,-1.16816 -1.6,-2.0308 -0.88,-0.8626 -1.6,-1.73452 -1.6,-1.9376 0,-0.20304 -0.23119,-0.3692 -0.51375,-0.3692 -0.28257,0 -0.85925,-0.585 -1.28153,-1.3 -0.95272,-1.61316 -4.74125,-5.9 -5.21419,-5.9 -0.32653,0 -1.39053,-1.07124 -1.39053,-1.4 0,-0.41148 -0.88075,-1.15748 -2.6,-2.20224 -0.88,-0.53476 -1.95226,-1.29612 -2.38281,-1.69192 -0.43055,-0.39576 -1.45832,-0.90148 -2.28394,-1.1238 -0.97512,-0.2626 -1.74073,-0.80984 -2.18491,-1.5618 -0.37609,-0.63664 -1.09745,-1.37892 -1.60302,-1.64952 -0.9859,-0.5276 -2.65094,-2.81304 -3.11525,-4.27596 -0.15619,-0.49212 -0.45185,-0.89476 -0.65703,-0.89476 -0.20517,0 -0.37304,-0.208 -0.37304,-0.46224 0,-0.25424 -0.42284,-1.01924 -0.93964,-1.7 -0.51679,-0.68076 -1.06495,-1.91276 -1.21812,-2.73776 -0.15317,-0.825 -0.45034,-1.5 -0.66036,-1.5 -0.21068,0 -0.38188,-1.4346 -0.38188,-3.2 0,-1.86668 -0.16667,-3.2 -0.4,-3.2 -0.22,0 -0.4,-0.9556 -0.4,-2.12356 0,-1.24792 -0.24216,-2.44368 -0.58728,-2.9 -0.323,-0.42704 -0.593,-1.61644 -0.6,-2.64312 -0.007,-1.02664 -0.20478,-1.93068 -0.43951,-2.00892 -0.23474,-0.0782 -0.78653,-1.48824 -1.22619,-3.13332 -0.43968,-1.64508 -0.96762,-3.05108 -1.17321,-3.1244 -0.2056,-0.0734 -0.37381,-0.83836 -0.37381,-1.7 0,-0.86168 -0.16553,-1.56668 -0.36785,-1.56668 -0.20232,0 -0.67825,-0.945 -1.05763,-2.1 -0.37937,-1.155 -0.93384,-2.24396 -1.23214,-2.41988 -0.29831,-0.17592 -0.54238,-0.67092 -0.54238,-1.1 0,-0.42908 -0.18,-0.78012 -0.4,-0.78012 -0.22,0 -0.4,-0.1858 -0.4,-0.41284 0,-0.22708 -0.29643,-1.08208 -0.65873,-1.9 -0.3623,-0.81796 -0.70039,-1.67136 -0.7513,-1.89648 -0.0509,-0.22512 -0.65448,-1.29536 -1.34127,-2.37832 -0.68678,-1.08292 -1.2527,-2.15876 -1.2576,-2.39068 -0.005,-0.23192 -0.36088,-0.87168 -0.7911,-1.42168 -0.43022,-0.55 -0.78621,-1.315 -0.7911,-1.7 -0.005,-0.385 -0.16041,-0.7 -0.34558,-0.7 -0.18518,0 -0.54363,-0.69068 -0.79655,-1.53488 -0.25293,-0.8442 -0.82142,-1.86208 -1.26331,-2.262 -0.4419,-0.39992 -0.80346,-1.07608 -0.80346,-1.50256 0,-0.42948 -0.34418,-0.86548 -0.77146,-0.9772 -0.52853,-0.1382 -0.8545,-0.69324 -1.03516,-1.76256 -0.16102,-0.95304 -0.48364,-1.5608 -0.82854,-1.5608 -0.31066,0 -0.56484,-0.35564 -0.56484,-0.79032 0,-0.43468 -0.35933,-1.37968 -0.7985,-2.1 -0.43918,-0.72032 -0.79918,-1.59228 -0.8,-1.93764 -8e-4,-0.34536 -0.54524,-1.237 -1.20982,-1.98136 -0.66458,-0.74436 -1.4122,-2.03388 -1.66138,-2.8656 -0.24919,-0.83172 -0.78545,-1.813 -1.19168,-2.18064 -0.40624,-0.36764 -0.73862,-1.01116 -0.73862,-1.43004 0,-0.41888 -0.15368,-0.66664 -0.34151,-0.55056 C 152.89875,447.1862 152,445.52888 152,444.64316 c 0,-0.28552 -0.36,-0.84496 -0.8,-1.24316 -0.44,-0.3982 -0.8,-0.96608 -0.8,-1.262 0,-0.29588 -0.16511,-0.538 -0.36692,-0.538 -0.2018,0 -0.6823,-0.855 -1.06778,-1.9 -0.38548,-1.045 -0.94037,-2.18416 -1.23309,-2.53148 -0.29271,-0.34732 -0.53221,-0.91136 -0.53221,-1.25336 0,-0.34204 -0.3481,-0.71288 -0.77355,-0.82416 -0.50891,-0.13308 -0.86625,-0.6964 -1.04452,-1.64664 C 145.22516,432.60868 144.87688,432 144.55548,432 144.23322,432 144,431.59008 144,431.0236 c 0,-0.537 -0.16624,-1.07912 -0.36942,-1.20468 -0.20318,-0.1256 -0.66764,-1.1262 -1.03214,-2.22364 -0.38048,-1.14548 -0.90458,-1.99528 -1.23059,-1.99528 -0.31232,0 -0.56785,-0.36 -0.56785,-0.8 0,-0.44 -0.15784,-0.8 -0.35074,-0.8 -0.19291,0 -0.75624,-0.9426 -1.25184,-2.09464 -0.4956,-1.15208 -1.28322,-2.63708 -1.75026,-3.3 -1.15046,-1.63304 -1.70026,-2.55224 -2.51526,-4.20536 -0.37962,-0.77 -0.82762,-1.49632 -0.99554,-1.614 -0.16793,-0.11772 -0.58473,-0.88272 -0.92621,-1.7 -0.34149,-0.81732 -0.88847,-1.486 -1.21552,-1.486 -0.32705,0 -0.59463,-0.27512 -0.59463,-0.6114 0,-0.76832 -2.37769,-5.54204 -2.84997,-5.72192 C 128.15752,403.19332 128,402.90036 128,402.61564 c 0,-0.28472 -0.27,-0.74176 -0.6,-1.01564 -0.33,-0.27388 -0.6,-0.76312 -0.6,-1.08724 0,-0.32408 -0.405,-1.15332 -0.9,-1.84271 -0.92636,-1.29017 -1.13475,-1.60582 -2.5,-3.78693 -0.44,-0.70293 -1.002,-1.2792 -1.24888,-1.28059 -0.24688,-10e-4 -0.56401,-0.72253 -0.70472,-1.60253 -0.14072,-0.88 -0.4265,-1.6 -0.63507,-1.6 -0.20857,0 -0.59493,-0.72 -0.85859,-1.6 -0.26365,-0.88 -0.72088,-1.6 -1.01606,-1.6 -0.29517,0 -0.53668,-0.33796 -0.53668,-0.75102 0,-0.41306 -0.26014,-0.96692 -0.57808,-1.23079 -0.31794,-0.26387 -0.87241,-1.36591 -1.23214,-2.44897 -0.35974,-1.08307 -0.81961,-1.96922 -1.02193,-1.96922 -0.20232,0 -0.36785,-0.36 -0.36785,-0.8 0,-0.44 -0.16604,-0.8 -0.36898,-0.8 -0.20294,0 -0.56721,-0.60064 -0.80949,-1.33476 -0.24228,-0.73412 -0.75124,-1.6897 -1.13102,-2.12352 -0.92592,-1.05765 -2.09051,-3.27158 -2.09051,-3.97414 0,-0.31217 -0.18,-0.56758 -0.4,-0.56758 -0.22,0 -0.4,-0.27244 -0.4,-0.60543 0,-0.33298 -0.16549,-0.91798 -0.36776,-1.3 -0.20228,-0.38201 -0.94617,-1.86457 -1.6531,-3.29457 -0.70693,-1.43 -1.53143,-2.74394 -1.83223,-2.91988 -0.3008,-0.17593 -0.54691,-0.58083 -0.54691,-0.89979 0,-0.31895 -0.43606,-1.43501 -0.96902,-2.48012 -0.53296,-1.04512 -1.20768,-2.44021 -1.49936,-3.10021 -0.29169,-0.66 -0.64518,-1.29 -0.78554,-1.4 -0.61452,-0.48161 -3.14412,-5.06618 -3.145052,-5.7 -4e-4,-0.385 -0.1689,-0.7 -0.374072,-0.7 -0.205176,0 -0.489864,-0.405 -0.632636,-0.9 -0.36614,-1.26939 -2.33844,-5.27466 -2.671824,-5.42584 -0.152628,-0.0692 -0.4948,-0.78423 -0.760376,-1.58894 -0.26558,-0.80472 -0.734544,-1.71478 -1.04214,-2.02238 -0.307596,-0.3076 -0.662928,-1.07757 -0.789624,-1.71106 C 92.80366,336.5183 92.55646,336 92.38102,336 c -0.175436,0 -0.540516,-0.675 -0.81128,-1.5 -0.270768,-0.825 -0.824728,-1.73521 -1.23102,-2.02268 C 89.932424,332.18984 89.6,331.49799 89.6,330.93987 c 0,-0.66168 -0.265272,-1.08414 -0.762392,-1.21413 -0.49132,-0.12849 -0.856004,-0.69838 -1.02568,-1.60284 -0.444432,-2.36901 -2.913856,-7.70034 -3.911928,-8.44558 -0.385,-0.28748 -0.7,-0.97933 -0.7,-1.53745 0,-0.66168 -0.265272,-1.08414 -0.762392,-1.21413 -0.496788,-0.12992 -0.8568,-0.70264 -1.033392,-1.64395 -0.276068,-1.47157 -1.661644,-4.51928 -2.2194,-4.88179 -0.266916,-0.17348 -1.637868,-3.62136 -2.266444,-5.7 -0.11642,-0.385 -0.440948,-0.7 -0.721172,-0.7 -0.28022,0 -1.02114,-1.44 -1.646484,-3.2 -0.625344,-1.76 -1.32008,-3.20443 -1.543852,-3.20984 -0.621728,-0.015 -1.818472,-2.69448 -1.53426,-3.43512 0.151964,-0.39601 -0.01012,-0.8002 -0.410808,-1.02443 C 70.697808,292.92691 70.4,292.40919 70.4,291.98012 70.4,291.55106 70.136936,291.2 69.815416,291.2 c -0.337892,0 -0.756432,-0.6382 -0.991816,-1.51236 -0.22398,-0.8318 -0.675192,-1.8668 -1.002696,-2.3 C 67.4934,286.95444 67.21972,286.195 67.21272,285.7 c -0.007,-0.495 -0.17876,-0.9 -0.3817,-0.9 -0.202936,0 -0.5884,-0.66486 -0.856584,-1.47746 -0.268184,-0.81261 -0.822144,-1.83655 -1.231024,-2.27543 C 64.334536,280.60823 64,279.83309 64,279.32458 64,278.81606 63.83396,278.4 63.63102,278.4 c -0.202936,0 -0.5884,-0.66486 -0.856584,-1.47746 -0.268184,-0.81261 -0.822144,-1.83655 -1.231024,-2.27543 C 61.134536,274.20823 60.8,273.43309 60.8,272.92458 60.8,272.41606 60.637184,272 60.438184,272 59.857824,272 57.6,267.70903 57.6,266.60606 57.6,265.99024 57.373244,265.6 57.015416,265.6 c -0.337892,0 -0.756432,-0.6382 -0.991816,-1.51236 -0.22398,-0.8318 -0.675192,-1.8668 -1.002696,-2.3 C 54.6934,261.35444 54.41972,260.595 54.41272,260.1 c -0.0073,-0.51698 -0.261504,-0.9 -0.597304,-0.9 -0.354528,0 -0.751532,-0.669 -1.00882,-1.7 -0.233328,-0.935 -0.600696,-1.97 -0.816372,-2.3 -0.215672,-0.33 -0.567248,-1.005 -0.78128,-1.5 -0.214028,-0.495 -0.553568,-0.9 -0.754528,-0.9 -0.20096,0 -0.487396,-0.65039 -0.636524,-1.4453 -0.149128,-0.79492 -0.61916,-1.81886 -1.044516,-2.27543 C 48.34802,248.6227 48,247.83309 48,247.32458 48,246.78024 47.759588,246.4 47.415416,246.4 c -0.337892,0 -0.756432,-0.6382 -0.991816,-1.51236 -0.22398,-0.8318 -0.675192,-1.8668 -1.002696,-2.3 C 45.0934,242.15444 44.81972,241.395 44.81272,240.9 44.8054,240.38302 44.551216,240 44.215416,240 c -0.337892,0 -0.756432,-0.6382 -0.991816,-1.51236 -0.22398,-0.8318 -0.675192,-1.8668 -1.002696,-2.3 C 41.8934,235.75444 41.61972,234.995 41.61272,234.5 c -0.0073,-0.51698 -0.261504,-0.9 -0.597304,-0.9 -0.337892,0 -0.756432,-0.6382 -0.991816,-1.51236 -0.22398,-0.8318 -0.675194,-1.8668 -1.002697,-2.3 -0.327503,-0.4332 -0.601185,-1.19264 -0.608182,-1.68764 -0.0073,-0.51698 -0.261506,-0.9 -0.597303,-0.9 -0.337894,0 -0.756432,-0.6382 -0.991819,-1.51236 -0.223979,-0.8318 -0.675193,-1.8668 -1.002696,-2.3 -0.327503,-0.4332 -0.601185,-1.19264 -0.608182,-1.68764 -0.007,-0.495 -0.245925,-0.9 -0.530952,-0.9 -0.285027,0 -1.041823,-1.44 -1.681769,-3.2 -0.639946,-1.76 -1.351742,-3.20222 -1.581769,-3.20493 C 31.005963,214.39021 28.8,209.40384 28.8,208.4768 28.8,208.21456 28.565558,208 28.279018,208 c -0.726912,0 -1.933428,-3.56419 -1.812808,-5.35524 0.055,-0.81661 0.332597,-1.67778 0.616891,-1.91373 0.284295,-0.23594 0.516899,-0.61131 0.516899,-0.83414 0,-0.65095 1.907675,-2.23628 3.929429,-3.26547 1.028814,-0.52373 2.288326,-1.40023 2.798915,-1.94778 0.51059,-0.54755 1.730226,-1.22006 2.710304,-1.49446 C 38.758366,192.70769 39.775109,192 38.747155,192 c -0.974986,0 1.081449,-1.20288 3.089337,-1.80706 1.120072,-0.33703 2.405712,-1.03742 2.85698,-1.55642 0.451268,-0.51901 1.739844,-1.24901 2.863508,-1.62223 1.12366,-0.37322 2.04302,-0.84412 2.04302,-1.04644 0,-0.20232 0.36,-0.36785 0.8,-0.36785 0.44,0 0.8,-0.24266 0.8,-0.53925 0,-0.29659 0.765,-0.85507 1.7,-1.24106 0.935,-0.386 2.012556,-0.86334 2.394572,-1.06075 0.382016,-0.19742 0.901376,-0.35894 1.154132,-0.35894 0.252756,0 0.879768,-0.45341 1.39336,-1.00759 0.513588,-0.55417 1.466764,-1.11417 2.118164,-1.24445 0.6514,-0.13028 1.561328,-0.58807 2.02206,-1.01731 0.460732,-0.42924 1.2382,-0.85518 1.727704,-0.94654 0.489504,-0.0914 1.250008,-0.59665 1.690008,-1.12288 0.44,-0.52623 1.97,-1.53376 3.4,-2.23897 3.474344,-1.71337 4.460892,-2.27839 4.754036,-2.72277 0.13528,-0.20507 1.145964,-0.70607 2.245964,-1.11332 1.1,-0.40726 2.54,-1.14059 3.2,-1.62963 0.66,-0.48904 1.868864,-1.01321 2.68636,-1.16481 0.949932,-0.17617 1.573196,-0.54922 1.726956,-1.03369 0.132328,-0.41692 0.419088,-0.75804 0.637244,-0.75804 0.21816,0 0.297276,-0.1608 0.175812,-0.35733 -0.121464,-0.19653 0.1979,-0.46243 0.709696,-0.59088 1.25728,-0.31556 4.663932,-2.24203 4.663932,-2.63746 0,-0.1745 0.585,-0.55197 1.3,-0.83882 0.715,-0.28685 1.729276,-0.84869 2.253944,-1.24853 C 93.678612,160.32714 94.533612,160 95.053944,160 95.574276,160 96,159.82259 96,159.60576 c 0,-0.21684 1.073224,-0.936 2.38494,-1.59816 1.311716,-0.66215 2.58075,-1.56978 2.82007,-2.01696 0.23932,-0.44718 0.62173,-0.69772 0.84981,-0.55676 0.36998,0.22866 2.53481,-0.49052 4.43975,-1.47494 0.38202,-0.19742 0.94602,-0.35894 1.25335,-0.35894 0.30733,0 0.64178,-0.31743 0.74324,-0.7054 0.10146,-0.38797 0.93038,-1.06297 1.84206,-1.5 0.91168,-0.43703 1.65967,-0.99776 1.66219,-1.24607 0.005,-0.46385 1.55063,-1.23443 3.05011,-1.52037 0.46503,-0.0887 2.5864,-1.1663 4.71415,-2.3947 2.12775,-1.2284 4.05513,-2.23346 4.28305,-2.23346 0.22794,0 0.68415,-0.26973 1.01382,-0.5994 0.32967,-0.32967 1.08182,-0.71084 1.67143,-0.84705 1.71094,-0.39524 4.47203,-1.8526 4.47203,-2.36043 0,-0.25579 0.72,-0.70269 1.6,-0.99312 0.88,-0.29043 1.6,-0.76924 1.6,-1.06402 0,-0.31084 0.43781,-0.53598 1.04226,-0.53598 0.57324,0 1.57711,-0.45005 2.23083,-1.00012 0.65371,-0.55006 1.66969,-1.11488 2.25774,-1.25515 1.29446,-0.30878 2.13193,-0.91958 1.86127,-1.3575 -0.10949,-0.17717 0.34249,-0.44108 1.00441,-0.58646 0.66192,-0.14539 1.20349,-0.39387 1.20349,-0.5522 0,-0.15832 0.64825,-0.52227 1.44056,-0.80877 0.7923,-0.2865 1.77281,-0.85317 2.1789,-1.25926 0.6768,-0.6768 3.77304,-1.81785 4.48054,-1.6512 0.165,0.0389 0.3,-0.0961 0.3,-0.29998 0,-0.20386 0.97737,-0.92984 2.17193,-1.6133 1.19457,-0.68346 2.76957,-1.81241 3.5,-2.50878 0.73044,-0.69637 1.62188,-1.22266 1.98098,-1.16954 1.86363,0.2757 8.34709,-3.43611 8.34709,-4.77876 0,-0.2495 0.34527,-0.362 0.77007,-0.25091 0.50531,0.13215 0.70443,0.0303 0.57915,-0.29618 -0.21494,-0.5601 1.97226,-1.60311 3.17218,-1.51273 0.75492,0.0569 2.35026,-0.7837 3.40979,-1.79659 0.7264,-0.69443 1.95441,-1.32647 2.94955,-1.51812 0.45586,-0.0878 1.13335,-0.43521 1.50554,-0.77203 0.37219,-0.33683 0.88754,-0.61242 1.14522,-0.61242 0.25767,0 0.4685,-0.16205 0.4685,-0.3601 0,-0.19806 0.92362,-0.58168 2.05249,-0.85249 1.12887,-0.27081 2.34799,-0.78377 2.70916,-1.1399 0.75049,-0.74002 4.82209,-2.84751 5.50129,-2.84751 0.24831,0 0.55508,-0.27 0.68171,-0.6 0.12663,-0.33 0.56149,-0.6 0.96635,-0.6 0.40485,0 1.0855,-0.26428 1.51255,-0.58728 0.42705,-0.323 1.02946,-0.593 1.33869,-0.6 0.30924,-0.007 1.15223,-0.46272 1.87332,-1.01272 0.72108,-0.55 1.59307,-1 1.93775,-1 0.34468,0 0.63488,-0.225 0.64488,-0.5 0.01,-0.275 1.29151,-1.13 2.84779,-1.9 1.55627,-0.77 3.57308,-1.794376 4.4818,-2.276388 0.90872,-0.482016 1.93482,-0.887016 2.28022,-0.9 0.3454,-0.013 1.3354,-0.619584 2.2,-1.347992 0.8646,-0.728408 2.157,-1.560248 2.872,-1.848528 0.715,-0.28828 1.3,-0.736752 1.3,-0.996604 0,-0.259848 0.945,-0.793292 2.1,-1.185432 2.70005,-0.916708 3.95558,-1.507612 4.69157,-2.208052 0.32536,-0.309652 1.36036,-0.903072 2.3,-1.31872 0.93963,-0.415644 1.70843,-0.927296 1.70843,-1.137 0,-0.209708 0.32,-0.381284 0.7111,-0.381284 0.39111,0 1.01069,-0.349888 1.37685,-0.777532 0.36616,-0.42764 1.35116,-0.901112 2.1889,-1.052156 0.83773,-0.151044 1.76735,-0.469128 2.06581,-0.706852 0.71787,-0.57178 1.47028,-1.011352 4.37763,-2.5575 1.33831,-0.711724 2.60119,-1.594064 2.8064,-1.960756 0.20521,-0.366692 0.87975,-0.720728 1.49897,-0.786748 0.61922,-0.06602 1.62448,-0.48868 2.2339,-0.939244 C 246.26899,77.168644 247.0449,76.8 247.3838,76.8 c 0.33891,0 0.61624,-0.135 0.6163,-0.3 5e-5,-0.165 1.30505,-0.922092 2.9,-1.682428 1.59494,-0.760336 3.08483,-1.625384 3.31086,-1.922324 0.37072,-0.487032 1.19356,-0.779332 2.43404,-0.864644 0.24475,-0.01684 1.14475,-0.594736 2,-1.284236 0.85525,-0.689496 2.31254,-1.59462 3.23843,-2.011388 0.92589,-0.416768 1.79151,-0.932632 1.92361,-1.146368 0.1321,-0.213736 0.58955,-0.388612 1.01657,-0.388612 0.42701,0 0.77639,-0.2475 0.77639,-0.55 0,-0.3025 0.53614,-0.657228 1.19142,-0.788284 1.74504,-0.349008 5.19101,-1.994116 5.20045,-2.4827 0.004,-0.23154 0.91136,-0.74578 2.01532,-1.142756 1.10395,-0.396976 2.61431,-1.13378 3.35635,-1.637344 0.74204,-0.50356 2.04381,-1.137268 2.89281,-1.408236 1.97775,-0.631212 3.83361,-1.56364 4.34365,-2.182344 0.22,-0.266872 1.075,-0.72908 1.9,-1.027132 0.825,-0.298052 1.5,-0.775756 1.5,-1.06156 0,-0.3058 0.47366,-0.519644 1.15102,-0.519644 0.63306,0 1.38602,-0.283156 1.67324,-0.629236 0.71572,-0.86238 3.26367,-2.099568 3.87574,-1.881908 0.275,0.0978 0.5,-0.0052 0.5,-0.228952 0,-0.223724 0.495,-0.463724 1.1,-0.533336 0.77959,-0.0897 1.13651,-0.383212 1.22534,-1.007656 0.0689,-0.4846 0.47394,-0.991728 0.9,-1.126956 C 298.8514,48.856728 299.2,48.57822 299.2,48.373044 299.2,48.167872 299.47565,48 299.81255,48 c 0.33691,0 0.71617,-0.27 0.8428,-0.6 0.1501,-0.391156 0.77226,-0.6 1.78745,-0.6 0.85646,0 1.5572,-0.159968 1.5572,-0.355484 0,-0.195516 0.63,-0.473672 1.4,-0.618124 0.77,-0.144452 1.4,-0.421628 1.4,-0.615944 0,-0.781452 1.34166,-1.59916 4.00084,-2.438408 1.98946,-0.627884 2.79916,-1.075876 2.79916,-1.548716 0,-0.4452 0.69472,-0.901592 2.1,-1.379583 3.751,-1.275867 4.3,-1.533537 4.3,-2.018184 0,-0.614676 2.61712,-1.870628 3.32885,-1.597512 0.29864,0.114599 0.77386,-0.06983 1.05604,-0.409841 0.28219,-0.340012 0.85103,-0.618204 1.26409,-0.618204 0.41306,0 0.75102,-0.23384 0.75102,-0.519645 0,-0.452819 2.03976,-1.471559 2.9099,-1.453321 0.17045,0.0036 0.80045,-0.249912 1.4,-0.563299 4.66534,-2.438575 5.61074,-2.744214 6.96908,-2.253033 1.00733,0.364255 1.57041,0.978154 2.32512,2.534977 0.54775,1.129877 1.10553,2.144321 1.23953,2.254321 0.13399,0.11 0.48515,0.875 0.78035,1.7 0.2952,0.825 0.65323,1.5 0.79562,1.5 0.1424,0 0.58358,0.72 0.9804,1.6 0.39682,0.88 0.88478,1.6 1.08436,1.6 0.19957,0 0.25161,0.18 0.11564,0.4 -0.13597,0.22 -0.0566,0.4 0.17639,0.4 0.23299,0 0.42361,0.466852 0.42361,1.037448 0,0.6764 0.25989,1.105412 0.74678,1.232736 0.4321,0.112996 0.96474,0.855704 1.26402,1.762552 C 347.89529,47.294732 348.27924,48 348.46402,48 c 0.18479,0 0.33598,0.192856 0.33598,0.428572 0,0.235712 0.27,0.698572 0.6,1.028572 0.33,0.33 0.6,0.958976 0.6,1.397724 0,0.963868 0.68805,2.329048 1.58514,3.145132 1.20859,1.09946 2.01486,2.566204 2.01486,3.665396 0,0.598064 0.17042,1.192716 0.37872,1.321448 0.74187,0.458504 2.86495,3.931508 3.0894,5.05374 0.12556,0.627812 0.4766,1.347552 0.78008,1.599424 0.30349,0.251872 0.5518,0.705908 0.5518,1.008968 0,0.303064 0.26306,0.551024 0.58458,0.551024 0.34097,0 0.75951,0.649628 1.00434,1.558872 0.23087,0.857376 0.68781,1.661728 1.01542,1.787444 0.37194,0.142728 0.59566,0.7591 0.59566,1.641132 0,1.076736 0.16642,1.413728 0.7,1.417504 0.81848,0.0058 2.5,2.420068 2.5,3.58944 0,0.443084 0.15863,0.805608 0.35252,0.805608 0.19388,0 0.55378,0.799316 0.79978,1.776256 0.24599,0.976944 0.6174,1.881408 0.82533,2.00992 0.20794,0.128516 0.99729,1.4442 1.75411,2.923744 0.75681,1.479544 2.01144,3.630384 2.78807,4.77964 0.77662,1.14926 1.53435,2.64642 1.68383,3.327028 0.14949,0.680608 0.52482,1.334564 0.83408,1.453236 0.30925,0.118672 0.56228,0.556508 0.56228,0.972972 0,0.41646 0.15076,0.757204 0.33503,0.757204 0.18427,0 0.67927,1.012896 1.1,2.250884 0.42073,1.237984 0.98997,2.337236 1.26497,2.442796 0.275,0.10555 0.5,0.53265 0.5,0.94912 0,0.41646 0.27565,0.7572 0.61255,0.7572 0.70287,0 1.16086,0.97886 1.35685,2.9 0.0168,0.165 0.3006,0.3 0.6306,0.3 0.36028,0 0.6,0.3694 0.6,0.92458 0,0.50851 0.36,1.31098 0.8,1.78327 0.44,0.47229 0.8,1.2115 0.8,1.64271 0,1.20791 0.42818,2.04944 1.0428,2.04944 0.30646,0 0.5572,0.36 0.5572,0.8 0,0.44 0.1653,0.8 0.36734,0.8 0.20204,0 0.78612,1.08 1.29797,2.4 0.51184,1.32 1.06653,2.4 1.23265,2.4 0.16612,0 0.30204,0.27 0.30204,0.6 0,0.33 0.17278,0.6 0.38394,0.6 0.21117,0 0.5988,0.7171 0.86139,1.59356 0.26259,0.87646 0.80982,1.89435 1.21605,2.26199 0.40624,0.36764 0.73862,1.1034 0.73862,1.63502 0,0.53161 0.225,1.21747 0.5,1.52412 1.14332,1.27491 1.38194,1.66047 1.62362,2.62339 0.13959,0.55616 0.66388,1.4915 1.16509,2.07853 0.83137,0.97372 1.47096,2.15612 4.04413,7.47629 0.47694,0.98609 1.101,2.04279 1.3868,2.34821 0.28581,0.30543 0.62331,1.07362 0.75,1.70711 0.1267,0.63348 0.45052,1.15178 0.7196,1.15178 0.26908,0 0.81392,0.72 1.21076,1.6 0.39684,0.88 0.87416,1.6 1.06076,1.6 0.18656,0 0.33924,0.52714 0.33924,1.17143 0,0.64429 0.24804,1.41948 0.55124,1.72266 0.30316,0.30317 0.68228,1.14788 0.84244,1.87712 0.17724,0.80703 0.58768,1.40341 1.04876,1.52399 0.48388,0.12654 0.75756,0.55284 0.75756,1.18002 0,0.54006 0.26524,1.24717 0.58944,1.57135 0.32416,0.32419 0.77612,1.28282 1.00432,2.1303 0.2282,0.84748 0.68296,1.64373 1.0106,1.76945 0.3276,0.12571 0.59564,0.56028 0.59564,0.9657 0,0.40542 0.31888,1.08607 0.70864,1.51256 0.38972,0.42648 1.15472,1.9133 1.7,3.30405 0.54524,1.39075 1.28548,2.84581 1.64496,3.23348 0.35948,0.38766 0.78148,1.28694 0.93772,1.99839 0.15628,0.71146 0.53716,1.39065 0.8464,1.50932 0.30924,0.11868 0.56228,0.46651 0.56228,0.77298 0,0.30646 0.15864,0.5572 0.35252,0.5572 0.19388,0 0.55376,0.79932 0.79976,1.77626 0.246,0.97694 0.62264,1.88464 0.837,2.0171 0.21432,0.13247 1.05548,1.5694 1.86924,3.19319 0.81376,1.62379 2.04356,3.56797 2.73288,4.32041 0.83044,0.90645 1.42416,2.13149 1.75964,3.63056 0.27848,1.24436 0.67344,2.26248 0.87764,2.26248 0.20424,0 0.37132,0.3408 0.37132,0.75734 0,0.41654 0.6194,1.81154 1.37644,3.1 2.04592,3.48212 4.22356,7.82273 4.22356,8.41865 0,0.28821 0.18,0.52401 0.4,0.52401 0.22,0 0.4,0.32804 0.4,0.72897 0,0.79706 2.22376,5.1149 2.82596,5.48706 0.20572,0.12715 0.37404,0.68118 0.37404,1.23118 0,0.55 0.15888,0.90181 0.35308,0.7818 0.33688,-0.20821 2.04692,3.25475 2.04692,4.14514 0,0.23422 0.18,0.42585 0.4,0.42585 0.22,0 0.4,0.32804 0.4,0.72897 0,0.79706 2.22376,5.1149 2.82596,5.48706 0.20572,0.12715 0.37404,0.68118 0.37404,1.23118 0,0.55 0.15888,0.90181 0.35308,0.7818 0.33688,-0.20821 2.04692,3.25475 2.04692,4.14514 0,0.23422 0.18,0.42585 0.4,0.42585 0.22,0 0.4,0.34541 0.4,0.76758 0,0.86712 1.24156,3.22603 1.7,3.22989 0.165,0.001 0.3,0.32813 0.3,0.72608 0,0.39795 0.26428,1.07295 0.58728,1.5 0.323,0.42705 0.593,1.10207 0.6,1.50006 0.007,0.39798 0.17184,0.62527 0.36628,0.50508 0.19448,-0.12019 0.57264,0.36419 0.8404,1.07639 0.80152,2.13215 1.32216,3.09492 1.67364,3.09492 0.1828,0 0.3324,0.43541 0.3324,0.96758 0,1.02226 1.1912,3.4256 1.7,3.42989 0.165,0.001 0.3,0.27818 0.3,0.61508 0,0.33691 0.27,0.71617 0.6,0.8428 0.33,0.12663 0.6,0.57098 0.6,0.98745 0,0.41646 0.25568,0.7572 0.5682,0.7572 0.32176,0 0.67964,0.56394 0.82504,1.3 0.36908,1.86857 1.04744,3.5 1.45528,3.5 0.19332,0 0.35148,0.36 0.35148,0.8 0,0.44 0.25416,0.8 0.56484,0.8 0.34656,0 0.66852,0.61376 0.83316,1.58822 0.1476,0.87353 0.6134,2.02692 1.03516,2.5631 0.42176,0.53617 0.76684,1.26147 0.76684,1.61177 0,0.3503 0.24996,0.63691 0.55548,0.63691 0.32148,0 0.66972,0.6089 0.82664,1.4453 0.14912,0.79492 0.61916,1.81886 1.04452,2.27543 0.42536,0.45657 0.77336,1.11617 0.77336,1.4658 0,0.34962 0.36,0.94392 0.8,1.32066 0.44,0.37674 0.8,0.97119 0.8,1.32101 0,0.81514 3.4976,7.4294 4.23876,8.0159 0.30868,0.24425 0.56124,0.71658 0.56124,1.04962 0,0.69726 2.0004,4.44015 2.47964,4.63961 0.1762,0.0733 0.32136,0.34334 0.3226,0.6 0.006,1.24199 0.89768,3.46667 1.3896,3.46667 0.30484,0 0.66212,0.33993 0.794,0.7554 0.13188,0.41548 0.67772,1.22796 1.21296,1.80552 0.53528,0.57756 1.25824,1.88964 1.6066,2.91572 0.68672,2.02264 1.81648,4.12336 2.21752,4.12336 0.13776,0 0.4546,0.6814 0.70412,1.51423 0.24952,0.83282 0.818,1.90529 1.26332,2.38327 0.44532,0.47798 0.80964,1.15222 0.80964,1.49833 0,0.3461 0.27,0.73289 0.6,0.85952 0.33,0.12663 0.6,0.39456 0.6,0.59539 0,0.20084 0.45,1.078 1,1.94926 0.55,0.87126 1,1.83842 1,2.14926 0,0.31083 0.2388,0.65679 0.53072,0.7688 0.29188,0.11201 0.85016,1.04019 1.24064,2.06262 0.39048,1.02243 1.23164,2.43016 1.86928,3.12829 0.63764,0.69813 1.15936,1.47493 1.15936,1.72623 0,0.2513 0.36,0.91458 0.8,1.47395 0.44,0.55937 0.8,1.41049 0.8,1.89139 0,0.54297 0.30852,0.95503 0.814,1.08723 0.75544,0.19754 3.986,4.22914 3.986,4.97431 0,0.57692 1.72092,2.33792 2.28468,2.33792 0.29724,0 0.65832,0.3072 0.8024,0.68266 0.40532,1.05624 1.79692,2.51734 2.3976,2.51734 0.29724,0 0.65636,0.315 0.79808,0.7 0.2948,0.80095 1.99124,2.5 2.49616,2.5 0.18572,0 0.9258,0.91649 1.6446,2.03664 0.7188,1.12015 1.50812,2.24515 1.75408,2.5 1.54172,1.5975 2.2224,3.57955 2.2224,6.47142 0,2.06728 0.25316,3.6013 0.83792,5.07713 0.7852,1.98177 1.628,5.20591 2.33044,8.91481 0.16664,0.88 0.70128,2.26066 1.18804,3.06814 0.48676,0.80747 0.97628,1.97747 1.08784,2.6 0.11156,0.62252 0.37224,1.19186 0.57928,1.26519 0.20708,0.0733 0.37648,0.45609 0.37648,0.85057 0,0.39447 0.69904,1.45947 1.55344,2.36666 1.26404,1.34215 1.82292,1.64944 3,1.64944 0.7956,0 1.44656,0.17758 1.44656,0.39463 0,0.21705 0.61552,0.65181 1.3678,0.96614 0.75228,0.31433 1.58872,0.98429 1.85872,1.48881 0.27004,0.50451 0.85272,1.21027 1.29496,1.56834 0.52212,0.42279 0.79124,1.09933 0.76764,1.92965 -0.0244,0.85843 0.21788,1.43737 0.73728,1.76173 0.56068,0.35016 0.7736,0.935 0.7736,2.12492 0,1.09849 0.24868,1.86686 0.75152,2.32191 0.41876,0.37898 0.959,1.73474 1.22012,3.06199 0.25776,1.31004 0.59564,2.38188 0.75084,2.38188 0.38872,0 1.00744,1.49569 2.63724,6.37517 0.76704,2.29635 1.31192,4.30891 1.21092,4.47235 -0.10104,0.16348 -0.006,0.40664 0.20984,0.5404 0.40308,0.24912 2.81952,5.0786 2.81952,5.63504 0,0.16972 0.6606,1.674 1.46804,3.34284 0.8074,1.6688 1.51652,3.2936 1.57584,3.61068 0.31772,1.69912 0.66252,2.61804 1.12532,2.9988 0.28388,0.2336 0.82708,1.23472 1.20704,2.22472 0.37996,0.99 0.95136,2.09036 1.26972,2.4452 0.3184,0.35488 0.65728,1.05228 0.75308,1.5498 0.0958,0.49752 0.45772,1.33728 0.8042,1.86608 0.34652,0.52884 0.53828,1.10992 0.4262,1.29128 -0.11208,0.1814 0.0547,0.67132 0.37064,1.08872 0.31596,0.4174 0.5802,0.99144 0.5872,1.27564 0.007,0.2842 0.38088,0.91192 0.83084,1.39488 0.45,0.483 1.01136,1.64548 1.24752,2.58328 0.23612,0.93784 0.58796,1.70512 0.78184,1.70512 0.19388,0 0.35252,0.36 0.35252,0.8 0,0.44 0.13908,0.8 0.30904,0.8 0.16996,0 0.6356,0.675 1.03472,1.5 0.39912,0.825 0.98004,2.0096 1.29096,2.6324 0.31092,0.62284 0.56528,1.38784 0.56528,1.7 0,0.3122 0.25724,0.5676 0.57164,0.5676 0.37088,0 0.73204,0.7726 1.02832,2.19972 0.25116,1.20988 0.71392,2.457 1.02836,2.77144 0.3144,0.31444 0.57168,0.76456 0.57168,1.00028 0,0.23572 0.24136,0.42856 0.53636,0.42856 0.32284,0 0.72956,0.86344 1.02176,2.16908 0.26696,1.193 0.74564,2.38504 1.06364,2.649 0.31804,0.26392 0.57824,0.72784 0.57824,1.03088 0,0.30308 0.24996,0.55104 0.55548,0.55104 0.32432,0 0.67156,0.61864 0.83436,1.48648 0.15336,0.8176 0.6234,1.97036 1.04452,2.56176 0.42108,0.5914 0.76564,1.49916 0.76564,2.01728 0,0.51812 0.315,1.14388 0.7,1.39052 0.385,0.24668 1.87,2.7254 3.3,5.50828 1.43,2.78288 3.26988,5.81936 4.08864,6.74772 0.81876,0.9284 1.49376,2.01708 1.5,2.41932 0.006,0.40224 0.73136,1.42312 1.61136,2.26864 0.88,0.84552 1.6,1.73704 1.6,1.9812 0,0.24416 0.27664,0.55008 0.6148,0.67984 0.33812,0.12976 0.87896,0.74672 1.2018,1.37104 0.56792,1.09824 0.92724,1.52808 4.15284,4.96792 0.8252,0.88 1.84464,2.34728 2.26544,3.2606 0.45636,0.99048 1.35852,2.03004 2.23564,2.5762 0.80876,0.5036 1.67132,1.35636 1.91676,1.89504 0.24544,0.53868 0.88872,1.32744 1.42948,1.7528 0.5408,0.4254 0.98324,1.02216 0.98324,1.3262 0,0.30404 0.4358,0.96596 0.96848,1.47096 0.53268,0.505 1.77788,1.6832 2.76716,2.6182 0.98928,0.935 1.98132,1.7 2.20456,1.7 0.22324,0 0.51016,0.32852 0.6376,0.73004 0.1772,0.55828 0.52332,0.6872 1.47128,0.54808 0.78864,-0.11576 1.3636,0.0188 1.58056,0.36996 0.36216,0.58616 0.50708,0.61408 5.17036,0.99556 3.21004,0.2626 4,0.61848 4,1.80196 0,0.4112 0.36,0.97244 0.8,1.24724 0.44,0.27476 0.8,0.81628 0.8,1.20336 0,0.43712 0.30312,0.7038 0.8,0.7038 0.50692,0 0.8,0.26668 0.8,0.72788 0,0.6626 1.65348,2.47212 2.25896,2.47212 0.13904,0 0.49768,0.315 0.79696,0.7 0.51524,0.66288 0.57588,0.65884 1.14408,-0.0764 0.5614,-0.72652 0.6,-0.6686 0.6,0.9 0,1.37776 0.1348,1.67644 0.75664,1.67644 0.4488,0 0.85164,0.36616 0.99016,0.9 0.12844,0.495 0.77744,1.53 1.44224,2.3 0.6648,0.77 1.6126,2.525 2.10628,3.9 0.59792,1.66548 1.11336,2.5 1.54412,2.5 0.49744,0 0.70588,0.56708 0.90356,2.45868 0.36372,3.47976 0.32848,3.94132 -0.301,3.94132 -0.35888,0 -0.6124,0.57092 -0.71056,1.6 -0.10592,1.11068 0.004,1.6 0.358,1.6 0.2808,0 0.51056,0.24212 0.51056,0.538 0,0.29592 0.36436,0.86776 0.80972,1.2708 0.44536,0.40304 0.74216,0.92596 0.65956,1.162 -0.13908,0.39748 0.91084,1.95596 2.33284,3.46276 0.32884,0.34844 0.59788,0.84344 0.59788,1.1 0,0.25652 0.18,0.46644 0.4,0.46644 0.22,0 0.4,0.27444 0.4,0.60992 0,0.33544 0.4124,0.76668 0.91644,0.95832 0.50404,0.19164 1.1472,0.62648 1.42924,0.96632 0.28204,0.33984 0.74796,0.52764 1.0354,0.41736 0.28744,-0.11032 0.88516,0.2604 1.32832,0.82376 0.44316,0.56336 1.00484,1.02432 1.24816,1.02432 0.24336,0 0.44244,0.16616 0.44244,0.36924 0,0.20308 0.51056,0.8798 1.1346,1.50384 0.62404,0.62404 1.24036,1.40288 1.36956,1.73076 0.208,0.52776 0.28232,0.52784 0.64796,0 0.34696,-0.50024 0.64104,-0.37436 1.83968,0.7874 0.78468,0.76056 1.346,1.59312 1.24736,1.85012 -0.10952,0.2854 0.10044,0.39412 0.53936,0.27936 0.71568,-0.18716 2.17668,1.01648 3.06508,2.52516 0.43804,0.74392 0.58396,0.80504 2.1564,0.90332 0.63808,0.04 0.8,0.33332 0.8,1.45 0,1.36668 0.038,1.4 1.6,1.4 h 1.6 v -1.60176 -1.60176 l 4.5028,0.25716 c 2.47652,0.14144 6.07652,0.12608 8,-0.034 L 672,559.92752 v -2.36412 -2.36408 h 8 c 7.6544,0 8,0.0336 8,0.777 0,0.62816 -0.32564,0.80056 -1.7,0.9 -0.935,0.0676 8.425,0.0548 20.8,-0.0288 l 22.5,-0.1516 v 0.8516 c 0,0.72688 0.23436,0.8516 1.6,0.8516 1.15556,0 1.6,-0.16668 1.6,-0.6 0,-0.48332 0.62224,-0.6 3.2,-0.6 h 3.2 v -1.8 -1.8 h 3.2 c 2.93332,0 3.2,-0.0667 3.2,-0.8 0,-0.66668 0.26668,-0.8 1.6,-0.8 1.33332,0 1.6,0.13332 1.6,0.8 0,0.66668 0.26668,0.8 1.6,0.8 1.33332,0 1.6,-0.13332 1.6,-0.8 0,-0.66668 0.26668,-0.8 1.6,-0.8 1.33332,0 1.6,0.13332 1.6,0.8 0,0.66668 0.26668,0.8 1.6,0.8 h 1.6 v 1.6 1.6 h 1.6 1.6 v -1.6 -1.6 h 3.2 3.2 v 1.6 1.6 h 6.4 6.4 v -1.6 -1.6 h 3.2 3.2 v 1.6 1.6 h 3.2 3.2 v 1.55836 1.55836 l 3.2,0.28328 c 1.76,0.1558 4.64,0.1558 6.4,0 l 3.2,-0.28328 v -1.55836 -1.55836 h 3.2 3.2 v 1.5488 1.54876 l 5.9,0.22068 c 6.41816,0.24008 18.6176,0.16348 30.9,-0.19404 4.29,-0.12484 6.36,-0.0972 4.6,0.0616 -2.67988,0.24164 31.6872,0.17016 50.2928,-0.10468 5.288,-0.0781 5.51628,-0.0476 6.12268,0.81888 0.6246,0.89244 0.71364,0.9 10.6072,0.9 8.60208,0 9.97732,0.0827 9.97732,0.6 0,0.43332 0.44444,0.6 1.6,0.6 1.20208,0 1.6,-0.15968 1.6,-0.642 0,-0.57728 1.11552,-0.62768 11.06672,-0.5 8.39488,0.10772 11.10692,0.26272 11.23332,0.642 0.21224,0.63692 19.29996,0.73584 19.29996,0.1 0,-0.542 3.09596,-0.51216 3.2772,0.0316 0.2012,0.60368 22.0444,0.60368 22.2456,0 0.1702,-0.51064 12.8772,-0.61724 12.8772,-0.108 0,0.17792 3.5537,0.53408 7.8972,0.7914 4.5972,0.27236 7.954,0.6386 8.0333,0.87648 0.1785,0.53568 6.4695,0.54404 6.4695,0.008 0,-0.22 0.72,-0.4 1.6,-0.4 1.1556,0 1.6,0.16668 1.6,0.6 0,0.52668 2.9333,0.6 24,0.6 21.0667,0 24,0.0733 24,0.6 0,0.50832 0.9778,0.6 6.4,0.6 5.4222,0 6.4,-0.0917 6.4,-0.6 0,-0.43332 0.4444,-0.6 1.6,-0.6 1.1556,0 1.6,0.16668 1.6,0.6 0,0.5 0.8,0.6 4.8,0.6 4,0 4.8,-0.1 4.8,-0.6 0,-0.5 0.8,-0.6 4.8,-0.6 4,0 4.8,0.1 4.8,0.6 0,0.5146 1.3805,0.61152 9.7,0.68108 8.1472,0.0681 8.8996,0.11916 4.7,0.31892 -4.7118,0.22412 -4.5331,0.24252 3.1,0.31892 6.8973,0.069 8.1,0.17016 8.1,0.68108 0,0.50832 0.9778,0.6 6.4,0.6 5.4222,0 6.4,0.0917 6.4,0.6 0,0.51444 1.3833,0.61248 9.7,0.68744 l 9.7,0.0875 -8.2,0.22508 -8.2,0.22508 11.3,0.0875 c 9.7389,0.0754 11.3,0.17032 11.3,0.68744 0,0.5 0.8,0.6 4.8,0.6 4,0 4.8,0.1 4.8,0.6 0,0.51332 1.1556,0.6 8,0.6 5.0667,0 8,0.14668 8,0.4 0,0.22 0.72,0.4 1.6,0.4 1.1556,0 1.6,0.16668 1.6,0.6 0,0.48332 0.6222,0.6 3.2,0.6 2.5778,0 3.2,-0.11668 3.2,-0.6 0,-0.5 0.8,-0.6 4.8,-0.6 4,0 4.8,0.1 4.8,0.6 0,0.48332 0.6222,0.6 3.2,0.6 2.5778,0 3.2,0.11668 3.2,0.6 0,0.51668 1.3333,0.6 9.6,0.6 8.2667,0 9.6,-0.0833 9.6,-0.6 0,-0.43332 0.4444,-0.6 1.6,-0.6 1.1556,0 1.6,0.16668 1.6,0.6 0,0.50556 1.0229,0.61204 6.5,0.67656 5.902,0.0695 6.1504,0.0993 2.7,0.32344 -3.3272,0.21616 -2.9415,0.2564 3.1,0.32344 5.8326,0.0647 6.9,0.16936 6.9,0.67656 0,0.5 0.8,0.6 4.8,0.6 4,0 4.8,-0.1 4.8,-0.6 0,-0.5 0.8,-0.6 4.8,-0.6 4,0 4.8,0.1 4.8,0.6 0,0.50832 0.9778,0.6 6.4,0.6 5.4222,0 6.4,0.0917 6.4,0.6 0,0.43332 0.4444,0.6 1.6,0.6 1.1556,0 1.6,-0.16668 1.6,-0.6 0,-0.43332 0.4444,-0.6 1.6,-0.6 1.2924,0 1.6,0.14284 1.6,0.743 0,0.6156 0.4218,0.78712 2.4587,1 1.3523,0.14136 4.2323,0.257 6.4,0.257 3.2367,0 3.9413,0.10728 3.9413,0.6 0,0.43332 0.4444,0.6 1.6,0.6 1.3333,0 1.6,0.13332 1.6,0.8 0,0.66668 0.2667,0.8 1.6,0.8 1.3333,0 1.6,-0.13332 1.6,-0.8 0,-0.76668 0.2667,-0.8 6.4,-0.8 5.9479,0 6.4,0.052 6.4,0.73604 0,0.68692 0.639,0.75344 9.5802,0.99768 5.2691,0.14392 11.7491,0.14504 14.4,0.004 l 4.8198,-0.25916 v 1.66148 1.66148 h 1.6 1.6 v -1.657 -1.65696 l 2.4587,0.25696 c 1.3523,0.14136 4.2323,0.257 6.4,0.257 h 3.9413 v 1.34912 c 0,1.33416 0.023,1.3514 2.1,1.55892 1.155,0.1154 4.035,0.11132 6.4,-0.009 l 4.3,-0.21884 v 1.65992 1.65992 l 1.7,0.0772 c 0.935,0.0425 3.77,0.0875 6.3,0.1 11.9818,0.0592 14.4,0.1974 14.4,0.82276 0,0.43332 0.4444,0.6 1.6,0.6 1.3333,0 1.6,0.13332 1.6,0.8 0,0.75124 0.2987,0.80584 4.9,0.89604 2.695,0.0528 6.295,0.0431 8,-0.0216 l 3.1,-0.11768 v 1.62164 1.62164 l 6.3,0.0467 c 3.465,0.0256 7.7085,0.0766 9.43,0.11316 1.7216,0.0364 3.2172,-0.0745 3.3237,-0.24672 0.1064,-0.17224 1.6679,-0.28172 3.4699,-0.24328 1.8348,0.0392 2.5284,0.13724 1.5764,0.223 -1.388,0.125 -1.7,0.30132 -1.7,0.96056 0,0.75356 0.2137,0.79876 3.2009,0.677 3.0303,-0.12348 3.2009,-0.0855 3.2,0.71256 0,0.736 0.3039,0.87488 2.3991,1.09388 1.32,0.13796 3.48,0.13796 4.8,0 l 2.4,-0.25084 v 1.65696 1.657 h 4.7106 4.7106 l -0.1526,-1.6 -0.1526,-1.6 h 3.442 c 2.9994,0 3.4461,-0.09 3.4736,-0.7 0.019,-0.41816 0.1128,-0.49868 0.2333,-0.2 0.2989,0.7408 2.9351,0.65096 2.9351,-0.1 0,-0.50832 0.9778,-0.6 6.4,-0.6 6.1333,0 6.4,0.0332 6.4,0.8 0,0.53332 -0.2667,0.8 -0.8,0.8 -1.0268,0 -1.0268,0.65156 0,1.29284 0.6616,0.41316 0.8,0.9328 0.8,3.00336 v 2.5038 h 1.6 c 1.44,0 1.6,-0.1 1.6,-1 0,-0.9 0.16,-1 1.6,-1 1.4386,0 1.6,0.10056 1.6,0.99664 v 0.9966 l 4.8,-0.25808 4.8,-0.25812 v 1.86148 1.86148 h 3.2 c 2.6356,0 3.2,0.11032 3.2,0.6254 0,0.51804 0.5322,0.6162 3.1,0.57176 6.2261,-0.1078 6.5,-0.074 6.5,0.80284 0,0.64496 0.2667,0.8 1.3758,0.8 1.2954,0 1.3851,-0.0878 1.5328,-1.5 l 0.1569,-1.5 0.067,1.5 0.067,1.5 h 4.8 4.8 v 1.6 1.6 l 2.1,0.0316 c 1.155,0.0172 1.875,0.1224 1.6,0.23336 -0.275,0.11096 -0.5,0.7898 -0.5,1.50848 v 1.30676 l 4.3,0.22444 c 2.365,0.12348 5.1458,0.12808 6.1794,0.0104 1.87,-0.21316 1.8802,-0.22256 2.0302,-1.86456 l 0.1506,-1.65028 0.07,1.7 0.07,1.7 h 3.4 3.4 v 1.6 1.6 h 2.8 2.8 l 0.067,-1.7 0.067,-1.7 0.1625,1.5948 c 0.089,0.87716 0.3742,1.7294 0.6328,1.89388 0.3514,0.22348 0.3438,0.3006 -0.03,0.3052 -0.3036,0.004 -0.5,0.55604 -0.5,1.40612 0,1.18416 0.1388,1.40052 0.9,1.40348 0.495,0 1.8335,0.1156 2.9744,0.25268 l 2.0744,0.2492 0.1558,-1.75268 c 0.1408,-1.58524 0.1623,-1.53296 0.2255,0.54732 l 0.07,2.3 h 1.6 c 1.3333,0 1.6,0.13332 1.6,0.8 0,0.88976 -0.2738,0.85572 7.7,0.95736 2.475,0.0316 5.58,-0.0771 6.9,-0.24132 1.32,-0.16428 3.615,-0.18932 5.1,-0.0557 l 2.7,0.243 v 1.74832 1.74832 h 1.6 c 1.1556,0 1.6,0.16668 1.6,0.6 0,0.43332 0.4444,0.6 1.6,0.6 1.3333,0 1.6,0.13332 1.6,0.8 0,0.66668 0.2667,0.8 1.6,0.8 h 1.6 v 1.6 c 0,1.55656 0.037,1.6 1.3758,1.6 1.2954,0 1.3851,-0.0878 1.5328,-1.5 l 0.1569,-1.5 0.067,1.5 0.067,1.5 h 3.2 3.2 v 1.6 1.6 h 4.8 4.8 v 1.6 c 0,1.55656 0.037,1.6 1.3758,1.6 1.2954,0 1.3851,-0.0878 1.5328,-1.5 l 0.1569,-1.5 0.067,1.5 c 0.066,1.47212 0.097,1.5 1.6672,1.5 h 1.6 v 1.6 1.6 h 3.2 3.2 v 1.6 1.6 h 3.2 3.2 v -1.35836 -1.35836 l 3.1469,-0.27856 3.1469,-0.27856 0.2531,-2.42176 c 0.4233,-4.04976 0.4809,-3.9044 -1.5469,-3.9044 h -1.8 v -1.6 -1.6 h -1.6 -1.6 v -1.6 -1.6 h -1.6 c -1.3333,0 -1.6,0.13332 -1.6,0.8 0,0.66668 -0.2667,0.8 -1.6,0.8 -1.3333,0 -1.6,-0.13332 -1.6,-0.8 0,-0.73332 -0.2667,-0.8 -3.2,-0.8 h -3.2 v -1.6 -1.6 h -1.6 c -1.3333,0 -1.6,-0.13332 -1.6,-0.8 0,-0.73332 -0.2667,-0.8 -3.2,-0.8 h -3.2 v -2.4 -2.4 h -1.6 c -1.3333,0 -1.6,0.13332 -1.6,0.8 0,0.66668 -0.2667,0.8 -1.6,0.8 -1.1272,0 -1.6,-0.17048 -1.6,-0.577 0,-0.38816 -0.5564,-0.62712 -1.7,-0.73012 l -1.7,-0.15312 1.7,-0.0699 c 1.41,-0.058 1.7,-0.20632 1.7,-0.86988 0,-0.66668 0.2667,-0.8 1.6,-0.8 1.1556,0 1.6,0.16668 1.6,0.6 0,0.48332 0.6222,0.6 3.2,0.6 3.1467,0 3.2,0.0168 3.2,1 0,0.98332 0.053,1 3.2,1 2.5778,0 3.2,0.11668 3.2,0.6 0,0.4456 0.4693,0.6 1.8236,0.6 1.1139,0 1.7274,0.15568 1.5764,0.4 -0.1493,0.24156 0.3958,0.4 1.3764,0.4 1.1765,0 1.6236,0.1652 1.6236,0.6 0,0.4532 0.4885,0.6 1.9966,0.6 1.5634,0 2.105,0.17356 2.4962,0.8 0.2748,0.44 0.8163,0.8 1.2034,0.8 0.4371,0 0.7038,0.30312 0.7038,0.8 0,0.66668 0.2667,0.8 1.6,0.8 1.1556,0 1.6,0.16668 1.6,0.6 0,0.43332 0.4444,0.6 1.6,0.6 0.88,0 1.6,0.18 1.6,0.4 0,0.22 0.72,0.4 1.6,0.4 1.1556,0 1.6,0.16668 1.6,0.6 0,0.43332 0.4444,0.6 1.6,0.6 1.1556,0 1.6,0.16668 1.6,0.6 0,0.43332 0.4444,0.6 1.6,0.6 0.88,0 1.6,0.18 1.6,0.4 0,0.22 0.72,0.4 1.6,0.4 0.88,0 1.6,0.1718 1.6,0.3818 0,0.59772 1.971,2.4182 2.6182,2.4182 0.32,0 0.5818,0.27 0.5818,0.6 0,0.43332 0.4444,0.6 1.6,0.6 1.1556,0 1.6,-0.16668 1.6,-0.6 0,-0.91288 0.7921,-0.71788 1.6826,0.4142 0.5398,0.68612 1.0381,0.93792 1.5407,0.7784 0.4917,-0.15604 0.9165,0.0421 1.2561,0.5858 0.2822,0.45188 0.8159,0.8216 1.186,0.8216 0.3702,0 1.1819,0.50704 1.8038,1.1268 0.622,0.61972 1.4908,1.33424 1.9308,1.5878 0.6878,0.3964 0.5334,0.46276 -1.1,0.47324 -1.6293,0.0104 -1.9,0.12616 -1.9,0.81216 0,0.73332 -0.2667,0.8 -3.2,0.8 -2.9333,0 -3.2,-0.0667 -3.2,-0.8 0,-0.66668 0.2667,-0.8 1.6,-0.8 1.1556,0 1.6,-0.16668 1.6,-0.6 0,-0.4828 -0.6185,-0.6 -3.1667,-0.6 -1.9545,0 -3.223,0.16904 -3.3138,0.4416 -0.081,0.24292 -0.7481,0.49276 -1.4825,0.55524 -1.0294,0.0876 -1.3806,-0.0594 -1.5328,-0.6416 -0.2816,-1.077 -3.3042,-1.10556 -3.3042,-0.0312 0,0.56608 -0.3272,0.7288 -1.5,0.74596 -0.825,0.012 -2.265,0.0462 -3.2,0.076 L 1683.2,646.4 v 3.2 3.2 h 1.6 1.6 v 1.6 1.6 h 1.6 1.6 v 1.6 1.6 h 3.2 3.2 v 1.6 1.6 h 1.6 1.6 v 3.2 3.2 h 3.2 3.2 v 1.6 1.6 h 1.6 c 1.3333,0 1.6,0.13332 1.6,0.8 0,0.66668 0.2667,0.8 1.6,0.8 1.3333,0 1.6,0.13332 1.6,0.8 0,0.66668 0.2667,0.8 1.6,0.8 h 1.6 v 1.6 1.6 h 3.2 3.2 v 1.6 c 0,1.33332 0.1333,1.6 0.8,1.6 0.6643,0 0.8,0.26668 0.8,1.57216 68.8532,34.28164 8.8,-20.62016 52.7998,43.22784 1.1333,0 1.2,-0.0889 1.2,-1.6 0,-0.88 -0.1538,-1.6 -0.3418,-1.6 -0.4162,0 -0.8649,-8.4106 -0.8911,-16.7 l -0.019,-6.1 h -1.5739 c -1.5322,0 -1.574,-0.0372 -1.574,-1.4 0,-1.13332 -0.1524,-1.4 -0.8,-1.4 -0.6666,0 -0.8,-0.26668 -0.8,-1.6 0,-1.15556 -0.1666,-1.6 -0.6,-1.6 -0.4358,0 -0.6,-0.44912 -0.6,-1.642 v -1.64204 l 1.5261,0.14556 c 1.4228,0.13568 1.5137,0.0808 1.3434,-0.8102 -0.2231,-1.16744 0.7159,-1.01452 1.3362,0.21756 0.2231,0.44316 0.7181,0.75988 1.1,0.7038 0.3819,-0.056 0.6943,0.144 0.6943,0.44452 0,1.00516 1.9761,2.5828 3.2351,2.5828 1.2926,0 1.6477,0.2254 3.8936,2.47132 1.9809,1.98088 2.4713,2.60892 2.4713,3.1646 0,0.25832 0.3393,1.03088 0.7539,1.71688 0.4147,0.68596 0.8811,2.31072 1.0367,3.6106 0.3106,2.59568 1.2251,4.90708 2.3092,5.8366 0.3849,0.33 0.8713,1.5242 1.0809,2.6538 0.2096,1.1296 0.7822,2.7496 1.2725,3.6 0.4903,0.8504 1.0459,2.5362 1.2348,3.7462 0.1888,1.21 0.4452,2.875 0.5697,3.7 0.1245,0.825 0.3793,1.5 0.5662,1.5 0.1869,0 0.4652,0.675 0.6184,1.5 0.1531,0.825 0.5219,1.87436 0.8195,2.33192 0.2976,0.45756 0.4204,0.95256 0.273,1.1 -0.1475,0.14744 -0.082,0.26808 0.1463,0.26808 0.2279,0 0.4354,0.93284 0.4611,2.07296 0.026,1.14012 0.1845,2.17512 0.3529,2.3 0.4383,0.32496 1.2528,2.08996 1.389,3.00992 0.064,0.43056 0.4309,1.10556 0.8159,1.5 0.385,0.3944 0.7,1.17292 0.7,1.72996 0,0.55708 0.27,1.65904 0.6,2.44884 0.33,0.7898 0.6,2.03704 0.6,2.7716 0,0.86524 0.3133,1.62736 0.8896,2.16428 0.5646,0.52604 0.9194,1.37172 0.9713,2.31556 0.1115,2.02572 0.7736,4.92868 1.1943,5.23672 0.6257,0.458 2.1448,3.59296 2.1448,4.426 0,0.44956 0.36,1.0422 0.8,1.317 0.44,0.27476 0.8012,0.77128 0.8027,1.10336 0,0.33208 0.3602,1.1438 0.7973,1.8038 0.4372,0.66 0.7972,1.65 0.8,2.2 0,0.55 0.3629,1.54 0.8,2.2 0.4372,0.66 0.796,1.77604 0.7974,2.48012 0,0.70408 0.2314,1.42408 0.5111,1.6 0.8605,0.5414 1.4915,2.46168 1.4915,4.53872 0,1.49436 0.1475,1.98116 0.6,1.98116 0.4174,0 0.6,0.42 0.6,1.38012 0,0.75908 0.2288,1.52408 0.5085,1.7 1.0084,0.63444 1.4915,2.62296 1.4915,6.13872 0,2.9166 0.1114,3.58116 0.6,3.58116 0.4334,0 0.6,0.44444 0.6,1.6 0,1.29244 0.1429,1.6 0.743,1.6 0.6156,0 0.7872,0.42176 1,2.45868 0.1414,1.35228 0.257,3.51228 0.257,4.8 0,1.73692 0.1442,2.34132 0.5584,2.34132 0.4077,0 0.6348,0.86356 0.8416,3.2 0.1887,2.13172 0.4493,3.2 0.7805,3.2 0.3537,0 0.5698,1.35524 0.7489,4.69684 0.1403,2.61916 0.4328,4.7572 0.6612,4.83332 0.2252,0.0751 0.4094,0.84152 0.4094,1.70316 0,0.86168 0.18,1.56668 0.4,1.56668 0.22,0 0.4,0.77196 0.4,1.71544 0,0.94348 0.36,2.42152 0.8,3.28456 0.5972,1.1714 0.8,2.35888 0.8,4.68456 0,2.84876 0.069,3.11544 0.8,3.11544 0.6667,0 0.8,0.26668 0.8,1.6 0,0.88 0.18,1.6 0.4,1.6 0.2206,0 0.399,1.0318 0.3978,2.3 0,4.1156 0.8923,10.5 1.4742,10.5 0.3934,0 0.528,0.8162 0.528,3.2 0,2.41628 0.132,3.2 0.5388,3.2 0.4063,0 0.5995,1.13172 0.7853,4.59876 0.2323,4.3346 0.6451,6.04324 1.612,6.67192 0.2472,0.16076 0.4473,2.4288 0.4925,5.58416 0.05,3.50064 0.229,5.36436 0.5239,5.46264 0.2608,0.087 0.4451,1.09484 0.4418,2.41584 0,1.24668 0.2584,4.69668 0.5811,7.66668 1.187,10.92412 1.4246,14.37476 1.4246,20.68948 0,3.54896 0.1754,7.77064 0.3897,9.38156 0.3964,2.97952 1.1663,15.98616 1.4934,25.22896 0.099,2.805 0.3462,5.1 0.5487,5.1 0.2026,0 0.3682,1.425 0.3682,3.16668 0,2.17744 0.1562,3.21892 0.5,3.33396 0.3851,0.12884 0.491,2.688 0.4607,11.13332 -0.022,6.03132 0.1056,11.06188 0.2828,11.179 0.1771,0.11716 0.3577,6.86736 0.4011,15.00048 0.07,13.07576 0,14.93556 -0.5828,16.06716 -0.7924,1.5323 -0.9844,10.5194 -0.2248,10.5194 0.9245,0 -0.6035,8.5485 -2.6699,14.9376 -0.3446,1.0656 -0.7302,3.9006 -0.8568,6.3 -0.1265,2.3993 -0.3831,4.3624 -0.5702,4.3624 -0.5441,0 -0.395,3.111 0.1599,3.3362 0.394,0.1599 0.3894,0.2808 -0.022,0.5705 -1.2514,0.8814 -1.678,5.6087 -1.678,18.5931 0,8.2002 -0.1417,12.7002 -0.4,12.7002 -0.2444,0 -0.4,1.8667 -0.4,4.8 0,2.9333 -0.1556,4.8 -0.4,4.8 -0.22,0 -0.4,0.705 -0.4,1.5667 0,0.8616 -0.179,1.6266 -0.3979,1.7 -0.2189,0.073 -0.5036,2.1133 -0.6327,4.5333 -0.2284,4.2778 -0.7206,6.6 -1.3988,6.6 -0.1828,0 -0.3964,2.835 -0.4747,6.3 -0.1423,6.2984 -0.8179,10.4432 -2.1245,13.0324 -0.3142,0.6228 -0.5714,1.9278 -0.5714,2.9 0,0.9722 -0.18,1.7676 -0.4,1.7676 -0.22,0 -0.4,0.72 -0.4,1.6 0,0.88 -0.1613,1.6 -0.3584,1.6 -0.1971,0 -0.4671,1.44 -0.6,3.2 -0.1329,1.76 -0.3503,4.64 -0.4832,6.4 -0.1627,2.1543 -0.4042,3.2 -0.7389,3.2 -0.5329,0 -1.0142,5.8962 -1.0177,12.4667 0,1.9066 -0.174,3.5266 -0.3846,3.6 -0.2105,0.073 -0.5782,2.9233 -0.8172,6.3333 -0.239,3.41 -0.6067,6.26 -0.8172,6.3333 -0.2106,0.073 -0.4098,0.8834 -0.4429,1.8 l -0.06,1.6667 -0.2798,-1.8 c -0.24,-1.5439 -0.2884,-1.3305 -0.3399,1.5 -0.045,2.4704 -0.1955,3.3 -0.5989,3.3 -0.4067,0 -0.6002,1.145 -0.7891,4.6696 -0.1376,2.5683 -0.4149,4.7733 -0.6162,4.9 -0.2013,0.1267 -0.4981,3.0654 -0.6594,6.5304 -0.2609,5.6019 -0.3704,6.3 -0.988,6.3 -0.5562,0 -0.7457,0.4898 -0.9515,2.4587 -0.1414,1.3523 -0.257,3.5123 -0.257,4.8 0,1.8145 -0.135,2.3413 -0.6,2.3413 -0.4933,0 -0.6,0.7111 -0.6,4 0,2.2 -0.1511,4 -0.3358,4 -0.7627,0 -1.3138,2.3777 -1.5432,6.6578 -0.1833,3.4211 -0.3764,4.5422 -0.7822,4.5422 -0.3619,0 -0.5388,0.5252 -0.5388,1.6 0,1.0766 -0.1766,1.6 -0.5401,1.6 -0.3945,0 -0.6801,1.2934 -1.0599,4.8 -0.2859,2.64 -0.6405,4.8 -0.7879,4.8 -0.3475,0 -1.2173,7.521 -1.2144,10.5 0,1.7788 -0.1337,2.3 -0.5977,2.3 -0.4333,0 -0.6,0.4444 -0.6,1.6 0,1.1556 -0.1667,1.6 -0.6,1.6 -0.4638,0 -0.6,0.5222 -0.5999,2.3 3e-4,4.0141 -0.9182,10.5 -1.4868,10.5 -0.3322,0 -0.5133,0.5646 -0.5133,1.6 0,1.1556 -0.1667,1.6 -0.6,1.6 -0.4382,0 -0.6016,0.4583 -0.6061,1.7 0,1.245 -0.1099,1.5394 -0.3939,1.1 -0.2658,-0.4114 -0.3897,0.5634 -0.3939,3.1 0,3.0195 -0.1165,3.7 -0.6061,3.7 -0.4833,0 -0.6,0.6222 -0.6,3.2 0,2.8748 -0.077,3.2 -0.7584,3.2 -0.6576,0 -0.796,0.4248 -1.0416,3.2 -0.2068,2.3364 -0.434,3.2 -0.8416,3.2 -0.3848,0 -0.5584,0.4975 -0.5584,1.6 0,1.3333 -0.1333,1.6 -0.8,1.6 -0.7276,0 -0.8087,0.2987 -0.896,3.3 -0.053,1.815 -0.043,4.695 0.022,6.4 l 0.1176,3.1 h -1.58 -1.58 l -0.2832,3.2 c -0.1558,1.76 -0.1558,4.64 0,6.4 l 0.2832,3.2 h -1.5946 -1.5946 l -0.284,3.0298 c -0.1561,1.6663 -0.1772,3.1363 -0.047,3.2666 0.1304,0.1303 0.237,-0.5131 0.237,-1.4297 V 1334.4 h 1.6 1.6 v 3.2 3.2 h 1.6 1.6 v -1.6 -1.6 h 1.6 1.6 v 1.6 1.6 h -1.6 -1.6 v 1.6 1.6 h 1.6 1.6 v 1.6 1.6 h 3.2 3.2 v 1.6 1.6 h 1.6 1.6 v 1.6 1.6 h 1.6 1.6 v 1.6 1.6 h 1.6 1.6 v 1.6 1.6 h 3.2 3.2 v 3.2 3.2 h 1.6 1.6 v 1.6 1.6 h 3.2 3.2 v 1.6 1.6 h 1.6 1.6 v 3.2 3.2 h 1.6 1.6 v 1.6 1.6 h 1.6 1.6 v 3.2 3.2 h 6.4 6.4 v 1.6 c 0,1.44 0.1,1.6 1,1.6 0.9,0 1,0.16 1,1.6 0,1.1556 0.1666,1.6 0.6,1.6 0.8931,0 0.842,4.6696 -0.062,5.6685 -0.634,0.7005 -0.5661,0.7315 1.6,0.7315 h 2.262 v 1.6 1.6 h 3.2 3.2 v 3.2 3.2 h 3.2 3.2 v 1.6 1.6 h 1.6 1.6 v 3.2 3.2 h 1.6 1.6 v 1.6 1.6 h -1.6 -1.6 v 1.6 1.6 h 1.6 1.6 v 1.6 1.6 h -1.6 -1.6 v 1.6 1.6 h 1.6 1.6 v 1.6 1.6 h -1.6 -1.6 v 3.2 3.2 h 1.6 1.6 v 3.2 3.2 h 1.6 1.6 v 1.6 1.6 h -1.6 -1.6 v 1.6 1.6 h 1.6 1.6 v 1.6 1.6 h -1.6 -1.6 v 1.6 1.6 h -1.6 -1.6 v 1.6 1.6 h 3.2 3.2 v 4.8 4.8 h -1.6 -1.6 v 1.6 1.6 h -1.6 -1.6 v 3.2 3.2 h 1.6 1.6 v 4.8 4.8 h 1.6 1.6 v -1.6 -1.6 h 1.6 1.6 v 3.2 3.2 h 1.6 1.6 v 4.8 4.8 h -1.6 -1.6 v 1.6 1.6 h -1.6 -1.6 v 1.6 1.6 h 1.6 1.6 v 1.6 1.6 h 1.6 1.6 v 1.6 1.6 h -3.2 -3.2 v 1.6 1.6 h 1.6 1.6 v 1.6 1.6 h 1.6 1.6 v 3.2 3.2 h -1.6 -1.6 v 1.6 1.6 h 1.6 1.6 v 4.8 4.8 h -1.6 -1.6 v 3.2 3.2 h 1.6 1.6 v 1.6 1.6 h 1.6 1.6 v 3.2 3.2 h -3.2 -3.2 v 1.6 1.6 h 1.6 1.6 v 8 8 h -1.6 -1.6 v 3.2 3.2 h 1.6 1.6 v 1.6 1.6 h 1.6 1.6 v 3.2 3.2 h -3.2 -3.2 v 1.6 1.6 h -1.6 -1.6 v 3.2 3.2 h -1.6 -1.6 v 1.6 1.6 h -1.6 -1.6 v 1.6 1.6 h 1.6 1.6 v 1.6 1.6 h -1.6 -1.6 v 1.6 1.6 h -1.6 -1.6 v 4.8 4.8 h -1.6 -1.6 v 1.6 1.6 h 1.6 1.6 v 1.6 1.6 h -1.6 -1.6 v 1.6 1.6 h -1.6 -1.6 v 4.8 4.8 h -3.2 -3.2 v 3.2 3.2 h -1.6 -1.6 v 3.2 3.2 h -1.6 -1.6 v 3.2 3.2 h 1.6 1.6 v 1.6 1.6 h -1.6 -1.6 v 4.8 4.8 h -1.6 -1.6 v -1.6 -1.6 h -1.6 -1.6 v 3.2 3.2 h 1.6 1.6 v 4.8 4.8 h -1.6 -1.6 v 3.2 3.2 h -3.2 -3.2 v 1.6 1.6 h -1.6 -1.6 v 1.6 1.6 h 1.6 1.6 v 1.6 1.6 h -3.2 -3.2 v 1.6 1.6 h -1.6 -1.6 v 1.6 1.6 h 1.6 1.6 v 3.2 3.2 h -1.6 -1.6 v 1.6 1.6 h -1.6 -1.6 v 3.2 3.2 h -1.6 -1.6 v -1.6 -1.6 h -1.6 -1.6 v 1.6 1.6 h -1.6 -1.6 v 3.2 3.2 h -1.6 -1.6 v 1.6 1.6 h -4.8 -4.8 v 3.2 3.2 h -1.6 -1.6 v -1.6 -1.6 h -1.6 -1.6 v 3.2 3.2 h -4.8 -4.8 v 1.6 1.6 h 1.6 1.6 v 1.6 1.6 h -1.6 -1.6 v -1.6 -1.6 h -1.6 -1.6 v 3.2 3.2 h -4.8 -4.8 v 1.6 1.6 h -1.6 -1.6 v 1.6 1.6 h -3.2 -3.2 v 3.2 3.2 h -3.2 -3.2 v 1.6 1.6 h 1.6 1.6 v 1.6 1.6 h -1.6 -1.6 v -1.6 -1.6 h -1.6 -1.6 v 1.6 1.6 h -3.2 -3.2 v 1.6 1.6 h -1.6 -1.6 v 1.6 1.6 h 1.6 1.6 v 1.6 1.6 h -1.6 -1.6 v -1.6 -1.6 h -3.2 -3.2 v 1.6 1.6 h -3.2 -3.2 v 1.6 1.6 h -1.6 -1.6 v -1.6 -1.6 h -1.6 -1.6 v 4.8 4.8 h -1.6 -1.6 v -1.6 -1.6 h -3.2 -3.2 v 1.6 1.6 h 1.6 1.6 v 1.6 1.6 h -4.8 -4.8 v 1.6 1.6 h -3.2 -3.2 v 1.6 1.6 h -1.6 -1.6 v 1.6 1.6 h -1.6 -1.6 v -1.6 -1.6 h -3.2 -3.2 v 1.6 1.6 h -3.2 -3.2 v -1.6 -1.6 h -1.6 -1.6 v 3.2 3.2 h -6.4 -6.4 v 1.6 1.6 h -4.8 -4.8 v 1.6 1.6 h -4.8 -4.8 v 1.6 1.6 h -1.6 -1.6 v 1.6 1.6 h -3.2 -3.2 v 1.6 1.6 h -6.4 -6.4 v 1.6 1.6 h -4.8 -4.8 v 1.6 1.6 h -1.6 -1.6 v -1.6 -1.6 h -1.6 -1.6 v 1.6 1.6 h -4.8 -4.8 v 1.6 1.6 h -3.2 -3.2 v 1.6 1.6 h -6.4 -6.4 v 1.6 1.6 h -4.8 -4.8 v 1.6 1.6 h -6.4 -6.4 v 1.6 1.6 h -4.8 -4.8 v 1.6 1.6 h -11.2 -11.2 v 1.6 1.6 h -8 -8 v 1.6 1.6 h -1.6 -1.6 v 1.6 1.6 h -1.6 -1.6 v -1.6 -1.6 h -1.6 -1.6 v 1.6 1.6 h -12.8 -12.8 v 1.6 1.6 h -3.2 -3.2 v 1.6 1.6 h -4.8 -4.8 v -1.6 -1.6 h -1.6 -1.6 v 1.6 1.6 h -6.4 -6.4 v 1.6 1.6 h -6.4 -6.4 v 1.6 1.6 h -8 -8 v 1.6 1.6 h -11.2 -11.2 v -1.6 -1.6 h -1.6 -1.6 v 3.2 3.2 h -1.6 -1.6 v -1.6 -1.6 h -3.2 -3.2 v 1.6 1.6 h -8 -8 v 1.6 1.6 h -1.6 -1.6 v -1.6 -1.6 h -3.2 -3.2 v 1.6 1.6 h -6.4 -6.4 v 1.6 1.6 h -1.6 -1.6 v -1.6 -1.6 h -3.2 -3.2 v 1.6 1.6 h -8 -8 v 1.6 1.6 h -1.6 -1.6 v -1.6 -1.6 h -4.8 -4.8 v 1.6 1.6 h -1.6 -1.6 v -1.6 -1.6 h -1.6 -1.6 v 1.6 1.6 h -25.6 -25.6 v 1.6 1.6 h -6.4 -6.4 v -1.6 -1.6 h -1.6 -1.6 v 3.143 3.143 l -2.4587,0.257 c -1.3523,0.1414 -4.2323,0.257 -6.4,0.257 H 1219.2 v -1.8 -1.8 h -1.6 -1.6 v 1.8 1.8 h -1.6 -1.6 v -1.8 -1.8 h -8 -8 v 1.6 1.6 h -1.6 -1.6 v -1.6 -1.6 h -1.6 -1.6 v 1.6 1.6 h -4.8 -4.8 v -1.6 -1.6 h -1.6 c -1.5917,0 -1.6,0.01 -1.6,1.5516 v 1.5515 l -6.1,0.246 c -5.8383,0.2355 -162.973,0.1751 -169.8,-0.065 z m -194.60832,-13.1255 c -0.13292,-0.1329 -0.47792,-0.1471 -0.76668,-0.032 -0.31908,0.1277 -0.22432,0.2225 0.24168,0.2417 0.42164,0.017 0.65792,-0.077 0.525,-0.2101 z M 793.86492,1882.7 c -0.11096,-0.275 -0.20176,-0.05 -0.20176,0.5 0,0.55 0.0908,0.775 0.20176,0.5 0.11096,-0.275 0.11096,-0.725 0,-1 z m 17.87972,-1.7 c -0.12664,-0.33 -0.30096,-0.6 -0.38744,-0.6 -0.0864,0 -0.1572,0.27 -0.1572,0.6 0,0.33 0.17436,0.6 0.38744,0.6 0.21312,0 0.28384,-0.27 0.1572,-0.6 z M 799.3,1878.5177 c -0.495,-0.095 -1.305,-0.095 -1.8,0 -0.495,0.095 -0.09,0.1733 0.9,0.1733 0.99,0 1.395,-0.078 0.9,-0.1733 z M 1734.4,1787.2 v -1.6 h -1.6 -1.6 v 1.6 1.6 h 1.6 1.6 z m 64,-44.8 v -1.6 h -1.6 -1.6 v 1.6 1.6 h 1.6 1.6 z m 80,-137.6 v -1.6 h -1.6 -1.6 v 1.6 1.6 h 1.6 1.6 z M 128,1598.4 v -1.6 h -1.6 -1.6 v -1.6 -1.6 h -1.6 -1.6 v 1.6 1.6 h 1.6 1.6 v 1.6 1.6 h 1.6 1.6 z M 1884.8,1576 v -1.6 h -1.6 -1.6 v 1.6 1.6 h 1.6 1.6 z m 3.2,-19.2 v -1.6 h -1.6 -1.6 v 1.6 1.6 h 1.6 1.6 z M 212.17132,1452.5 c -0.19911,-0.165 -0.49635,-0.48 -0.66054,-0.7 -0.17036,-0.2283 -0.30116,-0.1 -0.30466,0.3 -0.004,0.3891 0.28996,0.7 0.66055,0.7 0.36666,0 0.50376,-0.135 0.30465,-0.3 z M 1878.4,1451.2 v -1.6 h -1.6 -1.6 v 1.6 1.6 h 1.6 1.6 z m -25.6,-44.8 v -1.6 h -1.6 -1.6 v 1.6 1.6 h 1.6 1.6 z M 1840,1392 v -3.2 h -1.6 -1.6 v 3.2 3.2 h 1.6 1.6 z M 87.6,993.6 c 0,-1.15556 -0.166668,-1.6 -0.6,-1.6 -0.433332,0 -0.6,0.44444 -0.6,1.6 0,1.15556 0.166668,1.6 0.6,1.6 0.433332,0 0.6,-0.44444 0.6,-1.6 z m 0,-9.6 c 0,-1.15556 -0.166668,-1.6 -0.6,-1.6 -0.433332,0 -0.6,0.44444 -0.6,1.6 0,1.15556 0.166668,1.6 0.6,1.6 0.433332,0 0.6,-0.44444 0.6,-1.6 z m -0.90384,-24.9 c -0.07811,-1.375 -0.142016,-0.25 -0.142016,2.5 0,2.75 0.06391,3.875 0.142016,2.5 0.07811,-1.375 0.07811,-3.625 0,-5 z m 0.0022,-17.6 c -0.0713,-2.255 -0.129636,-0.41 -0.129636,4.1 0,4.51 0.05834,6.355 0.129636,4.1 0.0713,-2.255 0.0713,-5.945 0,-8.2 z M 962.5,563.31772 c -0.495,-0.0954 -1.305,-0.0954 -1.8,0 -0.495,0.0953 -0.09,0.17332 0.9,0.17332 0.99,0 1.395,-0.078 0.9,-0.17332 z m 34.4,-0.0104 c -0.935,-0.0842 -2.465,-0.0842 -3.4,0 -0.935,0.0842 -0.17,0.15312 1.7,0.15312 1.87,0 2.635,-0.0689 1.7,-0.15312 z m 210.2,1337.61058 c 0.495,-0.095 1.305,-0.095 1.8,0 0.495,0.095 0.09,0.1733 -0.9,0.1733 -0.99,0 -1.395,-0.078 -0.9,-0.1733 z m 691.2047,-109.2006 c 0.4975,-0.096 1.2175,-0.092 1.6,0.01 0.3824,0.1001 -0.025,0.1784 -0.9047,0.1739 -0.88,0 -1.1929,-0.086 -0.6953,-0.182 z M 1840,1716.8 v -1.6 h 1.6 1.6 v 1.6 1.6 h -1.6 -1.6 z m 19.2,-32 v -1.6 h 1.6 1.6 v 1.6 1.6 h -1.6 -1.6 z M 1804.8,1336 v -1.6 h -1.6 -1.6 v -3.2 -3.2 h 1.6 1.6 v -1.6 -1.6 h 3.2 3.2 v 1.6 1.6 h 1.6 1.6 v 1.6 1.6 h 1.6 1.6 v 3.2 3.2 h -6.4 -6.4 z M 91.700872,1143.8 c 0.0044,-0.88 0.08636,-1.1929 0.182032,-0.6953 0.09568,0.4975 0.09204,1.2175 -0.0081,1.6 -0.100116,0.3824 -0.1784,-0.025 -0.17396,-0.9047 z M 85.2,1012.8 c 0,-4 0.1,-4.8 0.6,-4.8 0.5,0 0.6,0.8 0.6,4.8 0,4 -0.1,4.8 -0.6,4.8 -0.5,0 -0.6,-0.8 -0.6,-4.8 z m 0,-9.6 c 0,-1.1556 0.166668,-1.6 0.6,-1.6 0.433332,0 0.6,0.4444 0.6,1.6 0,1.1556 -0.166668,1.6 -0.6,1.6 -0.433332,0 -0.6,-0.4444 -0.6,-1.6 z m 4.172976,-104 c 0,-5.39 0.05662,-7.595 0.125824,-4.9 0.0692,2.695 0.0692,7.105 0,9.8 -0.0692,2.695 -0.125824,0.49 -0.125824,-4.9 z M 1769.6,687.2 c 0,-0.90668 0.4148,-1.0252 1.12,-0.32 0.7052,0.7052 0.5867,1.12 -0.32,1.12 -0.5333,0 -0.8,-0.26668 -0.8,-0.8 z m -3.2,-3.2 c 0,-0.90668 0.4148,-1.0252 1.12,-0.32 0.7052,0.7052 0.5867,1.12 -0.32,1.12 -0.5333,0 -0.8,-0.26668 -0.8,-0.8 z M 1732,662.552 c 2.3164,-0.29684 5.9118,-0.32944 5.7393,-0.052 -0.1026,0.165 -1.6609,0.27304 -3.4629,0.24008 -1.802,-0.0328 -2.8264,-0.1176 -2.2764,-0.18808 z M 1632,621.6 c 0,-0.66668 0.2667,-0.8 1.6,-0.8 1.3333,0 1.6,-0.13332 1.6,-0.8 0,-0.66668 0.2667,-0.8 1.6,-0.8 1.1272,0 1.6,0.17048 1.6,0.577 0,0.38816 0.5564,0.62712 1.7,0.73012 l 1.7,0.15312 -1.7,0.0699 c -1.41,0.058 -1.7,0.20632 -1.7,0.86988 0,0.73332 -0.2667,0.8 -3.2,0.8 -2.9333,0 -3.2,-0.0667 -3.2,-0.8 z m -12.7667,-3.74448 c 0.092,-0.0794 2.3267,-0.23704 4.9667,-0.3502 3.0186,-0.1294 4.0578,-0.0888 2.8,0.1094 -2.0252,0.31916 -8.0734,0.50668 -7.7667,0.2408 z M 1574.4,616.8 c 0,-0.66668 0.2667,-0.8 1.6,-0.8 1.3333,0 1.6,0.13332 1.6,0.8 0,0.66668 -0.2667,0.8 -1.6,0.8 -1.3333,0 -1.6,-0.13332 -1.6,-0.8 z m 38.4,-2.4 c 0,-0.23868 1.331,-0.37844 3.3,-0.34656 3.109,0.0504 3.1842,0.0715 1.3,0.36496 -2.8788,0.4484 -4.6,0.44152 -4.6,-0.0184 z m -16,-2.4 c 0,-0.66668 0.2667,-0.8 1.6,-0.8 1.3333,0 1.6,0.13332 1.6,0.8 0,0.66668 -0.2667,0.8 -1.6,0.8 -1.3333,0 -1.6,-0.13332 -1.6,-0.8 z m 7.9,-1.09288 c 0.935,-0.0842 2.465,-0.0842 3.4,0 0.935,0.0842 0.17,0.15312 -1.7,0.15312 -1.87,0 -2.635,-0.0689 -1.7,-0.15312 z M 1539.2,607.2 c 0,-0.66668 0.2667,-0.8 1.6,-0.8 1.3333,0 1.6,0.13332 1.6,0.8 0,0.66668 -0.2667,0.8 -1.6,0.8 -1.3333,0 -1.6,-0.13332 -1.6,-0.8 z m 52.7,0.50712 c 0.935,-0.0842 2.465,-0.0842 3.4,0 0.935,0.0842 0.17,0.15312 -1.7,0.15312 -1.87,0 -2.635,-0.0689 -1.7,-0.15312 z m -17.8939,-1.98296 c 0,-0.26172 -0.6811,-0.54648 -1.5061,-0.63276 l -1.5,-0.15692 1.4758,-0.0672 c 1.3962,-0.0636 1.4844,-0.1482 1.6328,-1.56724 l 0.1569,-1.5 0.067,1.5 c 0.066,1.47212 0.097,1.5 1.6672,1.5 1.3333,0 1.6,-0.13332 1.6,-0.8 0,-0.66668 0.2667,-0.8 1.6,-0.8 1.1556,0 1.6,0.16668 1.6,0.6 0,0.47984 0.6608,0.61236 3.3,0.6618 2.2188,0.0415 1.219,0.15948 -3.0516,0.35996 -4.6356,0.2176 -6.4442,0.44408 -6.6939,0.8382 -0.2297,0.36252 -0.3443,0.3836 -0.3484,0.0642 z M 1564.7242,603.3 c -0.1211,-1.46264 -0.164,-1.5 -1.7242,-1.5 h -1.6 l -0.06,-1.8 c -0.033,-0.99 0.025,-1.395 0.1278,-0.9 0.1753,0.84192 0.392,0.9 3.3595,0.9 2.5531,0 3.1722,0.11712 3.1722,0.6 0,0.43332 0.4444,0.6 1.6,0.6 0.88,0 1.6,0.15212 1.6,0.338 0,0.18592 -0.72,0.3038 -1.6,0.262 l -1.6,-0.076 v 1.538 c 0,1.52376 -0.015,1.538 -1.5758,1.538 -1.5323,0 -1.5794,-0.0415 -1.7,-1.5 z M 1555.2,600 v -1.6 h -1.6 c -1.3333,0 -1.6,0.13332 -1.6,0.8 0,0.73332 -0.2667,0.8 -3.2,0.8 -2.5778,0 -3.2,-0.11668 -3.2,-0.6 0,-0.43188 -0.4419,-0.6 -1.577,-0.6 -1.5674,0 -1.5778,-0.0104 -1.7,-1.68772 -0.1205,-1.65356 -0.1534,-1.68856 -1.623,-1.7274 -1.4784,-0.0392 -1.5,-0.0176 -1.5,1.48772 0,1.51528 -0.013,1.5274 -1.6,1.5274 -1.5584,0 -1.6,-0.036 -1.6,-1.38384 v -1.3838 l -3.2956,-0.1162 c -3.5631,-0.1256 -3.8794,-0.36744 -3.3322,-2.5478 0.2062,-0.8216 0.4844,-0.96836 1.8354,-0.96836 1.0308,0 1.5924,0.18136 1.5924,0.51428 0,0.29568 0.5526,0.55136 1.3,0.60144 3.3656,0.22568 5.1,0.59396 5.1,1.08292 0,0.35736 0.9929,0.606 3.2,0.80136 l 3.2,0.28328 v 1.55836 c 0,1.55144 0.01,1.55836 1.6,1.55836 1.3333,0 1.6,-0.13332 1.6,-0.8 0,-0.73332 0.2667,-0.8 3.2,-0.8 2.5778,0 3.2,0.11668 3.2,0.6 0,0.43332 0.4444,0.6 1.6,0.6 h 1.6 v 1.8 1.8 h -1.6 -1.6 z m -31.3,-8.28228 c 0.495,-0.0954 1.305,-0.0954 1.8,0 0.495,0.0953 0.09,0.17332 -0.9,0.17332 -0.99,0 -1.395,-0.078 -0.9,-0.17332 z m -85.6,-3.2106 c 0.935,-0.0842 2.465,-0.0842 3.4,0 0.935,0.0842 0.17,0.15312 -1.7,0.15312 -1.87,0 -2.635,-0.0689 -1.7,-0.15312 z M 1388.8,581.6 c 0,-0.66668 0.2667,-0.8 1.6,-0.8 1.3333,0 1.6,0.13332 1.6,0.8 0,0.66668 -0.2667,0.8 -1.6,0.8 -1.3333,0 -1.6,-0.13332 -1.6,-0.8 z m 10.3,0.51772 c 0.495,-0.0954 1.305,-0.0954 1.8,0 0.495,0.0953 0.09,0.17332 -0.9,0.17332 -0.99,0 -1.395,-0.078 -0.9,-0.17332 z m 6.4,0 c 0.495,-0.0954 1.305,-0.0954 1.8,0 0.495,0.0953 0.09,0.17332 -0.9,0.17332 -0.99,0 -1.395,-0.078 -0.9,-0.17332 z m -32,-3.2 c 0.495,-0.0954 1.305,-0.0954 1.8,0 0.495,0.0953 0.09,0.17332 -0.9,0.17332 -0.99,0 -1.395,-0.078 -0.9,-0.17332 z m -22.4,-3.2 c 0.495,-0.0954 1.305,-0.0954 1.8,0 0.495,0.0953 0.09,0.17332 -0.9,0.17332 -0.99,0 -1.395,-0.078 -0.9,-0.17332 z m -198.4,-15.6 c 0.495,-0.0954 1.305,-0.0954 1.8,0 0.495,0.0953 0.09,0.17332 -0.9,0.17332 -0.99,0 -1.395,-0.078 -0.9,-0.17332 z m -3.2,-3.6 c 0.495,-0.0954 1.305,-0.0954 1.8,0 0.495,0.0953 0.09,0.17332 -0.9,0.17332 -0.99,0 -1.395,-0.078 -0.9,-0.17332 z m -37.6,-3.2106 c 0.935,-0.0842 2.465,-0.0842 3.4,0 0.935,0.0842 0.17,0.15312 -1.7,0.15312 -1.87,0 -2.635,-0.0689 -1.7,-0.15312 z M 976,551.4 c 0,-0.43524 -0.46684,-0.60696 -1.7,-0.62536 -1.42292,-0.0212 -1.55332,-0.0843 -0.8,-0.38712 0.6904,-0.27748 0.9,-0.68428 0.9,-1.7468 0,-1.11836 -0.17332,-1.41848 -0.9,-1.55844 -0.495,-0.0953 1.35,-0.1664 4.1,-0.15792 2.75,0.008 4.235,0.0843 3.3,0.16852 -1.67384,0.15076 -1.7,0.17644 -1.7,1.66812 0,1.51352 0,1.51496 1.6,1.439 0.88,-0.0418 1.6,0.0761 1.6,0.262 0,0.18588 -0.72,0.338 -1.6,0.338 -1.15556,0 -1.6,0.16668 -1.6,0.6 0,0.43332 -0.44444,0.6 -1.6,0.6 -1.15556,0 -1.6,-0.16668 -1.6,-0.6 z m 65.5,-1.29288 c 0.935,-0.0842 2.465,-0.0842 3.4,0 0.935,0.0842 0.17,0.15312 -1.7,0.15312 -1.87,0 -2.635,-0.0689 -1.7,-0.15312 z M 908.4,548.6 c 0,-1.33972 -0.0646,-1.40276 -1.5,-1.464 l -1.5,-0.064 1.39652,-0.16852 c 0.76808,-0.0927 1.53032,-0.37888 1.69384,-0.636 0.16356,-0.25708 0.30016,0.47756 0.30352,1.63256 0.004,1.155 -0.0839,2.1 -0.19388,2.1 -0.11,0 -0.2,-0.63 -0.2,-1.4 z"
       style="fill:#000000;stroke-width:0.40000001" />
    </clipPath>
  </defs>
  <image href="https://danielclough.github.io/tea101/img/equipment/matcha-bowl-whisk.jpg" clip-path="url(#matcha-bowl-whisk)" x="0" y="0" width="1901.2" height="1901.2" />
</svg>