<svg xmlns="http://www.w3.org/2000/svg" viewBox="0 0 960 400">
  <defs>
    <clipPath id="yixing-pot">
      <path id="yixing-pot"
      	d="m 388,313.89306 c -0.92234,0.28048 -0.92861,0.29449 -0.16,0.35707 0.46458,0.0378 0.13766,0.17599 -0.77968,0.32951 -1.75258,0.29332 -2.81459,-0.032 -1.30032,-0.3983 0.53446,-0.12928 0.1089,-0.15565 -0.96,-0.0595 -1.056,0.095 -2.0568,0.30445 -2.224,0.46544 -0.62726,0.60395 -1.0177,0.25748 -1.02243,-0.90729 -0.0337,-8.26935 -0.10947,-9.34148 -0.64605,-9.13558 -0.3599,0.13811 -0.45693,0.0821 -0.29936,-0.1729 0.12822,-0.20749 0.13613,-0.68299 0.0176,-1.05667 -0.17008,-0.53588 -0.27584,-0.58598 -0.50064,-0.23713 -0.23974,0.37204 -0.34064,0.36604 -0.6352,-0.0377 -0.29248,-0.40087 -0.31885,-0.38337 -0.16,0.10617 0.10461,0.3224 0.19018,0.66403 0.19018,0.75918 0,0.0952 0.216,-0.006 0.48,-0.22535 0.39187,-0.32521 0.48,-0.30649 0.48,0.10193 0,0.27516 -0.13101,0.58126 -0.29114,0.68022 -0.49779,0.30767 -1.30886,-0.182 -1.30886,-0.79021 0,-0.94503 0.36083,-1.60351 0.75353,-1.3751 0.20157,0.11725 0.0922,-0.0996 -0.24313,-0.48184 -0.33527,-0.38225 -0.75879,-0.695 -0.94116,-0.695 -0.18236,0 -0.0854,0.18 0.21543,0.4 0.46966,0.34347 0.34265,0.40785 -0.89885,0.45556 -0.7952,0.0306 -1.44582,-0.0774 -1.44582,-0.24 0,-0.16256 0.24352,-0.29556 0.54115,-0.29556 0.47085,0 0.46051,-0.059 -0.0795,-0.45384 -0.79078,-0.57822 -0.4143,-0.99459 0.47094,-0.52083 0.36708,0.19646 0.6674,0.23705 0.6674,0.0902 0,-0.50634 -2.40551,-1.13602 -4.45344,-1.16574 -1.46192,-0.0212 -2.09674,-0.15971 -2.20368,-0.48079 -0.10327,-0.3101 0.0134,-0.38822 0.37347,-0.25004 0.288,0.11052 0.52365,0.0615 0.52365,-0.10901 0,-0.17048 -0.216,-0.30996 -0.48,-0.30996 -0.26666,0 -0.48,-0.28444 -0.48,-0.64 0,-0.70512 -0.27392,-0.7593 -3.28,-0.64877 -1.45684,0.0536 -1.84,-0.0329 -1.84,-0.41512 0,-0.26553 0.14032,-0.53078 0.31184,-0.58944 0.17148,-0.0587 0.22672,-0.43067 0.12268,-0.82667 -0.18108,-0.68928 -0.82729,-0.90077 -2.39027,-0.78231 -0.65523,0.0497 -0.62896,-1.11157 0.0358,-1.57988 0.40313,-0.28404 0.39033,-0.30934 -0.08,-0.15804 -0.3609,0.1161 -0.56,0.0131 -0.56,-0.28981 0,-0.35828 -0.43725,-0.471 -1.84,-0.47433 -2.86077,-0.007 -3.23741,-0.1828 -3.13565,-1.46539 l 0.0865,-1.09024 -1.95542,-0.0371 c -1.07549,-0.0204 -1.70342,-0.10298 -1.39542,-0.18347 0.308,-0.0805 0.56,-0.28948 0.56,-0.46444 0,-0.17495 -0.288,-0.22669 -0.64,-0.11497 -0.86442,0.27436 -1.92,-0.0956 -1.92,-0.67282 0,-0.36522 0.13769,-0.39601 0.61897,-0.13844 0.34042,0.18219 0.88042,0.33072 1.2,0.33006 0.40256,-9.6e-4 0.25277,-0.20132 -0.48768,-0.65275 -0.84265,-0.51374 -1.64342,-0.65633 -3.78582,-0.6741 l -2.71712,-0.0226 0.19875,-0.79192 c 0.34742,-1.38433 -0.0176,-1.87627 -1.37843,-1.85813 -0.67843,0.009 -1.23226,-0.13111 -1.23069,-0.31146 0.017,-1.97883 -0.0549,-2.08788 -1.37808,-2.08788 h -1.28 v -1.28 -1.28 h -1.28 -1.28 v -1.28 -1.28 h -1.28 -1.28 v -1.28 -1.28 h -1.28 -1.28 v -1.28 -1.28 h -1.28 -1.28 v -1.28 -1.28 h -1.28 -1.28 v -1.28 -1.28 h -1.28 c -1.27674,0 -1.28,-0.003 -1.28,-1.26068 0,-1.2258 -0.0332,-1.26344 -1.2,-1.36 -1.31549,-0.10888 -1.25632,0.0554 -1.33245,-3.69932 l -0.0276,-1.36 h -1.28 -1.28 v -1.44 c 0,-1.05668 -0.12582,-1.44 -0.47261,-1.44 -0.58825,0 -1.57616,-1.45276 -1.29609,-1.90593 0.11356,-0.18374 0.054,-0.33407 -0.13242,-0.33407 -0.46019,0 -0.43053,1.38036 0.0398,1.85067 0.20828,0.20826 0.27244,0.48489 0.14262,0.61473 -0.46339,0.46338 -0.83155,-0.73757 -0.83638,-2.72826 -0.003,-1.36602 -0.16076,-2.17871 -0.4849,-2.50286 -0.264,-0.264 -0.48,-0.32571 -0.48,-0.13714 0,0.18858 -0.34618,0.34286 -0.76928,0.34286 -0.71146,0 -0.77025,-0.12428 -0.78209,-1.6532 -0.009,-1.22238 -0.18194,-1.82233 -0.66183,-2.30222 -0.35696,-0.35696 -0.75887,-0.53918 -0.89313,-0.40492 -0.13426,0.13426 0.0842,0.49178 0.48553,0.79448 0.85081,0.64177 0.63286,1.00586 -0.60213,1.00586 -0.82952,0 -0.86968,-0.0683 -0.75297,-1.28 0.11571,-1.20134 0.0696,-1.28312 -0.75041,-1.3307 -0.48053,-0.0279 -1.12363,-0.03 -1.4291,-0.005 -0.3466,0.0288 -0.53808,-0.1627 -0.5093,-0.5093 0.15983,-1.92494 0.11421,-1.96209 -2.53182,-2.06195 -2.19366,-0.0828 -2.48752,-0.16656 -2.57279,-0.73346 -0.0903,-0.60015 -0.0684,-0.60513 0.3518,-0.08 0.46095,0.5761 2.13752,0.78784 2.13752,0.26996 0,-0.15953 -0.252,-0.22642 -0.56,-0.14866 -0.36428,0.092 -0.78368,-0.19778 -1.2,-0.82904 -0.6572,-0.9965 -0.96031,-1.11873 -2.48,-1.00005 -0.75751,0.0592 -0.88,-0.0502 -0.88,-0.78598 0,-0.6822 0.11303,-0.81151 0.56,-0.6407 0.42241,0.16142 0.38638,0.0519 -0.14662,-0.44576 -0.58431,-0.54558 -1.12434,-0.65978 -3.12,-0.65978 -1.8688,0 -2.41338,-0.10229 -2.41338,-0.45333 0,-0.24934 0.16362,-0.50788 0.3636,-0.57454 0.25861,-0.0862 0.23639,-0.32488 -0.077,-0.82666 -0.32728,-0.52407 -0.74992,-0.70547 -1.6436,-0.70547 -1.19019,0 -1.20302,-0.0137 -1.20302,-1.28 v -1.28 h -1.31222 -1.31222 l 0.11242,-1.41353 c 0.0618,-0.77745 0.0546,-1.35569 -0.0161,-1.28498 -0.0707,0.0707 -0.33455,-0.1212 -0.58632,-0.42646 -0.43387,-0.52605 -0.44857,-0.52579 -0.28169,0.005 0.20517,0.6525 -0.14374,0.73208 -0.71316,0.16267 -0.31643,-0.31643 -0.45995,-0.30014 -0.70496,0.08 -0.25066,0.38891 -0.29808,0.35878 -0.25598,-0.16267 0.11829,-1.46512 -0.0586,-2.43232 -0.40551,-2.21789 -0.19568,0.12093 -0.48368,0.0214 -0.64,-0.22111 -0.24147,-0.37467 -0.32697,-0.37467 -0.56844,0 -0.33676,0.5225 -0.99578,0.20565 -0.99578,-0.47877 0,-0.264 0.144,-0.39101 0.32,-0.28223 0.176,0.10877 0.32,0.0453 0.32,-0.14112 -10e-6,-0.18637 -0.15941,-0.33887 -0.35425,-0.33887 -0.19483,0 -0.27135,-0.216 -0.17004,-0.48 0.14191,-0.36981 -0.0706,-0.48 -0.92576,-0.48 -0.61048,0 -1.10996,-0.16034 -1.10996,-0.35632 0,-0.21389 0.38374,-0.3 0.96,-0.21542 1.24305,0.18244 1.21094,-0.16159 -0.14541,-1.55819 l -1.10541,-1.1382 0.18728,1.15407 c 0.1187,0.73147 0.0601,1.15406 -0.15997,1.15406 -0.20602,0 -0.38573,-0.87847 -0.44187,-2.16 L 286.56,220 l -0.9476,0.0695 c -0.52118,0.0382 -1.03143,-0.0661 -1.13389,-0.23191 -0.10246,-0.16578 -0.22209,-1.27111 -0.26585,-2.45628 -0.0438,-1.18518 -0.13798,-2.21329 -0.20938,-2.2847 -0.0714,-0.0714 -0.60535,-0.15504 -1.18655,-0.18587 -1.15668,-0.0614 -1.06387,0.2316 -1.17553,-3.71074 l -0.0408,-1.44 H 280.40021 279.2 l -0.0837,-2.56 c -0.0584,-1.7841 0.0129,-2.41452 0.2351,-2.08 0.19304,0.29062 0.32077,0.32963 0.32374,0.0989 0.003,-0.20962 -0.14656,-0.47472 -0.33167,-0.58913 -0.18511,-0.11441 -0.3074,-0.59091 -0.27174,-1.05889 0.0357,-0.46798 0.0431,-1.53487 0.0166,-2.37087 -0.0413,-1.30216 -0.14205,-1.52 -0.70275,-1.52 -0.57256,0 -0.63367,-0.15023 -0.4881,-1.2 l 0.1664,-1.2 -0.34369,1.2 c -0.18903,0.66 -0.54539,1.2 -0.7919,1.2 -0.34901,0 -0.44822,-0.59993 -0.44822,-2.71043 v -2.71043 l -1.18766,0.0704 c -0.95564,0.0567 -1.21291,-0.0526 -1.31691,-0.55938 -0.11301,-0.5507 -0.0633,-0.57512 0.3954,-0.1944 0.82349,0.68344 0.97383,0.14906 0.22565,-0.80209 -0.57301,-0.72847 -0.66981,-1.25719 -0.6329,-3.45686 0.024,-1.42826 0.11017,-2.24091 0.19155,-1.80588 0.0814,0.43502 0.34978,1.07906 0.59643,1.4312 0.24664,0.35213 0.45981,0.9322 0.4737,1.28904 0.0139,0.35684 0.0979,0.46892 0.18658,0.24908 0.146,-0.36179 -0.66476,-2.97516 -1.16658,-3.76028 -0.11249,-0.176 -0.19569,-0.788 -0.18489,-1.36 0.0147,-0.77644 -0.11936,-1.04 -0.52883,-1.04 -0.9431,0 -2.11271,-2.10559 -2.05899,-3.70668 0.0261,-0.77765 -0.056,-1.41378 -0.18251,-1.41362 -0.12647,1.7e-4 -0.13453,-0.2517 -0.0179,-0.5597 0.20196,-0.53333 0.18515,-0.53333 -0.3529,0 -0.31072,0.308 -0.88992,0.56 -1.2871,0.56 -0.63606,0 -0.71918,-0.15625 -0.69715,-1.3106 0.0138,-0.72082 -0.0808,-1.47682 -0.21009,-1.68 -0.17187,-0.27006 -0.23641,-0.26183 -0.24,0.0306 -0.003,0.22 -0.2294,0.4 -0.50378,0.4 -0.27439,0 -0.41604,-0.13405 -0.31478,-0.29788 0.10126,-0.16384 0.0378,-0.38834 -0.14112,-0.49889 -0.17887,-0.11055 -0.32522,0.0355 -0.32522,0.32456 0,1.12897 -0.80563,0.18652 -0.89727,-1.04966 l -0.0973,-1.31213 -1.26272,0.11558 c -1.12539,0.10302 -1.76507,-0.25777 -0.9484,-0.53491 0.18953,-0.0643 0.21298,-0.48473 0.0591,-1.05888 -0.23647,-0.88211 -0.3515,-0.94526 -1.56233,-0.85784 l -1.30706,0.0944 v -1.18127 -1.18127 l 0.688,0.68965 c 0.59092,0.59232 0.62027,0.73262 0.208,0.99421 -0.42666,0.27072 -0.42666,0.30156 0,0.27757 0.7558,-0.0425 2.13452,-0.53581 1.59673,-0.57131 -0.26579,-0.0175 -0.87151,-0.3919 -1.34603,-0.8319 -0.65717,-0.60936 -1.20924,-0.8 -2.31673,-0.8 l -1.45395,10e-6 v -3.84 -3.84 h 3.84 c 4.19244,0 4.06681,0.0651 3.85674,-2 -0.0313,-0.308 0.11149,-0.56 0.31738,-0.56 0.2059,0 0.29147,0.216 0.19016,0.48 -0.25658,0.66865 0.33391,0.60323 0.72207,-0.08 0.25486,-0.4486 0.43516,-0.48853 0.9064,-0.20069 0.32354,0.19762 1.05153,0.46106 1.61775,0.58543 0.56623,0.12436 1.0295,0.3387 1.0295,0.47631 0,0.13761 0.396,0.17202 0.88,0.0764 0.74323,-0.14674 0.55672,-0.25722 -1.2,-0.71086 -2.05348,-0.53028 -1.91553,-0.53775 10.82285,-0.58644 l 12.90286,-0.0493 -0.10286,0.72456 c -0.0734,0.51744 -0.30873,0.71729 -0.82306,0.69913 -0.67781,-0.0239 -0.68902,0.009 -0.1904,0.56 0.37447,0.41379 0.98437,0.58543 2.08021,0.58543 h 1.5504 v 1.28 c 0,1.27836 0.002,1.28 1.27026,1.28 1.25239,0 1.26964,0.0162 1.22708,1.14841 -0.046,1.22221 0.46698,1.80006 1.31364,1.47989 0.42292,-0.15993 0.4143,-0.0969 -0.051,0.37246 -0.62042,0.62591 -0.74797,1.47924 -0.22111,1.47924 0.18638,0 0.25313,-0.13875 0.14832,-0.30833 -0.16613,-0.26882 0.87661,-1.61167 1.25149,-1.61167 0.0763,0 0.12749,0.54 0.11377,1.2 -0.0683,3.28445 0.0591,4.22315 0.54753,4.03572 0.264,-0.10131 0.48,-0.0248 0.48,0.17004 0,0.19484 -0.14907,0.35424 -0.33126,0.35424 -0.22459,0 -0.22096,0.20608 0.0113,0.64 0.47575,0.88896 0.76634,0.80374 1.33197,-0.3906 0.4859,-1.02599 0.4883,-1.01932 0.53602,1.49129 0.0264,1.38705 0.11125,2.58522 0.18864,2.66261 0.0774,0.0774 0.65998,0.1407 1.29466,0.1407 0.91551,0 1.08201,0.0867 0.80579,0.41951 -0.24117,0.2906 -0.24505,0.48324 -0.0126,0.62689 0.18455,0.11405 0.33554,0.5749 0.33554,1.0241 0,0.76808 0.0703,0.80354 1.18066,0.59523 1.05217,-0.19738 1.13497,-0.16643 0.76082,0.28439 -0.3534,0.42582 -0.33768,0.50588 0.0993,0.50588 0.39054,0 0.51918,0.31055 0.51918,1.25333 0,0.70326 -0.17556,1.32418 -0.4,1.41474 -0.32,0.12912 -0.32,0.16645 0,0.18667 0.22,0.0139 0.4,0.31326 0.4,0.66526 0,0.53333 0.21334,0.64 1.28,0.64 h 1.28 l 0.0379,1.36 c 0.0209,0.748 0.0148,1.576 -0.0134,1.84 -0.0431,0.40396 -0.003,0.40877 0.25165,0.0304 0.1666,-0.2473 0.72044,-0.47447 1.23076,-0.50483 0.87576,-0.0521 0.92797,0.0156 0.92997,1.20511 0.002,1.11306 0.12136,1.31044 1.02259,1.68939 0.56126,0.23599 1.02046,0.29202 1.02046,0.12452 0,-0.16751 0.12,-0.30456 0.26667,-0.30456 0.14667,0 0.26667,0.432 0.26667,0.96 0,1.13695 -0.0345,1.14712 -1.08602,0.32 -0.44749,-0.352 -0.97421,-0.63617 -1.17047,-0.63148 -0.19627,0.005 0.0392,0.25403 0.52315,0.55412 0.484,0.30008 0.88,0.65625 0.88,0.79148 0,0.13524 0.6999,0.24588 1.55534,0.24588 3.27375,0 5.61977,0.62689 3.96466,1.05942 -0.53334,0.13937 -0.53334,0.14811 0,0.18346 0.308,0.0204 0.56,0.19792 0.56,0.39444 0,0.2144 -0.288,0.28015 -0.72,0.16438 -0.396,-0.10613 -0.828,-0.19493 -0.96,-0.19733 -0.132,-0.003 -0.24,-0.22037 -0.24,-0.48437 0,-0.264 -0.144,-0.48 -0.32,-0.48 -0.176,0 -0.32,0.20247 -0.32,0.44992 0,0.95562 2.76362,1.47008 7.89699,1.47008 4.68967,0 4.90301,-0.0278 4.90301,-0.64 0,-0.42018 0.21335,-0.64 0.62112,-0.64 0.3416,0 0.72307,-0.165 0.84771,-0.36667 0.15949,-0.25805 -0.0246,-0.30364 -0.62108,-0.1539 -0.5016,0.12589 -0.84775,0.0796 -0.84775,-0.11333 0,-0.17935 0.18,-0.32806 0.4,-0.33046 0.22,-0.003 0.71219,-0.0881 1.09376,-0.19047 0.54611,-0.14648 0.7241,-0.0264 0.83642,0.56438 0.14153,0.74442 0.14301,0.74466 0.18624,0.0305 0.0375,-0.61941 0.22243,-0.72 1.32358,-0.72 1.3225,0 1.43933,-0.18477 1.36595,-2.16 -0.01,-0.25553 0.44544,-0.4 1.25956,-0.4 1.00528,0 1.30976,-0.13515 1.44179,-0.64 0.10678,-0.40843 0.43648,-0.64 0.91113,-0.64 0.40909,0 0.84512,-0.16393 0.96893,-0.36429 0.16176,-0.2617 -0.11277,-0.3009 -0.97469,-0.1392 -0.92131,0.17284 -1.16694,0.1274 -1.05808,-0.19571 0.13639,-0.40467 0.72653,-0.49326 3.68541,-0.55323 1.09712,-0.0222 1.36,-0.14135 1.36,-0.6162 0,-0.32506 0.37674,-0.7603 0.84135,-0.97199 0.46275,-0.21084 0.75424,-0.47047 0.64774,-0.57696 -0.1065,-0.10649 -0.41658,-0.009 -0.68909,0.21758 -0.54265,0.45036 -0.98973,0.24589 -0.65315,-0.29871 0.11882,-0.19224 1.25078,-0.34129 2.59203,-0.34129 1.81008,0 2.38112,-0.1058 2.38112,-0.44118 0,-0.24264 0.468,-0.61609 1.04,-0.82987 1.35187,-0.50526 2.47178,-1.03144 1.78272,-0.83761 -1.52925,0.43017 -2.82272,0.55127 -2.82272,0.26427 0,-0.47036 1.65875,-0.71561 4.84,-0.71561 h 2.84 v -1.28 -1.28 h 3.82067 3.82071 l 0.0993,-1.2 c 0.10954,-1.32332 -0.0685,-1.26268 3.91268,-1.33243 0.86531,-0.0152 1.47856,-0.12232 1.36275,-0.23813 -0.11581,-0.11581 -0.0502,-0.40381 0.14585,-0.64 0.26218,-0.31588 0.26144,-0.42944 -0.003,-0.42944 -0.19753,0 -0.35916,-0.1537 -0.35916,-0.34157 0,-0.19958 0.29926,-0.2592 0.72,-0.14343 0.63276,0.17413 0.65753,0.14732 0.20441,-0.22123 -0.43728,-0.35567 -0.14563,-0.43356 1.92,-0.51279 1.33959,-0.0514 2.57239,-0.23012 2.73959,-0.3972 0.19196,-0.19183 0.16249,-0.30378 -0.08,-0.30378 -0.2112,0 -0.384,-0.144 -0.384,-0.32 0,-0.176 0.288,-0.32 0.64,-0.32 0.352,0 0.64,-0.1537 0.64,-0.34157 0,-0.19593 -0.27287,-0.25496 -0.64,-0.13843 -0.352,0.11172 -0.64,0.0648 -0.64,-0.1042 0,-0.3867 0.78489,-0.6958 1.76684,-0.6958 0.6409,0 0.76948,-0.18071 0.85383,-1.2 0.0939,-1.13484 0.16448,-1.20539 1.29933,-1.29932 l 1.2,-0.0993 v -8.94069 -8.94068 h 1.28 c 1.17382,0 1.28313,-0.073 1.31792,-0.88 0.0208,-0.484 0.0144,-1.06 -0.0141,-1.28 -0.0339,-0.26106 0.38566,-0.4 1.20787,-0.4 1.38726,0 1.67558,-0.35277 1.41261,-1.72848 -0.16448,-0.86045 -0.1313,-0.88457 1.07296,-0.77972 l 1.24268,0.1082 0.0984,-1.36 c 0.0979,-1.35339 0.10455,-1.36 1.36,-1.36 1.25853,0 1.2616,-0.003 1.2616,-1.28 v -1.28 h 1.28 1.28 v -1.28 c 0,-1.24358 0.031,-1.28 1.09335,-1.28 0.60131,0 1.16595,0.18 1.25472,0.4 0.0888,0.22 0.17277,-0.12822 0.18669,-0.77383 0.0322,-1.49794 0.29964,-2.18617 0.84944,-2.18617 0.25584,0 0.35968,0.19816 0.25152,0.48 -0.10132,0.264 -0.0246,0.48 0.17004,0.48 0.19485,0 0.35424,-0.216 0.35424,-0.48 0,-0.36849 0.4089,-0.48 1.76,-0.48 h 1.76 v -1.1139 c 0,-0.90442 0.14237,-1.14964 0.75703,-1.30391 0.41635,-0.10449 0.95635,-0.16217 1.2,-0.12818 0.24361,0.034 1.05497,0.0448 1.80297,0.0239 1.10733,-0.0309 1.36,-0.15038 1.36,-0.64323 0,-0.77663 1.4608,-1.18763 2.16266,-0.60847 0.41878,0.34559 0.47392,0.33468 0.33453,-0.0662 -0.11395,-0.32768 -0.53664,-0.45765 -1.33203,-0.40957 -0.64084,0.0387 -1.16516,-0.0558 -1.16516,-0.20997 0,-0.40029 2.52301,-0.64845 6.27837,-0.61755 3.764,0.031 4.82679,-0.18605 4.2593,-0.86982 -0.30423,-0.36658 -0.24637,-0.45309 0.30317,-0.45309 0.37353,0 0.67916,0.144 0.67916,0.32 0,0.176 0.144,0.32 0.32,0.32 0.176,0 0.32,-0.216 0.32,-0.48 0,-0.31834 -0.35024,-0.49618 -1.04,-0.52806 -0.89308,-0.0413 -0.83657,-0.0797 0.4,-0.27194 1.03348,-0.16067 1.21415,-0.25492 0.64,-0.33384 -0.44,-0.0605 2.656,-0.19012 6.88,-0.28806 4.99447,-0.11582 7.90256,-0.3094 8.31645,-0.55359 0.56563,-0.33374 0.51226,-0.36933 -0.48,-0.32 -0.9967,0.0495 -1.12733,-0.039 -1.21782,-0.82578 l -0.10138,-0.88127 3.86138,0.0848 3.86137,0.0848 0.0379,-0.96356 0.0379,-0.96357 0.21974,0.96 c 0.21325,0.93159 0.22717,0.93802 0.47098,0.21707 0.1782,-0.52694 0.0889,-0.92233 -0.3072,-1.36 -0.52685,-0.58216 -0.52717,-0.61707 -0.006,-0.61707 0.71366,0 1.58569,0.84872 1.14921,1.11849 -0.17734,0.10961 -0.32246,0.50759 -0.32246,0.8844 0,1.00795 0.65005,0.23586 0.77094,-0.91568 0.09,-0.85786 0.20746,-0.93446 1.57005,-1.0242 l 1.4727,-0.097 0.0932,-2.42268 0.0932,-2.42268 -1.36,-1.35822 c -1.21367,-1.21207 -1.36,-1.51972 -1.36,-2.85921 0,-0.91917 -0.12403,-1.42433 -0.32,-1.30322 -0.19271,0.11911 -0.33363,-0.3507 -0.35427,-1.18111 l -0.0343,-1.37889 -0.30454,1.36 c -0.30413,1.35797 -0.88685,1.85957 -0.92941,0.8 -0.0192,-0.47748 -0.0619,-0.46569 -0.29008,0.08 -0.16323,0.39042 -0.22057,-0.33297 -0.1471,-1.85501 0.0663,-1.37226 0.21904,-2.65451 0.33952,-2.84944 0.13241,-0.21424 0.0729,-0.26412 -0.1504,-0.1261 -0.23287,0.14391 -0.36944,-0.0116 -0.36944,-0.42052 0,-0.44528 0.15059,-0.59105 0.48,-0.46465 0.66413,0.25485 0.60605,-0.51353 -0.08,-1.0588 -0.51555,-0.40973 -0.49648,-0.44148 0.24,-0.39985 1.82672,0.10324 1.92,0.0398 1.92,-1.30563 0,-0.92444 0.13334,-1.28 0.48,-1.28 0.264,0 0.48,-0.14852 0.48,-0.33004 0,-0.18153 -0.216,-0.41293 -0.48,-0.51424 -0.264,-0.1013 -0.48,-0.52878 -0.48,-0.94995 0,-0.935444 1.14803,-1.068583 1.77856,-0.20627 0.59014,0.80706 0.85529,0.34108 0.85529,-1.503088 0,-0.889024 0.12736,-1.616409 0.28308,-1.616409 0.15568,0 0.28307,0.216 0.28307,0.48 0,0.264 0.15939,0.48 0.35424,0.48 0.19481,0 0.27136,-0.216 0.17005,-0.48 -0.23197,-0.604487 0.55251,-0.637488 1.14195,-0.04804 0.36262,0.362615 0.49673,0.362615 0.83549,0 0.22192,-0.237577 0.74912,-0.431961 1.17158,-0.431961 0.65654,0 0.78246,-0.174224 0.86736,-1.2 0.0841,-1.015818 0.22211,-1.211434 0.89933,-1.274487 0.72013,-0.06705 0.73609,-0.04534 0.16,0.217511 -0.52595,0.239961 -0.54359,0.296 -0.0989,0.314483 0.2976,0.01238 0.63011,-0.121507 0.73888,-0.297507 0.10877,-0.176 0.90928,-0.32 1.77888,-0.32 h 1.58112 v -1.28 c 0,-1.078896 0.10352,-1.28 0.65888,-1.28 0.42157,0 0.57555,0.134841 0.42752,0.374381 -0.16499,0.266931 -0.0556,0.296563 0.38112,0.103241 0.33686,-0.149126 1.29648,-0.331497 2.13248,-0.405267 l 1.52,-0.134125 v -1.28335 c 0,-1.096733 0.0814,-1.249827 0.56,-1.052813 0.308,0.1268 0.848,0.298698 1.2,0.381997 0.52637,0.12456 0.55475,0.09057 0.16,-0.191405 -0.35226,-0.251622 0.41411,-0.33208 2.88,-0.302349 2.43078,0.02931 3.00601,0.103891 2.08,0.26969 l -1.28,0.229181 1.38953,0.04541 c 1.40084,0.04578 3.08794,1.002755 3.09293,1.754393 0,0.239696 0.48295,0.332963 1.36,0.263501 l 1.35754,-0.107517 v 1.307517 c 0,1.290835 0.0154,1.308 1.2,1.34543 0.66,0.02086 1.3568,0.01987 1.54841,-0.0022 0.19165,-0.02205 0.60996,0.248884 0.9296,0.602084 0.31965,0.353203 0.77485,0.642185 1.01159,0.642185 0.2367,0 0.4304,0.270368 0.4304,0.600819 0,0.330448 0.216,0.78008 0.48,0.999181 0.33165,0.275232 0.48,0.287344 0.48,0.03918 0,-0.197549 0.22451,-0.359181 0.49888,-0.359181 0.31395,0 0.40979,0.148285 0.25859,0.4 -0.1633,0.271795 -0.0668,0.259235 0.30109,-0.03918 0.49203,-0.39912 0.54144,-0.318838 0.54144,0.88 0,1.383687 0.12467,1.472407 1.86637,1.328247 0.60108,-0.04975 0.7343,0.08349 0.68457,0.684578 -0.12976,1.56751 -0.004,1.86636 0.78288,1.86636 1.77344,0 1.74256,-0.11484 1.77194,6.58627 l 0.0272,6.21373 h -1.24576 -1.24576 l -0.15891,1.65371 c -0.10461,1.08871 -0.35655,1.79824 -0.73735,2.0767 -0.31817,0.23263 -0.46125,0.53246 -0.31801,0.66628 0.14326,0.13382 0.32473,0.0633 0.40329,-0.15669 0.0786,-0.22 0.27488,-0.4 0.43619,-0.4 0.45002,0 0.35072,2.48351 -0.10665,2.66807 -0.32,0.12912 -0.32,0.16645 0,0.18666 0.22,0.0139 0.4,0.24127 0.4,0.50527 0,0.29425 0.29926,0.48 0.77334,0.48 0.42531,0 0.84595,0.18 0.93472,0.4 0.12912,0.32 0.16647,0.32 0.18669,0 0.0138,-0.22 0.17555,-0.4 0.35926,-0.4 0.18372,0 0.31066,0.18 0.28212,0.4 -0.0285,0.22 -0.0349,0.796 -0.0141,1.28 0.0367,0.85079 0.099,0.88074 1.87792,0.90249 1.32384,0.0162 1.66044,0.0996 1.2,0.29751 -0.41866,0.1799 0.30073,0.26617 2.08,0.24944 2.11872,-0.0199 2.40169,-0.0696 1.28,-0.22494 -0.792,-0.10966 1.476,-0.19622 5.04,-0.19235 l 6.48,0.007 V 126.79958 128 l 3.28,0.0319 c 2.32771,0.0226 3.04774,0.11429 2.48,0.31567 -0.6376,0.22616 -0.57264,0.24457 0.32,0.0907 2.27481,-0.3922 3.88988,-0.45785 3.69987,-0.1504 -0.10467,0.16936 -0.044,0.39838 0.13491,0.50893 0.45734,0.28265 0.4055,1.35748 -0.0748,1.55129 -0.32368,0.13061 2.62518,0.27018 7.29945,0.34548 0.52307,0.008 0.67498,0.24139 0.73459,1.12647 0.0413,0.61372 0.11322,1.15391 0.15975,1.20044 0.0465,0.0465 0.93997,0.10576 1.98541,0.13162 2.8215,0.0698 3.0208,0.16411 3.0208,1.42949 0,1.05585 0.0465,1.09846 1.2,1.09907 1.15376,6.4e-4 1.20326,0.046 1.28435,1.17768 0.0464,0.64737 0.13837,1.23108 0.20445,1.29713 0.066,0.0661 1.21609,0.12011 2.55564,0.12011 1.82004,0 2.43556,0.10816 2.43556,0.42798 0,0.2354 -0.216,0.51087 -0.48,0.61218 -0.264,0.10131 -0.48,0.47671 -0.48,0.83424 0,0.36448 0.21084,0.65004 0.48,0.65004 0.34665,0 0.48,0.35556 0.48,1.28 0,1.223 0.0463,1.28169 1.04,1.3179 0.572,0.0208 1.16592,0.0149 1.31984,-0.0133 0.28128,-0.0514 0.16137,0.86505 -0.26887,2.05538 -0.18547,0.51313 -0.16291,0.54484 0.11395,0.16 0.18989,-0.264 0.34749,-0.32311 0.35018,-0.13136 0.003,0.19175 0.34442,0.50333 0.75936,0.6924 0.4665,0.21254 0.84922,0.75129 1.00262,1.41136 l 0.2481,1.0676 0.23955,-0.96 0.23955,-0.96 0.0379,0.88 c 0.0348,0.80804 0.14906,0.88388 1.39786,0.92738 0.748,0.026 1.576,0.0767 1.84,0.11262 0.264,0.0359 0.804,0.0866 1.2,0.11262 0.396,0.026 0.72,0.20699 0.72,0.40207 0,0.22408 -0.3129,0.27616 -0.84964,0.14145 -0.54585,-0.137 -0.93977,-0.0674 -1.10169,0.19457 -0.34615,0.56006 0.27833,1.22929 1.14707,1.22929 0.52429,0 0.85578,0.32303 1.23139,1.2 l 0.51399,1.2 -0.17597,-1.04 c -0.10826,-0.63972 -0.0431,-1.04 0.16941,-1.04 0.18998,0 0.36086,0.612 0.37971,1.36 l 0.0343,1.36 0.30454,-1.36 c 0.16752,-0.748 0.4041,-1.35964 0.52573,-1.35921 0.12167,3.2e-4 0.23456,1.47644 0.25088,3.28 0.017,1.88574 -0.0714,2.93926 -0.20809,2.47921 -0.21981,-0.73945 -0.24023,-0.74694 -0.2697,-0.0989 -0.0176,0.38561 0.11248,0.79035 0.28896,0.89942 0.2145,0.13256 0.2145,0.39707 0,0.79785 -0.39418,0.73653 -0.41856,1.29136 -0.0298,0.67742 0.17158,-0.27094 0.29395,1.07081 0.31376,3.44 0.0272,3.25863 -0.0451,3.88419 -0.4489,3.88419 -0.38992,0 -0.41046,-0.11357 -0.10819,-0.59761 0.21463,-0.34364 0.26794,-0.85362 0.12547,-1.2 -0.25696,-0.62479 -0.30729,-0.55165 -0.63136,0.91761 -0.132,0.59853 -0.39683,0.88 -0.828,0.88 -0.5614,0 -0.63388,0.21949 -0.63388,1.92 0,1.49334 0.10665,1.92 0.48,1.92 0.26665,0 0.48,0.28445 0.48,0.64 0,0.42667 0.21334,0.64 0.64,0.64 0.85232,0 0.80668,-0.36667 -0.17773,-1.42888 -0.97127,-1.04802 -0.88675,-1.26887 0.27853,-0.72776 0.80163,0.37223 0.85436,0.52958 0.8567,2.55664 l 0.003,2.16 2.96,0.0585 c 1.628,0.0322 3.392,0.0313 3.92,-0.002 0.73216,-0.0462 0.84608,0.0147 0.48,0.25657 -0.35155,0.23224 -0.36758,0.31841 -0.0599,0.322 0.23104,0.003 0.39446,0.2569 0.36313,0.5649 -0.12528,1.23159 0.0141,1.36 1.47562,1.36 1.03238,0 1.39123,0.10945 1.22752,0.37438 -0.15805,0.2557 -0.0531,0.30599 0.33085,0.15863 0.30921,-0.11866 0.94483,-0.29877 1.41248,-0.40026 0.6592,-0.14305 0.7424,-0.10789 0.37027,0.15646 -0.32566,0.23136 -0.35139,0.34256 -0.08,0.34589 0.23002,0.003 0.4,0.41284 0.4,0.9649 0,0.90906 0.0722,0.96237 1.36,1.00473 0.748,0.0246 1.9,0.0122 2.56,-0.0275 1.01123,-0.0609 1.2,0.0285 1.2,0.5686 0,0.35247 -0.18,0.71348 -0.4,0.80226 -0.32,0.12912 -0.32,0.16645 0,0.18666 0.22,0.0139 0.4,0.24127 0.4,0.50527 0,0.38877 0.56259,0.4887 2.96,0.5258 1.628,0.0252 3.932,0.0103 5.12,-0.033 l 2.16,-0.0789 v 1.31305 1.31306 h 1.28 c 1.27427,0 1.41958,-0.15239 1.29674,-1.36 -0.0314,-0.308 0.13209,-0.56221 0.36313,-0.5649 0.30771,-0.004 0.29168,-0.0898 -0.0599,-0.322 -0.36608,-0.24184 -0.25216,-0.30273 0.48,-0.25658 0.528,0.0333 1.78349,0.0342 2.78995,0.002 1.48215,-0.0474 1.79491,-0.14989 1.64551,-0.53924 -0.10148,-0.26439 -0.0942,-0.84039 0.016,-1.28 0.15619,-0.62233 0.40588,-0.79928 1.12784,-0.79928 0.50998,0 0.99987,0.18 1.08864,0.4 0.12912,0.32 0.16646,0.32 0.18668,0 0.0157,-0.24912 0.50807,-0.4 1.30525,-0.4 h 1.28 v -1.28 -1.28 h 1.28 c 0.98275,0 1.28,-0.1242 1.28,-0.5348 0,-0.29415 0.23831,-0.79815 0.5296,-1.12 0.29127,-0.32186 0.37527,-0.5852 0.18666,-0.5852 -0.18861,0 -0.41555,0.18 -0.50432,0.4 -0.0964,0.23896 -0.17159,0.17454 -0.18669,-0.16 -0.0205,-0.45555 0.24829,-0.56 1.44141,-0.56 1.0247,0 1.42681,-0.11956 1.33443,-0.39675 -0.15798,-0.4739 1.08848,-1.52325 1.80938,-1.52325 0.28025,0 0.50953,-0.144 0.50953,-0.32 0,-0.176 0.576,-0.32 1.28,-0.32 h 1.28 v -1.28 -1.28 h 1.28 c 0.7865,0 1.29747,-0.15422 1.32531,-0.4 0.025,-0.22 0.0609,-0.76 0.08,-1.2 0.0372,-0.85725 -0.087,-0.82297 3.31469,-0.9147 L 606.72,166.4 v -1.28 -1.28 h 1.92 c 1.06666,0 1.92,-0.14222 1.92,-0.32 0,-0.176 -0.288,-0.32 -0.64,-0.32 -0.48742,0 -0.63747,-0.20979 -0.62934,-0.88 l 0.0106,-0.88 0.60124,0.72074 c 0.71652,0.8589 1.74365,0.6609 1.44544,-0.27863 -0.17808,-0.56108 0.023,-0.60288 2.95047,-0.61345 2.11837,-0.008 3.40211,-0.16029 3.94157,-0.46866 0.90796,-0.51904 0.29046,-0.65798 -0.66103,-0.14874 -0.48704,0.26064 -0.61897,0.22653 -0.61897,-0.16 0,-0.27019 0.18,-0.49346 0.4,-0.49616 0.27088,-0.003 0.24806,-0.10099 -0.0707,-0.3026 -0.94912,-0.60023 0.14156,-0.81439 4.57644,-0.8986 5.01677,-0.0953 6.37552,-0.26814 5.64685,-0.71849 -0.24973,-0.15433 -0.34365,-0.39099 -0.20877,-0.5259 0.13492,-0.13491 0.53232,-0.066 0.88314,0.15306 0.52726,0.32927 0.7279,0.30831 1.15706,-0.12085 0.41718,-0.41718 0.99635,-0.4904 2.94758,-0.37265 1.39485,0.0842 1.88365,0.0535 1.14842,-0.072 l -1.28,-0.2185 1.28,-0.17234 c 0.704,-0.0948 0.164,-0.10648 -1.2,-0.026 -1.68423,0.0994 -2.48,0.033 -2.48,-0.20697 0,-0.2512 3.32934,-0.35331 11.52,-0.35331 7.46665,0 11.52,0.11259 11.52,0.32 0,0.18269 -1.1328,0.3454 -2.64,0.3792 -1.95748,0.0439 -2.20567,0.0896 -0.96,0.17672 1.19891,0.0839 1.68,0.25019 1.68,0.58081 0,0.2548 0.21148,0.46327 0.46995,0.46327 0.28627,0 0.39798,-0.18761 0.28576,-0.48 -0.13091,-0.34118 0.0294,-0.48 0.55405,-0.48 0.55097,0 0.64604,0.0922 0.37481,0.36343 -0.27123,0.27124 -0.24297,0.4839 0.11146,0.83833 0.39277,0.39275 1.74544,0.47359 7.81933,0.46733 4.29616,-0.004 7.2702,0.11248 7.16563,0.28167 -0.0983,0.15909 -0.0262,0.28924 0.16013,0.28924 0.58819,0 0.36688,0.58798 -0.30112,0.8 -0.352,0.11172 -0.64,0.34713 -0.64,0.52313 0,0.176 0.288,0.22859 0.64,0.11687 0.36713,-0.11652 0.64,-0.0575 0.64,0.13844 0,0.23576 3.57193,0.34156 11.53193,0.34156 h 11.53191 l -0.0606,4.08 c -0.0333,2.244 -0.16617,4.368 -0.29523,4.72 -0.21933,0.59804 -0.26096,0.58345 -0.63478,-0.22253 l -0.4001,-0.86252 -0.6344,1.18252 c -0.46432,0.86548 -0.62102,1.72677 -0.58451,3.2124 0.0718,2.92184 -0.0895,3.25013 -1.59725,3.25013 h -1.25984 l 0.20582,3.76 c 0.11322,2.068 0.25722,3.81936 0.32,3.89191 0.0628,0.0725 0.61728,0.11299 1.23223,0.0899 l 1.11805,-0.042 -0.0407,3.27013 c -0.0623,4.99937 -0.15622,4.67655 1.30435,4.48064 l 1.2569,-0.16858 -0.0102,9.07904 c -0.009,8.13482 -0.0581,8.97919 -0.47066,8.11903 l -0.46044,-0.96 0.17987,0.88 c 0.0989,0.484 0.0428,0.88 -0.12471,0.88 -0.5071,0 -0.70444,-1.14158 -0.3558,-2.05856 0.18048,-0.47471 0.32816,-3.28632 0.32816,-6.24803 0,-4.49141 -0.0797,-5.4155 -0.48,-5.56913 -0.533,-0.20453 -0.66423,0.28409 -0.16,0.59572 0.19414,0.12 0.31116,2.29823 0.2975,5.53889 -0.0154,3.60741 -0.12064,5.13337 -0.32493,4.70111 -0.26253,-0.55562 -0.28211,-0.53289 -0.14838,0.17235 0.0847,0.4468 -0.0571,1.21926 -0.31507,1.71658 -0.30375,0.58546 -0.46912,1.85688 -0.46912,3.60654 0,1.88348 -0.10663,2.6364 -0.35194,2.4848 -0.2559,-0.15816 -0.2559,-0.0381 0,0.44008 0.19357,0.36167 0.35194,1.00298 0.35194,1.42514 0,0.59833 -0.15876,0.75589 -0.72,0.71464 -0.40573,-0.0298 -0.76781,-0.29965 -0.82957,-0.61817 -0.0884,-0.45612 -0.19651,-0.39763 -0.56,0.30297 -0.26823,0.51701 -0.45043,1.8243 -0.45043,3.23165 0,1.29988 -0.12861,2.36342 -0.28576,2.36342 -0.4096,0 -0.71767,0.95085 -0.44893,1.38565 0.14105,0.22827 0.31152,0.0655 0.44912,-0.42887 0.18912,-0.67943 0.22646,-0.62007 0.25366,0.40303 0.0314,1.17824 0.0118,1.19838 -1.08745,1.12 -1.23463,-0.088 -1.37975,-0.38312 -0.60781,-1.2361 0.28208,-0.31167 0.44285,-0.75501 0.35725,-0.98519 -0.1057,-0.28433 -0.237,-0.21332 -0.40948,0.22148 -0.13964,0.352 -0.39004,0.73139 -0.55641,0.84308 -0.16637,0.11169 -0.2792,1.57913 -0.25079,3.26099 l 0.0517,3.05791 -1.37254,0.099 -1.37254,0.099 0.10502,1.2 c 0.10384,1.18647 0.0919,1.2 -1.06179,1.2 h -1.16682 l 0.68691,-0.96466 c 0.3778,-0.53057 0.63133,-1.13136 0.56343,-1.33508 -0.0679,-0.20374 -0.31267,0.0864 -0.54394,0.64466 -0.23126,0.5583 -0.54697,1.01508 -0.70163,1.01508 -0.15466,0 -0.28118,0.72 -0.28118,1.6 v 1.6 h -1.28 c -1.33037,0 -1.3953,0.0852 -1.28858,1.69173 0.0553,0.83181 -0.017,0.8866 -1.07475,0.81536 -0.62375,-0.042 -1.21127,9.6e-4 -1.30567,0.0952 -0.0944,0.0944 -0.18262,1.02347 -0.19612,2.06464 -0.0348,2.67962 -0.176,3.01304 -1.27645,3.01304 -0.53479,0 -0.94055,-0.17204 -0.94333,-0.4 -0.004,-0.29896 -0.0734,-0.29199 -0.27594,0.0276 -0.14905,0.23516 -0.54284,0.39858 -0.8751,0.36315 -1.54448,-0.16476 -1.724,-0.0305 -1.724,1.28925 v 1.28 h -1.28 -1.28 v 1.28 1.28 h -1.28 -1.28 v 1.28 c 0,1.27755 -0.003,1.28 -1.26544,1.28 -0.92317,0 -1.48186,0.2164 -2.06547,0.8 -0.54666,0.54667 -0.65261,0.8 -0.33453,0.8 0.256,0 0.46544,-0.144 0.46544,-0.32 0,-0.176 0.144,-0.32 0.32,-0.32 0.176,0 0.32,0.216 0.32,0.48 0,0.264 -0.18,0.4822 -0.4,0.4849 -0.26662,0.003 -0.23997,0.10826 0.08,0.31489 0.35382,0.2285 0.18557,0.29435 -0.64,0.25051 -2.55539,-0.1357 -4.16,0.066 -4.16,0.52301 0,0.24932 -0.396,0.74876 -0.88,1.10986 -0.68147,0.50843 -0.75366,0.65884 -0.32,0.66669 0.308,0.006 0.56,-0.13386 0.56,-0.30986 0,-0.176 0.144,-0.32 0.32,-0.32 0.176,0 0.32,0.22838 0.32,0.50752 0,0.38597 -0.28739,0.49021 -1.2,0.43527 -2.9024,-0.17474 -3.92,-0.011 -3.92,0.63054 0,0.33734 -0.18,0.68597 -0.4,0.77474 -0.32,0.12912 -0.32,0.16645 0,0.18667 0.22,0.0139 0.4,0.25373 0.4,0.53297 0,0.42781 -0.39027,0.49329 -2.48,0.41615 -1.60822,-0.0594 -2.70499,0.0519 -3.12,0.31646 -0.35286,0.22496 -0.41488,0.3399 -0.13818,0.25621 0.376,-0.11373 0.50183,0.0829 0.50183,0.78435 0,0.93309 -0.56487,1.30407 -1.80365,1.1846 -0.264,-0.0255 -1.13594,-0.0236 -1.93763,0.004 l -1.45763,0.0504 0.0176,1.2 0.0176,1.2 -2.60679,0.0924 c -2.46262,0.0873 -2.59718,0.12923 -2.43273,0.75812 0.15916,0.60866 0.0603,0.65486 -1.15319,0.53914 -0.73001,-0.0696 -1.32729,-0.0368 -1.32729,0.073 0,0.10975 -0.324,0.36932 -0.72,0.57681 l -0.72,0.37726 0.72,-0.1384 c 0.396,-0.0761 0.72,-0.008 0.72,0.15164 0,0.15952 -0.576,0.29004 -1.28,0.29004 -1.31156,0 -1.44944,0.17865 -1.29674,1.68 0.0314,0.308 -0.0601,0.57857 -0.20314,0.60127 -0.6743,0.10696 -2.03404,0.2079 -3.88051,0.28805 -1.11123,0.0482 -1.84489,0.19618 -1.63037,0.32875 0.2145,0.13258 0.4144,0.65083 0.4442,1.15167 0.059,0.99235 0.29561,0.92869 -3.85178,1.03651 -1.25949,0.0327 -1.29619,0.0648 -1.22653,1.07125 0.10499,1.5164 -0.93113,2.01644 -1.99437,0.9625 -0.53824,-0.53351 -0.55427,-0.53182 -0.33923,0.0356 0.19187,0.50632 0.10816,0.5661 -0.5583,0.39883 -0.45389,-0.11392 -0.88045,-0.0407 -1.01306,0.17384 -0.13526,0.21883 -0.0896,0.28441 0.11149,0.16014 0.43034,-0.26597 1.35834,0.0757 1.35834,0.50007 0,0.176 -0.216,0.23711 -0.48,0.1358 -0.62954,-0.24157 -0.60903,0.0828 0.0514,0.81249 0.7198,0.79536 0.27468,1.1527 -0.52941,0.42501 -0.57664,-0.52187 -0.64195,-0.5271 -0.64195,-0.0514 0,0.29128 -0.144,0.52959 -0.32,0.52959 -0.176,0 -0.32,-0.16502 -0.32,-0.36672 0,-0.20171 -0.32925,-0.0115 -0.73168,0.42277 -0.40244,0.43422 -0.88484,0.73846 -1.07197,0.67607 -0.94688,-0.31563 -1.1345,0.87934 -1.11267,7.0873 0.0122,3.43401 -0.1097,6.57147 -0.2706,6.97212 -0.26438,0.65837 -0.29753,0.6207 -0.3447,-0.39154 -0.0601,-1.28895 -0.54589,-3.04827 -0.59648,-2.16 -0.0176,0.308 -0.1759,0.56 -0.3519,0.56 -0.176,0 -0.32,0.13948 -0.32,0.30996 0,0.17047 0.22656,0.22301 0.50348,0.11674 0.4064,-0.15594 0.48356,0.011 0.4,0.86541 -0.0569,0.58223 -0.3038,1.12447 -0.54864,1.20497 -0.33673,0.11071 -0.40048,-0.0782 -0.26169,-0.77536 l 0.18345,-0.92172 -0.36006,0.88 c -0.19805,0.484 -0.48598,0.88 -0.63987,0.88 -0.15389,0 -0.18269,0.30598 -0.064,0.67995 0.13539,0.42661 0.054,0.78248 -0.21843,0.9551 -0.31946,0.20242 -0.32852,0.27645 -0.0342,0.28005 0.22,0.003 0.4,0.12855 0.4,0.27967 0,0.15113 -1.70791,0.27198 -3.79533,0.26856 l -3.79533,-0.006 -0.0102,-0.82855 c -0.0193,-1.59326 -0.0492,-1.62858 -1.37792,-1.62858 -0.90032,0 -1.22883,-0.11336 -1.07056,-0.36944 0.15658,-0.25334 0.0871,-0.28085 -0.22112,-0.0875 -0.49069,0.30777 -2.52928,0.40528 -2.52938,0.12099 -3e-5,-0.0968 0.17274,-0.3488 0.38394,-0.56 0.29866,-0.29867 0.29389,-0.384 -0.0214,-0.384 -0.25424,0 -0.33283,-0.22914 -0.21062,-0.61419 0.20419,-0.64337 -0.57703,-1.11502 -1.46672,-0.88551 -0.2448,0.0631 -0.3362,0.0541 -0.20311,-0.0201 0.13312,-0.0742 0.15629,-0.27357 0.0515,-0.44309 -0.12025,-0.1946 -0.33725,-0.18639 -0.58867,0.0222 -0.30243,0.251 -0.39818,0.10086 -0.39818,-0.62446 0,-1.22754 -0.18515,-1.3877 -1.54521,-1.33657 -0.8112,0.0305 -1.12144,-0.0932 -1.12144,-0.44698 0,-0.26903 0.13888,-0.40331 0.30864,-0.2984 0.16973,0.10491 0.0958,-0.3186 -0.16432,-0.94111 -0.2601,-0.62253 -0.37146,-1.13186 -0.24746,-1.13186 0.124,0 -0.048,-0.19998 -0.3823,-0.4444 -0.60157,-0.43988 -1.43456,-0.36516 -1.43456,0.12868 0,0.14069 0.31053,0.1746 0.69005,0.0754 0.46809,-0.12241 0.61737,-0.0629 0.46412,0.18505 -0.12422,0.20103 -0.57155,0.33691 -0.99404,0.30194 -0.68541,-0.0567 -0.76125,-0.20263 -0.70413,-1.3551 l 0.064,-1.29153 -2.4,0.0442 c -1.32,0.0244 -3.084,0.0603 -3.92,0.08 L 581.12,281.6 v 1.28 1.28 h -1.28 c -1.34838,0 -1.45107,0.14931 -1.32058,1.92 0.047,0.63811 -0.008,0.70287 -0.27024,0.32 -0.26457,-0.38579 -0.38204,-0.39818 -0.59849,-0.0631 -0.14813,0.22929 -0.40013,0.38567 -0.56,0.34751 -0.60791,-0.1451 -2.05069,0.44281 -2.05069,0.8356 0,0.22584 -0.36,0.50097 -0.8,0.6114 -0.44,0.11044 -0.8,0.32857 -0.8,0.48474 0,0.15618 0.49859,0.13093 1.10797,-0.0561 0.60941,-0.18702 1.03907,-0.45159 0.95478,-0.58793 -0.0842,-0.13634 -0.0163,-0.33243 0.15079,-0.43576 0.1672,-0.10333 0.29212,0.2293 0.27763,0.73918 l -0.0262,0.92705 -2.3712,0.0459 c -1.66762,0.0323 -2.79655,0.24584 -3.80471,0.71974 -0.78841,0.37061 -1.36934,0.73799 -1.29094,0.8164 0.0784,0.0784 0.5808,-0.084 1.11642,-0.36102 1.10288,-0.57032 1.32563,-0.61189 1.32563,-0.24737 0,0.46844 -2.87994,1.66377 -4.00858,1.66377 -0.87715,0 -1.11142,0.12768 -1.11142,0.60576 0,0.33317 -0.252,0.70863 -0.56,0.83435 -0.51319,0.20948 -0.5065,0.24867 0.08,0.46895 0.56061,0.21054 0.51667,0.26773 -0.35402,0.46098 -0.54672,0.12134 -1.19472,0.17772 -1.44,0.12529 -0.24528,-0.0524 -0.40307,0.10536 -0.35065,0.35065 0.14739,0.68954 -0.2712,2.27402 -0.60077,2.27402 -0.16202,0 -0.29456,-0.216 -0.29456,-0.48 0,-0.264 -0.216,-0.48 -0.48,-0.48 -0.58122,0 -0.63719,0.52324 -0.08,0.74807 0.23894,0.0964 0.17453,0.17157 -0.16,0.18667 -0.308,0.0139 -0.56,-0.13637 -0.56,-0.33392 0,-0.24231 -0.13015,-0.25651 -0.4,-0.0436 -0.50717,0.4001 -2.51475,0.39792 -2.2673,-0.003 0.10147,-0.16423 -0.14029,-0.12475 -0.53731,0.0877 -0.39702,0.21247 -0.58058,0.47884 -0.4079,0.59192 0.17267,0.11309 0.40268,0.56889 0.5111,1.0129 0.1889,0.77369 0.14432,0.80227 -1.07075,0.68639 -1.32045,-0.12592 -1.67309,-0.52913 -0.70784,-0.8093 0.31379,-0.0911 0.20829,-0.13324 -0.24,-0.0959 -0.48154,0.0401 -0.76295,0.23852 -0.70691,0.49834 0.0599,0.27773 -0.0887,0.36191 -0.41661,0.23607 -0.28035,-0.10758 -0.43539,-0.0753 -0.34451,0.0717 0.0909,0.14702 0.61712,0.28016 1.16947,0.29587 1.48845,0.0423 1.57392,0.38949 0.0959,0.38949 -0.69814,0 -1.44214,-0.1728 -1.65334,-0.384 -0.29866,-0.29867 -0.384,-0.29867 -0.384,0 0,0.2112 -0.17168,0.348 -0.38151,0.304 -0.24454,-0.0513 -0.38592,0.38822 -0.39376,1.22416 -0.0118,1.24851 -0.0535,1.3016 -0.97849,1.24392 -1.46071,-0.0911 -1.64813,0.0826 -1.57767,1.46241 0.0635,1.24285 0.042,1.26951 -1.02188,1.26951 -0.59767,0 -1.08669,-0.144 -1.08669,-0.32 0,-0.176 -0.15251,-0.32 -0.33888,-0.32 -0.1864,0 -0.26896,0.11314 -0.18349,0.25142 0.0854,0.13829 -0.11149,0.25144 -0.43763,0.25144 -0.32615,0 -0.52307,-0.11315 -0.43763,-0.25144 0.24547,-0.39715 -0.30567,-0.27404 -0.94602,0.21132 -0.52605,0.39873 -0.58509,1.01436 -0.59853,6.23919 -0.0144,5.5779 -0.0407,5.81074 -0.69638,6.16555 C 498.6404,315.75831 438.91309,319.68013 388,313.89306 Z m 155.1918,1.83426 c 0.26848,-0.10303 0.48605,-0.51585 0.48346,-0.91737 -0.005,-0.72436 -0.008,-0.72381 -0.41492,0.07 -19.05225,2.6089 0.13888,2.85789 -0.0685,0.84737 z m 1.1282,0.43265 c 0,-0.176 -0.0635,-0.32 -0.14112,-0.32 -0.0776,0 -0.23011,0.144 -0.33888,0.32 -0.10877,0.176 -0.0453,0.32 0.14112,0.32 0.18637,0 0.33888,-0.144 0.33888,-0.32 z m 0.60214,-1.68 c -0.0348,-1.24788 -0.0562,-1.28086 -0.26022,-0.4 -0.1223,0.528 -0.16186,1.14 -0.0879,1.36 0.25478,0.75796 0.38588,0.39646 0.34812,-0.96 z M 544.43002,312.48 c 0.1358,-0.8921 0.107,-1.08605 -0.0951,-0.64 -0.27833,0.61431 -0.45977,2.32827 -0.2174,2.05333 0.0647,-0.0733 0.20528,-0.70933 0.31248,-1.41333 z m 0.10857,-2.46 c -0.10214,-0.25527 -0.17798,-0.17945 -0.19334,0.19333 -0.0138,0.33734 0.0618,0.52634 0.16809,0.42 0.10634,-0.10633 0.1177,-0.38233 0.0253,-0.61333 z M 549.28,304 c -0.10877,-0.176 -0.34176,-0.32 -0.51776,-0.32 -0.176,0 -0.23101,0.144 -0.12224,0.32 0.10877,0.176 0.34176,0.32 0.51776,0.32 0.176,0 0.23101,-0.144 0.12224,-0.32 z m -0.15366,-1.39131 c 0.004,-0.20278 0.7199,-0.79228 1.59203,-1.31001 0.87209,-0.51773 1.52272,-1.00425 1.44582,-1.08117 -0.22521,-0.22519 -3.29008,1.84776 -3.48569,2.3576 -0.0982,0.25569 -0.39044,0.46489 -0.64957,0.46489 -0.25914,0 -0.55658,0.13823 -0.66099,0.30717 -0.11252,0.18205 0.20566,0.1693 0.78112,-0.0313 0.53401,-0.18616 0.97379,-0.50439 0.97728,-0.70718 z m 3.07939,-1.32869 c 0.264,-0.264 0.34333,-0.48 0.17632,-0.48 -0.16704,0 -0.48295,0.216 -0.70205,0.48 -0.2191,0.264 -0.29843,0.48 -0.17632,0.48 0.12211,0 0.43805,-0.216 0.70205,-0.48 z m -177.53155,-2.3649 c 0.23878,-0.1513 0.31078,-0.34999 0.16,-0.44151 -0.15082,-0.0915 -0.45984,0.0345 -0.68679,0.28 -0.45725,0.49469 -0.14848,0.58937 0.52679,0.16151 z M 373.92,298.24 c 0.10877,-0.176 0.0453,-0.32 -0.14112,-0.32 -0.18637,0 -0.33888,0.144 -0.33888,0.32 0,0.176 0.0635,0.32 0.14112,0.32 0.0776,0 0.23011,-0.144 0.33888,-0.32 z m -0.96,-0.64 c -0.10877,-0.176 -0.44128,-0.3178 -0.73888,-0.3151 -0.46634,0.004 -0.47478,0.0478 -0.0611,0.3151 0.62669,0.40499 1.0503,0.40499 0.8,0 z m -2.88,-1.78198 c -1.232,-0.6179 -2.744,-1.4338 -3.36,-1.81312 l -1.12,-0.68966 1.07386,1.02238 c 0.59059,0.56231 1.18828,1.02238 1.32822,1.02238 0.1399,0 1.02467,0.35859 1.96614,0.79687 2.58356,1.20271 2.669,0.94369 0.11178,-0.33885 z M 368.95936,296.4 c 0,-0.132 -0.43235,-0.2702 -0.96,-0.30712 -0.52765,-0.0369 -0.95936,0.0711 -0.95936,0.24 0,0.16892 0.432,0.30712 0.96,0.30712 0.528,0 0.95971,-0.108 0.95936,-0.24 z M 559.36,296 c 0,-0.176 -0.0635,-0.32 -0.14112,-0.32 -0.0776,0 -0.23011,0.144 -0.33888,0.32 -0.10877,0.176 -0.0453,0.32 0.14112,0.32 0.18637,0 0.33888,-0.144 0.33888,-0.32 z m 1.26019,-0.49224 c 0.37239,0.23015 1.49639,-0.69784 1.20192,-0.99233 -0.14131,-0.14129 -0.35709,-0.10047 -0.47952,0.0907 -0.12243,0.19118 -0.54867,0.44938 -0.94723,0.57377 -0.42714,0.13331 -0.63299,0.37447 -0.50141,0.58737 0.16237,0.26271 0.25834,0.25589 0.35197,-0.025 0.0708,-0.21243 0.23923,-0.31795 0.37427,-0.23449 z M 562.88,295.36 c 0,-0.176 -0.144,-0.32 -0.32,-0.32 -0.176,0 -0.32,0.144 -0.32,0.32 0,0.176 0.144,0.32 0.32,0.32 0.176,0 0.32,-0.144 0.32,-0.32 z m 1.28,-1.6 c -0.264,-0.17061 -0.624,-0.3102 -0.8,-0.3102 -0.176,0 -0.104,0.13959 0.16,0.3102 0.264,0.17061 0.624,0.3102 0.8,0.3102 0.176,0 0.104,-0.13959 -0.16,-0.3102 z m 43.6553,0.04 c 0.0952,-0.15402 -0.45354,-0.2094 -1.21943,-0.12308 -0.84352,0.0951 -1.47942,0.0163 -1.61305,-0.19996 -0.12132,-0.19631 -0.4641,-0.35182 -0.7617,-0.34558 -0.39411,0.008 -0.32378,0.13559 0.25888,0.46866 0.88685,0.50696 3.06486,0.63754 3.3353,0.19996 z m -4.79415,-0.53014 c 0.34167,-0.2584 0.47719,-0.46982 0.30119,-0.46982 -0.176,0 -0.59952,0.21142 -0.94119,0.46982 -0.34163,0.2584 -0.47715,0.46982 -0.30115,0.46982 0.176,0 0.59952,-0.21142 0.94115,-0.46982 z m -237.58115,0.029 c 0,-0.33776 -0.61411,-0.47965 -0.79677,-0.18411 -0.11056,0.17887 0.0234,0.32522 0.29789,0.32522 0.27437,0 0.49888,-0.0635 0.49888,-0.14111 z M 565.12,292.8 c 0.264,-0.17061 0.336,-0.3102 0.16,-0.3102 -0.176,0 -0.536,0.13959 -0.8,0.3102 -0.264,0.17061 -0.336,0.3102 -0.16,0.3102 0.176,0 0.536,-0.13959 0.8,-0.3102 z m 35.49334,-1.37055 c -0.0733,-0.0498 -0.42134,-0.3018 -0.77334,-0.56 -0.592,-0.43424 -0.60707,-0.42745 -0.20083,0.0906 0.24157,0.308 0.58957,0.56 0.77334,0.56 0.18378,0 0.27415,-0.0408 0.20083,-0.0906 z m -240.7,-1.38278 c -0.10633,-0.10634 -0.38233,-0.1177 -0.61334,-0.0253 -0.25526,0.10215 -0.17946,0.17798 0.19334,0.19333 0.33732,0.0139 0.52634,-0.0617 0.42,-0.16807 z M 598.24,289.92 c -0.10877,-0.176 -0.33328,-0.32 -0.49888,-0.32 -0.16563,0 -0.30112,0.144 -0.30112,0.32 0,0.176 0.22451,0.32 0.49888,0.32 0.2744,0 0.40989,-0.144 0.30112,-0.32 z m 13.18582,-2.64 c -0.0763,-0.396 -0.13865,-0.072 -0.13865,0.72 0,0.792 0.0624,1.116 0.13865,0.72 0.0763,-0.396 0.0763,-1.044 0,-1.44 z M 596.8,288.52252 c 0,-0.0646 -0.576,-0.49865 -1.28,-0.96454 -1.47136,-0.9737 -1.66288,-0.84227 -0.43328,0.2973 0.72125,0.66842 1.71328,1.05477 1.71328,0.66724 z M 574.4,287.2 c 0.2191,-0.264 0.29843,-0.48 0.17632,-0.48 -0.12211,0 -0.43805,0.216 -0.70205,0.48 -0.264,0.264 -0.34333,0.48 -0.17632,0.48 0.16704,0 0.48295,-0.216 0.70205,-0.48 z m 36.38582,-2.48 c -0.0762,-0.396 -0.13865,-0.072 -0.13865,0.72 0,0.792 0.0624,1.116 0.13865,0.72 0.0763,-0.396 0.0763,-1.044 0,-1.44 z m -33.71011,0.88 c 0.10131,-0.264 0.0624,-0.48 -0.0866,-0.48 -0.14893,0 -0.45005,0.216 -0.66915,0.48 -0.32429,0.39076 -0.30819,0.48 0.0866,0.48 0.26672,0 0.56781,-0.216 0.66912,-0.48 z m -226.87149,-0.83954 c -0.75456,-0.83378 -1.09481,-0.75048 -0.66393,0.16256 0.2016,0.42718 0.54656,0.69147 0.78371,0.60046 0.33203,-0.12741 0.30614,-0.29239 -0.11978,-0.76302 z m 242.21072,0.23088 c -0.31622,-0.42276 -0.62092,-0.72478 -0.67712,-0.67116 -0.16816,0.16048 0.71511,1.43982 0.99408,1.43982 0.14189,0 0,-0.3459 -0.31696,-0.76866 z M 578.24,284.64 c 0,-0.264 -0.0566,-0.48 -0.12576,-0.48 -0.0692,0 -0.20864,0.216 -0.30995,0.48 -0.10131,0.264 -0.0447,0.48 0.12576,0.48 0.17046,0 0.30995,-0.216 0.30995,-0.48 z m -230.51427,-1.28 c 0.264,-0.264 0.34333,-0.48 0.17632,-0.48 -0.16704,0 -0.48295,0.216 -0.70205,0.48 -0.2191,0.264 -0.29843,0.48 -0.17632,0.48 0.12211,0 0.43805,-0.216 0.70205,-0.48 z m 263.52601,-0.82121 c 0.15168,-0.0997 0.17476,-0.67566 0.0513,-1.28 -0.21562,-1.05529 -0.23351,-1.06712 -0.45187,-0.29879 -0.27031,0.95123 -0.32154,2.93259 -0.0579,2.24 0.10048,-0.264 0.30681,-0.56154 0.45849,-0.66121 z m -264.38102,0.35371 c 0.25891,-0.16374 0.36349,-0.40496 0.23238,-0.53605 -0.13107,-0.1311 -0.48176,0.005 -0.77929,0.3026 -0.57837,0.57836 -0.23213,0.72614 0.54691,0.23345 z M 587.7,280.34212 c -0.5176,-0.57195 -1.92019,-0.82787 -1.58758,-0.28967 0.0814,0.13178 0.33638,0.16734 0.56656,0.079 0.23017,-0.0883 0.6032,0.062 0.82892,0.33398 0.22576,0.27201 0.48714,0.49456 0.58087,0.49456 0.0937,0 -0.0812,-0.27805 -0.38877,-0.61788 z m -3.14666,-0.53545 c -0.10633,-0.10634 -0.38233,-0.1177 -0.61334,-0.0252 -0.25526,0.10215 -0.17946,0.17798 0.19334,0.19333 0.33732,0.0139 0.52634,-0.0617 0.42,-0.16807 z m 1.28,-0.64 c -0.10633,-0.10634 -0.38233,-0.1177 -0.61334,-0.0253 -0.25526,0.10215 -0.17946,0.17798 0.19334,0.19333 0.33732,0.0139 0.52634,-0.0617 0.42,-0.16807 z M 341.58902,277.80796 C 341.4087,277.61815 340.8,278.0992 340.8,278.4315 c 0,0.17255 0.20147,0.12806 0.44771,-0.0989 0.24627,-0.22694 0.39984,-0.46304 0.34131,-0.52466 z M 618.56,273.28 c 0,-0.176 -0.144,-0.32 -0.32,-0.32 -0.176,0 -0.32,0.144 -0.32,0.32 0,0.176 0.144,0.32 0.32,0.32 0.176,0 0.32,-0.144 0.32,-0.32 z m 0.37866,-1.34933 c -0.2296,-0.22962 -0.37866,-0.24852 -0.37866,-0.048 0,0.42713 0.37843,0.80556 0.592,0.592 0.0909,-0.0909 -0.005,-0.33574 -0.21334,-0.544 z M 623.36,270.72 c 0,-0.176 -0.0602,-0.32 -0.13382,-0.32 -0.0736,0 -0.3929,-0.0994 -0.70954,-0.22091 -0.51421,-0.19732 -0.52554,-0.16445 -0.10614,0.30783 0.53459,0.60202 0.9495,0.70388 0.9495,0.23308 z m 0.64,-0.8 c -0.2191,-0.264 -0.63274,-0.47542 -0.91917,-0.46982 -0.43757,0.009 -0.4215,0.0853 0.10032,0.48 0.80851,0.61151 1.32944,0.60504 0.81885,-0.0102 z m 5.44,-2.08 c 0,-0.176 -0.216,-0.32 -0.48,-0.32 -0.264,0 -0.48,0.144 -0.48,0.32 0,0.176 0.216,0.32 0.48,0.32 0.264,0 0.48,-0.144 0.48,-0.32 z m -1.76,-0.32 c 0.10877,-0.176 0.0453,-0.32 -0.14112,-0.32 -0.18637,0 -0.33888,0.144 -0.33888,0.32 0,0.176 0.0635,0.32 0.14112,0.32 0.0776,0 0.23011,-0.144 0.33888,-0.32 z m 1.44,-0.62996 c 0,-0.17047 -0.216,-0.22707 -0.48,-0.12576 -0.264,0.10131 -0.48,0.24079 -0.48,0.30996 0,0.0692 0.216,0.12576 0.48,0.12576 0.264,0 0.48,-0.13948 0.48,-0.30996 z M 329.6,265.44 c 0,-0.264 -0.13949,-0.48 -0.30995,-0.48 -0.1705,0 -0.22707,0.216 -0.12576,0.48 0.10131,0.264 0.24077,0.48 0.30995,0.48 0.0691,0 0.12576,-0.216 0.12576,-0.48 z m -1.74144,-2.36996 c -0.0986,-0.15948 -0.48829,-0.20913 -0.86602,-0.11035 -0.60848,0.15912 -0.66252,0.0827 -0.4736,-0.67004 0.24932,-0.99329 -0.25753,-1.14655 -0.74979,-0.22673 -0.26195,0.48941 -0.21293,0.69307 0.22874,0.95026 0.69929,0.40725 2.10374,0.45017 1.86067,0.0569 z m 309.66589,-0.15231 c -0.10912,-0.17656 0.0363,-0.21561 0.34307,-0.0921 1.25968,0.50715 1.59222,0.54005 0.80048,0.0792 -0.75757,-0.44095 -0.95264,-0.44324 -1.76,-0.0206 l -0.908,0.47526 0.85693,-0.0676 c 0.47133,-0.0372 0.77168,-0.20552 0.66752,-0.37409 z m 2.15555,-0.34647 c 0,-0.0818 -0.324,-0.32138 -0.72,-0.53239 -0.65286,-0.34788 -0.67904,-0.33401 -0.28083,0.14874 0.40893,0.49569 1.00083,0.72259 1.00083,0.38365 z m 4.48,-2.09126 c -0.62669,-0.40499 -1.0503,-0.40499 -0.8,0 0.10877,0.176 0.44128,0.3178 0.73888,0.3151 0.46634,-0.004 0.47478,-0.0478 0.0611,-0.3151 z m 0.24,-0.54059 c -0.308,-0.0805 -0.56,-0.28828 -0.56,-0.46176 0,-0.17348 -0.15936,-0.21692 -0.35418,-0.0965 -0.43168,0.26681 0.26826,0.7856 0.99418,0.73687 0.3401,-0.0229 0.3168,-0.0749 -0.08,-0.17857 z m 4.79334,-1.89274 c -0.10633,-0.10634 -0.38233,-0.1177 -0.61334,-0.0253 -0.25526,0.10215 -0.17946,0.17798 0.19334,0.19333 0.33732,0.0139 0.52634,-0.0617 0.42,-0.16807 z m 3.2,-2.56 c -0.10633,-0.10634 -0.38233,-0.1177 -0.61334,-0.0252 -0.25526,0.10215 -0.17946,0.17798 0.19334,0.19333 0.33732,0.0139 0.52634,-0.0617 0.42,-0.16807 z m 1.54551,-0.91649 c 0.34163,-0.2584 0.47715,-0.46982 0.30115,-0.46982 -0.176,0 -0.59952,0.21142 -0.94115,0.46982 -0.34167,0.2584 -0.47719,0.46982 -0.30119,0.46982 0.176,0 0.59952,-0.21142 0.94119,-0.46982 z M 322.00576,254.08 c -0.30141,-0.352 -0.59306,-0.64 -0.64813,-0.64 -0.0551,0 0.054,0.288 0.24237,0.64 0.18838,0.352 0.48003,0.64 0.64813,0.64 0.16809,0 0.059,-0.288 -0.24237,-0.64 z m 335.13402,-1.84688 c -0.10727,-0.10726 -0.44359,0.0652 -0.7474,0.38331 -0.52806,0.55288 -0.51948,0.56146 0.19501,0.19502 0.41111,-0.21081 0.65965,-0.47107 0.55239,-0.57833 z m 1.42022,0.27355 c 0,-0.16134 -0.18,-0.36597 -0.4,-0.45474 -0.25469,-0.10277 -0.21082,-0.17058 0.12083,-0.18667 0.48627,-0.0236 1.56685,-0.98526 1.10711,-0.98526 -0.58784,0 -1.729,1.06127 -1.5744,1.46415 0.1936,0.50447 0.74646,0.62484 0.74646,0.16252 z M 617.44,248 c 0.10877,-0.176 0.0453,-0.32 -0.14112,-0.32 -0.18637,0 -0.33888,-0.13553 -0.33888,-0.30117 0,-0.16564 0.612,-0.43822 1.36,-0.60573 l 1.36,-0.30456 -1.44,-0.0662 c -2.60237,-0.11958 -0.15344,-0.57537 3.28,-0.61047 3.27757,-0.0335 3.34755,-0.0692 3.13334,-1.59783 -0.11075,-0.79025 0.71789,-0.98417 4.22666,-0.98917 1.892,-0.003 3.44,-0.13481 3.44,-0.29359 0,-0.15879 0.468,-0.46136 1.04,-0.67239 0.572,-0.21103 0.86797,-0.45046 0.65773,-0.53206 -0.21024,-0.0816 -0.71424,0.0285 -1.12,0.24478 -0.68141,0.36312 -0.70266,0.35063 -0.27831,-0.16364 0.33328,-0.4039 0.35898,-0.61886 0.0936,-0.78289 -0.20121,-0.12436 0.41619,-0.23741 1.37203,-0.25123 1.18628,-0.0172 1.67492,0.0878 1.53949,0.3305 -0.10912,0.19559 -0.004,0.17562 0.23255,-0.0444 0.23702,-0.22 0.69014,-0.4 1.00694,-0.4 0.39421,0 0.576,-0.2417 0.576,-0.76576 0,-0.42889 0.24637,-0.86633 0.56,-0.99435 0.51408,-0.20984 0.50752,-0.25017 -0.08,-0.49175 -0.46768,-0.1923 -0.22566,-0.26921 0.89888,-0.28565 1.08934,-0.0159 1.4713,-0.13186 1.30752,-0.39687 -0.15558,-0.25173 -0.0569,-0.30744 0.30112,-0.17004 0.63651,0.24425 1.49248,-0.0351 1.49248,-0.48714 0,-0.17769 -0.28272,-0.24915 -0.62822,-0.1588 -0.69693,0.18225 -1.46311,-0.51353 -1.14045,-1.03562 0.11353,-0.18371 1.24195,-0.33803 2.50755,-0.34292 2.06672,-0.008 2.43152,-0.10854 3.58112,-0.98697 1.21168,-0.92585 1.23382,-0.97235 0.41475,-0.8711 -0.47587,0.0588 -0.87542,-0.037 -0.88784,-0.21303 -0.0125,-0.176 0.66493,-0.40538 1.50525,-0.50973 0.84032,-0.10435 1.27584,-0.21235 0.96784,-0.24 -0.41709,-0.0374 -0.56,-0.33609 -0.56,-1.17027 0,-0.685 0.15536,-1.1183 0.4,-1.11563 0.81667,0.009 1.80979,0.39269 1.93693,0.74847 0.0722,0.20194 0.099,0.13672 0.0596,-0.14493 -0.0914,-0.65366 0.99834,-2.11969 1.32948,-1.78858 0.13734,0.13738 0.0652,0.54525 -0.16029,0.90639 -0.64,1.02476 -0.25891,0.99482 0.65949,-0.0518 l 0.83097,-0.947 -0.84809,-0.66526 -0.8481,-0.66526 0.85824,0.18245 c 0.99325,0.21114 1.38554,-0.49483 1.04,-1.87162 -0.11421,-0.45496 -0.0999,-0.82721 0.0317,-0.82721 0.44717,0 1.08957,1.11668 1.10451,1.92 l 0.015,0.8 0.42144,-0.8 c 0.23181,-0.44 0.60039,-0.76043 0.81907,-0.71207 0.21869,0.0484 0.30644,-0.0596 0.19495,-0.24 -0.11149,-0.18036 -0.41021,-0.32793 -0.66381,-0.32793 -0.68755,0 -0.55696,-0.54029 0.17696,-0.73222 0.52304,-0.13677 0.60256,-0.34459 0.44099,-1.15239 -0.14934,-0.74671 -0.068,-1.03508 0.33571,-1.18999 0.69629,-0.2672 1.10183,0.14587 0.50522,0.5146 -0.25379,0.15686 -0.36448,0.38217 -0.24598,0.50069 0.11852,0.11853 0.4358,-0.005 0.70502,-0.27402 0.26925,-0.26924 0.65622,-0.5451 0.85997,-0.61301 0.20374,-0.0679 0.38633,-0.69277 0.40573,-1.38857 0.0335,-1.20113 0.0881,-1.26671 1.0806,-1.29709 0.57492,-0.0176 1.07892,-0.0896 1.12,-0.16 0.0411,-0.0704 0.43466,-0.55897 0.87466,-1.08571 0.7863,-0.94132 0.78698,-0.9468 0.0391,-0.32 l -0.76093,0.63771 0.14087,-1.99326 c 0.13913,-1.96877 0.37814,-2.63625 0.79481,-2.21959 0.1176,0.1176 0.0288,0.5594 -0.19718,0.98177 -0.22605,0.42239 -0.34835,0.95593 -0.27178,1.18567 0.0766,0.22973 0.41732,-0.18436 0.75719,-0.92019 0.56515,-1.22359 1.4055,-1.97743 0.98617,-0.88465 -0.0992,0.25837 -0.0426,0.55486 0.12576,0.65889 0.18196,0.11246 0.30602,-0.60455 0.30602,-1.76864 0,-1.07677 0.12646,-1.87961 0.28102,-1.78408 0.29405,0.18172 0.7986,-1.72298 0.52807,-1.99349 -0.0854,-0.0854 -0.29331,0.18956 -0.46192,0.61111 -0.26781,0.66944 -0.30855,0.68545 -0.32199,0.12646 -0.0234,-0.97282 0.3641,-1.3643 1.34816,-1.36204 0.49133,0.001 0.94724,-0.052 1.01312,-0.11796 0.0659,-0.066 0.16788,-2.064 0.22666,-4.44 0.0896,-3.62009 0.18464,-4.30805 0.58688,-4.24623 0.35901,0.0552 0.48733,-0.26749 0.50902,-1.28 0.016,-0.74457 -0.0307,-1.10177 -0.10345,-0.79377 -0.0729,0.308 -0.26595,0.56 -0.42903,0.56 -0.37664,0 -0.32256,0.40596 -0.51155,-3.84 -0.10048,-2.25778 -0.31913,-3.86551 -0.56576,-4.16 -0.22105,-0.264 -0.51261,-0.768 -0.64784,-1.12 -0.14518,-0.37788 -0.30467,-0.48344 -0.38941,-0.25774 -0.0789,0.21024 0.015,0.67824 0.20852,1.04 0.4911,0.9176 -0.17437,0.8581 -0.69626,-0.0623 -0.22458,-0.396 -0.40963,-1.008 -0.41126,-1.36 -0.003,-0.38001 -0.21876,-0.64175 -0.53415,-0.6443 -0.7392,-0.006 -1.8136,-1.046 -1.93094,-1.86912 -0.0831,-0.58319 -0.30253,-0.68326 -1.45674,-0.6645 l -1.35885,0.0221 0.50442,-0.76984 c 0.53786,-0.8209 0.32115,-1.49974 -0.22509,-0.70505 -0.24569,0.35744 -0.27481,0.29746 -0.12102,-0.24927 0.18877,-0.67114 0.10333,-0.72 -1.25904,-0.72 -1.3968,0 -1.91296,-0.37602 -1.06157,-0.77333 0.32,-0.14934 0.32,-0.224 0,-0.37334 -0.22,-0.10266 -0.4,-0.46266 -0.4,-0.8 0,-0.65964 -0.40579,-0.71868 -4.24,-0.6169 -1.12477,0.0299 -1.84,-0.0843 -1.84,-0.29379 0,-0.18845 -0.288,-0.34264 -0.64,-0.34264 -0.352,0 -0.64,0.144 -0.64,0.32 0,0.46155 -2.99725,0.39475 -3.46931,-0.0773 -0.30099,-0.30099 -0.4536,-0.30632 -0.62931,-0.022 -0.1689,0.27327 -2.49293,0.36421 -8.54669,0.33442 l -8.31469,-0.0409 0.0762,0.7029 c 0.0419,0.3866 -0.10208,0.70511 -0.32,0.7078 -0.26,0.003 -0.23116,0.11325 0.0838,0.32 0.81782,0.53687 -0.23562,0.92513 -2.22544,0.82022 -2.37821,-0.12539 -2.57456,-0.013 -2.57456,1.47329 v 1.26993 l -1.4296,-0.0879 c -0.78627,-0.0483 -1.53027,0.0128 -1.65331,0.13583 -0.12307,0.12306 -0.0557,0.22374 0.14957,0.22374 0.20534,0 0.37334,0.4166 0.37334,0.92577 0,0.84747 -0.4639,1.31423 -1.30618,1.31423 -0.42483,0 -0.36115,-1.08468 0.0902,-1.536 0.29866,-0.29866 0.29523,-0.384 -0.0154,-0.384 -0.21968,0 -0.60285,0.468 -0.85146,1.04 -0.24864,0.572 -0.45766,0.90607 -0.46457,0.74237 -0.0192,-0.45764 -1.93251,1.79495 -1.93251,2.27527 0,0.2323 -0.144,0.42236 -0.32,0.42236 -0.18148,0 -0.32109,0.935 -0.3225,2.16 -0.003,2.02707 -0.0551,2.18441 -0.8567,2.55665 -1.16528,0.5411 -1.2498,0.32025 -0.27853,-0.72776 0.70793,-0.76389 1.09312,-1.74889 0.6839,-1.74889 -0.56976,0 -1.14617,0.4882 -1.14617,0.97077 0,0.32027 -0.2498,0.63041 -0.55511,0.68921 -0.47648,0.0918 -0.54841,0.46907 -0.50771,2.66347 0.0262,1.4061 -0.0221,2.23255 -0.10714,1.83655 -0.085,-0.396 -0.28854,-0.72 -0.45232,-0.72 -0.46502,0 -0.34979,1.06328 0.20042,1.8488 0.27398,0.39116 0.35446,0.7112 0.17888,0.7112 -0.17558,0 -0.416,-0.15654 -0.53427,-0.34788 -0.15187,-0.24574 -0.31491,-0.24797 -0.55527,-0.008 -0.24035,0.24035 -0.46464,0.23704 -0.76387,-0.0113 -0.52857,-0.43868 -0.47913,-1.6806 -0.47302,11.87942 0.004,7.76943 0.11312,11.38861 0.34726,11.46666 0.43287,0.14429 0.45379,2.62072 0.0221,2.62072 -0.18646,0 -0.32,1.06037 -0.32,2.54111 0,1.39761 0.144,2.63011 0.32,2.73889 0.36855,0.22776 0.44125,4.51886 0.08,4.72088 -0.132,0.0738 -0.0938,0.10334 0.0847,0.0656 0.48595,-0.1027 0.15293,2.50437 -0.3689,2.88802 -0.28089,0.20652 -0.39606,0.7349 -0.31507,1.44551 0.0702,0.616 0.14378,1.75096 0.16346,2.52213 l 0.0358,1.40214 1.28,-0.17169 c 1.33959,-0.17967 1.67389,0.14619 0.72,0.70178 -0.53334,0.31064 -0.53334,0.32664 0,0.33591 0.34343,0.006 0.56,0.25724 0.56,0.64973 0,0.58945 0.21335,0.64 2.70112,0.64 1.4856,0 2.79011,-0.144 2.89888,-0.32 z m -2.91536,-2.69673 c -0.0964,-0.2512 -0.12787,-0.7912 -0.0699,-1.2 0.0857,-0.60465 0.32912,-0.76179 1.30531,-0.84259 0.69466,-0.0575 1.2,0.0436 1.2,0.24 0,0.18663 -0.216,0.33932 -0.48,0.33932 -0.26666,0 -0.48,0.28444 -0.48,0.64 0,0.35556 0.21334,0.64 0.48,0.64 0.264,0 0.48,0.144 0.48,0.32 0,0.50924 -2.23565,0.38373 -2.43536,-0.13673 z m -4.0777,-7.11155 c -0.28976,-3.42816 -0.25779,-5.23172 0.0928,-5.23172 0.16487,0 0.35783,0.468 0.4288,1.04 l 0.12906,1.04 0.0512,-1.04 c 0.0282,-0.572 0.1592,-1.03988 0.2912,-1.03973 0.132,1.4e-4 0.2345,1.11614 0.22774,2.48 -0.0214,4.34446 -0.11702,5.19973 -0.5808,5.19973 -0.30828,0 -0.49264,-0.70531 -0.64,-2.44828 z m 0.94135,-2.5901 c -0.34416,-0.34416 -0.52688,0.13784 -0.28528,0.75258 0.22662,0.57666 0.24374,0.57766 0.35584,0.0208 0.0647,-0.32178 0.033,-0.66978 -0.0706,-0.77334 z M 645.12,234.25004 c 0,-0.17047 0.216,-0.22707 0.48,-0.12576 0.264,0.10131 0.48,0.24079 0.48,0.30996 0,0.0692 -0.216,0.12576 -0.48,0.12576 -0.264,0 -0.48,-0.13948 -0.48,-0.30996 z M 610.24,226.56 c 0,-0.704 0.144,-1.28 0.32,-1.28 0.176,0 0.32,0.576 0.32,1.28 0,0.704 -0.144,1.28 -0.32,1.28 -0.176,0 -0.32,-0.576 -0.32,-1.28 z m 1.36717,0 c 0,-0.792 0.0624,-1.116 0.13865,-0.72 0.0763,0.396 0.0763,1.044 0,1.44 -0.0762,0.396 -0.13865,0.072 -0.13865,-0.72 z M 665.6,200.32 c 0,-0.176 0.144,-0.32 0.32,-0.32 0.176,0 0.32,0.144 0.32,0.32 0,0.176 -0.144,0.32 -0.32,0.32 -0.176,0 -0.32,-0.144 -0.32,-0.32 z m -49.5623,-8.6167 c -0.32903,-0.20336 -0.34234,-0.41409 -0.0595,-0.94261 0.52397,-0.97904 1.0344,-0.8491 0.78288,0.19931 -0.26371,1.09924 -0.22007,1.05438 -0.72339,0.7433 z M 611.04,247.68 c -0.10877,-0.176 -0.58528,-0.30564 -1.05888,-0.2881 l -0.86112,0.0319 0.8,0.2562 c 1.13584,0.36376 1.3448,0.36376 1.12,0 z m 8.24,-0.21193 c -0.22,-0.0888 -0.58,-0.0888 -0.8,0 -0.22,0.0888 -0.04,0.16141 0.4,0.16141 0.44,0 0.62,-0.0726 0.4,-0.16141 z M 608.72899,246.361 c -0.19744,-0.19744 -0.27702,-0.59344 -0.17689,-0.88 0.14329,-0.41001 0.0948,-0.44037 -0.22749,-0.14251 -0.47034,0.43463 -0.21719,1.38151 0.36934,1.38151 0.29123,0 0.30039,-0.0937 0.035,-0.359 z M 625.92,245.44 c 0,-0.176 -0.216,-0.32 -0.48,-0.32 -0.264,0 -0.48,0.144 -0.48,0.32 0,0.176 0.216,0.32 0.48,0.32 0.264,0 0.48,-0.144 0.48,-0.32 z m 1.19334,-0.51333 c -0.10633,-0.10634 -0.38233,-0.1177 -0.61334,-0.0252 -0.25526,0.10215 -0.17946,0.17798 0.19334,0.19333 0.33732,0.0139 0.52634,-0.0617 0.42,-0.16807 z M 627.52,243.7746 c 0,-0.14003 -0.504,-0.2546 -1.12,-0.2546 -0.616,0 -1.12,0.14851 -1.12,0.33003 0,0.18151 0.504,0.29608 1.12,0.25459 0.616,-0.0415 1.12,-0.19 1.12,-0.33002 z m 44.8,-1.2146 c 0,-0.176 -0.22451,-0.32 -0.49888,-0.32 -0.2744,0 -0.40989,0.144 -0.30112,0.32 0.10877,0.176 0.33328,0.32 0.49888,0.32 0.16563,0 0.30112,-0.144 0.30112,-0.32 z m -363.06286,-1.41714 c -0.33887,-0.24779 -0.68814,-0.37853 -0.77614,-0.29053 -0.088,0.088 0.11727,0.36274 0.45614,0.61053 0.33888,0.24779 0.68814,0.37853 0.77614,0.29053 0.088,-0.088 -0.11726,-0.36274 -0.45614,-0.61053 z m 362.2395,0.29027 c 0.33914,-0.25659 0.52867,-0.55448 0.42115,-0.662 -0.10752,-0.10751 -0.52016,0.107 -0.91696,0.47669 -0.81577,0.75999 -0.4463,0.89806 0.49581,0.18531 z M 672.8,240 c 0.10877,-0.176 0.0453,-0.32 -0.14112,-0.32 -0.18637,0 -0.33888,0.144 -0.33888,0.32 0,0.176 0.0635,0.32 0.14112,0.32 0.0776,0 0.23011,-0.144 0.33888,-0.32 z m -370.88,-2.56 c -0.10877,-0.176 -0.47727,-0.32 -0.81889,-0.32 -0.34161,0 -0.62111,0.144 -0.62111,0.32 0,0.176 0.3685,0.32 0.81889,0.32 0.46443,0 0.73328,-0.13851 0.62111,-0.32 z m -0.32,-0.96 c -0.10877,-0.176 -0.34177,-0.32 -0.51777,-0.32 -0.176,0 -0.231,0.144 -0.12223,0.32 0.10877,0.176 0.34177,0.32 0.51777,0.32 0.176,0 0.231,-0.144 0.12223,-0.32 z m 340.96,-0.32 c 0,-0.176 -0.288,-0.32 -0.64,-0.32 -0.352,0 -0.64,0.144 -0.64,0.32 0,0.176 0.288,0.32 0.64,0.32 0.352,0 0.64,-0.144 0.64,-0.32 z m 37.92,-3.84 c 0.10877,-0.176 0.0453,-0.32 -0.14112,-0.32 -0.18637,0 -0.33888,0.144 -0.33888,0.32 0,0.176 0.0635,0.32 0.14112,0.32 0.0776,0 0.23011,-0.144 0.33888,-0.32 z m -31.0983,-0.20836 c 0.11459,-0.1146 -0.0414,-0.39802 -0.34666,-0.62982 -0.81494,-0.61882 -1.09661,-0.5317 -0.64077,0.19818 0.42157,0.67504 0.64595,0.77312 0.98743,0.43164 z M 293.12,228.8 c 0,-0.176 -0.1525,-0.32 -0.33889,-0.32 -0.18638,0 -0.24988,0.144 -0.14111,0.32 0.10877,0.176 0.26127,0.32 0.33889,0.32 0.0776,0 0.14111,-0.144 0.14111,-0.32 z m -2.07822,-2.55804 c -0.31954,-0.35308 -0.71777,-0.64196 -0.88496,-0.64196 -0.1672,0 0.033,0.35013 0.44486,0.77806 0.88596,0.92051 1.28471,0.79719 0.4401,-0.1361 z M 656.96,224.96 c 0,-0.176 -0.144,-0.32 -0.32,-0.32 -0.176,0 -0.32,0.144 -0.32,0.32 0,0.176 0.144,0.32 0.32,0.32 0.176,0 0.32,-0.144 0.32,-0.32 z m 0.96,-0.96 c 0,-0.176 -0.144,-0.32 -0.32,-0.32 -0.176,0 -0.32,0.144 -0.32,0.32 0,0.176 0.144,0.32 0.32,0.32 0.176,0 0.32,-0.144 0.32,-0.32 z m 1.12,-1.28 c 0.10877,-0.176 0.0538,-0.32 -0.12224,-0.32 -0.176,0 -0.40899,0.144 -0.51776,0.32 -0.10877,0.176 -0.0538,0.32 0.12224,0.32 0.176,0 0.40899,-0.144 0.51776,-0.32 z m 0.20134,-1.68667 c -0.52051,-0.5205 -0.81766,-0.0334 -0.31363,0.51409 0.23824,0.25876 0.48435,0.32746 0.54829,0.15305 0.0638,-0.17406 -0.0418,-0.47427 -0.23466,-0.66714 z M 287.6751,221.2 c -0.003,-0.132 -0.14449,-0.456 -0.3151,-0.72 -0.25084,-0.38815 -0.31114,-0.34222 -0.3151,0.24 -0.003,0.396 0.1391,0.72 0.3151,0.72 0.176,0 0.3178,-0.108 0.3151,-0.24 z m 397.65684,-0.8 c -0.0888,-0.22 -0.16141,-0.04 -0.16141,0.4 0,0.44 0.0726,0.62 0.16141,0.4 0.0888,-0.22 0.0888,-0.58 0,-0.8 z m -399.57462,-1.19157 c 0.33772,-0.21351 0.37762,-0.40149 0.13644,-0.64267 -0.24118,-0.24118 -0.51229,-0.15148 -0.92692,0.30668 -0.44349,0.49005 -0.47667,0.64637 -0.13644,0.64266 0.24728,-0.003 0.6644,-0.1407 0.92692,-0.30667 z m -0.70137,-2.42121 c -0.44709,-0.98126 -0.57062,-0.89364 -0.3511,0.24905 0.0926,0.48195 0.29044,0.80081 0.43967,0.70857 0.14924,-0.0922 0.10938,-0.52316 -0.0886,-0.95762 z M 662.4,217.26111 c 0,-0.16561 -0.144,-0.30111 -0.32,-0.30111 -0.176,0 -0.32,0.2245 -0.32,0.49889 0,0.27438 0.144,0.40988 0.32,0.30111 0.176,-0.10877 0.32,-0.33327 0.32,-0.49889 z M 688.32,216.64 c 0,-0.176 -0.144,-0.32 -0.32,-0.32 -0.176,0 -0.32,0.144 -0.32,0.32 0,0.176 0.144,0.32 0.32,0.32 0.176,0 0.32,-0.144 0.32,-0.32 z m -79.3825,-2.16 c -0.0125,-0.308 -0.14624,-0.848 -0.2975,-1.2 -0.22061,-0.5134 -0.27946,-0.40262 -0.2975,0.56 -0.0125,0.66 0.1215,1.2 0.2975,1.2 0.176,0 0.30989,-0.252 0.2975,-0.56 z m 79.05271,-0.56 c 0,-0.176 -0.13959,-0.104 -0.31021,0.16 -0.17062,0.264 -0.31021,0.624 -0.31021,0.8 0,0.176 0.13959,0.104 0.31021,-0.16 0.17062,-0.264 0.31021,-0.624 0.31021,-0.8 z M 282.56,214.25889 c 0,-0.25362 -0.144,-0.55012 -0.32,-0.65889 -0.176,-0.10877 -0.32,0.0987 -0.32,0.46111 0,0.36239 0.144,0.65889 0.32,0.65889 0.176,0 0.32,-0.2075 0.32,-0.46111 z m 0.69867,-0.88822 c -0.22962,-0.22962 -0.37867,-0.24852 -0.37867,-0.048 0,0.42713 0.37844,0.80556 0.592,0.592 0.0909,-0.0909 -0.005,-0.33574 -0.21333,-0.544 z m 380.95992,0.009 c -0.10214,-0.25527 -0.17798,-0.17945 -0.19334,0.19333 -0.0138,0.33734 0.0618,0.52634 0.16809,0.42 0.10634,-0.10633 0.1177,-0.38233 0.0253,-0.61333 z M 608.86582,210.48 c -0.0762,-0.396 -0.13865,-0.072 -0.13865,0.72 0,0.792 0.0624,1.116 0.13865,0.72 0.0763,-0.396 0.0763,-1.044 0,-1.44 z m 56.09418,1.424 c 0,-0.3168 0.1704,-0.7464 0.37866,-0.95467 0.20828,-0.20826 0.29088,-0.46645 0.18361,-0.57373 -0.10729,-0.10729 -0.42169,0.24316 -0.69869,0.77877 -0.58944,1.13988 -0.61516,1.32563 -0.18358,1.32563 0.176,0 0.32,-0.2592 0.32,-0.576 z M 279.96973,208.72 c -0.23575,-0.308 -0.46938,-0.62 -0.51918,-0.69333 -0.0498,-0.0733 -0.0906,0.17866 -0.0906,0.56 0,0.42622 0.20002,0.69333 0.51918,0.69333 0.44442,0 0.45746,-0.0806 0.0906,-0.56 z m 1.12962,-0.46508 c -0.12308,-0.38779 -0.42079,-0.90207 -0.66157,-1.14285 -0.24078,-0.24078 -0.44915,-0.6795 -0.46304,-0.97493 -0.0139,-0.29542 -0.0943,-0.3679 -0.1787,-0.16104 -0.0844,0.20685 0.1459,0.96285 0.51176,1.68 0.71894,1.40922 1.15297,1.73758 0.79155,0.59882 z M 690.79827,197.52 c -0.0587,-1.54 -0.10665,-0.28 -0.10665,2.8 0,3.08 0.048,4.34 0.10665,2.8 0.0587,-1.54 0.0587,-4.06 0,-5.6 z M 666.88,203.37004 c 0,-1.16074 -0.0935,-1.39408 -0.49651,-1.23942 -0.37162,0.1426 -0.44266,0.44192 -0.28237,1.18995 0.42227,1.9708 0.77888,1.99345 0.77888,0.0495 z m -56.53629,-2.53875 c 0.20003,-0.5213 -0.0687,-0.89069 -0.46835,-0.64371 -0.36349,0.22466 -0.35523,1.09242 0.0106,1.09242 0.15718,0 0.36326,-0.20192 0.45795,-0.44871 z m 57.25651,-2.26128 c -0.0851,-0.44551 -0.27849,-0.81001 -0.4296,-0.81001 -0.1519,0 -0.15363,0.322 -0.004,0.72 0.14903,0.396 0.22144,1.224 0.16093,1.84 l -0.10998,1.12 0.26867,-1.02999 c 0.14781,-0.5665 0.19904,-1.3945 0.11386,-1.84 z m 21.91332,-0.40287 c -0.0693,-0.66393 -0.12711,-0.19914 -0.12855,1.03286 0,1.232 0.0553,1.77521 0.12595,1.20714 0.0707,-0.56808 0.0719,-1.57608 0.003,-2.24 z m -78.0906,-0.13984 c -0.0346,-0.49831 -0.17094,-0.90631 -0.30294,-0.90666 -0.132,-3.2e-4 -0.24195,0.10736 -0.24438,0.23936 -0.003,0.132 -0.0849,0.54 -0.18336,0.90667 -0.12394,0.46162 -0.0294,0.66666 0.30729,0.66666 0.33539,0 0.46679,-0.28117 0.42339,-0.90603 z m 54.81444,-1.13725 c -0.34663,-0.54031 -0.3561,-0.53947 -0.18154,0.0161 0.10128,0.3224 0.20086,0.8264 0.22128,1.12 0.0334,0.48092 0.0514,0.47932 0.18154,-0.0161 0.0794,-0.30247 -0.0202,-0.80647 -0.22128,-1.12 z M 277.6586,196.42 c -0.10216,-0.25527 -0.17798,-0.17945 -0.19334,0.19333 -0.0139,0.33734 0.0617,0.52634 0.16807,0.42 0.10634,-0.10633 0.1177,-0.38233 0.0252,-0.61333 z m 50.90514,-1.11987 c -0.30595,-0.0801 -0.88195,-0.083 -1.28,-0.006 -0.39808,0.0765 -0.14774,0.14207 0.55626,0.14563 0.704,0.004 1.02966,-0.0591 0.72374,-0.13917 z M 690.10003,194.8 c -0.0458,-0.22 -0.19811,-0.66653 -0.33833,-0.99229 -0.16759,-0.38933 -0.10189,-0.68921 0.19168,-0.87511 0.24563,-0.15554 0.30262,-0.28042 0.12662,-0.27752 -0.176,0.003 -0.59411,0.21273 -0.92912,0.46629 -0.55584,0.42069 -0.56202,0.4791 -0.0705,0.66772 0.35299,0.13545 0.47276,0.41425 0.34755,0.8088 -0.12829,0.4042 -0.0355,0.60211 0.28214,0.60211 0.26029,0 0.43575,-0.18 0.38992,-0.4 z M 334.56,193.92 c 0.2503,-0.40499 -0.17331,-0.40499 -0.8,0 -0.41366,0.26733 -0.40522,0.31088 0.0611,0.3151 0.2976,0.003 0.63011,-0.1391 0.73888,-0.3151 z m 279.52,-1.19342 c 0,-0.39478 -0.0892,-0.41088 -0.48,-0.0866 -0.264,0.2191 -0.48,0.52021 -0.48,0.66914 0,0.14892 0.216,0.18789 0.48,0.0866 0.264,-0.10131 0.48,-0.40242 0.48,-0.66914 z M 275.78018,192.48 c -0.74814,-0.86043 -1.07929,-1.0472 -0.70924,-0.4 0.43344,0.75806 0.84817,1.2 1.12613,1.2 0.15328,0 -0.0343,-0.36 -0.41689,-0.8 z M 339.84,190.4 c 0.264,-0.17061 0.336,-0.3102 0.16,-0.3102 -0.176,0 -0.536,0.13959 -0.8,0.3102 -0.264,0.17061 -0.336,0.3102 -0.16,0.3102 0.176,0 0.536,-0.13959 0.8,-0.3102 z m 2.72,-1.6 c 0.10877,-0.176 -0.0182,-0.32 -0.28224,-0.32 -0.264,0 -0.56899,0.144 -0.67776,0.32 -0.10877,0.176 0.0182,0.32 0.28224,0.32 0.264,0 0.56899,-0.144 0.67776,-0.32 z m 276.44211,-0.17662 c 0.10928,-0.28478 0.0556,-0.41322 -0.12579,-0.30111 -0.17398,0.10752 -0.31632,0.331 -0.31632,0.49662 0,0.46029 0.22938,0.35886 0.44211,-0.19551 z M 313.1786,188.1 c -0.10216,-0.25527 -0.17798,-0.17945 -0.19334,0.19333 -0.0139,0.33734 0.0617,0.52634 0.16807,0.42 0.10634,-0.10633 0.1177,-0.38233 0.0253,-0.61333 z m 1.3814,0.22 c 0,-0.264 -0.0566,-0.48 -0.12576,-0.48 -0.0692,0 -0.20865,0.216 -0.30996,0.48 -0.10131,0.264 -0.0447,0.48 0.12576,0.48 0.17048,0 0.30996,-0.216 0.30996,-0.48 z m 347.99315,-0.48756 c -0.36419,-0.40243 -0.69945,-0.53412 -0.88569,-0.34788 -0.43296,0.43294 0.0198,0.99544 0.80102,0.99544 0.65306,0 0.6553,-0.0171 0.0847,-0.64756 z M 347.2,186.08 c 0.46397,-0.26523 0.59837,-0.45781 0.32,-0.45848 -0.264,-6.4e-4 -0.75952,0.21026 -1.10115,0.46866 -0.79037,0.5978 -0.27056,0.59103 0.78115,-0.0102 z m 312.64,0.16 c 0,-0.176 -0.144,-0.32 -0.32,-0.32 -0.176,0 -0.32,0.144 -0.32,0.32 0,0.176 0.144,0.32 0.32,0.32 0.176,0 0.32,-0.144 0.32,-0.32 z m 0.96,-0.78111 c 0,-0.33776 -0.61411,-0.47965 -0.79677,-0.18411 -0.11056,0.17887 0.0234,0.32522 0.29789,0.32522 0.27437,0 0.49888,-0.0635 0.49888,-0.14111 z M 311.04,184.96 c 0,-0.176 -0.0635,-0.32 -0.14111,-0.32 -0.0776,0 -0.23012,0.144 -0.33889,0.32 -0.10877,0.176 -0.0453,0.32 0.14111,0.32 0.18639,0 0.33889,-0.144 0.33889,-0.32 z m 348.61926,-0.28647 c 0.0974,-0.15756 -0.0307,-0.36622 -0.2848,-0.4637 -0.30809,-0.11823 -0.40262,-0.0229 -0.28393,0.28647 0.20627,0.53754 0.32349,0.57406 0.56873,0.17723 z M 352.704,183.68 c 0.3168,0 0.576,-0.13395 0.576,-0.29766 0,-0.18355 -0.39789,-0.18355 -1.03789,0 -0.57085,0.16371 -1.08333,0.29766 -1.13888,0.29766 -0.0555,0 -0.004,0.15655 0.11402,0.34788 0.15481,0.25051 0.31235,0.25051 0.56288,0 0.19133,-0.19133 0.60707,-0.34788 0.92387,-0.34788 z m 227.04934,0.44667 c -0.10633,-0.10634 -0.38233,-0.1177 -0.61334,-0.0252 -0.25526,0.10215 -0.17946,0.17798 0.19334,0.19333 0.33732,0.0139 0.52634,-0.0617 0.42,-0.16807 z m 78.44084,-0.41157 c 0.30265,-0.19178 0.32688,-0.3414 0.08,-0.49399 -0.19482,-0.12038 -0.35418,-0.076 -0.35418,0.0987 0,0.1747 -0.396,0.37762 -0.88,0.45094 -0.84035,0.1273 -0.84394,0.13525 -0.08,0.17636 0.44,0.0237 0.99536,-0.0807 1.23418,-0.23206 z m -385.24694,-1.49047 c -0.21208,-0.25555 -0.53429,-0.46463 -0.71602,-0.46463 -0.18173,0 -0.0921,0.26334 0.19918,0.5852 0.29128,0.32186 0.5463,0.78986 0.56672,1.04 0.0223,0.27271 0.0969,0.22444 0.18643,-0.12057 0.0821,-0.31646 -0.0242,-0.78446 -0.23631,-1.04 z m 298.8061,1.26204 c -0.10633,-0.10634 -0.38233,-0.1177 -0.61334,-0.0252 -0.25526,0.10215 -0.17946,0.17798 0.19334,0.19333 0.33732,0.0139 0.52634,-0.0617 0.42,-0.16807 z m 1.68666,-0.0966 c 0,-0.15946 -0.684,-0.51661 -1.52,-0.79367 -1.28672,-0.42644 -1.42467,-0.43106 -0.89885,-0.0301 0.34167,0.26051 0.87315,0.47367 1.18112,0.47367 0.30797,0 0.64896,0.144 0.75773,0.32 0.24637,0.39864 0.48,0.41328 0.48,0.0301 z m 7.59334,0.0966 c -0.10633,-0.10634 -0.38233,-0.1177 -0.61334,-0.0252 -0.25526,0.10215 -0.17946,0.17798 0.19334,0.19333 0.33732,0.0139 0.52634,-0.0617 0.42,-0.16807 z M 626.08,183.36 c -0.10877,-0.176 -0.48576,-0.32 -0.83776,-0.32 -0.352,0 -0.55101,0.144 -0.44224,0.32 0.10877,0.176 0.48576,0.32 0.83776,0.32 0.352,0 0.55101,-0.144 0.44224,-0.32 z M 584,182.72 c 0.264,-0.17061 0.336,-0.3102 0.16,-0.3102 -0.176,0 -0.536,0.13959 -0.8,0.3102 -0.264,0.17061 -0.336,0.3102 -0.16,0.3102 0.176,0 0.536,-0.13959 0.8,-0.3102 z m 72.96,0 c -0.62669,-0.40499 -1.0503,-0.40499 -0.8,0 0.10877,0.176 0.44128,0.3178 0.73888,0.3151 0.46634,-0.004 0.47478,-0.0478 0.0611,-0.3151 z m -83.52,-0.32 c 0,-0.176 -0.15251,-0.32 -0.33888,-0.32 -0.1864,0 -0.24989,0.144 -0.14112,0.32 0.10877,0.176 0.26128,0.32 0.33888,0.32 0.0776,0 0.14112,-0.144 0.14112,-0.32 z m 9.12,0 c 0.58336,-0.25068 0.56922,-0.27502 -0.16,-0.27502 -0.44,0 -1.088,0.12376 -1.44,0.27502 -0.58336,0.25068 -0.56922,0.27502 0.16,0.27502 0.44,0 1.088,-0.12376 1.44,-0.27502 z m 43.91334,0.12667 c -0.10633,-0.10634 -0.38233,-0.1177 -0.61334,-0.0252 -0.25526,0.10215 -0.17946,0.17798 0.19334,0.19333 0.33732,0.0139 0.52634,-0.0617 0.42,-0.16807 z M 565.12,181.28 c -0.2191,-0.264 -0.70474,-0.47788 -1.07917,-0.47528 -0.63827,0.004 -0.63081,0.0325 0.11917,0.44862 1.07754,0.59791 1.4425,0.60805 0.96,0.0267 z m 20.66285,0.0229 c 0.66064,-0.66063 0.56134,-0.89336 -0.18285,-0.4286 -0.352,0.21983 -0.64,0.50905 -0.64,0.64272 0,0.37317 0.31843,0.29031 0.82285,-0.21412 z M 309.44,181.12 c 0,-0.176 -0.144,-0.32 -0.32,-0.32 -0.176,0 -0.32,0.144 -0.32,0.32 0,0.176 0.144,0.32 0.32,0.32 0.176,0 0.32,-0.144 0.32,-0.32 z m 322.63526,0.0935 c -0.42476,-0.0816 -0.63484,-0.28478 -0.50752,-0.4908 0.1416,-0.22912 0.0227,-0.27686 -0.3414,-0.13712 -0.3073,0.11791 -0.79892,0.22874 -1.09252,0.24628 -0.8126,0.0486 0.93127,0.54628 1.86618,0.53262 0.74467,-0.0109 0.74986,-0.0213 0.0753,-0.15098 z M 643.2,181.12 c 0,-0.176 -0.72,-0.32 -1.6,-0.32 -1.86496,0 -2.1569,-0.53988 -0.4,-0.73965 1.39846,-0.15902 -1.20653,0.008 -4.85062,0.31168 -1.88311,0.15674 -2.47188,0.11562 -2.30109,-0.1607 0.26745,-0.43276 -0.10183,-0.47973 -0.71511,-0.091 -0.73318,0.46476 0.50672,0.79481 3.78682,1.00799 5.04397,0.32783 6.08,0.3264 6.08,-0.008 z m 2.96,0.10807 c -0.22,-0.0888 -0.58,-0.0888 -0.8,0 -0.22,0.0888 -0.04,0.16141 0.4,0.16141 0.44,0 0.62,-0.0726 0.4,-0.16141 z m 5.79875,-0.11731 c -0.18105,-0.18108 -1.21785,-0.49449 -2.304,-0.69648 -1.08611,-0.20198 -1.97475,-0.49432 -1.97475,-0.64965 0,-0.15532 -0.15936,-0.1839 -0.35418,-0.0635 -0.24688,0.15259 -0.22265,0.30221 0.08,0.49399 0.62999,0.39917 -0.73836,0.37075 -1.81251,-0.0376 -0.64928,-0.24686 -0.81648,-0.22809 -0.71261,0.08 0.0911,0.27021 0.91543,0.41478 2.50752,0.43977 1.30448,0.0205 2.80378,0.1881 3.33178,0.37249 1.27501,0.44528 1.64102,0.46332 1.23875,0.061 z M 308,180.48 c -0.10877,-0.176 -0.36927,-0.3178 -0.57889,-0.3151 -0.22899,0.003 -0.18952,0.12871 0.0989,0.3151 0.61476,0.39729 0.72554,0.39729 0.48,0 z m 256.8,-0.51731 c 0,-0.0675 -0.36,-0.12269 -0.8,-0.12269 -0.44,0 -0.8,0.12403 -0.8,0.27563 0,0.15159 0.36,0.2068 0.8,0.12269 0.44,-0.0841 0.8,-0.20814 0.8,-0.27563 z m 78.95997,-0.3094 c -0.30496,-0.30495 -0.91632,0.18899 -0.68906,0.5567 0.13507,0.21856 0.31405,0.21304 0.54387,-0.0168 0.18842,-0.18841 0.25373,-0.43137 0.14519,-0.53993 z M 585.44,179.84 c -0.10877,-0.176 -0.33328,-0.32 -0.49888,-0.32 -0.16563,0 -0.30112,0.144 -0.30112,0.32 0,0.176 0.22451,0.32 0.49888,0.32 0.2744,0 0.40989,-0.144 0.30112,-0.32 z m -314.82205,-2.08367 c 0.0512,-0.49933 0.0298,-0.51577 -0.0998,-0.0763 -0.25139,0.85274 -0.85633,0.67472 -0.63974,-0.18826 0.1122,-0.44706 -0.01,-0.99451 -0.30296,-1.36 -0.47391,-0.59073 -0.47968,-0.58869 -0.16809,0.0592 0.22225,0.46214 0.21451,0.77914 -0.0248,1.01849 -0.4927,0.4927 -0.053,1.41872 0.61282,1.2905 0.30652,-0.059 0.58668,-0.39367 0.6226,-0.74364 z M 306.08,177.6 c -0.10877,-0.176 -0.36927,-0.3178 -0.57889,-0.3151 -0.22899,0.003 -0.18952,0.12871 0.0989,0.3151 0.61476,0.39729 0.72554,0.39729 0.48,0 z m 249.03334,-1.15333 c -0.10633,-0.10634 -0.38233,-0.1177 -0.61334,-0.0252 -0.25526,0.10215 -0.17946,0.17798 0.19334,0.19333 0.33732,0.0139 0.52634,-0.0617 0.42,-0.16807 z m 133.14397,-1.36481 c -0.12784,-1.09865 -0.91232,-1.19352 -1.63225,-0.19739 -0.45904,0.63515 -0.48269,0.79553 -0.11732,0.79553 0.25168,0 0.53671,-0.30249 0.63341,-0.6722 0.0971,-0.37129 0.32906,-0.57746 0.51818,-0.46058 0.23389,0.14455 0.2407,0.40163 0.0214,0.81116 -0.43984,0.82183 -0.40419,0.9735 0.17645,0.7507 0.31459,-0.12073 0.46156,-0.49812 0.4,-1.02722 z M 373.12,175.69004 c 0,-0.17047 -0.216,-0.22707 -0.48,-0.12576 -0.264,0.10131 -0.48,0.24079 -0.48,0.30996 0,0.0692 0.216,0.12576 0.48,0.12576 0.264,0 0.48,-0.13948 0.48,-0.30996 z m 180.71334,0.11663 c -0.10633,-0.10634 -0.38233,-0.1177 -0.61334,-0.0252 -0.25526,0.10215 -0.17946,0.17798 0.19334,0.19333 0.33732,0.0139 0.52634,-0.0617 0.42,-0.16807 z M 268.32,174.72 c -0.10877,-0.176 -0.33327,-0.32 -0.49889,-0.32 -0.16561,0 -0.30111,0.144 -0.30111,0.32 0,0.176 0.2245,0.32 0.49889,0.32 0.27438,0 0.40988,-0.144 0.30111,-0.32 z m 105.6,0 c 0.10877,-0.176 -0.0352,-0.32 -0.32,-0.32 -0.28477,0 -0.42877,0.144 -0.32,0.32 0.10877,0.176 0.25277,0.32 0.32,0.32 0.0672,0 0.21123,-0.144 0.32,-0.32 z m 2.31334,-0.19333 c -0.10633,-0.10634 -0.38233,-0.1177 -0.61334,-0.0252 -0.25526,0.10215 -0.17946,0.17798 0.19334,0.19333 0.33732,0.0139 0.52634,-0.0617 0.42,-0.16807 z M 267.52,173.93889 c 0,-0.0776 -0.144,-0.23012 -0.32,-0.33889 -0.176,-0.10877 -0.32,-0.0453 -0.32,0.14111 0,0.18639 0.144,0.33889 0.32,0.33889 0.176,0 0.32,-0.0635 0.32,-0.14111 z m 328.12598,-0.36563 c 0.11959,-0.31165 0.0481,-0.45794 -0.18576,-0.38 -0.47836,0.15945 -0.74172,0.88674 -0.32112,0.88674 0.17184,0 0.39994,-0.22803 0.50688,-0.50674 z M 378.08,173.44 c 0.10877,-0.176 0.0538,-0.32 -0.12224,-0.32 -0.176,0 -0.40899,0.144 -0.51776,0.32 -0.10877,0.176 -0.0538,0.32 0.12224,0.32 0.176,0 0.40899,-0.144 0.51776,-0.32 z m -112.56381,-0.86095 c -0.29752,-0.29753 -0.6308,-0.45111 -0.74062,-0.34129 -0.31493,0.31494 0.16855,0.88224 0.75189,0.88224 0.48847,0 0.48759,-0.0421 -0.0113,-0.54095 z M 379.84,170.74667 c 0,-0.55239 0.25142,-0.86516 0.88,-1.09474 0.59334,-0.21671 0.69072,-0.32963 0.29898,-0.34667 -1.00231,-0.0436 -1.81898,0.59667 -1.81898,1.426 0,0.43381 0.144,0.78874 0.32,0.78874 0.176,0 0.32,-0.348 0.32,-0.77333 z m 1.08576,0.26716 c 0.30038,-0.78281 0.23526,-0.88624 -0.28576,-0.45383 -0.53197,0.44149 -0.63686,0.96 -0.19424,0.96 0.15718,0 0.37318,-0.22778 0.48,-0.50617 z m -79.61312,-1.78434 c -0.28195,-0.40254 -0.51264,-0.6259 -0.51264,-0.49635 0,0.35678 0.75796,1.49557 0.90052,1.353 0.0686,-0.0686 -0.10593,-0.4541 -0.38788,-0.85665 z M 259.84,168.32 c 0,-0.176 -0.2245,-0.32 -0.49889,-0.32 -0.27438,0 -0.40988,0.144 -0.30111,0.32 0.10877,0.176 0.33327,0.32 0.49889,0.32 0.16561,0 0.30111,-0.144 0.30111,-0.32 z M 301.76,168 c 0,-0.176 -0.0635,-0.32 -0.14111,-0.32 -0.0776,0 -0.23012,0.144 -0.33889,0.32 -0.10877,0.176 -0.0453,0.32 0.14111,0.32 0.18639,0 0.33889,-0.144 0.33889,-0.32 z m 302.016,-0.064 c 0.48186,-0.48185 0.49981,-1.216 0.0298,-1.216 -0.19482,0 -0.27136,0.216 -0.17005,0.48 0.11223,0.29239 0,0.48 -0.28576,0.48 -0.25846,0 -0.46995,0.144 -0.46995,0.32 0,0.43389 0.42874,0.40327 0.896,-0.064 z M 259.52,167.36 c 0,-0.176 -0.144,-0.32 -0.32,-0.32 -0.176,0 -0.32,0.144 -0.32,0.32 0,0.176 0.144,0.32 0.32,0.32 0.176,0 0.32,-0.144 0.32,-0.32 z m 343.2,0 c 0.10877,-0.176 0.0538,-0.32 -0.12224,-0.32 -0.176,0 -0.40899,0.144 -0.51776,0.32 -0.10877,0.176 -0.0538,0.32 0.12224,0.32 0.176,0 0.40899,-0.144 0.51776,-0.32 z m 5.6,-2.72 c -0.2191,-0.264 -0.54237,-0.48 -0.71837,-0.48 -0.17849,0 -0.14384,0.21224 0.0784,0.48 0.2191,0.264 0.54237,0.48 0.71837,0.48 0.17849,0 0.14384,-0.21224 -0.0784,-0.48 z m 6.4,-2.40445 c 0.3377,-0.22138 0.14797,-0.25373 -0.64,-0.10914 -1.3801,0.25325 -1.64042,0.4352 -0.61334,0.42869 0.42534,-0.003 0.98934,-0.1465 1.25334,-0.31955 z m -353.68667,-0.50888 c -0.10633,-0.10634 -0.38233,-0.1177 -0.61333,-0.0252 -0.25527,0.10215 -0.17945,0.17798 0.19333,0.19333 0.33734,0.0139 0.52634,-0.0617 0.42,-0.16807 z m 8.27458,-1.96542 c -0.28701,-0.28702 -1.78791,0.36066 -1.78791,0.77153 0,0.38256 0.16575,0.36549 0.95015,-0.0979 0.52259,-0.3087 0.89958,-0.61184 0.83776,-0.67366 z M 269.92,160.64 c 0.422,-0.18134 0.4765,-0.28101 0.16,-0.29261 -0.264,-0.01 -0.696,0.122 -0.96,0.29261 -0.58495,0.37802 -0.0797,0.37802 0.8,0 z m 22.56,-0.96 c 0,-0.176 -0.144,-0.32 -0.32,-0.32 -0.176,0 -0.32,0.144 -0.32,0.32 0,0.176 0.144,0.32 0.32,0.32 0.176,0 0.32,-0.144 0.32,-0.32 z m 327.53354,-0.56753 c -0.20557,-0.21964 -1.11002,0.34671 -0.95479,0.59788 0.0963,0.1558 0.36896,0.10471 0.60589,-0.11354 0.23696,-0.21824 0.39395,-0.4362 0.3489,-0.48434 z m 1.0198,0.6942 c -0.10633,-0.10634 -0.38233,-0.1177 -0.61334,-0.0252 -0.25526,0.10215 -0.17946,0.17798 0.19334,0.19333 0.33732,0.0139 0.52634,-0.0617 0.42,-0.16807 z M 665.6,159.68 c 0,-0.176 -0.0635,-0.32 -0.14112,-0.32 -0.0776,0 -0.23011,0.144 -0.33888,0.32 -0.10877,0.176 -0.0453,0.32 0.14112,0.32 0.18637,0 0.33888,-0.144 0.33888,-0.32 z m 1.44,0 c 0.10877,-0.176 -0.0269,-0.32 -0.30112,-0.32 -0.27437,0 -0.49888,0.144 -0.49888,0.32 0,0.176 0.13549,0.32 0.30112,0.32 0.1656,0 0.39011,-0.144 0.49888,-0.32 z m -392.8,-0.32 c -0.264,-0.17061 -1.056,-0.29078 -1.76,-0.26704 l -1.28,0.0432 1.44,0.22388 c 0.792,0.12313 1.584,0.2433 1.76,0.26704 0.176,0.0237 0.104,-0.0964 -0.16,-0.26704 z m 19.52,0 c 0,-0.176 -0.2245,-0.32 -0.49889,-0.32 -0.27438,0 -0.40988,0.144 -0.30111,0.32 0.10877,0.176 0.33327,0.32 0.49889,0.32 0.16561,0 0.30111,-0.144 0.30111,-0.32 z m 370.96,-0.21193 c -0.22,-0.0888 -0.58,-0.0888 -0.8,0 -0.22,0.0888 -0.04,0.16141 0.4,0.16141 0.44,0 0.62,-0.0726 0.4,-0.16141 z M 642.56,156.96 c 0,-0.34667 -0.35555,-0.48 -1.28,-0.48 -0.92445,0 -1.28,0.13333 -1.28,0.48 0,0.34667 0.35555,0.48 1.28,0.48 0.92445,0 1.28,-0.13333 1.28,-0.48 z m 3.6,-0.37193 c -0.22,-0.0888 -0.58,-0.0888 -0.8,0 -0.22,0.0888 -0.04,0.16141 0.4,0.16141 0.44,0 0.62,-0.0726 0.4,-0.16141 z M 538.88,147.7296 c 0,-0.0607 -0.30838,-0.38473 -0.68534,-0.72 -0.68288,-0.60743 -0.68375,-0.60704 -0.24301,0.1104 0.37587,0.61188 0.92835,0.97466 0.92835,0.6096 z M 387.84,146.56 c 0,-0.176 -0.144,-0.32 -0.32,-0.32 -0.176,0 -0.32,0.144 -0.32,0.32 0,0.176 0.144,0.32 0.32,0.32 0.176,0 0.32,-0.144 0.32,-0.32 z m 146.88,-5.12 c 0,-0.176 -0.15251,-0.32 -0.33888,-0.32 -0.1864,0 -0.24989,0.144 -0.14112,0.32 0.10877,0.176 0.26128,0.32 0.33888,0.32 0.0776,0 0.14112,-0.144 0.14112,-0.32 z m -138.24,-1.61889 c 0,-0.16561 -0.144,-0.30111 -0.32,-0.30111 -0.176,0 -0.32,0.2245 -0.32,0.49889 0,0.27438 0.144,0.40988 0.32,0.30111 0.176,-0.10877 0.32,-0.33327 0.32,-0.49889 z m -0.96,-1.04145 c 0,-0.16392 -0.216,-0.11876 -0.48,0.10034 -0.264,0.2191 -0.47542,0.63273 -0.46982,0.91918 0.009,0.43754 0.0853,0.4215 0.48,-0.10034 0.2584,-0.34164 0.46982,-0.75527 0.46982,-0.91918 z m 3.05315,-0.88095 c 0.3392,-0.5488 0.0355,-0.60265 -0.63481,-0.11255 -0.51908,0.37956 -0.53517,0.45384 -0.0984,0.45384 0.28723,0 0.61718,-0.15358 0.73318,-0.34129 z m 0.78685,-1.2776 c 0,-0.36238 -0.1377,-0.57377 -0.30602,-0.46975 -0.16832,0.10403 -0.22492,0.40052 -0.12576,0.65889 0.25383,0.66147 0.43178,0.58353 0.43178,-0.18914 z m 4.07334,-3.05444 c -0.10633,-0.10634 -0.38233,-0.1177 -0.61334,-0.0252 -0.25526,0.10215 -0.17946,0.17798 0.19334,0.19333 0.33732,0.0139 0.52634,-0.0617 0.42,-0.16807 z m 123.2,0 c -0.10633,-0.10634 -0.38233,-0.1177 -0.61334,-0.0252 -0.25526,0.10215 -0.17946,0.17798 0.19334,0.19333 0.33732,0.0139 0.52634,-0.0617 0.42,-0.16807 z M 408.16,132.8 c 0.10877,-0.176 -0.0352,-0.32 -0.32,-0.32 -0.28477,0 -0.42877,0.144 -0.32,0.32 0.10877,0.176 0.25277,0.32 0.32,0.32 0.0672,0 0.21123,-0.144 0.32,-0.32 z m 105.91702,-3.19518 c 0.1217,-0.19694 -0.20134,-0.23972 -0.86112,-0.11404 -1.41481,0.26952 -1.53689,0.42922 -0.32812,0.42922 0.54694,0 1.08211,-0.14183 1.18924,-0.31518 z M 513.28,128.96 c 0,-0.176 -0.252,-0.3178 -0.56,-0.3151 -0.47856,0.004 -0.49021,0.05 -0.08,0.3151 0.6039,0.39028 0.64,0.39028 0.64,0 z m -86,-0.53193 c -0.22,-0.0888 -0.58,-0.0888 -0.8,0 -0.22,0.0888 -0.04,0.16141 0.4,0.16141 0.44,0 0.62,-0.0726 0.4,-0.16141 z m 9.3769,-1.36074 c -0.0995,-0.16097 0,-0.3656 0.22112,-0.45473 0.22108,-0.0891 -0.10202,-0.19507 -0.71802,-0.2354 l -1.12,-0.0733 1.28,-0.23454 c 0.9168,-0.16798 0.68979,-0.19499 -0.8,-0.0952 -1.144,0.0766 -2.224,0.29484 -2.4,0.48491 -0.22627,0.24435 -0.0291,0.29145 0.67242,0.16078 1.26912,-0.23632 2.60643,0.0719 1.99462,0.45966 -0.30461,0.19309 -0.2152,0.27211 0.31184,0.27561 0.4064,0.003 0.6575,-0.1268 0.55802,-0.28777 z M 482.88,122.24 c 0,-0.176 -0.396,-0.30988 -0.88,-0.29751 -0.77978,0.0199 -0.80714,0.0538 -0.24,0.29751 0.87405,0.37559 1.12,0.37559 1.12,0 z m 0.57536,-1.6 c 0.11674,-0.38737 0.0628,-0.40281 -0.27936,-0.08 -0.5161,0.48687 -1.896,0.53135 -1.896,0.0611 0,-0.18638 0.13405,-0.25603 0.29789,-0.15478 0.16384,0.10126 0.38835,0.0378 0.49888,-0.14111 0.29216,-0.47272 -0.53847,-0.37939 -1.21978,0.13706 -0.56403,0.42753 -0.56403,0.44707 0,0.59986 1.06919,0.28964 2.45155,0.065 2.59837,-0.42214 z m -36.10541,-0.4 c -0.01,-0.39167 -1.58995,-1.73842 -1.58995,-1.35513 0,0.32108 1.10131,1.73423 1.36,1.74508 0.132,0.006 0.23549,-0.16995 0.22995,-0.38995 z m 35.10896,-2.36775 c -0.12403,-0.12404 -0.43545,0.052 -0.69203,0.39111 -0.72003,0.95171 -0.57101,1.323 0.21533,0.53664 0.38624,-0.38622 0.60073,-0.80371 0.4767,-0.92775 z m -34.48557,1.08434 C 447.9,118.91071 447.516,118.6004 447.12,118.267 c -0.61434,-0.51724 -0.72,-0.53192 -0.72,-0.10006 0,0.27837 0.252,0.57199 0.56,0.65247 0.69219,0.1809 1.1912,0.24845 1.01334,0.13718 z M 444.48,115.68 c -0.2191,-0.264 -0.5304,-0.48 -0.69181,-0.48 -0.36742,0 0.42935,0.93119 0.81098,0.94783 0.15357,0.007 0.0999,-0.20383 -0.11917,-0.46783 z m 41.49859,-2.14 c -0.10214,-0.25527 -0.17798,-0.17945 -0.19334,0.19333 -0.0138,0.33734 0.0618,0.52634 0.16809,0.42 0.10634,-0.10633 0.1177,-0.38233 0.0253,-0.61333 z m -44.5103,-3.37838 c -0.34957,-0.34957 -0.58928,0.20635 -0.33831,0.78458 0.23799,0.54828 0.25524,0.54778 0.38784,-0.0112 0.0763,-0.32178 0.054,-0.66978 -0.0495,-0.77334 z m 0.76681,-3.54051 c -0.004,-0.46632 -0.0478,-0.47477 -0.3151,-0.0611 -0.40499,0.62668 -0.40499,1.0503 0,0.8 0.176,-0.10877 0.31779,-0.44127 0.3151,-0.73889 z M 447.04,99.52 c 0,-0.176 0.216,-0.32 0.48,-0.32 0.264,0 0.48,-0.144 0.48,-0.32 0,-0.556003 -0.78954,-0.346467 -1.20573,0.32 -0.23693,0.379366 -0.26829,0.64 -0.077,0.64 0.1775,0 0.32272,-0.144 0.32272,-0.32 z m 30.87786,-2.882378 C 477.43894,96.108438 475.70154,95.04 475.31994,95.04 c -0.4418,0 2.09974,2.184493 2.56966,2.208653 0.59011,0.03034 0.59104,0.01082 0.0282,-0.611031 z m -7.88452,-5.257868 C 469.97101,91.324618 469.56,91.170442 469.12,91.037142 l -0.8,-0.242361 0.8,0.658352 c 0.44,0.362096 0.85101,0.516269 0.91334,0.342611 0.0623,-0.173661 0.0623,-0.360854 0,-0.41599 z M 465.36,90.014166 c -0.396,-0.07628 -1.044,-0.07628 -1.44,0 -0.396,0.07627 -0.072,0.138679 0.72,0.138679 0.792,0 1.116,-0.06241 0.72,-0.138679 z M 383.28,314.66807 c 0.22,-0.0888 0.58,-0.0888 0.8,0 0.22,0.0888 0.04,0.16141 -0.4,0.16141 -0.44,0 -0.62,-0.0726 -0.4,-0.16141 z m 186.5895,-23.34071 c 0.7538,-0.52797 1.23664,-0.43217 0.86365,0.17135 -0.116,0.18771 -0.52246,0.34129 -0.90323,0.34129 H 569.1376 Z M 353.28,288.94111 c 0,-0.18638 0.144,-0.24988 0.32,-0.14111 0.176,0.10877 0.32,0.26127 0.32,0.33889 0,0.0776 -0.144,0.14111 -0.32,0.14111 -0.176,0 -0.32,-0.1525 -0.32,-0.33889 z M 612.72,278.8108 c -0.484,-0.0733 -0.88,-0.25095 -0.88,-0.39473 0,-0.38886 1.42266,-0.69047 1.54666,-0.3279 0.21004,0.61405 0.65337,0.29591 0.79174,-0.56817 0.0988,-0.61688 0.13344,-0.5212 0.11587,0.32 -0.0138,0.66 -0.17565,1.17843 -0.35968,1.15205 -0.18403,-0.0264 -0.73059,-0.10793 -1.21459,-0.18125 z M 632.8,265.92 c 0.10877,-0.176 0.0211,-0.32 -0.19443,-0.32 -0.21575,0 -0.31322,-0.079 -0.21667,-0.17557 0.25888,-0.25889 1.8511,0.19722 1.8511,0.53026 0,0.15692 -0.36851,0.28531 -0.81888,0.28531 -0.46445,0 -0.73328,-0.13851 -0.62112,-0.32 z m 56.16,-56.33889 c 0,-0.18638 0.144,-0.24988 0.32,-0.14111 0.176,0.10877 0.32,0.26127 0.32,0.33889 0,0.0776 -0.144,0.14111 -0.32,0.14111 -0.176,0 -0.32,-0.1525 -0.32,-0.33889 z m -417.6,-25.95444 c 0,-0.38134 0.0408,-0.63334 0.0906,-0.56 0.0498,0.0733 0.28343,0.38533 0.51918,0.69333 0.36691,0.47935 0.35387,0.56 -0.0906,0.56 -0.31916,0 -0.51918,-0.26711 -0.51918,-0.69333 z m 31.68,-10.78161 c 0,-0.54576 0.37892,-1.32506 0.64428,-1.32506 0.32152,0 0.0168,1.22921 -0.36291,1.46387 -0.15475,0.0957 -0.28137,0.0332 -0.28137,-0.13881 z m 290.88,-0.48551 c 0,-0.2968 0.22221,-0.62491 0.49379,-0.72912 0.77651,-0.29797 0.85171,0.0511 0.14816,0.68779 -0.58582,0.53017 -0.64195,0.53378 -0.64195,0.0413 z M 688.97018,171.24 c 0.005,-0.11 0.21017,-0.46389 0.45459,-0.78643 0.42813,-0.56491 0.45709,-0.56275 0.78982,0.059 0.47437,0.88636 0.45424,0.92746 -0.45459,0.92746 -0.44,0 -0.79542,-0.09 -0.78982,-0.2 z M 627.2,156.64 c 0,-0.264 0.252,-0.4778 0.56,-0.4751 0.47856,0.004 0.49021,0.05 0.08,0.3151 -0.41021,0.2651 -0.39856,0.31091 0.08,0.3151 0.308,0.003 0.56,-0.1391 0.56,-0.3151 0,-0.176 0.22451,-0.32 0.49888,-0.32 0.2744,0 0.4175,0.1317 0.31802,0.29267 -0.0995,0.16097 0,0.3656 0.22112,0.45473 0.22108,0.0891 -0.21002,0.17344 -0.95802,0.18734 -1.00678,0.0187 -1.36,-0.0994 -1.36,-0.45474 z m -83.29795,-6.44463 c -0.11258,-0.11255 -0.13194,-0.32226 -0.0431,-0.46603 0.19952,-0.32283 1.10106,-0.008 1.10106,0.3849 0,0.32835 -0.75299,0.38609 -1.05795,0.0811 z M 539.2,146.24 c 0,-0.176 0.216,-0.32 0.48,-0.32 0.264,0 0.48,0.144 0.48,0.32 0,0.176 -0.216,0.32 -0.48,0.32 -0.264,0 -0.48,-0.144 -0.48,-0.32 z m -96.31446,-28.8 c 0.003,-0.088 0.12905,-0.357 0.2816,-0.59777 0.22428,-0.35406 0.40425,-0.31085 0.94112,0.22602 l 0.66377,0.66379 -0.94537,-0.066 c -0.51997,-0.0363 -0.94346,-0.13802 -0.94112,-0.22602 z M 478.02,94.821405 c 0.23101,-0.09244 0.50701,-0.08107 0.61334,0.02525 0.10634,0.106333 -0.0827,0.181965 -0.42,0.16807 -0.3728,-0.01536 -0.4486,-0.09118 -0.19334,-0.193331 z m -8.1,-4.776762 c -0.62682,-0.484797 -0.62403,-0.492835 0.13494,-0.389824 0.42621,0.05785 0.83421,0.285181 0.90666,0.505181 0.17686,0.537014 -0.2608,0.488544 -1.0416,-0.115357 z"
       style="fill:#000000;stroke-width:0.40000001" />
    </clipPath>
  </defs>
  <image href="yixing-pot.jpg" clip-path="url(#yixing-pot)" x="0" y="0" width="960" height="400" >
	</image>
</svg>