<svg xmlns="http://www.w3.org/2000/svg" viewBox="0 0 2505.6001 1440">
  <defs>
    <clipPath id="kyusu">
      <path id="kyusu" 
        d="m 854.97559,1331.6424 c -0.0866,-0.087 -4.34648,-0.2241 -9.46648,-0.3054 -38.3976,-0.6097 -44.07816,-0.8448 -60.70908,-2.5128 -6.27,-0.6288 -12.21,-1.1655 -13.2,-1.1925 -0.99,-0.027 -7.74,-0.6537 -15,-1.3925 -7.26,-0.7388 -14.1,-1.3628 -15.2,-1.3866 -2.82484,-0.061 -17.27828,-1.5832 -19.2,-2.0222 -2.97116,-0.6786 -5.98704,-1.2549 -8.6,-1.6433 -2.80532,-0.417 -5.54604,-0.9386 -8.4,-1.5985 -0.99,-0.229 -3.51,-0.6781 -5.6,-0.9981 -2.09,-0.32 -4.61,-0.768 -5.6,-0.9955 -0.99,-0.2276 -3.42,-0.6677 -5.4,-0.9781 -1.98,-0.3104 -4.59,-0.7759 -5.8,-1.0345 -3.74656,-0.8005 -5.6698,-1.1662 -9.4,-1.7874 -1.98,-0.3297 -4.5,-0.7797 -5.6,-1 -1.1,-0.2202 -3.62,-0.6702 -5.6,-1 -1.98,-0.3297 -4.5,-0.7797 -5.6,-1 -1.1,-0.2202 -3.62,-0.6702 -5.6,-1 -4.83112,-0.8044 -7.38264,-1.3138 -13,-2.595 -0.77,-0.1756 -2.3,-0.5068 -3.4,-0.7359 -1.1,-0.2291 -3.17,-0.7609 -4.6,-1.1817 -2.47752,-0.7291 -4.17281,-1.1332 -8.90001,-2.1214 -3.96956,-0.8298 -5.70712,-1.2498 -8.9,-2.151 -1.76,-0.4968 -4.28,-1.1269 -5.6,-1.4001 -5.69676,-1.1791 -9.82376,-2.1333 -13,-3.0055 -1.87,-0.5136 -4.39,-1.1385 -5.6,-1.3886 -9.2842,-1.9197 -14.2924,-3.3359 -26.01972,-7.358 -6.69916,-2.2977 -13.35028,-4.6261 -14.78028,-5.1742 -1.43,-0.5482 -7.13204,-2.533 -12.6712,-4.4107 -5.53916,-1.8777 -10.44276,-3.6128 -10.89696,-3.8559 -0.45416,-0.243 -6.27212,-2.3157 -12.9288,-4.606 -23.53916,-8.0986 -34.73252,-12.1294 -43.90304,-15.8095 -2.31,-0.927 -6.54,-2.5559 -9.4,-3.6198 -2.86,-1.0639 -6.82,-2.5571 -8.8,-3.3183 -9.34588,-3.5928 -14.6832,-5.6349 -17.84228,-6.8266 -1.89324,-0.7142 -5.76324,-2.7486 -8.6,-4.521 -2.83676,-1.7723 -5.69772,-3.5168 -6.35772,-3.8767 -0.66,-0.3599 -2.64,-1.5658 -4.4,-2.6798 -3.25192,-2.0583 -5.84356,-3.3642 -16.2,-8.163 -3.19,-1.4782 -7.24,-3.3658 -9,-4.1947 -1.76,-0.829 -5.81,-2.6301 -9,-4.0025 -3.19001,-1.3724 -8.95001,-3.9359 -12.80001,-5.6966 -3.85,-1.7608 -9.07,-4.144 -11.6,-5.296 -2.53,-1.1521 -6.36004,-2.9298 -8.51121,-3.9506 -2.15117,-1.0207 -3.98171,-1.8559 -4.06788,-1.8559 -0.0862,0 -2.23169,-0.99 -4.76783,-2.2 -2.53614,-1.21 -4.7556,-2.2 -4.93212,-2.2 -0.17653,0 -1.31096,-0.8064 -2.52096,-1.7919 -1.21,-0.9855 -3.01,-2.37 -4,-3.0766 -0.99,-0.7066 -4.48181,-3.3653 -7.75958,-5.9081 -3.27777,-2.5429 -7.62265,-5.8834 -9.65528,-7.4234 -2.03263,-1.54 -5.97501,-4.6 -8.76083,-6.8 -2.78583,-2.2 -6.27095,-4.8848 -7.74472,-5.9662 -1.47378,-1.0814 -4.38959,-3.3285 -6.47959,-4.9935 -4.3236,-3.4444 -5.46047,-4.3229 -12.4,-9.581 -2.75,-2.0837 -5.81,-4.4468 -6.8,-5.2514 -0.99,-0.8045 -4.14,-3.2403 -7,-5.4129 -2.86,-2.1726 -6.1,-4.6418 -7.2,-5.4871 -1.1,-0.8453 -3.34003,-2.1794 -4.97785,-2.9647 -2.209,-1.0592 -4.73926,-2.9403 -9.79993,-7.2856 -9.4819,-8.1414 -12.16559,-10.9674 -19.23725,-20.2576 -0.66985,-0.88 -2.6505,-3.4729 -4.40144,-5.762 -8.54171,-11.1672 -12.06272,-15.8149 -15.18045,-20.038 -1.86778,-2.53 -4.92983,-6.67 -6.80456,-9.2 -5.39183,-7.2764 -13.15811,-17.9694 -16.88379,-23.2464 -1.14689,-1.6245 -3.16567,-4.3936 -4.48617,-6.1536 -3.24207,-4.3211 -3.40229,-4.6 -2.64264,-4.6 0.44758,0 0.61408,-0.4248 0.61408,-1.5667 0,-0.8622 0.22482,-1.6715 0.5,-1.8 0.4,-0.1866 0.4,-0.28 0,-0.4666 -0.275,-0.1284 -0.5,-0.7584 -0.5,-1.4 0,-1.0297 -0.14096,-1.1667 -1.2,-1.1667 -1.10934,0 -1.2,-0.1079 -1.2,-1.4286 0,-1.8102 -0.76116,-2.5714 -2.57143,-2.5714 -1.32064,0 -1.42857,-0.091 -1.42857,-1.2 0,-0.66 0.18,-1.2 0.4,-1.2 0.22,0 0.4,-0.9 0.4,-2 0,-1.1 -0.18,-2 -0.4,-2 -0.22,0 -0.4,-0.54 -0.4,-1.2 0,-1.0667 -0.13334,-1.2 -1.2,-1.2 -1.13334,0 -1.2,-0.089 -1.2,-1.6 0,-0.88 -0.18,-1.6 -0.4,-1.6 -0.22,0 -0.4,-0.72 -0.4,-1.6 0,-1.5111 -0.0667,-1.6 -1.2,-1.6 -1.17334,0 -1.2,-0.044 -1.2,-2 0,-1.1 -0.18,-2 -0.4,-2 -0.22,0 -0.4,-0.54 -0.4,-1.2 0,-1.06668 -0.13334,-1.2 -1.2,-1.2 -1.13334,0 -1.2,-0.0889 -1.2,-1.6 0,-0.88 -0.18,-1.6 -0.4,-1.6 -0.22,0 -0.4,-0.72 -0.4,-1.6 0,-1.15556 -0.16667,-1.6 -0.6,-1.6 -0.43334,0 -0.6,-0.44444 -0.6,-1.6 0,-0.88 -0.19286,-1.6 -0.42858,-1.6 -1.06751,0 -1.57142,-1.2094 -1.57142,-3.77144 V 982.4 h -1.6 -1.6 v -3.2 -3.2 h -1.2 c -1.13334,0 -1.2,-0.0889 -1.2,-1.6 0,-0.88 -0.18,-1.6 -0.4,-1.6 -0.22,0 -0.4,-0.72 -0.4,-1.6 0,-1.15556 -0.16667,-1.6 -0.6,-1.6 -0.43334,0 -0.6,-0.44444 -0.6,-1.6 0,-1.15556 -0.16667,-1.6 -0.6,-1.6 -0.43334,0 -0.6,-0.44444 -0.6,-1.6 0,-0.88 -0.18,-1.6 -0.4,-1.6 -0.23334,0 -0.4,-1.33332 -0.4,-3.2 0,-2.57776 -0.11667,-3.2 -0.6,-3.2 -0.43334,0 -0.6,-0.44444 -0.6,-1.6 0,-1.15556 -0.16667,-1.6 -0.6,-1.6 -0.45334,0 -0.6,-0.48888 -0.6,-2 0,-1.1 -0.18,-2 -0.4,-2 -0.22,0 -0.4,-0.54 -0.4,-1.2 0,-0.8 -0.2,-1.2 -0.6,-1.2 -0.43334,0 -0.6,-0.44444 -0.6,-1.6 0,-1.44 -0.1,-1.6 -1,-1.6 h -1 v -4.8 c 0,-4 -0.1,-4.8 -0.6,-4.8 -0.48334,0 -0.6,-0.62224 -0.6,-3.2 0,-2.57776 -0.11667,-3.2 -0.6,-3.2 -0.48334,0 -0.6,-0.62224 -0.6,-3.2 0,-1.86668 -0.16667,-3.2 -0.4,-3.2 -0.22,0 -0.4,-0.72 -0.4,-1.6 0,-1.15556 -0.16667,-1.6 -0.6,-1.6 -0.48334,0 -0.6,-0.62224 -0.6,-3.2 0,-3.14668 -0.0167,-3.2 -1,-3.2 H 124.8 v -12.8 c 0,-11.11112 -0.0792,-12.8 -0.6,-12.8 -0.52745,0 -0.6,-3.28888 -0.6,-27.2 0,-23.91112 0.0726,-27.2 0.6,-27.2 0.52223,0 0.6,-1.86668 0.6,-14.4 v -14.4 h 2.24164 2.24163 l -0.28326,-3.2 c -0.24678,-2.7878 -0.20062,-3.2 0.35836,-3.2 0.48191,0 0.64164,-0.39832 0.64164,-1.6 0,-1.15556 0.16666,-1.6 0.6,-1.6 0.5,0 0.6,-0.8 0.6,-4.8 0,-2.93332 0.15555,-4.8 0.4,-4.8 0.22,0 0.4,-0.72 0.4,-1.6 0,-1.15556 0.16666,-1.6 0.6,-1.6 0.43333,0 0.6,-0.44444 0.6,-1.6 0,-1.15556 0.16666,-1.6 0.6,-1.6 0.43333,0 0.6,-0.44444 0.6,-1.6 0,-0.88 0.18,-1.6 0.4,-1.6 0.23333,0 0.4,-1.33332 0.4,-3.2 V 768 h 1.2 1.2 l 0.0273,-4.7 c 0.015,-2.585 0.004,-6.185 -0.0247,-8 l -0.0521,-3.3 h 1.62474 1.62473 v -1.6 c 0,-1.44 0.1,-1.6 1,-1.6 0.9,0 1,-0.16 1,-1.6 0,-1.15556 0.16667,-1.6 0.6,-1.6 0.43333,0 0.6,-0.44444 0.6,-1.6 0,-0.88 0.18,-1.6 0.4,-1.6 0.22,0 0.4,-0.72 0.4,-1.6 0,-0.88 -0.18,-1.6 -0.4,-1.6 -0.23333,0 -0.4,-1.33332 -0.4,-3.2 v -3.2 h 2.6 2.6 v -1.6 c 0,-1.15556 0.16667,-1.6 0.6,-1.6 0.43333,0 0.6,-0.44444 0.6,-1.6 0,-0.88 0.18,-1.6 0.4,-1.6 0.22,0 0.4,-0.72 0.4,-1.6 0,-1.51112 0.0667,-1.6 1.2,-1.6 h 1.2 v -3.2 -3.2 h 1.6 1.6 v -1.96924 c 0,-1.66564 0.18974,-2.15896 1.23077,-3.2 0.67692,-0.67692 1.39692,-1.23076 1.6,-1.23076 0.20308,0 0.36923,-0.79716 0.36923,-1.77144 0,-1.04124 0.24731,-2.01872 0.6,-2.3714 0.33,-0.33 0.6,-0.70288 0.6,-0.8286 0,-0.12572 -0.27,-0.22856 -0.6,-0.22856 -0.33,0 -0.6,-0.27 -0.6,-0.6 0,-0.43332 0.44444,-0.6 1.6,-0.6 h 1.6 v -1.96924 c 0,-1.66564 0.18974,-2.15896 1.23077,-3.2 0.67692,-0.67692 1.39692,-1.23076 1.6,-1.23076 0.20308,0 0.36923,-0.79716 0.36923,-1.77144 0,-1.04124 0.24731,-2.01872 0.6,-2.3714 0.75949,-0.75952 0.75949,-1.05716 0,-1.05716 -0.33,0 -0.6,-0.27 -0.6,-0.6 0,-0.43332 0.44444,-0.6 1.6,-0.6 h 1.6 v -1.96924 c 0,-1.66564 0.18974,-2.15896 1.23077,-3.2 0.67692,-0.67692 1.39692,-1.23076 1.6,-1.23076 0.20308,0 0.36923,-0.95524 0.36923,-2.1228 0,-1.94372 0.0928,-2.15944 1.1,-2.55744 l 1.1,-0.43464 -1.1,-0.0426 c -0.6922,-0.0268 -1.1,-0.265 -1.1,-0.64256 0,-0.43332 0.44444,-0.6 1.6,-0.6 0.995,0 1.613,-0.18908 1.63438,-0.5 0.0189,-0.275 0.005,-2.435 -0.0305,-4.8 l -0.0648,-4.3 h 2.40686 c 1.32377,0 2.5181,0.18 2.65407,0.4 0.13596,0.22 0.50659,0.4 0.8236,0.4 0.44093,0 0.5764,-0.59288 0.5764,-2.5228 0,-2.38008 0.0622,-2.54736 1.1,-2.95744 l 1.1,-0.43464 -1.1,-0.0426 c -1.06151,-0.0411 -1.1,-0.11956 -1.1,-2.24256 v -2.2 h 1.6 1.6 v 1.6 c 0,1.15556 0.16666,1.6 0.6,1.6 0.37184,0 0.6,-0.37676 0.6,-0.99076 0,-0.61544 0.37883,-1.239 1,-1.64604 0.90442,-0.5926 1,-0.91524 1,-3.37588 0,-1.7854 0.17187,-2.80088 0.5,-2.954 0.4,-0.18664 0.4,-0.28 0,-0.46664 -0.27518,-0.12844 -0.5,-0.9378 -0.5,-1.8 V 649.6 h 2.21255 c 1.57211,0 2.27751,-0.16928 2.43695,-0.58476 0.12342,-0.32164 0.56777,-0.69376 0.98745,-0.82696 0.46546,-0.14776 0.76305,-0.60868 0.76305,-1.18188 0,-0.55948 0.44506,-1.27172 1.1,-1.76036 l 1.1,-0.82068 -1.1,-0.0128 c -1.06514,-0.0124 -1.1,-0.0824 -1.1,-2.21268 v -2.2 h 1.6 c 1.15555,0 1.6,0.16668 1.6,0.6 0,0.33 0.28062,0.6 0.6236,0.6 0.34299,0 0.52788,-0.15488 0.41088,-0.3442 -0.117,-0.18932 0.31737,-0.86432 0.96528,-1.5 0.64791,-0.63568 1.18301,-1.45992 1.18912,-1.83164 0.008,-0.48972 0.42424,-0.71004 1.51112,-0.8 1.42714,-0.11812 1.50616,-0.1992 1.6268,-1.66872 l 0.1268,-1.5446 -1.6268,0.15516 -1.6268,0.15516 v -1.7106 -1.71056 h 1.6 c 1.15555,0 1.6,0.16668 1.6,0.6 0,0.76868 0.56205,0.76868 1.2,0 0.27387,-0.33 0.83591,-0.6 1.24897,-0.6 0.41307,0 0.75103,-0.27 0.75103,-0.6 0,-0.33 0.18,-0.6 0.4,-0.6 0.22,0 0.4,-0.27 0.4,-0.6 0,-0.33 -0.18,-0.6 -0.4,-0.6 -0.22,0 -0.4,-0.9 -0.4,-2 v -2 h 2.4 c 3.00557,0 4,-0.80444 4,-3.23588 0,-1.68568 1.07547,-3.10408 2.4,-3.1652 0.33,-0.0152 1.14,-0.47032 1.8,-1.01132 l 1.2,-0.98364 h -1.1 c -0.71023,0 -1.1,-0.2146 -1.1,-0.602 0,-0.43332 0.44444,-0.6 1.6,-0.6 1.11372,0 1.6,-0.17224 1.6,-0.56668 0,-0.31164 0.225,-0.64812 0.5,-0.74772 0.39944,-0.14468 0.39876,-0.35248 -0.003,-1.03332 -0.47941,-0.81168 -0.42701,-0.85228 1.1,-0.85228 1.43176,0 1.60338,-0.10416 1.60338,-0.97304 0,-0.61324 0.28826,-1.06456 0.77954,-1.22048 0.42875,-0.13608 0.8856,-0.58156 1.01523,-0.99 0.12963,-0.4084 0.49884,-0.84356 0.82046,-0.96696 0.37153,-0.1426 0.58478,-0.78048 0.58478,-1.74928 0,-1.32716 0.15567,-1.5836 1.20068,-1.97804 0.8502,-0.32092 1.12961,-0.63844 0.9572,-1.08772 -0.16006,-0.41708 -0.0232,-0.63448 0.39932,-0.63448 0.35354,0 0.6428,0.27 0.6428,0.6 0,0.33 0.19925,0.6 0.44279,0.6 0.24354,0 0.33919,-0.27 0.21255,-0.6 -0.14024,-0.36548 -8e-4,-0.6 0.35721,-0.6 0.32309,0 0.97429,-0.38684 1.4471,-0.85964 0.73647,-0.73648 0.85165,-1.281 0.80377,-3.8 l -0.0559,-2.94036 h 1.41369 c 0.95368,0 1.76462,-0.3254 2.49215,-1 0.59315,-0.55 1.39529,-1 1.78254,-1 0.40808,0 0.70409,-0.29896 0.70409,-0.71112 0,-0.39108 0.36,-1.01932 0.8,-1.39608 1.06284,-0.91004 1.06284,-2.69896 0,-2.97692 -0.56666,-0.14816 -0.8,-0.5456 -0.8,-1.36252 0,-1.07892 0.10327,-1.15336 1.6,-1.15336 1.15555,0 1.6,0.16668 1.6,0.6 0,0.4 0.4,0.6 1.2,0.6 0.8,0 1.2,-0.2 1.2,-0.6 0,-0.33 0.18,-0.6 0.4,-0.6 0.22,0 0.4,-0.255 0.4,-0.56668 0,-0.31164 0.225,-0.65796 0.5,-0.76952 0.3769,-0.15296 0.35228,-0.31188 -0.1,-0.64548 -0.46416,-0.3424 -0.32831,-0.37956 0.6,-0.16412 1.08596,0.25204 1.14783,0.21516 0.65102,-0.38784 -0.30194,-0.36652 -0.79694,-0.66636 -1.1,-0.66636 -0.31466,0 -0.55102,-0.41096 -0.55102,-0.95808 0,-0.90396 0.13204,-0.95688 2.33609,-0.93612 1.87879,0.0176 2.5052,-0.14708 3.2,-0.84188 0.47515,-0.47516 0.86391,-1.19496 0.86391,-1.59956 0,-0.46348 0.59026,-1.01844 1.59541,-1.5 2.10768,-1.0098 2.11001,-1.75604 0.005,-1.47364 -1.57175,0.21084 -1.6,0.19248 -1.6,-1.03804 0,-1.20072 0.0683,-1.25268 1.64665,-1.25268 1.40043,0 1.61795,0.10976 1.45469,0.73408 -0.15691,0.6 -0.009,0.69904 0.811,0.54236 1.35296,-0.25864 2.48766,-1.46424 2.48766,-2.64308 0,-0.58888 0.42986,-1.28736 1.1,-1.78732 l 1.1,-0.82068 -1.1,-0.0128 c -0.95274,-0.0108 -1.1,-0.17332 -1.1,-1.21268 0,-1.1754 0.0415,-1.2 2.02629,-1.2 2.35086,0 3.64501,-0.54876 3.31602,-1.40612 -0.13158,-0.34288 0.002,-0.59996 0.31489,-0.60828 0.29854,-0.008 1.0828,-0.457 1.7428,-0.998 l 1.2,-0.98364 h -1.1 c -1.06643,0 -1.1,-0.0692 -1.1,-2.202 v -2.2 h 1.6 c 1.36041,0 1.6,0.1262 1.6,0.8428 0,0.60416 0.17913,0.77404 0.63271,0.6 0.348,-0.13356 1.068,-0.2428 1.6,-0.2428 0.53201,0 0.94597,-0.135 0.91992,-0.3 -0.18098,-1.14624 0.21841,-1.62644 1.74737,-2.10096 1.53466,-0.47628 1.60562,-0.5516 0.72965,-0.77436 -1.78467,-0.45384 -1.44666,-1.22468 0.53702,-1.22468 2.7908,0 3.43333,-0.86088 3.43333,-4.6 v -3 h 1.6 c 1.15556,0 1.6,0.16668 1.6,0.6 0,0.33332 0.35556,0.6 0.8,0.6 0.925,0 2.4,-1.33408 2.4,-2.17068 0,-0.31384 0.315,-0.65296 0.7,-0.7536 0.66667,-0.1742 0.66667,-0.18512 0,-0.22932 -1.24429,-0.0825 -0.74444,-0.70596 1,-1.24736 1.53466,-0.47628 1.60562,-0.5516 0.72966,-0.77436 -1.54905,-0.39392 -1.50504,-1.22468 0.0649,-1.22468 0.95342,0 1.62168,-0.29956 2.23069,-1 0.47822,-0.55 1.05068,-1 1.27214,-1 0.22145,0 0.40264,-0.54 0.40264,-1.2 0,-1.13332 0.0889,-1.2 1.6,-1.2 0.88,0 1.6,-0.18 1.6,-0.4 0,-0.22 -0.72,-0.4 -1.6,-0.4 -1.15556,0 -1.6,-0.16668 -1.6,-0.6 0,-0.43332 -0.44444,-0.6 -1.6,-0.6 -1.15556,0 -1.6,-0.16668 -1.6,-0.6 0,-0.43332 0.44444,-0.6 1.6,-0.6 1.15556,0 1.6,0.16668 1.6,0.6 0,0.46712 0.53519,0.6 2.41672,0.6 2.57646,0 3.75752,-0.64248 4.0442,-2.2 0.0891,-0.48404 0.52672,-0.85384 1.10806,-0.93632 1.10458,-0.15672 2.03102,-0.95732 2.03102,-1.75512 0,-0.30172 0.216,-0.76456 0.48,-1.02856 0.37333,-0.37332 0.32364,-0.48 -0.22361,-0.48 -0.38698,0 -0.60401,0.16112 -0.48229,0.35808 0.26968,0.43636 -0.697,0.84192 -2.00682,0.84192 -0.80809,0 -0.96728,-0.19748 -0.96728,-1.2 0,-1.12908 0.0926,-1.2 1.56667,-1.2 0.86833,0 1.63843,0.21528 1.72765,0.48296 0.1062,0.3186 0.49064,0.17588 1.12942,-0.41924 0.66566,-0.62016 1.28229,-0.83864 1.97234,-0.69884 0.55216,0.11184 0.77892,0.10552 0.50392,-0.014 -0.275,-0.1196 -0.5,-0.65248 -0.5,-1.18412 0,-0.86112 0.17471,-0.96668 1.6,-0.96668 0.88,0 1.6,-0.18 1.6,-0.4 0,-0.22 -0.72,-0.4 -1.6,-0.4 -1.5619,0 -1.6,-0.0332 -1.6,-1.4 0,-1.36668 0.0381,-1.4 1.6,-1.4 1.15556,0 1.6,0.16668 1.6,0.6 0,0.43332 0.44444,0.6 1.6,0.6 1.03383,0 1.6,-0.18128 1.6,-0.51232 0,-0.28176 0.54031,-0.71624 1.20068,-0.96548 0.80935,-0.30552 1.12633,-0.647 0.97256,-1.04772 -0.17482,-0.45556 0.0961,-0.59448 1.15931,-0.59448 1.71423,0 3.06745,-1.2426 3.06745,-2.81668 0,-0.97956 0.22116,-1.20296 1.6,-1.61608 1.13687,-0.3406 1.6,-0.69928 1.6,-1.23916 0,-0.58924 0.3367,-0.78764 1.5,-0.88392 1.40737,-0.11648 1.50747,-0.21344 1.62092,-1.57 0.10374,-1.24044 0.34453,-1.55292 1.69541,-2.2 1.13898,-0.54556 1.57576,-1.00312 1.57908,-1.65416 0.004,-0.78256 0.21336,-0.9 1.60459,-0.9 h 1.6 v -2.2 -2.2 h 1.6 c 1.15556,0 1.6,0.16668 1.6,0.6 0,0.87244 1.0996,0.735 1.6,-0.2 0.23548,-0.44 0.69181,-0.8 1.01407,-0.8 0.37712,0 0.58593,-0.40508 0.58593,-1.13668 0,-0.98784 0.22259,-1.20576 1.7,-1.66428 1.53466,-0.47628 1.60563,-0.5516 0.72966,-0.77436 -0.53369,-0.13572 -1.04369,-0.4668 -1.13333,-0.73572 -0.11743,-0.35228 0.57314,-0.48896 2.47034,-0.48896 2.3946,0 2.63333,-0.0749 2.63333,-0.82628 0,-0.45448 0.18633,-1.17448 0.41407,-1.6 0.28544,-0.53336 0.28544,-0.77372 0,-0.77372 -0.22774,0 -0.41407,-0.18 -0.41407,-0.4 0,-0.22 0.72,-0.4 1.6,-0.4 0.88,0 1.6,-0.18 1.6,-0.4 0,-0.22 -0.72,-0.4 -1.6,-0.4 -1.33333,0 -1.6,-0.13332 -1.6,-0.8 0,-0.66668 0.26667,-0.8 1.6,-0.8 1.15556,0 1.6,-0.16668 1.6,-0.6 0,-0.43332 0.44445,-0.6 1.6,-0.6 1.15556,0 1.6,0.16668 1.6,0.6 0,0.33 0.28963,0.6 0.64362,0.6 0.87306,0 2.54094,-1.63552 2.54947,-2.5 0.005,-0.54884 0.3524,-0.7 1.60691,-0.7 1.31015,0 1.6,-0.13888 1.6,-0.76668 0,-0.42164 0.225,-0.87164 0.5,-1 0.4,-0.18664 0.4,-0.28 0,-0.46664 -0.99073,-0.46236 -0.46647,-0.8888 1.26182,-1.0264 0.969,-0.0772 1.67838,-0.005 1.57639,0.15972 -0.10198,0.165 0.022,0.3 0.27563,0.3 0.25358,0 0.55291,-0.35124 0.66517,-0.78052 0.11226,-0.42928 0.68041,-0.95508 1.26255,-1.16844 0.97902,-0.35876 0.93087,-0.39024 -0.64156,-0.41948 -2.75886,-0.0512 -1.93178,-1.23156 0.86299,-1.23156 0.85328,0 1.60706,-0.32944 2.20149,-0.9622 l 0.90393,-0.96216 -0.8342,-0.2648 c -1.68556,-0.53864 -0.75998,-1.0146 1.96558,-1.0146 2.1091,0 2.8,-0.13572 2.8,-0.55 0,-0.30248 0.585,-0.68644 1.3,-0.85324 l 1.3,-0.30324 -1.167,-0.24676 c -0.64185,-0.13572 -1.24185,-0.47176 -1.33333,-0.74676 -0.1209,-0.36344 0.49829,-0.5 2.267,-0.5 2.64339,0 4.03333,-0.82708 4.03333,-2.4 0,-0.46856 0.26667,-0.8 0.64362,-0.8 0.87306,0 2.54094,-1.63552 2.54947,-2.5 0.005,-0.54884 0.3524,-0.7 1.60692,-0.7 1.66099,0 1.84616,-0.2856 1.62092,-2.5 -0.0592,-0.58196 0.26258,-0.7 1.90793,-0.7 1.6563,0 2.08337,-0.15908 2.61815,-0.97528 0.60059,-0.9166 0.59098,-0.99048 -0.1598,-1.2288 -1.22795,-0.38972 -0.51782,-0.99592 1.16668,-0.99592 1.07413,0 1.76616,-0.27624 2.4106,-0.9622 l 0.90392,-0.96216 -0.8342,-0.2648 c -0.45881,-0.1456 -0.8342,-0.43264 -0.8342,-0.6378 0,-0.49976 2.29701,-0.48032 2.46666,0.0208 0.0851,0.2514 0.676,0.22712 1.63334,-0.0671 1.34877,-0.41456 1.5,-0.59812 1.5,-1.82088 0,-1.1778 0.10708,-1.32584 0.8,-1.10592 1.00931,0.32036 2.4,-0.10308 2.4,-0.73072 0,-0.26228 0.36972,-0.70772 0.8216,-0.98992 0.54286,-0.33904 0.74177,-0.76464 0.5863,-1.25448 -0.21186,-0.66748 0.005,-0.73908 2.18054,-0.71856 2.66224,0.0252 2.82652,-0.0448 2.91656,-1.24008 0.0471,-0.62528 0.428,-0.88596 1.57852,-1.08036 1.26536,-0.21376 1.51648,-0.41596 1.51648,-1.22104 0,-0.859 0.17556,-0.96484 1.6,-0.96484 1.33016,0 1.6,-0.13412 1.6,-0.79528 0,-0.61644 0.35424,-0.85192 1.57532,-1.04716 0.8664,-0.13856 1.66,-0.47268 1.76356,-0.74256 0.10356,-0.26984 1.03108,-0.7266 2.06112,-1.015 1.03004,-0.2884 1.96572,-0.76636 2.0792,-1.06216 0.11352,-0.29584 0.63712,-0.53784 1.1636,-0.53784 0.94516,0 1.14752,-0.43448 0.97812,-2.1 -0.06,-0.58928 0.27152,-0.7 2.09552,-0.7 1.74552,0 2.37248,-0.19068 3.22516,-0.98092 0.58212,-0.53948 1.0584,-1.32656 1.0584,-1.74908 0,-0.62888 0.36036,-0.80284 1.98672,-0.95912 1.09272,-0.105 2.29084,-0.44288 2.66256,-0.75088 0.61608,-0.51052 0.57312,-0.58232 -0.48676,-0.81268 -0.63936,-0.13896 -1.83752,-0.27396 -2.66252,-0.3 -1.074,-0.034 -1.5,-0.22504 -1.5,-0.67312 0,-0.5354 0.65024,-0.61428 4.5,-0.54612 3.2718,0.058 4.88212,-0.0849 5.9,-0.52336 l 1.4,-0.60308 -1.1,-0.29416 c -1.62168,-0.43372 -1.33692,-1.00748 0.5,-1.00748 1.33332,0 1.6,-0.13332 1.6,-0.8 0,-0.71168 0.27604,-0.80312 2.5,-0.82812 3.97004,-0.0446 4.6864,-0.71064 0.8,-0.74376 -3.02396,-0.0256 -3.3,-0.095 -3.3,-0.82812 0,-0.76396 0.26668,-0.8 5.92,-0.8 6.267,0 6.88,-0.16708 6.88,-1.87528 0,-0.75852 0.27404,-0.95908 1.6,-1.17112 0.88,-0.14072 1.6,-0.41284 1.6,-0.60472 0,-0.19188 0.675,-0.35132 1.5,-0.35436 1.89532,-0.007 3.3,-0.3764 3.3,-0.86812 0,-0.20916 -0.37628,-0.26088 -0.83616,-0.11492 -1.45512,0.46184 -7.16384,-0.218 -7.16384,-0.85312 0,-0.84816 7.81852,-0.8082 8.14464,0.0416 0.26624,0.69376 1.94976,0.79172 3.09284,0.17992 0.43172,-0.23104 0.67928,-0.59104 0.55012,-0.8 -0.12916,-0.20896 -0.0312,-0.37992 0.21736,-0.37992 0.24872,0 0.70508,-0.25288 1.01416,-0.562 0.30912,-0.30908 1.82624,-0.78792 3.37144,-1.06404 1.5452,-0.27616 2.80944,-0.63228 2.80944,-0.79136 0,-0.15912 0.315,-0.39508 0.7,-0.52432 0.385,-0.12928 0.97,-0.4106 1.3,-0.62516 0.33,-0.21456 1.32,-0.52724 2.2,-0.69492 l 1.6,-0.3048 -1.3,-0.14204 c -0.79748,-0.0872 -1.3,-0.36416 -1.3,-0.71672 0,-0.7518 2.15036,-0.76712 2.89684,-0.0208 0.467,0.467 0.70704,0.4692 1.52856,0.014 0.53604,-0.29688 1.9196,-0.5462 3.0746,-0.554 1.59372,-0.0108 2.1,-0.1588 2.1,-0.61416 0,-0.37704 0.3804,-0.6 1.0236,-0.6 0.563,0 0.91884,-0.16952 0.7908,-0.37672 -0.12808,-0.2072 0.85132,-0.68092 2.1764,-1.05272 1.32504,-0.3718 2.4092,-0.83228 2.4092,-1.02328 0,-0.191 0.72,-0.34728 1.6,-0.34728 0.88,0 1.6,-0.18 1.6,-0.4 0,-0.22 0.60656,-0.4 1.34788,-0.4 1.96904,0 6.28164,-1.48084 7.20784,-2.475 0.49952,-0.5362 0.8582,-0.68324 0.95536,-0.39172 0.2416,0.72476 3.28892,0.60128 3.28892,-0.13328 0,-0.43332 0.44444,-0.6 1.6,-0.6 0.88,0 1.6,-0.16416 1.6,-0.36484 0,-0.20068 0.72,-0.48648 1.6,-0.63516 0.88,-0.14868 1.6,-0.41576 1.6,-0.59352 0,-0.17776 1.44,-0.45068 3.2,-0.60648 2.91752,-0.25828 3.20008,-0.35904 3.20076,-1.14164 0,-0.82164 0.19964,-0.86352 4.64872,-0.97852 3.39876,-0.0879 4.80384,-0.276 5.22784,-0.7 0.31888,-0.31891 0.88196,-0.5826 1.25124,-0.58596 0.57972,-0.005 0.58948,-0.0591 0.0714,-0.39388 -0.74436,-0.48104 -0.72632,-0.4861 2.18672,-0.6148 1.31268,-0.058 2.45268,-0.30339 2.53332,-0.54532 0.0806,-0.24194 0.85164,-0.43988 1.71328,-0.43988 0.86168,0 1.56668,-0.18 1.56668,-0.4 0,-0.22 0.72,-0.4 1.6,-0.4 0.88,0 1.6,-0.18 1.6,-0.4 0,-0.22266 1.07452,-0.4 2.4236,-0.4 1.42852,0 2.3272,-0.15599 2.1888,-0.37993 -0.12916,-0.20896 0.15312,-0.58755 0.62728,-0.8413 0.66428,-0.35552 0.9328,-0.34688 1.17048,0.0377 0.24116,0.39023 0.70476,0.39923 2.12624,0.0413 0.99984,-0.25176 2.36816,-0.45774 3.04072,-0.45774 0.806,0 1.22288,-0.19928 1.22288,-0.58458 0,-0.34354 0.65972,-0.76223 1.6,-1.01542 0.88,-0.23696 1.6,-0.60963 1.6,-0.82816 0,-0.2449 1.76312,-0.36526 4.5958,-0.31373 2.52772,0.046 4.71772,-0.0383 4.86668,-0.18726 0.14896,-0.14896 -0.52416,-0.29173 -1.4958,-0.31725 -2.14648,-0.0564 -1.74388,-0.14374 3.63332,-0.78846 2.31,-0.27697 4.31856,-0.68146 4.46348,-0.89888 0.14492,-0.21741 1.40492,-0.43057 2.8,-0.47369 1.39508,-0.0431 3.16652,-0.22826 3.93652,-0.41142 1.34708,-0.32044 1.3622,-0.34377 0.4,-0.61722 -0.8112,-0.23052 -0.679,-0.29171 0.7,-0.32406 0.935,-0.0219 1.7,-0.21987 1.7,-0.43987 0,-0.23333 1.33332,-0.4 3.2,-0.4 1.76,0 3.2,-0.16187 3.2,-0.35972 0,-0.36581 1.50776,-0.60922 6.7,-1.08163 1.595,-0.14512 2.9,-0.40145 2.9,-0.56962 0,-0.16817 1.44,-0.43323 3.2,-0.58903 1.76,-0.15579 3.2,-0.41699 3.2,-0.58044 0,-0.16345 2.04676,-0.40687 4.54832,-0.54093 2.85184,-0.15284 5.19252,-0.50151 6.27548,-0.93481 0.9642,-0.38581 1.78312,-0.52301 1.85392,-0.31061 0.20428,0.61274 6.52228,-0.26405 6.52228,-0.90514 0,-0.34941 0.54132,-0.52807 1.6,-0.52807 0.89761,0 1.60001,0.19329 1.60001,0.44028 0,0.29072 0.6454,0.36248 1.9,0.21125 1.045,-0.12596 3.205,-0.34776 4.8,-0.49288 1.595,-0.14512 2.9,-0.42018 2.9,-0.61125 0,-0.19107 -1.296,-0.3474 -2.88,-0.3474 -2.25864,0 -2.77524,-0.10478 -2.39432,-0.48566 0.60468,-0.60468 4.92616,-0.47767 5.31796,0.1563 0.19004,0.3075 1.1734,0.36831 3.08412,0.19072 3.13504,-0.29137 4.36436,-0.63361 3.71572,-1.03449 -0.233,-0.14399 4.5536,-0.56459 10.63688,-0.93466 6.53588,-0.39761 11.16636,-0.84418 11.31932,-1.09166 0.24268,-0.3927 1.72836,-0.47182 7.30032,-0.38878 1.37172,0.0204 2.3,-0.13645 2.3,-0.38874 0,-0.28562 3.11836,-0.42303 9.6,-0.42303 6.13332,0 9.6,-0.14444 9.6,-0.4 0,-0.22 0.72,-0.4 1.6,-0.4 0.88,0 1.6,0.18 1.6,0.4 0,0.22 0.72,0.4 1.6,0.4 1.37048,0 1.6,-0.12334 1.6,-0.85992 0,-0.84318 0.0837,-0.85471 4.3,-0.59212 2.365,0.14729 5.245,0.37716 6.4,0.51081 1.77252,0.20512 2.1,0.14152 2.1,-0.40788 0,-0.49126 -0.41692,-0.66313 -1.7,-0.70079 -1.68648,-0.0495 -1.68248,-0.0527 0.5,-0.3981 1.21,-0.19151 3.22408,-0.24265 4.47572,-0.11364 2.43836,0.25132 9.52428,-0.57812 9.52428,-1.11487 0,-0.17792 2.16,-0.32349 4.8,-0.32349 2.93332,0 4.8,-0.15555 4.8,-0.4 0,-0.22 0.72,-0.4 1.6,-0.4 1.15556,0 1.6,-0.16667 1.6,-0.6 0,-0.33 0.135,-0.61007 0.3,-0.62237 0.165,-0.0123 4.44,-0.11408 9.5,-0.22618 5.14032,-0.11387 9.25884,-0.36876 9.33332,-0.57763 0.0734,-0.2056 0.83836,-0.37382 1.7,-0.37382 0.86168,0 1.56668,-0.18 1.56668,-0.4 0,-0.22055 1.0318,-0.39898 2.3,-0.39773 1.265,10e-4 4.1,-0.17638 6.3,-0.39475 2.2,-0.21837 6.205,-0.60636 8.9,-0.8622 3.61756,-0.34343 4.9,-0.60653 4.9,-1.00525 0,-0.36341 0.52336,-0.54007 1.6,-0.54007 3.03764,0 1.5908,-0.76802 -1.7,-0.9024 l -3.3,-0.13476 3.4,-0.1625 3.4,-0.1625 -5,-0.23745 c -4.19956,-0.19976 -3.44716,-0.25082 4.7,-0.31892 6.25404,-0.0523 9.7,0.061 9.7,0.31892 0,0.5254 6.29024,0.5283 6.46668,0.003 0.0835,-0.24863 4.88008,-0.43551 12.83328,-0.5 6.98496,-0.0566 12.69996,-0.23798 12.7,-0.40298 0,-0.165 1.59316,-0.3 3.54036,-0.3 4.489,0 5.89112,-0.45726 6.20436,-2.02333 0.372,-1.86005 -0.11672,-3.57667 -1.01828,-3.57667 -0.51684,0 -0.67108,-0.16588 -0.46476,-0.49976 0.66744,-1.07994 -0.4928,-5.10024 -1.47192,-5.10024 -0.21436,0 -0.38972,-0.54565 -0.38972,-1.21256 0,-0.70883 -0.24924,-1.3082 -0.6,-1.44279 -0.33,-0.12664 -0.6,-0.4547 -0.6,-0.72904 0,-0.27434 -0.45,-0.98435 -1,-1.57781 -0.55,-0.59346 -1,-1.33975 -1,-1.65841 0,-0.31867 -0.27,-0.57939 -0.6,-0.57939 -0.44532,0 -0.6,-0.46869 -0.6,-1.81818 0,-1.40607 -0.22668,-2.04486 -1,-2.81819 -0.55,-0.55 -1,-1.16335 -1,-1.36299 0,-0.19965 -0.20888,-0.82147 -0.4642,-1.38182 -0.3388,-0.74357 -0.77108,-1.01882 -1.6,-1.01882 -0.74292,0 -1.1358,-0.20754 -1.1358,-0.6 0,-0.38047 0.38296,-0.6 1.04664,-0.6 0.89024,0 1.0106,-0.13452 0.80548,-0.9 -0.13268,-0.495 -0.24364,-1.215 -0.24664,-1.6 -0.004,-0.43152 -0.31232,-0.7 -0.80548,-0.7 -0.6476,0 -0.8,-0.26667 -0.8,-1.4 0,-1.37036 -0.036,-1.40136 -1.7,-1.46402 -1.53316,-0.0577 -1.56868,-0.0801 -0.36196,-0.22818 l 1.33804,-0.16416 -0.2268,-1.87182 c -0.12472,-1.0295 -0.34552,-3.17682 -0.49064,-4.77182 -0.14512,-1.595 -0.42016,-2.9 -0.61124,-2.9 -0.19108,0 -0.3474,0.18 -0.3474,0.4 0,0.22 -0.18,0.4 -0.4,0.4 -0.22,0 -0.4,-0.37926 -0.4,-0.8428 0,-0.59262 0.18188,-0.773 0.61276,-0.60766 0.52176,0.20022 0.5732,-0.0756 0.3464,-1.8572 -0.14648,-1.15079 -0.4434,-2.43504 -0.65976,-2.8539 -0.22164,-0.42899 -0.41656,-5.01396 -0.4464,-10.49954 -0.0408,-7.4952 -0.16816,-9.7381 -0.553,-9.73845 -0.3166,-2.9e-4 -0.5,-0.58736 -0.5,-1.60045 0,-1.15556 0.16668,-1.6 0.6,-1.6 0.35376,0 0.60252,-0.36939 0.60612,-0.9 0.004,-0.65734 0.0988,-0.75368 0.35,-0.3573 0.45004,0.71025 0.62208,0.35192 1.26892,-2.6427 0.324,-1.50014 0.74696,-2.5 1.05748,-2.5 0.3582,0 0.51748,-0.65246 0.51748,-2.12 0,-1.166 0.19568,-2.31569 0.43484,-2.55486 0.31316,-0.31314 0.31316,-0.51008 0,-0.7036 -0.70648,-0.43645 -0.4974,-1.02136 0.36516,-1.02136 1.24564,0 2.4,-1.42239 2.4,-2.9572 0,-0.87983 0.227,-1.44432 0.6454,-1.60486 0.40932,-0.15709 0.56932,-0.53846 0.43744,-1.0428 -0.11436,-0.43733 -0.0448,-0.79514 0.1546,-0.79514 0.85508,0 1.96256,-1.66876 1.96256,-2.9572 0,-0.89791 0.22568,-1.44381 0.66688,-1.61312 0.50828,-0.19504 0.55584,-0.36694 0.2,-0.72279 -0.79144,-0.79144 -0.52552,-1.10689 0.93312,-1.10689 1.46348,0 1.60964,-0.27525 1.41924,-2.67253 -0.075,-0.94512 0.99124,-1.72747 2.35448,-1.72747 0.45444,0 0.82628,-0.18 0.82628,-0.4 0,-0.22 0.23,-0.4 0.51112,-0.4 0.57352,0 1.88888,-1.39592 1.88888,-2.00457 0,-0.21749 0.18,-0.39543 0.4,-0.39543 0.22,0 0.4,-0.45 0.4,-1 0,-0.9 -0.16,-1 -1.6,-1 -1.15556,0 -1.6,-0.16667 -1.6,-0.6 0,-0.43333 0.44444,-0.6 1.6,-0.6 1.15556,0 1.6,0.16667 1.6,0.6 0,0.85582 1.09736,0.72386 3.4,-0.40885 1.1,-0.54111 2.225,-0.98548 2.5,-0.98749 0.28808,-0.002 0.5,-0.51228 0.5,-1.20366 0,-0.69007 0.21248,-1.2026 0.5,-1.20612 0.275,-0.003 0.75844,-0.16966 1.07428,-0.36952 0.47592,-0.30116 0.48468,-0.47136 0.051,-0.99387 -0.453,-0.54583 -0.38692,-0.63049 0.49236,-0.63049 0.5586,0 1.10908,0.225 1.22328,0.5 0.20704,0.49859 0.94844,-0.16815 2.1712,-1.95258 0.37368,-0.5453 0.573,-0.60919 0.73708,-0.23625 0.31084,0.70657 2.8426,0.19699 3.80556,-0.76597 0.40984,-0.40986 1.1952,-0.7452 1.7452,-0.7452 0.62224,0 1,-0.22667 1,-0.6 0,-0.33 0.225,-0.60276 0.5,-0.60612 0.275,-0.003 0.75844,-0.16966 1.07428,-0.36952 0.47592,-0.30116 0.48468,-0.47136 0.051,-0.99387 -0.453,-0.54583 -0.38692,-0.63049 0.49236,-0.63049 0.5586,0 1.08524,0.20876 1.17028,0.46392 0.11576,0.34723 0.35052,0.35029 0.93336,0.0122 0.74616,-0.43289 0.74108,-0.45226 -0.12132,-0.46392 -0.52792,-0.007 -0.9,-0.26021 -0.9,-0.61216 0,-0.43334 0.44444,-0.6 1.6,-0.6 1.15556,0 1.6,0.16666 1.6,0.6 0,0.43333 0.44444,0.6 1.6,0.6 1.0612,0 1.6,-0.17839 1.6,-0.52971 0,-0.36983 1.0884,-0.65463 3.6062,-0.9436 2.37684,-0.2728 3.86477,-0.64791 4.36469,-1.10034 0.684,-0.61901 2.04872,-0.68696 13.8938,-0.6917 17.474,-0.007 16.53532,-0.0448 16.53532,0.66535 0,0.44376 0.46516,0.6 1.78644,0.6 1.7578,0 4.61356,1.03624 4.61356,1.67408 0,0.17926 0.72,0.32592 1.6,0.32592 1.15556,0 1.6,-0.16667 1.6,-0.6 0,-0.48334 0.62224,-0.6 3.2,-0.6 2.50864,0 3.2,0.12362 3.2,0.57218 0,0.3147 -0.405,0.65184 -0.9,0.74922 l -0.9,0.17704 0.9,0.29743 c 0.495,0.16359 0.9,0.54644 0.9,0.85078 0,0.3789 0.5044,0.55335 1.6,0.55335 1.15556,0 1.6,0.16666 1.6,0.6 0,0.42349 0.42852,0.6 1.45668,0.6 1.09704,0 1.73984,0.29627 2.60348,1.2 0.63076,0.66 1.41808,1.2 1.7496,1.2 1.50524,0 3.79024,1.0233 3.79024,1.69739 0,1.37661 1.45784,2.30261 3.62516,2.30261 1.84628,0 2.01408,0.0762 1.9,0.86282 -0.0688,0.47454 0.0998,0.93954 0.37484,1.03333 0.275,0.0938 0.5,-0.008 0.5,-0.22537 0,-0.68573 1.56204,-0.0205 1.81372,0.7724 0.1968,0.62007 0.63284,0.75682 2.41324,0.75682 1.66492,0 2.17304,0.14029 2.17304,0.6 0,0.69795 -0.71908,0.76304 -2.20188,0.19928 -0.95384,-0.36265 -1.0418,-0.31741 -0.92604,0.47636 0.0881,0.60416 0.52764,0.98009 1.41252,1.20816 0.90156,0.23237 1.2168,0.50776 1.0572,0.92364 -0.12508,0.3259 -0.028,0.59256 0.2154,0.59256 0.24356,0 0.4428,0.36 0.4428,0.8 0,0.44 0.24864,0.8 0.55252,0.8 0.67752,0 2.64748,2.51004 2.64748,3.37331 0,0.46447 0.41416,0.62669 1.6,0.62669 0.88,0 1.6,0.18 1.6,0.4 0,0.22 -0.27,0.4 -0.6,0.4 -0.33,0 -0.6,0.18564 -0.6,0.41255 0,0.22691 0.27,0.51616 0.6,0.64279 0.34408,0.13204 0.6,0.72922 0.6,1.4 0,0.65726 0.2562,1.26808 0.58476,1.39416 0.32164,0.12342 0.69376,0.56777 0.82696,0.98745 0.1332,0.41967 0.59008,0.76305 1.01524,0.76305 0.9642,0 1.01032,0.62242 0.073,0.98577 -0.61412,0.23807 -0.62636,0.32921 -0.1,0.74279 0.69064,0.54264 2,3.21704 2,4.08501 0,0.32253 0.339,0.58643 0.75336,0.58643 0.9202,0 1.23392,1.03618 1.24116,4.1 0.004,1.265 0.18548,2.3 0.40548,2.3 0.22,0 0.4,0.19285 0.4,0.42857 0,0.63786 1.05328,1.57143 1.77296,1.57143 0.4388,0 0.6074,0.33393 0.5554,1.1 -0.15104,2.22513 0.0677,3.3 0.67164,3.3 0.43332,0 0.6,0.44444 0.6,1.6 0,1.15555 -0.16668,1.6 -0.6,1.6 -0.75932,0 -0.85172,3.04934 -0.1,3.30015 0.69176,0.23081 0.6596,15.57997 -0.0332,15.81089 -0.30304,0.101 -0.46688,1.25873 -0.46688,3.29868 0,1.72868 -0.15148,3.23667 -0.3366,3.35108 -0.18512,0.11441 -0.6548,1.55934 -1.04376,3.21095 -0.38892,1.65161 -0.95748,3.21066 -1.2634,3.46456 -0.30592,0.25391 -0.55624,0.87898 -0.55624,1.38906 0,0.51007 -0.1696,1.03223 -0.37688,1.16034 -0.20728,0.12811 -0.49064,1.08374 -0.62968,2.12361 -0.25876,1.93564 -1.33092,4.49068 -1.8844,4.49068 -0.16996,0 -0.30904,0.33572 -0.30904,0.74605 0,0.41033 -0.33256,1.17533 -0.739,1.7 -0.40644,0.52467 -0.85672,1.43636 -1.0006,2.02597 -0.14388,0.58962 -0.5024,1.31284 -0.79672,1.60715 -0.79296,0.79296 -0.98856,1.61327 -0.62152,2.60667 0.20624,0.55828 0.16216,0.98788 -0.11924,1.1618 -0.25528,0.15778 -0.3354,0.0961 -0.18704,-0.14393 0.28864,-0.46701 -0.81024,-1.02858 -1.35452,-0.6922 -0.19052,0.11776 -0.25032,0.46454 -0.13288,0.77062 0.12092,0.31505 -0.16336,0.75824 -0.65516,1.02144 -0.56156,0.30053 -0.80068,0.72509 -0.67628,1.20075 0.14088,0.53878 0.0264,0.67208 -0.42792,0.49777 -0.36752,-0.14103 -0.51712,-0.071 -0.36708,0.17179 0.13932,0.2254 -0.19116,0.82737 -0.73436,1.3377 -0.54324,0.51032 -0.98924,1.12149 -0.99116,1.35814 0,0.23665 -0.6428,1.10482 -1.42424,1.92926 -0.7814,0.82444 -1.31356,1.67244 -1.18252,1.88445 0.13104,0.212 -0.31584,0.87914 -0.99304,1.48253 -1.268,1.12978 -3.59672,4.84222 -3.59672,5.73385 0,0.36215 0.44676,0.43099 1.6,0.24658 1.2192,-0.19495 1.6,-0.12409 1.6,0.29775 0,0.33657 -0.62728,0.65392 -1.6,0.80946 -0.88,0.14072 -1.6,0.43372 -1.6,0.65112 0,0.2174 0.72,0.39528 1.6,0.39528 1.29244,0 1.6,0.14283 1.6,0.74301 0,0.61557 0.42176,0.7871 2.45868,1 1.35228,0.14134 3.51228,0.25699 4.8,0.25699 1.81452,0 2.34132,0.135 2.34132,0.6 0,0.48333 0.62224,0.6 3.2,0.6 2.57776,0 3.2,0.11666 3.2,0.6 0,0.4673 0.53592,0.6 2.42336,0.6 3.41704,0 10.12508,0.85845 10.44248,1.33636 0.14768,0.22237 2.36996,0.43205 5,0.47176 10.8008,0.1631 10.93416,0.1719 10.93416,0.72224 0,0.38758 1.72296,0.72938 6.4,1.26964 3.52001,0.4066 6.40001,0.88793 6.40001,1.06963 0,0.1817 0.72,0.33037 1.6,0.33037 1.2967,0 1.6,0.1419 1.6,0.7486 0,0.67397 0.4785,0.77717 4.8,1.03509 3.6198,0.21605 4.8,0.41917 4.8,0.82613 0,0.41936 0.8247,0.52299 3.7,0.46491 2.7636,-0.0558 4.0542,0.0953 5.1,0.59722 0.8015,0.3847 4.0076,0.97348 7.5,1.37729 3.355,0.38793 6.1,0.85055 6.1,1.02804 0,0.1775 0.54,0.32272 1.2,0.32272 0.8,0 1.2,0.2 1.2,0.6 0,0.65607 0.6524,0.82657 0.8666,0.22648 0.1073,-0.30045 3.723,0.66216 7.1334,1.89912 0.33,0.1197 1.95,0.23356 3.6,0.25304 1.9202,0.0227 3.3283,0.24882 3.9122,0.62838 0.7538,0.49002 0.97,0.50009 1.2452,0.058 0.4355,-0.69963 2.2426,-0.43753 2.2426,0.32528 0,0.45221 0.9823,0.7033 4.2,1.07349 2.31,0.26577 4.695,0.49514 5.3,0.50972 0.7794,0.0188 1.1,0.23467 1.1,0.74077 0,0.56595 0.6644,0.86426 3.2,1.4367 1.76,0.39735 3.2,0.86478 3.2,1.03875 0,0.34948 5.5624,0.9937 7.2955,0.84495 1.7475,-0.14998 5.5045,0.82534 5.5045,1.42899 0,0.38654 0.6424,0.53571 2.3,0.53407 1.265,-10e-4 4.145,0.21116 6.4,0.47202 3.5244,0.4077 4.1,0.57648 4.1,1.20227 0,0.58265 0.3194,0.72799 1.6,0.72799 1.1555,0 1.6,-0.16667 1.6,-0.6 0,-0.76868 0.562,-0.76868 1.2,0 0.4012,0.4835 0.3913,0.607 -0.051,0.63607 -0.3019,0.0198 0.036,0.20499 0.7511,0.41144 0.715,0.20645 1.3,0.64021 1.3,0.96392 0,0.42354 0.4766,0.59254 1.7,0.60274 0.935,0.008 2.15,0.27142 2.7,0.58583 1.3036,0.7452 2,0.7452 2,0 0,-0.49068 0.6012,-0.58687 3.3,-0.5279 2.0962,0.0458 2.6144,0.12644 1.4206,0.22107 -1.4396,0.11411 -1.8274,0.28443 -1.6572,0.7279 0.1222,0.31841 0.01,0.57893 -0.2492,0.57893 -0.2999,0 -0.2481,0.22328 0.1425,0.61388 0.4467,0.44668 1.8708,0.68124 5.2286,0.86119 l 4.6147,0.24731 v 1.5388 c 0,1.52862 0.01,1.53882 1.6,1.53882 0.88,0 1.6,-0.18 1.6,-0.4 0,-0.22 0.72,-0.4 1.6,-0.4 0.917,0 1.6,0.19178 1.6,0.44932 0,0.31446 1.4106,0.40948 4.7,0.31652 2.585,-0.073 8.345,-0.0952 12.8,-0.0493 7.8055,0.0804 8.1,0.11256 8.1,0.88348 0,0.66384 -0.2667,0.8 -1.5667,0.8 -0.8617,0 -1.633,-0.199 -1.7141,-0.4422 -0.2298,-0.68952 -6.3192,-0.0252 -6.3192,0.6892 0,0.4166 0.7153,0.56164 2.9,0.58804 3.517,0.0425 6.7307,0.45656 6.713,0.86496 -0.01,0.165 -0.013,0.44908 -0.013,0.63132 0,0.3982 3.5888,1.26868 5.2305,1.26868 0.7729,0 1.1695,0.20348 1.1695,0.6 0,0.47632 0.5978,0.60416 2.9,0.62016 2.5731,0.018 5.8038,0.59236 10.9,1.9382 0.88,0.2324 2.455,0.42684 3.5,0.43208 1.5832,0.008 1.9,0.1338 1.9,0.7546 0,0.62112 0.6774,0.88924 4.0741,1.61252 2.2407,0.47716 4.2657,1.01736 4.5,1.20048 0.2342,0.18312 1.748,0.45032 3.364,0.5938 1.616,0.14344 3.2691,0.438 3.6737,0.65448 0.4046,0.21652 1.3774,0.39368 2.1619,0.39368 1.0011,0 1.4263,0.17884 1.4263,0.6 0,0.43332 0.4444,0.6 1.6,0.6 0.88,0 1.6,0.16416 1.6,0.36484 0,0.20068 0.7095,0.48472 1.5766,0.6312 0.8672,0.14652 1.9959,0.6856 2.5083,1.19796 0.787,0.78708 1.5158,0.97728 4.6977,1.2262 2.5801,0.20184 4.1794,0.5384 5.078,1.06856 0.8753,0.51644 1.6147,0.67776 2.2224,0.48488 0.8105,-0.25724 0.8506,-0.21668 0.3648,0.36868 -0.4613,0.55592 -0.4608,0.65892 0,0.66572 1.9981,0.0292 5.648,0.83384 6.1755,1.36128 0.3468,0.34688 1.1578,0.63068 1.8021,0.63068 0.6442,0 1.1714,0.17276 1.1714,0.38396 0,0.21116 0.72,0.59964 1.6,0.86328 0.88,0.26368 1.6,0.61552 1.6,0.78196 0,0.1664 1.125,0.38656 2.5,0.48924 2.3552,0.17588 8.0485,1.91748 8.88,2.71644 0.209,0.2008 0.862,0.36512 1.451,0.36512 0.5891,0 1.2951,0.27 1.569,0.6 0.2739,0.33 0.7267,0.6 1.0062,0.6 0.2795,0 0.6118,0.27 0.7385,0.6 0.143,0.3728 0.7524,0.6 1.6094,0.6 0.7586,0 1.4392,0.16396 1.5126,0.36432 0.073,0.2004 0.8533,0.41336 1.7333,0.47328 0.88,0.0599 2.104,0.35524 2.72,0.65628 0.616,0.30104 1.4559,0.44076 1.8663,0.31044 0.4105,-0.13028 0.8551,-0.0609 0.988,0.15408 0.4461,0.72176 2.7362,1.6416 4.0872,1.6416 1.1441,0 1.3385,0.13864 1.3385,0.9546 0,0.83276 0.2425,0.99036 1.9,1.23512 1.045,0.15432 3.0192,0.79624 4.3871,1.42652 1.3679,0.63028 3.2579,1.35196 4.2,1.60372 0.9421,0.2518 2.02,0.78424 2.3953,1.18324 0.3753,0.39904 1.2303,0.84584 1.9,0.99292 0.6697,0.14708 1.2176,0.41012 1.2176,0.58452 0,0.17444 0.7004,0.42912 1.5563,0.566 0.856,0.13684 1.6604,0.51988 1.7875,0.85112 0.1371,0.35728 0.7359,0.60224 1.4722,0.60224 0.6827,0 1.4947,0.25356 1.8047,0.56352 0.3099,0.30992 1.332,0.68908 2.2714,0.84264 0.9394,0.15352 2.3379,0.60536 3.1079,1.00404 0.77,0.39872 1.985,0.96344 2.7,1.255 0.715,0.29156 1.3,0.81572 1.3,1.16484 0,0.85624 1.4985,1.56764 3.1596,1.50012 0.8704,-0.0352 1.5395,0.19068 1.8595,0.62832 0.275,0.376 1.1598,0.86584 1.9664,1.08856 0.8066,0.22268 1.7964,0.73488 2.1998,1.1382 0.4033,0.40332 1.3264,0.86356 2.0513,1.0228 1.5242,0.33476 2.8545,1.42828 2.0599,1.69316 -1.1883,0.39608 -0.3375,0.89212 1.4035,0.8184 2.0145,-0.0853 4.5,0.76472 4.5,1.53892 0,0.25476 0.5053,0.6394 1.123,0.85468 0.6176,0.21532 2.0126,1.21784 3.1,2.2278 1.0873,1.01 2.346,1.84144 2.797,1.84768 0.451,0.006 0.991,0.1692 1.2,0.36216 0.209,0.19296 1.325,0.6574 2.48,1.03212 1.8634,0.60456 2.1,0.80608 2.1,1.78844 0,0.92464 0.2802,1.22388 1.7,1.81572 0.935,0.38976 2.06,0.86284 2.5,1.05124 0.44,0.18844 1.61,0.39192 2.6,0.45212 1.1683,0.0711 1.7657,0.28256 1.7023,0.60256 -0.054,0.2712 0.5763,0.85212 1.4,1.291 1.9258,1.026 2.8977,1.80048 2.8977,2.30892 0,0.22264 0.72,0.51992 1.6,0.66064 1.0353,0.16556 1.6,0.46596 1.6,0.85112 0,0.42784 0.4501,0.59528 1.6,0.59528 1.2738,0 1.6,0.14672 1.6,0.71964 0,0.448 0.4907,0.8986 1.3,1.19372 0.715,0.26072 2.29,1.47176 3.5,2.69116 1.21,1.21944 2.6635,2.47056 3.2299,2.78032 0.5664,0.30976 1.6205,1.11488 2.3423,1.78916 0.7218,0.67432 1.5634,1.226 1.8701,1.226 0.353,0 0.5577,0.44044 0.5577,1.2 0,1.13332 0.089,1.2 1.6,1.2 1.2556,0 1.6009,0.15068 1.6041,0.7 0,0.4358 0.6064,0.953 1.6,1.37028 1.3208,0.55476 1.5977,0.86508 1.6062,1.8 0.01,0.91448 0.3001,1.26308 1.5311,1.82972 0.8364,0.385 1.8667,0.706 2.2897,0.71332 1.0963,0.0188 2.5689,1.36656 2.5689,2.3508 0,0.45972 0.1662,0.83588 0.3693,0.83588 0.4803,0 2.8307,2.3504 2.8307,2.83076 0,0.20308 0.765,0.37052 1.7,0.37208 1.4403,0.004 1.9445,0.24388 3.3,1.5804 0.9036,0.89088 2.0035,1.58604 2.527,1.59712 0.6938,0.0148 0.873,0.19568 0.7126,0.71964 -0.3146,1.0278 4.0365,5.33944 4.5518,4.51048 0.3103,-0.49916 0.5116,-0.4532 1.3133,0.3 0.5208,0.48924 1.1603,0.88952 1.4211,0.88952 0.2866,0 0.4742,0.63304 0.4742,1.6 v 1.6 h 1.6 c 1.0717,0 1.6,0.1772 1.6,0.53668 0,0.2952 0.72,0.7524 1.6,1.01608 1.466,0.4392 1.6,0.59524 1.6,1.86328 0,1.60352 1.1479,2.97852 2.5,2.9948 1.1486,0.0136 3.9,2.54972 3.9,3.59456 0,0.43704 0.1812,0.7946 0.4027,0.7946 0.2214,0 0.7939,0.45 1.2721,1 0.4782,0.55 1.278,1 1.7773,1 0.8622,0 4.2628,2.01512 4.7611,2.82128 0.1287,0.20828 0.5503,0.37872 0.9369,0.37872 0.3866,0 1.9266,1.23448 3.4222,2.74328 1.4956,1.5088 3.3342,2.9846 4.0858,3.27948 0.9014,0.35372 1.2924,0.72916 1.1489,1.1032 -0.2674,0.69688 3.1122,4.28704 4.7973,5.09608 0.6623,0.31804 1.6569,0.98316 2.2102,1.47808 0.5532,0.49492 1.6763,1.24324 2.4957,1.66288 0.8194,0.41964 1.4898,1.02372 1.4898,1.34244 0,0.31868 0.4517,0.93476 1.0038,1.36904 0.5521,0.43428 0.9051,0.94928 0.7845,1.14448 -0.1206,0.19516 0.1477,0.58408 0.5962,0.86416 0.4485,0.28012 0.8155,0.916 0.8155,1.41308 0,0.58396 0.2477,0.9132 0.7,0.93036 0.9225,0.0352 4.3,2.50088 4.3,3.1394 0,0.2742 0.315,0.72888 0.7,1.0104 0.385,0.28152 0.7,0.897 0.7,1.36772 0,0.73192 0.2319,0.85592 1.6,0.85592 1.1776,0 1.6,0.16348 1.6,0.6192 0,0.70252 1.9413,2.54896 2.7,2.56816 0.275,0.007 0.5,0.37264 0.5,0.81264 0,0.83336 1.3055,2.4 2,2.4 0.22,0 0.4,0.27 0.4,0.6 0,0.33 0.18,0.6 0.4,0.6 0.22,0 0.4,-0.29088 0.4,-0.6464 0,-1.21188 3.1277,1.89628 3.1662,3.1464 0.041,1.33836 1.3103,2.69612 2.5338,2.71084 1.282,0.0152 3.9,2.56268 3.9,3.79456 0,1.23464 1.3015,2.591 2.5,2.60544 0.495,0.006 1.575,0.63836 2.4,1.40536 1.3033,1.21164 1.5,1.63 1.5,3.1892 V 585.6 l 1.7,0.0108 c 1.38,0.009 1.9824,0.27336 3.2,1.40536 1.3033,1.21164 1.5,1.63 1.5,3.1892 v 1.7946 h 2.6302 2.6303 l -0.1135,1.84452 c -0.084,1.37096 0.062,1.97276 0.5698,2.34408 0.3758,0.2748 0.6832,0.88476 0.6832,1.35548 0,0.73192 0.2319,0.85592 1.6,0.85592 1.2025,0 1.6,0.1596 1.6,0.64244 0,0.35332 0.4466,0.99368 0.9923,1.423 0.5458,0.42932 0.9508,0.92732 0.9,1.10672 -0.1591,0.56228 2.9262,3.22784 3.7362,3.22784 0.4418,0 0.7715,0.27456 0.7715,0.64244 0,0.35332 0.4517,0.99776 1.0038,1.43204 0.5521,0.43428 0.9051,0.94928 0.7845,1.14448 -0.1206,0.19516 0.1477,0.58408 0.5962,0.86416 0.4485,0.28012 0.8155,0.916 0.8155,1.41308 0,0.78776 0.2055,0.9038 1.6,0.9038 1.2025,0 1.6,0.1596 1.6,0.64244 0,0.35332 0.4517,0.99776 1.0038,1.43204 0.5521,0.43428 0.9051,0.94928 0.7845,1.14448 -0.1206,0.19516 0.1477,0.58408 0.5962,0.86416 0.4485,0.28012 0.8155,0.916 0.8155,1.41308 0,0.52372 0.2445,0.9038 0.5812,0.9038 1.1243,0 2.6188,0.93624 2.6188,1.6406 0,0.39172 0.1829,0.82524 0.4065,0.96344 0.2236,0.13816 0.3222,0.38784 0.219,0.55476 -0.1032,0.16696 1.1539,1.61008 2.7934,3.207 1.708,1.66352 2.9811,3.23852 2.9811,3.688 0,0.83168 1.8575,2.71228 2.7,2.73356 0.3146,0.008 0.5,0.60604 0.5,1.61264 0,1.15556 0.1667,1.6 0.6,1.6 0.4333,0 0.6,0.44444 0.6,1.6 0,1.47616 0.085,1.60084 1.1,1.61084 1.4704,0.0144 4.1,2.44816 4.1,3.79456 0,1.19648 1.2933,2.5946 2.4,2.5946 0.4555,0 0.8,0.26668 0.8,0.6192 0,0.70252 1.9413,2.54896 2.7,2.56816 0.309,0.008 0.5,0.58636 0.5,1.51424 0,1.32052 0.3177,1.81488 2.635,4.1 2.8023,2.76336 3.765,4.46308 3.765,6.64724 0,1.23464 0.1035,1.35116 1.2,1.35116 0.8898,0 1.2,0.18652 1.2,0.72148 0,1.73916 2.03,4.78516 4.1113,6.16908 1.725,1.147 2.1815,1.70596 2.6213,3.21004 0.293,1.00168 0.968,2.2302 1.5,2.73004 0.5321,0.49984 0.9674,1.23744 0.9674,1.63908 0,0.40164 0.27,0.73028 0.6,0.73028 0.4606,0 0.6,0.51112 0.6,2.2 0,1.21 0.1533,2.2 0.3407,2.2 0.4656,0 2.8593,2.31904 2.8593,2.77016 0,0.19972 -0.225,0.45396 -0.5,0.56492 -0.275,0.11096 0.445,0.21596 1.6,0.23336 1.8439,0.0276 2.1,-0.066 2.1,-0.76844 0,-0.76668 0.2667,-0.8 6.4,-0.8 6.1333,0 6.4,0.0332 6.4,0.8 0,0.66668 -0.2667,0.8 -1.6,0.8 -2.457,0 -1.8978,0.65492 0.8,0.93688 2.7391,0.28628 7.2,-0.0816 7.2,-0.59388 0,-0.18864 1.44,-0.343 3.2,-0.343 2.5384,0 3.2,-0.12072 3.2,-0.58384 0,-0.45368 -0.7355,-0.61384 -3.3,-0.71856 -1.815,-0.0741 1.065,-0.1714 6.4,-0.2162 8.3194,-0.0698 9.7,-0.1668 9.7,-0.6814 0,-0.43332 0.4445,-0.6 1.6,-0.6 1.1025,0 1.6,0.1736 1.6,0.55836 0,0.40768 0.8636,0.6348 3.2,0.84164 3.5199,0.3116 9.6,-0.0848 9.6,-0.62588 0,-0.18844 3.645,-0.40376 8.1,-0.47848 13.5596,-0.22744 39.9,-2.04656 39.9,-2.75556 0,-0.18704 1.44,-0.34008 3.2,-0.34008 1.8667,0 3.2,-0.16668 3.2,-0.4 0,-0.23332 1.3333,-0.4 3.2,-0.4 1.76,0 3.2,-0.16128 3.2,-0.35836 0,-0.19712 1.44,-0.48584 3.2,-0.64164 1.76,-0.1558 3.2,-0.44452 3.2,-0.64164 0,-0.19708 0.72,-0.35836 1.6,-0.35836 0.88,0 1.6,-0.18 1.6,-0.4 0,-0.22 0.72,-0.4 1.6,-0.4 0.88,0 1.6,-0.17848 1.6,-0.39664 0,-0.25444 1.7204,-0.30412 4.8,-0.13852 3.5087,0.18868 4.8,0.13396 4.8,-0.20336 0,-0.27296 0.6644,-0.46148 1.6263,-0.46148 0.8945,0 1.9486,-0.17248 2.3424,-0.38328 0.3939,-0.2108 2.4071,-0.59324 4.4738,-0.84992 2.0666,-0.25668 3.9285,-0.6242 4.1375,-0.81672 0.209,-0.19256 1.064,-0.35008 1.9,-0.35008 0.836,0 1.52,-0.15816 1.52,-0.35148 0,-0.55956 2.3163,-1.36624 3.0807,-1.07292 0.3822,0.14668 0.5495,0.12216 0.3717,-0.0544 -0.1778,-0.17664 1.1777,-0.5308 3.0122,-0.787 7.967,-1.11268 9.1788,-1.34416 10.0597,-1.92136 0.512,-0.33544 2.0435,-0.7262 3.4033,-0.86836 1.3598,-0.14212 2.4724,-0.39172 2.4724,-0.55468 0,-0.16296 1.395,-0.60376 3.1,-0.9796 3.5221,-0.77636 5.1484,-1.33868 4,-1.38308 -1.4023,-0.0542 -0.6569,-0.82716 0.8,-0.82956 0.825,0 2.04,-0.286 2.7,-0.63252 0.6651,-0.34924 2.5373,-0.69856 4.2,-0.78372 3.4103,-0.17464 5.166,-0.41396 5.502,-0.74992 0.1273,-0.12724 -0.1136,-0.2498 -0.5353,-0.27232 -0.9978,-0.0533 1.3844,-0.67204 4.4333,-1.15152 1.32,-0.2076 3.48,-0.72624 4.8,-1.15252 2.0894,-0.6748 2.2318,-0.78028 1.1,-0.81504 -2.0736,-0.0637 -1.5032,-0.74728 0.8,-0.95872 3.14,-0.28828 7.5,-1.54716 7.5,-2.16552 0,-0.36664 0.3096,-0.45328 1,-0.27996 0.6162,0.15464 1,0.0808 1,-0.1924 0,-0.56172 1.0863,-0.58464 1.2722,-0.0268 0.1401,0.42024 2.705,-0.62384 3.1496,-1.28208 0.1219,-0.18052 1.1119,-0.44396 2.2,-0.58544 1.8845,-0.24496 3.7854,-0.90988 2.6782,-0.9368 -1.1274,-0.0276 -0.3936,-0.79508 1,-1.0462 0.825,-0.14864 1.7288,-0.45196 2.0084,-0.67404 0.2796,-0.22208 0.9523,-0.45252 1.4949,-0.51208 1.5396,-0.169 3.3967,-1.11728 3.3967,-1.73448 0,-0.4452 0.4927,-0.50784 2.4144,-0.30696 1.9264,0.20132 2.4601,0.13292 2.6411,-0.33868 0.1247,-0.32508 0.9592,-0.78824 1.8544,-1.02928 1.0709,-0.2884 1.4527,-0.5464 1.1161,-0.75436 -0.6494,-0.40136 -0.2076,-0.67072 1.6815,-1.02512 0.8257,-0.15492 1.5925,-0.42912 1.7039,-0.6094 0.1114,-0.18024 1.1894,-0.5326 2.3956,-0.783 1.2062,-0.2504 2.193,-0.62252 2.193,-0.82692 0,-0.2044 0.72,-0.37164 1.6,-0.37164 0.88,0 1.6,-0.16724 1.6,-0.37164 0,-0.2044 0.9762,-0.57428 2.1693,-0.82196 2.4545,-0.50956 3.8745,-1.6064 2.0797,-1.6064 -0.5769,0 -1.049,-0.18 -1.049,-0.4 0,-0.22 0.72,-0.4 1.6,-0.4 1.3334,0 1.6,-0.13332 1.6,-0.8 0,-0.60876 0.2667,-0.8 1.1155,-0.8 0.6135,0 1.8215,-0.36 2.6845,-0.8 0.8631,-0.44 1.8011,-0.8 2.0846,-0.8 0.2835,0 0.5154,-0.1566 0.5154,-0.34796 0,-0.19136 1.125,-0.56164 2.5,-0.8228 3.5017,-0.66508 3.9,-0.81084 3.9,-1.42688 0,-0.64828 2.1675,-1.80236 3.385,-1.80236 0.4742,0 1.2115,-0.26428 1.6386,-0.58728 0.427,-0.323 1.1536,-0.593 1.6144,-0.6 0.461,-0.007 1.1438,-0.35056 1.5175,-0.76352 0.3975,-0.43916 1.5023,-0.85992 2.662,-1.01376 1.7509,-0.23228 1.9825,-0.37476 1.9825,-1.21992 0,-0.67392 0.3731,-1.14304 1.2615,-1.58624 0.6938,-0.34608 1.4126,-0.62928 1.5973,-0.62928 0.6154,0 3.5412,-1.3844 3.5412,-1.6756 0,-0.4624 2.7213,-1.62028 3.1644,-1.34644 0.2225,0.13752 0.8913,-0.29628 1.4862,-0.96396 0.5949,-0.66772 1.2434,-1.214 1.4412,-1.214 0.7568,0 4.9235,-2.1022 5.2281,-2.63764 0.1759,-0.30932 0.6467,-0.56236 1.0461,-0.56236 0.3994,0 1.1838,-0.36 1.7432,-0.8 0.5594,-0.44 1.3789,-0.8 1.8212,-0.8 1.3051,0 2.2238,-0.45752 1.6413,-0.81748 -0.3251,-0.20096 0.1221,-0.58744 1.3011,-1.12456 0.988,-0.45008 2.0279,-1.09728 2.3108,-1.43816 0.2829,-0.34088 0.9424,-0.6198 1.4654,-0.6198 0.5231,0 0.951,-0.16788 0.951,-0.37304 0,-0.20516 0.3304,-0.47792 0.7342,-0.60604 0.4038,-0.12816 1.4388,-0.86016 2.3,-1.62664 0.8612,-0.76652 1.8661,-1.3938 2.2331,-1.39396 1.0989,0 1.9327,-0.45052 1.9327,-1.04312 0,-0.32824 0.4125,-0.5572 1.004,-0.5572 0.5521,0 1.3121,-0.36 1.6888,-0.8 0.3768,-0.44 0.9976,-0.8 1.3797,-0.8 1.3922,0 3.5075,-1.36704 3.5177,-2.27344 0.01,-0.65244 0.2882,-0.90544 1.1098,-1 0.605,-0.0696 1.0576,-0.34388 1.0057,-0.60952 -0.052,-0.26832 0.5395,-0.60184 1.332,-0.75048 0.7844,-0.14716 1.5237,-0.52156 1.6428,-0.83196 0.1191,-0.31044 0.7797,-0.82408 1.4681,-1.14148 0.6883,-0.31736 1.5716,-0.80564 1.9628,-1.08508 0.5624,-0.40164 0.776,-0.4046 1.0198,-0.014 0.2376,0.38036 0.5201,0.3456 1.2294,-0.1512 0.712,-0.49876 0.7998,-0.71992 0.3869,-0.97508 -0.3781,-0.23372 -0.011,-0.564 1.2593,-1.1318 0.9863,-0.44096 2.2804,-1.2594 2.8758,-1.81876 0.5954,-0.55936 1.2484,-1.017 1.451,-1.017 0.2027,0 0.5926,-0.27 0.8664,-0.6 0.2739,-0.33 0.9304,-0.6 1.4589,-0.6 0.6479,0 1.0806,-0.31464 1.3281,-0.96576 0.202,-0.5312 0.7375,-1.08332 1.1901,-1.22696 0.4526,-0.14364 0.8229,-0.39292 0.8229,-0.55388 0,-0.28152 2.4231,-1.30872 3.5419,-1.50152 0.298,-0.0514 0.8032,-0.46656 1.1227,-0.92264 0.3194,-0.45608 0.7564,-0.82924 0.971,-0.82924 0.2146,0 1.0564,-0.2784 1.8708,-0.61864 1.0791,-0.45088 1.333,-0.7098 0.9365,-0.95488 -0.3844,-0.23756 0.1749,-0.65884 1.9065,-1.43596 1.3479,-0.60488 2.4506,-1.2552 2.4506,-1.44516 0,-0.18996 0.2637,-0.34536 0.586,-0.34536 0.3222,0 0.7786,-0.36 1.014,-0.8 0.2355,-0.44 0.6766,-0.8 0.9801,-0.8 0.5102,0 1.6096,-0.792 3.4396,-2.47768 0.4047,-0.37272 1.3686,-0.79644 2.1422,-0.94156 0.7735,-0.14512 1.9395,-0.74016 2.5911,-1.32232 1.7452,-1.55916 2.039,-1.75216 4.547,-2.9868 1.2606,-0.62064 2.4288,-1.35032 2.596,-1.6216 0.37,-0.60024 2.9807,-1.85004 3.8645,-1.85004 0.3517,0 0.6395,-0.23924 0.6395,-0.53164 0,-0.29236 0.866,-0.93716 1.9243,-1.43288 1.0583,-0.49568 2.5763,-1.51644 3.3733,-2.26836 0.797,-0.75192 1.7247,-1.36712 2.0617,-1.36712 0.3369,0 0.8053,-0.36 1.0407,-0.8 0.2355,-0.44 0.8317,-0.8 1.325,-0.8 0.4932,0 1.4522,-0.495 2.1312,-1.1 1.5519,-1.383 2.76,-2.1 3.5384,-2.1 0.333,0 0.6054,-0.25048 0.6054,-0.55664 0,-0.30616 0.4546,-0.67072 1.0102,-0.81016 0.5556,-0.13944 1.3374,-0.56396 1.7374,-0.94336 0.9612,-0.9118 3.1659,-2.08984 3.9112,-2.08984 0.3266,0 0.9663,-0.19936 1.4216,-0.443 0.6484,-0.34704 0.7106,-0.51536 0.2871,-0.77712 -0.3839,-0.23724 0.035,-0.58576 1.446,-1.20204 4.4195,-1.93092 4.4403,-1.94252 3.5865,-2.006 -0.44,-0.0328 0.01,-0.21804 0.9994,-0.41176 2.0777,-0.40676 3.8258,-1.58308 3.7445,-2.51972 -0.034,-0.39188 0.3605,-0.74876 1,-0.90476 0.5809,-0.14168 1.4854,-0.59016 2.0101,-0.9966 0.5246,-0.40644 1.1596,-0.739 1.4111,-0.739 0.2514,0 0.7654,-0.36 1.1421,-0.8 0.7175,-0.83796 1.8928,-1.08636 1.8928,-0.4 0,0.22 0.2822,0.4 0.627,0.4 0.434,0 0.5527,-0.234 0.3857,-0.76016 -0.1829,-0.57628 0.052,-0.89012 0.973,-1.29764 0.6873,-0.3042 1.2143,-0.84232 1.2143,-1.23984 0,-0.38632 0.1966,-0.70236 0.437,-0.70236 0.2402,0 0.8945,-0.36 1.4539,-0.8 0.5594,-0.44 1.4485,-0.8 1.976,-0.8 0.611,0 1.0725,-0.30696 1.2719,-0.84608 0.2875,-0.77716 2.0638,-1.68668 4.3612,-2.23312 0.9524,-0.22652 1.247,-0.91296 0.4,-0.93208 -0.5061,-0.0116 1.8523,-1.38168 4.6,-2.67268 0.825,-0.3876 1.5,-0.93228 1.5,-1.2104 0,-0.27812 0.2495,-0.50564 0.5543,-0.50564 0.3049,0 1.0699,-0.26888 1.7,-0.59752 0.6302,-0.32868 1.4447,-0.59868 1.8102,-0.6 0.3654,0 1.1251,-0.55 1.6882,-1.2192 0.5631,-0.66916 1.6141,-1.41864 2.3356,-1.66552 0.7215,-0.24684 1.4147,-0.60312 1.5406,-0.79176 0.2123,-0.31812 2.7898,-1.40296 5.8711,-2.47112 1.3038,-0.45192 1.7361,-1.0346 0.8,-1.07812 -0.275,-0.0128 0.6113,-0.54424 1.9695,-1.18096 1.3582,-0.63676 2.6182,-1.40836 2.8,-1.71468 0.1818,-0.30632 1.1914,-0.8816 2.2436,-1.27836 1.0522,-0.3968 2.0078,-0.87472 2.1236,-1.06208 0.1158,-0.18736 0.5536,-0.34068 0.9729,-0.34068 0.4192,0 0.955,-0.36 1.1904,-0.8 0.2411,-0.45044 0.8376,-0.8 1.3651,-0.8 0.5153,0 1.16,-0.26872 1.4325,-0.59712 0.2726,-0.32844 1.1947,-0.78536 2.049,-1.01544 0.8544,-0.23004 1.5534,-0.5958 1.5534,-0.81276 0,-0.21696 0.495,-0.57372 1.1,-0.79284 1.2846,-0.46516 3.0132,-1.29344 3.3,-1.5812 0.566,-0.56772 4.7958,-2.40064 5.54,-2.40064 0.473,0 0.86,-0.16048 0.86,-0.35664 0,-0.19616 0.45,-0.46956 1,-0.6076 0.55,-0.13804 1,-0.42124 1,-0.62932 0,-0.6288 1.5072,-1.23596 4.1081,-1.6548 2.8083,-0.45228 4.0371,-1.14116 2.8307,-1.58696 -0.6198,-0.22904 -0.5498,-0.32252 0.4344,-0.5806 0.6453,-0.16916 1.7954,-0.72976 2.5559,-1.2458 0.7604,-0.51608 1.6447,-0.93828 1.9651,-0.93828 0.6336,0 2.5462,-0.98928 4.0598,-2.1 0.5246,-0.385 1.3554,-0.7 1.846,-0.7 0.4907,0 1.3452,-0.3564 1.899,-0.792 1.0115,-0.79564 2.6829,-1.55424 4.0188,-1.82396 0.3948,-0.0797 1.4107,-0.69376 2.2576,-1.36448 0.8468,-0.67076 1.8221,-1.21956 2.1672,-1.21956 1.0178,0 5.0574,-1.6242 5.0574,-2.03348 0,-0.2146 0.6867,-0.26616 1.6,-0.12012 1.5109,0.2416 1.6,0.19972 1.6,-0.75152 0,-0.82664 0.2332,-1.04512 1.3,-1.21788 1.7732,-0.28716 4.8552,-1.2056 5.1,-1.51984 0.11,-0.14116 0.83,-0.39188 1.6,-0.55716 0.77,-0.16528 1.5128,-0.47748 1.6506,-0.6938 0.1378,-0.21632 1.0828,-0.48712 2.1,-0.60176 1.0172,-0.11468 1.8494,-0.36508 1.8494,-0.55648 0,-0.19136 -0.18,-0.34796 -0.4,-0.34796 -0.22,0 -0.4,-0.157 -0.4,-0.34888 0,-0.19188 0.675,-0.46532 1.5,-0.60764 0.825,-0.14236 2.2166,-0.60024 3.0925,-1.0176 0.8759,-0.41736 1.7387,-0.6684 1.9175,-0.55792 0.1788,0.11052 0.5426,0.0204 0.8086,-0.20032 1.2871,-1.06824 5.0566,-2.17564 7.6814,-2.25668 3.4172,-0.10552 4.2,-0.41376 4.2,-1.65376 0,-0.62568 0.2303,-0.9572 0.6649,-0.9572 0.3657,0 1.5807,-0.26352 2.7,-0.5856 1.1193,-0.32208 2.5751,-0.70272 3.2351,-0.84584 1.0789,-0.23396 1.1192,-0.2942 0.4,-0.59672 -0.5112,-0.21508 -0.1864,-0.25228 0.9,-0.10304 1.5002,0.206 1.7,0.14148 1.7,-0.54896 0,-0.61228 0.4416,-0.88436 2.0306,-1.25116 2.4876,-0.5742 4.3694,-0.6038 4.3694,-0.0687 0,1.11624 3.107,-0.15332 3.2794,-1.34 0.085,-0.5832 0.523,-0.9122 1.4724,-1.10524 0.7434,-0.1512 1.4634,-0.44688 1.6,-0.65712 0.1365,-0.21024 0.9232,-0.50636 1.7482,-0.65808 1.2052,-0.2216 1.5,-0.15432 1.5,0.34232 0,0.33996 0.2616,0.61812 0.5812,0.61812 1.139,0 2.6188,-0.94036 2.6188,-1.6642 0,-0.432 0.289,-0.73804 0.7,-0.74128 0.385,-0.004 1.105,-0.11396 1.6,-0.24664 0.6617,-0.17732 0.9,-0.0699 0.9,0.40548 0,0.35564 0.2921,0.64664 0.649,0.64664 0.5234,0 0.5553,-0.11292 0.1647,-0.58352 -0.4005,-0.48256 -0.2879,-0.63364 0.651,-0.87316 0.6245,-0.15928 1.4953,-0.25944 1.9353,-0.22252 0.9973,0.0837 3,-0.69696 3,-1.16932 0,-0.19332 -0.765,-0.37392 -1.7,-0.4014 -1.6888,-0.0496 -1.6859,-0.0519 0.4519,-0.3626 1.1835,-0.172 2.8035,-0.58992 3.6,-0.92872 0.7965,-0.33884 2.7531,-0.82192 4.3481,-1.07352 2.3458,-0.37008 2.9,-0.59396 2.9,-1.1714 0,-0.4596 0.3938,-0.7926 1.1055,-0.93492 0.608,-0.1216 1.5355,-0.59412 2.0612,-1.05 0.7923,-0.6872 1.4933,-0.82892 4.1,-0.82892 1.7293,0 3.4567,-0.167 3.8388,-0.37112 1.4065,-0.75156 4.8911,-1.62888 6.4697,-1.62888 0.8937,0 1.6248,-0.16508 1.6248,-0.36684 0,-0.41832 3.449,-1.23316 5.2197,-1.23316 0.6492,0 1.1803,-0.18 1.1803,-0.4 0,-0.22 0.72,-0.4 1.6,-0.4 1.3148,0 1.6,-0.13784 1.6,-0.77304 0,-0.99012 0.7733,-1.21352 4.0936,-1.18256 3.7724,0.0352 8.7064,-0.47004 8.7064,-0.8914 0,-0.19416 0.585,-0.35572 1.3,-0.35904 0.715,-0.004 2.02,-0.2654 2.9,-0.58244 0.88,-0.317 2.455,-0.58432 3.5,-0.59396 1.045,-0.01 1.9,-0.19756 1.9,-0.41756 0,-0.22112 1.0472,-0.4 2.3414,-0.4 1.2877,0 3.4477,-0.11564 4.8,-0.257 l 2.4586,-0.25696 v -1.34304 -1.343 h 3.2 c 1.8667,0 3.2,0.16668 3.2,0.4 0,0.23332 1.3334,0.4 3.2,0.4 1.76,0 3.2,-0.16356 3.2,-0.36344 0,-0.20992 5.4065,-0.37164 12.8001,-0.38292 l 12.8,-0.0196 v 1.98292 c 0,1.49592 0.1473,1.98292 0.6,1.98292 0.33,0 0.6,0.25788 0.6,0.57304 0,0.31516 0.405,0.69944 0.9,0.85392 0.495,0.15448 1.0209,0.46948 1.1687,0.69996 0.1644,0.25636 2.0671,0.40416 4.9,0.38064 l 4.6313,-0.0384 v 1.96544 c 0,1.081 0.18,1.96544 0.4,1.96544 0.22,0 0.4,0.2792 0.4,0.6204 0,1.174 2.5139,1.7796 7.3871,1.7796 h 4.6129 v 2.76668 c 0,1.85736 -0.1643,2.8214 -0.4999,2.93328 -0.3129,0.10432 -0.051,0.55276 0.7,1.19928 1.2597,1.08424 1.8717,1.15128 1.0079,0.11044 -0.4437,-0.53464 -0.2125,-0.60968 1.8788,-0.60968 2.1673,0 2.4271,0.0929 2.849,1.01884 0.5705,1.25216 0.6131,4.18116 0.061,4.18116 -0.2476,0 -0.2217,0.29096 0.067,0.75296 0.3603,0.57688 0.8054,0.71076 1.9034,0.57244 l 1.4332,-0.18052 2.5764,5.07828 c 1.4171,2.79308 3.6221,6.8468 4.9,9.00832 1.278,2.16148 2.3236,4.20864 2.3236,4.54924 0,0.3406 0.1732,0.61928 0.385,0.61928 0.66,0 3.362,4.38404 5.9168,9.6 2.8056,5.72776 5.4522,10.40084 9.2881,16.4 1.477,2.31 3.9073,6.63 5.4006,9.6 1.4934,2.97 3.5014,6.76768 4.4623,8.43932 0.961,1.6716 1.7472,3.18524 1.7472,3.36364 0,0.1784 0.6842,1.24072 1.5204,2.36068 2.5142,3.36712 3.2796,4.85688 3.2796,6.38356 0,1.15808 0.1534,1.4528 0.7561,1.4528 0.6079,0 0.9291,0.64064 1.6377,3.26704 0.4849,1.79684 1.5846,5.46608 2.4439,8.1538 0.8592,2.68776 1.5623,5.5166 1.5623,6.28632 0,1.06312 0.1922,1.44984 0.8,1.60872 0.6234,0.16304 0.8013,0.54856 0.8061,1.74668 0,0.8456 0.1383,1.33216 0.3,1.08124 0.4315,-0.66992 3.8462,7.74832 5.1337,12.6562 0.6059,2.31 2.0841,6.45 3.2847,9.2 3.0283,6.93592 4.2157,10.78296 5.6175,18.2 0.6653,3.52 2.1128,9.55 3.2168,13.4 1.1039,3.85 2.297,8.71 2.6514,10.8 0.6904,4.0728 2.7095,12.46448 4.3308,18 0.5476,1.87 1.2894,4.93 1.6482,6.8 1.7713,9.2298 2.773,13.69392 4.0702,18.14024 3.4112,11.69172 5.5428,21.94376 5.4599,26.25976 -0.3042,15.84228 -0.2405,19.9852 0.3605,23.4254 0.5524,3.1614 0.5668,4.26212 0.1132,8.6 -0.2861,2.73604 -0.888,6.4146 -1.3377,8.1746 -1.2202,4.77604 -2.7148,13.28916 -3.4371,19.57756 -0.3524,3.06768 -1.0748,7.47768 -1.6054,9.8 -0.5306,2.32236 -1.2603,5.84244 -1.6216,7.82244 -0.3613,1.98 -0.8815,4.05 -1.156,4.6 -1.8793,3.76524 -4.9601,8.7678 -7.4302,12.065 -2.7936,3.729 -3.01,3.91688 -6.1503,5.33852 -1.7901,0.81044 -5.8647,2.88548 -9.0547,4.6112 -3.19,1.72572 -7.78,3.93568 -10.2,4.911 -4.8212,1.94308 -11.7066,5.20044 -17,8.04244 -1.87,1.004 -5.56,2.65876 -8.2,3.6772 -5.4256,2.09308 -13.6389,5.99584 -18.394,8.7404 -1.7566,1.01392 -4.7916,2.47524 -6.7442,3.24744 -5.7056,2.2562 -12.141,5.2456 -16.744,7.77796 -2.3551,1.29572 -6.8551,3.37504 -10,4.62068 -3.1448,1.24564 -8.3962,3.60592 -11.6698,5.245 -5.7852,2.89672 -6.1157,3.00748 -11.8,3.95488 -3.2164,0.53608 -7.5581,1.32312 -9.6481,1.749 -2.09,0.42588 -6.14,0.97148 -9,1.2124 -6.0808,0.51232 -13.412,1.63684 -19.6,3.00644 -2.42,0.53564 -6.38,1.16116 -8.8,1.39008 -5.862,0.55448 -11.6096,1.43336 -18.4,2.81352 -3.08,0.626 -8.39,1.42296 -11.8,1.77096 -9.8383,1.00404 -48.206,1.40392 -59,0.61492 -2.86,-0.20908 -8.89,-0.46208 -13.4,-0.56228 -4.51,-0.10016 -10.63,-0.46004 -13.6,-0.79976 -3.2513,-0.37184 -8.9015,-0.61976 -14.2,-0.62304 -4.9709,-0.004 -11.2366,-0.26432 -14.4,-0.6004 -3.08,-0.32724 -8.93,-0.59836 -13,-0.60248 -4.3646,-0.004 -9.3689,-0.2646 -12.2,-0.63436 -2.64,-0.3448 -9.21,-0.78132 -14.6,-0.97004 -5.39,-0.18872 -11.69,-0.63188 -14,-0.98476 -2.31,-0.35284 -8.79,-0.80564 -14.4,-1.0062 -5.61,-0.20056 -12.09,-0.64608 -14.4,-0.99012 -2.31,-0.344 -8.25,-0.79856 -13.2,-1.01012 -4.95,-0.21156 -9.878,-0.56824 -10.9512,-0.79256 -1.0732,-0.22436 -4.5832,-0.69224 -7.8,-1.03976 -4.8721,-0.5264 -8.9882,-0.59016 -24.6488,-0.382 -24.5959,0.327 -32.1157,1.09336 -47,4.79 -2.97,0.73764 -7.83,1.82304 -10.8,2.412 -2.97,0.58896 -7.5246,1.60152 -10.1213,2.25012 -2.5967,0.6486 -8.1887,1.88888 -12.4267,2.75612 -17.3704,3.55468 -27.9291,7.495 -45.9608,17.1518 -5.8564,3.13636 -9.6221,4.91312 -10.7521,5.07324 -4.0307,0.571 -7.0773,1.89276 -16.5391,7.1754 -3.08,1.7196 -9.02,5.00632 -13.2,7.30388 -4.18,2.29752 -8.6446,4.78908 -9.9214,5.5368 -1.2768,0.74772 -2.4213,1.35948 -2.5433,1.35948 -0.122,0 -2.2274,1.13836 -4.6786,2.52972 -5.4456,3.09104 -10.9716,6.15728 -17.0567,9.4644 -2.53,1.375 -5.95,3.26404 -7.6,4.19784 -5.1384,2.90808 -18.0739,10.05596 -20.8,11.49364 -1.43,0.75416 -4.94,2.68892 -7.8,4.29952 -7.4667,4.20488 -28.7004,15.89396 -32,17.61596 -10.1195,5.28116 -16.2287,9.0488 -22.2,13.69108 -5.7778,4.49184 -10.7559,8.3082 -17.8,13.64576 -8.6879,6.58328 -11.0227,8.97948 -14.4807,14.86208 -5.6988,9.69432 -9.0957,16.00172 -11.8106,21.93002 -1.5289,3.3385 -4.5452,9.94 -6.703,14.67 -7.9591,17.4472 -7.6929,16.9728 -17.3954,31 -10.2827,14.8659 -10.2484,14.8194 -15.2009,20.6476 -1.9852,2.3361 -5.9494,7.0861 -8.8094,10.5554 -11.2093,13.5977 -17.852,21.1658 -26.3285,29.997 -17.7355,18.4774 -19.7607,20.3264 -36.254,33.0976 -2.06,1.5952 -17.739,14.1692 -22.8175,18.2989 -0.99,0.805 -3.96,3.1496 -6.6,5.2102 -2.64,2.0605 -6.0363,4.747 -7.5475,5.9699 -6.881,5.5684 -6.9803,5.6246 -24.0525,13.6221 -5.28,2.4735 -14.01,6.6545 -19.4,9.2911 -13.5527,6.6297 -16.6167,7.9957 -27.2,12.1255 -1.87,0.7297 -7.63,3.0601 -12.8,5.1787 -13.4628,5.5169 -15.0117,6.1441 -18.8,7.612 -1.87,0.7247 -7.45,2.9798 -12.4,5.0115 -4.95,2.0317 -10.53,4.2775 -12.4,4.9906 -1.87,0.7132 -5.47,2.141 -8,3.1731 -4.7465,1.9362 -14.4273,5.3534 -37.6,13.2724 -7.37,2.5186 -14.4802,5.0097 -15.8005,5.5358 -2.7953,1.1137 -14.6055,5.0106 -15.1855,5.0106 -0.3999,0 -7.6716,2.2114 -23.614,7.1812 -27.3093,8.5134 -31.9382,9.7537 -44.2,11.8431 -4.7268,0.8054 -7.0442,1.2712 -12.8,2.573 -0.77,0.1741 -3.29,0.7153 -5.6,1.2027 -2.31,0.4873 -4.83,1.0247 -5.6,1.1943 -5.4974,1.2104 -17.9934,3.7463 -20.8,4.221 -1.87,0.3163 -4.21,0.7577 -5.2,0.9809 -0.99,0.2232 -2.7,0.5843 -3.8,0.8025 -1.9269,0.3822 -4.2203,0.8776 -7.6,1.6416 -0.88,0.1989 -2.5,0.5408 -3.6,0.7597 -1.1,0.2188 -2.72,0.5602 -3.6,0.7586 -3.4427,0.7761 -6.0689,1.3424 -7.6,1.6387 -0.88,0.1703 -3.49,0.7038 -5.8,1.1855 -2.31,0.4818 -5.73,1.1305 -7.6,1.4417 -1.87,0.3113 -4.12,0.7299 -5,0.9303 -7.5529,1.7204 -8.8062,1.9404 -16.2,2.8431 -3.63,0.4432 -7.41,0.9811 -8.4,1.1953 -0.99,0.2142 -4.5,0.6718 -7.8,1.0168 -3.3,0.345 -6.63,0.7864 -7.4,0.9809 -0.77,0.1945 -4.19,0.6473 -7.6,1.0062 -3.41,0.3589 -6.92,0.8205 -7.8,1.0258 -0.88,0.2053 -5.11,0.7424 -9.4,1.1936 -4.28997,0.4512 -8.42997,0.9795 -9.19997,1.1741 -0.77,0.1946 -4.19,0.6438 -7.6,0.9982 -3.41,0.3545 -6.74,0.804 -7.4,0.999 -3.0116,0.8896 -30.5546,2.608 -39.07176,2.4375 -2.12948,-0.043 -5.99948,0.1129 -8.6,0.3456 -4.30052,0.3848 -24.88192,1.0797 -43.12824,1.4563 -3.96,0.082 -10.89001,0.2482 -15.40001,0.3699 -13.39588,0.3616 -16.8584,0.4115 -17.02444,0.2453 z M 173.60001,1036.4 c 0,-0.22 -0.18,-0.4 -0.4,-0.4 -0.22,0 -0.4,0.18 -0.4,0.4 0,0.22 0.18,0.4 0.4,0.4 0.22,0 0.4,-0.18 0.4,-0.4 z m 1391.20009,-353 c 0,-0.43332 -0.4445,-0.6 -1.6,-0.6 -1.1556,0 -1.6,0.16668 -1.6,0.6 0,0.43332 0.4444,0.6 1.6,0.6 1.1555,0 1.6,-0.16668 1.6,-0.6 z M 179.97189,672.1 c -0.0155,-0.165 -0.18281,-0.66 -0.37188,-1.1 -0.30463,-0.70892 -0.34697,-0.67472 -0.37189,0.3 -0.0155,0.605 0.15189,1.1 0.37189,1.1 0.22,0 0.38735,-0.135 0.37188,-0.3 z M 1510.4001,620.4 c 0,-0.50116 -0.4245,-0.50116 -1.2,0 -0.4852,0.31356 -0.4278,0.38892 0.3,0.39388 0.495,0.004 0.9,-0.17388 0.9,-0.39388 z m -1266.00009,-34 c 0,-0.22 -0.0794,-0.4 -0.17639,-0.4 -0.097,0 -0.28764,0.18 -0.42361,0.4 -0.13597,0.22 -0.0566,0.4 0.17639,0.4 0.23299,0 0.42361,-0.18 0.42361,-0.4 z M 2071.6001,492 c 0.4852,-0.31356 0.4277,-0.38892 -0.3,-0.39388 -0.495,-0.004 -0.9,0.17388 -0.9,0.39388 0,0.50116 0.4245,0.50116 1.2,0 z m 1.8917,-0.64168 c -0.133,-0.13292 -0.478,-0.14712 -0.7667,-0.0316 -0.3191,0.12768 -0.2243,0.22248 0.2417,0.24168 0.4216,0.0172 0.6579,-0.0772 0.525,-0.21012 z M 2074.4001,490 c 0,-0.22 -0.18,-0.4 -0.4,-0.4 -0.22,0 -0.4,0.18 -0.4,0.4 0,0.22 0.18,0.4 0.4,0.4 0.22,0 0.4,-0.18 0.4,-0.4 z m 224.408,-28.59032 c -0.2783,-0.33532 -0.7738,-0.60968 -1.1013,-0.60968 -0.4055,0 -0.2943,0.24404 0.349,0.76556 1.0649,0.86336 1.52,0.76908 0.7523,-0.15588 z M 2297.6001,460 c 0,-0.22 -0.1906,-0.4 -0.4236,-0.4 -0.233,0 -0.3124,0.18 -0.1764,0.4 0.136,0.22 0.3266,0.4 0.4236,0.4 0.097,0 0.1764,-0.18 0.1764,-0.4 z m -6.4,-6.43332 c 0,-0.97484 -0.9347,-0.83704 -1.1293,0.16648 -0.077,0.39468 0.1275,0.66684 0.5,0.66684 0.371,0 0.6293,-0.342 0.6293,-0.83332 z m -12.8,-7.96668 c 0,-0.22 -0.1906,-0.4 -0.4236,-0.4 -0.233,0 -0.3124,0.18 -0.1764,0.4 0.136,0.22 0.3266,0.4 0.4236,0.4 0.097,0 0.1764,-0.18 0.1764,-0.4 z M 1154.5055,400.51844 c -0.4919,-0.095 -1.3919,-0.0974 -2,-0.006 -0.608,0.092 -0.2055,0.16964 0.8945,0.17264 1.1,0.004 1.5975,-0.0722 1.1055,-0.16716 z M 192.32501,646.52676 c 0.28875,-0.11556 0.63375,-0.10136 0.76667,0.0316 0.13291,0.13292 -0.10334,0.22748 -0.525,0.21012 -0.46598,-0.0192 -0.56076,-0.114 -0.24167,-0.24168 z M 1803.3077,640.1228 c 0.3892,-0.1014 0.9292,-0.0948 1.2,0.0148 0.2708,0.10956 -0.048,0.19252 -0.7076,0.1844 -0.66,-0.008 -0.8816,-0.0978 -0.4924,-0.19924 z M 1840.0001,622 c 0,-0.22 0.72,-0.4 1.6,-0.4 0.88,0 1.6,0.18 1.6,0.4 0,0.22 -0.72,0.4 -1.6,0.4 -0.88,0 -1.6,-0.18 -1.6,-0.4 z m 6.4,-3.2 c 0,-0.22 0.72,-0.4 1.6,-0.4 0.88,0 1.6,0.18 1.6,0.4 0,0.22 -0.72,0.4 -1.6,0.4 -0.88,0 -1.6,-0.18 -1.6,-0.4 z m 12.8,-6.0236 c 0,-0.233 0.18,-0.31236 0.4,-0.1764 0.22,0.13596 0.4,0.3266 0.4,0.4236 0,0.097 -0.18,0.1764 -0.4,0.1764 -0.22,0 -0.4,-0.19064 -0.4,-0.4236 z m 6.4,-3.1764 c 0,-0.22 0.1906,-0.4 0.4236,-0.4 0.233,0 0.3123,0.18 0.1764,0.4 -0.136,0.22 -0.3266,0.4 -0.4236,0.4 -0.097,0 -0.1764,-0.18 -0.1764,-0.4 z m 3.2,-2.43332 c 0,-0.97484 0.9347,-0.83704 1.1293,0.16648 0.077,0.39468 -0.1275,0.66684 -0.5,0.66684 -0.371,0 -0.6293,-0.342 -0.6293,-0.83332 z m 12.8,-8.36668 c 0,-0.22 0.405,-0.39724 0.9,-0.39388 0.7277,0.005 0.7852,0.0803 0.3,0.39388 -0.7755,0.50116 -1.2,0.50116 -1.2,0 z m 3.2,-0.8 c 0,-0.22 0.18,-0.4 0.4,-0.4 0.22,0 0.4,0.18 0.4,0.4 0,0.22 -0.18,0.4 -0.4,0.4 -0.22,0 -0.4,-0.18 -0.4,-0.4 z m 2.4,-2.3572 c 0,-0.26468 0.8045,-0.4428 2,-0.4428 1.6157,0 2,-0.13068 2,-0.68 0,-0.54156 0.1011,-0.57888 0.4966,-0.18336 0.6666,0.6666 -0.2431,1.24892 -1.9639,1.25724 -0.697,0.004 -1.552,0.11536 -1.9,0.24892 -0.348,0.13352 -0.6327,0.0435 -0.6327,-0.2 z m 5.4775,-1.8986 c -0.417,-0.41704 0.1112,-0.9442 0.9461,-0.9442 0.427,0 0.7764,0.27 0.7764,0.6 0,0.59328 -1.228,0.83868 -1.7225,0.3442 z m 4.9225,-3.35676 c 0,-0.43328 0.2698,-0.78744 0.6,-0.78744 0.33,0 0.6,0.25076 0.6,0.5572 0,0.30648 -0.27,0.6608 -0.6,0.78744 -0.4081,0.1566 -0.6,-0.0216 -0.6,-0.5572 z m 3.2,-1.98744 c 0,-0.22 0.18,-0.4 0.4,-0.4 0.22,0 0.4,0.18 0.4,0.4 0,0.22 -0.18,0.4 -0.4,0.4 -0.22,0 -0.4,-0.18 -0.4,-0.4 z m 2.4,-2.4 c 0,-0.22 0.18,-0.4 0.4,-0.4 0.22,0 0.4,0.18 0.4,0.4 0,0.22 -0.18,0.4 -0.4,0.4 -0.22,0 -0.4,-0.18 -0.4,-0.4 z m 5.2,-2.304 c 0,-0.24052 -0.315,-0.51964 -0.7,-0.62028 -0.6311,-0.16492 -0.6334,-0.18748 -0.024,-0.22932 0.7216,-0.0495 1.3631,0.6474 0.9636,1.04688 -0.132,0.13204 -0.24,0.0432 -0.24,-0.19728 z m 40.4,-29.496 c 0,-0.43332 0.4444,-0.6 1.6,-0.6 1.1555,0 1.6,0.16668 1.6,0.6 0,0.43332 -0.4445,0.6 -1.6,0.6 -1.1556,0 -1.6,-0.16668 -1.6,-0.6 z m 4,-0.2 c 0,-0.22 0.54,-0.4 1.2,-0.4 0.66,0 1.2,0.18 1.2,0.4 0,0.22 -0.54,0.4 -1.2,0.4 -0.66,0 -1.2,-0.18 -1.2,-0.4 z m 21.6,-12 c 0,-0.22 0.18,-0.4 0.4,-0.4 0.22,0 0.4,0.18 0.4,0.4 0,0.22 -0.18,0.4 -0.4,0.4 -0.22,0 -0.4,-0.18 -0.4,-0.4 z m -6.4,-0.6 c 0,-0.45448 0.4921,-0.6 2.0285,-0.6 1.8032,0 1.962,0.0667 1.4286,0.6 -0.33,0.33 -1.2428,0.6 -2.0286,0.6 -1.0031,0 -1.4285,-0.17868 -1.4285,-0.6 z m -531.8,-0.2 c -0.136,-0.22 -0.057,-0.4 0.1764,-0.4 0.2329,0 0.4236,0.18 0.4236,0.4 0,0.22 -0.079,0.4 -0.1764,0.4 -0.097,0 -0.2877,-0.18 -0.4236,-0.4 z m 541.4,-3.2 c 0,-0.22 0.765,-0.39724 1.7,-0.39388 1.245,0.004 1.5394,0.10992 1.1,0.39388 -0.7898,0.5104 -2.8,0.5104 -2.8,0 z M 288.00001,527.4 c 0,-0.43332 0.44445,-0.6 1.6,-0.6 1.15556,0 1.6,0.16668 1.6,0.6 0,0.43332 -0.44444,0.6 -1.6,0.6 -1.15555,0 -1.6,-0.16668 -1.6,-0.6 z m 1723.80009,-8.6 c -0.136,-0.22 0.033,-0.4 0.3764,-0.4 0.3429,0 0.6236,0.18 0.6236,0.4 0,0.22 -0.1694,0.4 -0.3764,0.4 -0.207,0 -0.4877,-0.18 -0.6236,-0.4 z m 16.125,-9.87324 c 0.2887,-0.11556 0.6337,-0.10136 0.7667,0.0316 0.1329,0.13292 -0.1034,0.22748 -0.525,0.21012 -0.466,-0.0192 -0.5608,-0.114 -0.2417,-0.24168 z M 323.20001,506 c 0,-0.22 0.37063,-0.4 0.82361,-0.4 0.45298,0 0.71236,0.18 0.57639,0.4 -0.13597,0.22 -0.50659,0.4 -0.82361,0.4 -0.31701,0 -0.57639,-0.18 -0.57639,-0.4 z M 1358.8917,479.525 c 0.2472,-0.74168 1.1084,-0.86472 1.1084,-0.15832 0,0.34832 -0.285,0.63332 -0.6334,0.63332 -0.3483,0 -0.562,-0.21376 -0.475,-0.475 z m -2.0916,-2.09168 c 0,-0.34832 0.285,-0.63332 0.6333,-0.63332 0.3483,0 0.5621,0.21376 0.475,0.475 -0.2472,0.74168 -1.1083,0.86472 -1.1083,0.15832 z m 752,-5.83332 c 0,-0.50116 0.4245,-0.50116 1.2,0 0.4852,0.31356 0.4277,0.38892 -0.3,0.39388 -0.495,0.004 -0.9,-0.17388 -0.9,-0.39388 z m -763,-0.8 c -0.136,-0.22 0.1234,-0.4 0.5764,-0.4 0.4529,0 0.8236,0.18 0.8236,0.4 0,0.22 -0.2594,0.4 -0.5764,0.4 -0.317,0 -0.6877,-0.18 -0.8236,-0.4 z m 772.925,-0.67324 c 0.2887,-0.11556 0.6337,-0.10136 0.7667,0.0316 0.1329,0.13292 -0.1034,0.22748 -0.525,0.21012 -0.466,-0.0192 -0.5608,-0.114 -0.2417,-0.24168 z m -777.225,-2.80904 c 0.495,-0.0954 1.305,-0.0954 1.8,0 0.495,0.0953 0.09,0.17332 -0.9,0.17332 -0.99,0 -1.395,-0.078 -0.9,-0.17332 z m 796.425,-3.59096 c 0.2887,-0.11556 0.6337,-0.10136 0.7667,0.0316 0.1329,0.13292 -0.1034,0.22748 -0.525,0.21012 -0.466,-0.0192 -0.5608,-0.114 -0.2417,-0.24168 z m 9.575,-3.19168 c 0.275,-0.11096 0.725,-0.11096 1,0 0.275,0.11096 0.05,0.20176 -0.5,0.20176 -0.55,0 -0.775,-0.0908 -0.5,-0.20176 z m -0.3,-1.7516 v -1.1416 l 3.2,0.0212 c 1.76,0.0116 3.2,0.18212 3.2,0.37904 0,0.39616 -1.4096,0.54916 -3.6977,0.40136 -1.1612,-0.075 -1.4482,0.0324 -1.2774,0.4774 0.1364,0.3556 -0.093,0.65608 -0.6023,0.78932 -0.6883,0.17996 -0.8226,0.0288 -0.8226,-0.92652 z m -835.2,-6.18348 c 0,-0.43332 0.4444,-0.6 1.6,-0.6 1.1555,0 1.6,0.16668 1.6,0.6 0,0.43332 -0.4445,0.6 -1.6,0.6 -1.1556,0 -1.6,-0.16668 -1.6,-0.6 z m -918.40008,-1.4 c 0,-1.13332 0.0889,-1.2 1.6,-1.2 1.51111,0 1.6,0.0667 1.6,1.2 0,1.13332 -0.0889,1.2 -1.6,1.2 -1.51112,0 -1.6,-0.0667 -1.6,-1.2 z m 905.60008,-5 c 0,-0.43332 0.4444,-0.6 1.6,-0.6 1.1555,0 1.6,0.16668 1.6,0.6 0,0.43332 -0.4445,0.6 -1.6,0.6 -1.1556,0 -1.6,-0.16668 -1.6,-0.6 z m -892.80008,-1 c 0,-0.22 0.27,-0.4 0.6,-0.4 0.33,0 0.6,0.18 0.6,0.4 0,0.22 -0.27,0.4 -0.6,0.4 -0.33,0 -0.6,-0.18 -0.6,-0.4 z m 875.00008,-6.4 c -0.1402,-0.22688 0.1958,-0.4 0.7764,-0.4 0.5629,0 1.0236,0.18 1.0236,0.4 0,0.22 -0.3494,0.4 -0.7764,0.4 -0.427,0 -0.8877,-0.18 -1.0236,-0.4 z m -14.2,-5.54316 c 0,-0.18876 -0.765,-0.52712 -1.7,-0.75196 -1.615,-0.38836 -1.5349,-0.4112 1.6,-0.45684 3.0493,-0.0444 3.3,0.0128 3.3,0.75196 0,0.66668 -0.2667,0.8 -1.6,0.8 -0.88,0 -1.6,-0.15444 -1.6,-0.34316 z M 1250.4,426 c -0.5127,-0.33136 -0.4982,-0.38864 0.1,-0.39388 0.385,-0.004 0.7,0.17388 0.7,0.39388 0,0.48784 -0.045,0.48784 -0.8,0 z m -802.39998,-3.2 c 0,-0.22 0.27,-0.4 0.6,-0.4 0.33,0 0.6,0.18 0.6,0.4 0,0.22 -0.27,0.4 -0.6,0.4 -0.33,0 -0.6,-0.18 -0.6,-0.4 z M 1222.4,417.2 c 0,-0.22 0.72,-0.4 1.6,-0.4 0.88,0 1.6,0.18 1.6,0.4 0,0.22 -0.72,0.4 -1.6,0.4 -0.88,0 -1.6,-0.18 -1.6,-0.4 z m -761.59998,-0.8 c 0,-0.22 0.28064,-0.4 0.6236,-0.4 0.343,0 0.51236,0.18 0.3764,0.4 -0.13596,0.22 -0.4166,0.4 -0.6236,0.4 -0.20704,0 -0.3764,-0.18 -0.3764,-0.4 z M 1207.1,412.91772 c 0.495,-0.0954 1.305,-0.0954 1.8,0 0.495,0.0953 0.09,0.17332 -0.9,0.17332 -0.99,0 -1.395,-0.078 -0.9,-0.17332 z m -6.4,-1.2 c 0.495,-0.0954 1.305,-0.0954 1.8,0 0.495,0.0953 0.09,0.17332 -0.9,0.17332 -0.99,0 -1.395,-0.078 -0.9,-0.17332 z m 0,-1.2 c 0.495,-0.0954 1.305,-0.0954 1.8,0 0.495,0.0953 0.09,0.17332 -0.9,0.17332 -0.99,0 -1.395,-0.078 -0.9,-0.17332 z m -17.6614,-3.38016 c 0.2044,-0.3306 -0.074,-0.39044 -0.9764,-0.21 -0.7258,0.14516 -1.2622,0.0867 -1.2622,-0.13756 0,-0.22748 1.3753,-0.36088 3.3,-0.32012 1.8295,0.0388 2.5425,0.13812 1.6,0.223 -0.935,0.0842 -1.7,0.32276 -1.7,0.53012 0,0.20736 -0.2806,0.377 -0.6236,0.377 -0.37,0 -0.5074,-0.18804 -0.3378,-0.46244 z m -672.53858,-5.83044 c -1.14356,-0.103 -1.7,-0.34196 -1.7,-0.73012 0,-0.4546 0.67892,-0.577 3.2,-0.577 2.93332,0 3.2,0.0667 3.2,0.8 0,0.84628 -0.42512,0.89216 -4.7,0.50712 z m 25.6,-6.4 c -1.14356,-0.103 -1.7,-0.34198 -1.7,-0.73012 0,-0.45458 0.67892,-0.577 3.2,-0.577 2.93332,0 3.2,0.0667 3.2,0.8 0,0.84628 -0.42512,0.89215 -4.7,0.50712 z m 23.9,-7.13238 c 0,-0.74476 5.87488,-0.79805 6.83688,-0.062 0.51628,0.39504 -0.0705,0.50143 -3.1,0.56202 -3.01668,0.0603 -3.73688,-0.036 -3.73688,-0.5 z m 537.15368,0.4456 c -0.1263,-0.12631 -1.5625,-0.3842 -3.1917,-0.5731 -2.6473,-0.30696 -2.2714,-0.34896 3.538,-0.39534 5.5342,-0.0442 6.5,0.0372 6.5,0.5481 0,0.43333 -0.4444,0.6 -1.6,0.6 -0.88,0 -1.6,-0.18 -1.6,-0.4 0,-0.5379 -3.0952,-0.51427 -3.275,0.025 -0.078,0.23375 -0.245,0.32166 -0.3713,0.19534 z m -528.65368,-0.91173 c 0.825,-0.0863 2.175,-0.0863 3,0 0.825,0.0863 0.15,0.15691 -1.5,0.15691 -1.65,0 -2.325,-0.0706 -1.5,-0.15691 z m 23.5,-5.90861 c 0,-0.50448 0.78004,-0.58888 4.9,-0.53012 2.695,0.0384 4.135,0.13879 3.2,0.223 -0.935,0.0842 -1.7,0.32277 -1.7,0.53012 0,0.20735 -1.44,0.377 -3.2,0.377 -2.57776,0 -3.2,-0.11667 -3.2,-0.6 z M 1066.3,381.71771 c 0.495,-0.0953 1.305,-0.0953 1.8,0 0.495,0.0953 0.09,0.17335 -0.9,0.17335 -0.99,0 -1.395,-0.078 -0.9,-0.17335 z m 0.8,-0.81059 c 0.935,-0.0842 2.465,-0.0842 3.4,0 0.935,0.0842 0.17,0.15312 -1.7,0.15312 -1.87,0 -2.635,-0.0689 -1.7,-0.15312 z M 627.20003,378.2 c 0,-0.43333 0.44444,-0.6 1.6,-0.6 1.15556,0 1.6,0.16667 1.6,0.6 0,0.43333 -0.44444,0.6 -1.6,0.6 -1.15556,0 -1.6,-0.16667 -1.6,-0.6 z M 1056,378 c 0,-0.22 0.72,-0.4 1.6,-0.4 0.88,0 1.6,0.18 1.6,0.4 0,0.22 -0.72,0.4 -1.6,0.4 -0.88,0 -1.6,-0.18 -1.6,-0.4 z m -20.6,-2.77188 1.6,-0.27986 -1.8,-0.20425 c -1.3352,-0.15151 -0.9479,-0.22229 1.5,-0.27413 1.98,-0.0419 3.3,0.0901 3.3,0.33012 0,0.22 -0.3336,0.4 -0.7413,0.4 -0.4077,0 -1.8027,0.0693 -3.1,0.15399 -1.8001,0.11752 -1.9797,0.0877 -0.7587,-0.12587 z m -397.09997,-0.721 c 0.935,-0.0842 2.465,-0.0842 3.4,0 0.935,0.0842 0.17,0.15312 -1.7,0.15312 -1.87,0 -2.635,-0.0689 -1.7,-0.15312 z m 8.8,0.0106 c 0.495,-0.0953 1.305,-0.0953 1.8,0 0.495,0.0953 0.09,0.17334 -0.9,0.17334 -0.99,0 -1.395,-0.078 -0.9,-0.17334 z m 9.6,0 c 0.495,-0.0953 1.305,-0.0953 1.8,0 0.495,0.0953 0.09,0.17334 -0.9,0.17334 -0.99,0 -1.395,-0.078 -0.9,-0.17334 z m 6.4,0 c 0.495,-0.0953 1.305,-0.0953 1.8,0 0.495,0.0953 0.09,0.17334 -0.9,0.17334 -0.99,0 -1.395,-0.078 -0.9,-0.17334 z m 66.5,-5.50541 c 0,-0.47809 -0.91384,-0.61115 -4.9,-0.71351 -2.695,-0.0692 -1.21,-0.1333 3.3,-0.14243 4.51,-0.009 7.435,0.0523 6.5,0.13651 -1.14356,0.103 -1.7,0.34198 -1.7,0.73012 0,0.4065 -0.4728,0.577 -1.6,0.577 -1.14064,0 -1.6,-0.16872 -1.6,-0.58769 z M 1003.2,368.4 c -1.5439,-0.24003 -1.3305,-0.28839 1.5,-0.33992 1.9734,-0.0359 3.3,0.10072 3.3,0.33992 0,0.43748 -1.986,0.43748 -4.8,0 z m -256.09997,-3.49288 c 0.935,-0.0842 2.465,-0.0842 3.4,0 0.935,0.0842 0.17,0.15312 -1.7,0.15312 -1.87,0 -2.635,-0.0689 -1.7,-0.15312 z m 207.20001,-2.38941 c 0.495,-0.0953 1.305,-0.0953 1.8,0 0.495,0.0953 0.09,0.17335 -0.9,0.17335 -0.99,0 -1.395,-0.078 -0.9,-0.17335 z m 0,-0.81606 c 2.255,-0.0713 5.945,-0.0713 8.2,0 2.255,0.0713 0.41,0.12963 -4.1,0.12963 -4.51,0 -6.355,-0.0583 -4.1,-0.12963 z m -145.60001,-3.19781 c 1.375,-0.0781 3.625,-0.0781 5,0 1.375,0.0781 0.25,0.14202 -2.5,0.14202 -2.75,0 -3.875,-0.0639 -2.5,-0.14202 z m 140.52193,-3.56454 c 0.61196,-0.16519 0.75604,-2.00412 0.22448,-2.86424 -0.13056,-0.21126 0.1204,-0.47767 0.55772,-0.59203 0.43728,-0.11436 0.89588,-0.0448 1.01908,0.15452 0.1232,0.19935 0.0336,0.36245 -0.1996,0.36245 -0.23296,0 -0.4236,0.72 -0.4236,1.6 0,1.40634 -0.10892,1.59438 -0.9,1.5536 -0.5434,-0.028 -0.65356,-0.11293 -0.27808,-0.2143 z m -116.92193,-9.20421 c 0.275,-0.11097 0.725,-0.11097 1,0 0.275,0.11096 0.05,0.20175 -0.5,0.20175 -0.55,0 -0.775,-0.0908 -0.5,-0.20175 z m -3.5,-3.7587 c 0,-0.23298 0.18,-0.31236 0.4,-0.17639 0.22,0.13597 0.4,0.32659 0.4,0.42361 0,0.097 -0.18,0.17639 -0.4,0.17639 -0.22,0 -0.4,-0.19062 -0.4,-0.42361 z m 0,-3.4 c 0,-0.34298 0.18,-0.51236 0.4,-0.37639 0.22,0.13597 0.4,0.41659 0.4,0.62361 0,0.20701 -0.18,0.37639 -0.4,0.37639 -0.22,0 -0.4,-0.28062 -0.4,-0.62361 z m 131.00405,-2.98291 c 0.13816,-0.22359 0.4188,-0.30297 0.6236,-0.1764 0.5548,0.3429 0.45136,0.58292 -0.25124,0.58292 -0.343,0 -0.51056,-0.18294 -0.37236,-0.40652 z m 2.19596,-1.3445 c 0,-1.06848 0.23388,-1.94512 0.6,-2.24898 0.52124,-0.43258 0.6,-0.20272 0.6,1.75102 0,1.73243 -0.1378,2.24898 -0.6,2.24898 -0.44196,0 -0.6,-0.46122 -0.6,-1.75102 z m 6.8,-38.24898 c 0,-0.88 0.18,-1.6 0.4,-1.6 0.22,0 0.4,0.72 0.4,1.6 0,0.88 -0.18,1.6 -0.4,1.6 -0.22,0 -0.4,-0.72 -0.4,-1.6 z m -18.4,-39.6 c 0,-0.22 0.46064,-0.4 1.0236,-0.4 0.58056,0 0.9166,0.17314 0.7764,0.4 -0.13596,0.22 -0.5966,0.4 -1.0236,0.4 -0.42704,0 -0.7764,-0.18 -0.7764,-0.4 z m -3.2,-42.6 c 0,-0.43333 0.44444,-0.6 1.6,-0.6 1.15556,0 1.6,0.16667 1.6,0.6 0,0.43333 -0.44444,0.6 -1.6,0.6 -1.15556,0 -1.6,-0.16667 -1.6,-0.6 z"
       style="fill:#000000;stroke-width:0.40000001" />
    </clipPath>
  </defs>
  <image href="kyusu.jpg" clip-path="url(#kyusu)" x="0" y="0" height="1440" width="2505">
  </image>
</svg>